%TF.GenerationSoftware,KiCad,Pcbnew,9.0.2-9.0.2-0~ubuntu22.04.1*%
%TF.CreationDate,2025-06-09T06:08:29+02:00*%
%TF.ProjectId,passive_PSU_Rev-A,70617373-6976-4655-9f50-53555f526576,rev?*%
%TF.SameCoordinates,Original*%
%TF.FileFunction,Drillmap*%
%TF.FilePolarity,Positive*%
%FSLAX45Y45*%
G04 Gerber Fmt 4.5, Leading zero omitted, Abs format (unit mm)*
G04 Created by KiCad (PCBNEW 9.0.2-9.0.2-0~ubuntu22.04.1) date 2025-06-09 06:08:29*
%MOMM*%
%LPD*%
G01*
G04 APERTURE LIST*
%ADD10C,0.050000*%
%ADD11C,0.200000*%
G04 APERTURE END LIST*
D10*
X5000000Y-7000000D02*
X5000000Y-9000000D01*
X5250000Y-9250000D02*
X18750000Y-9250000D01*
X19000000Y-9000000D02*
G75*
G02*
X18750000Y-9250000I-250000J0D01*
G01*
X19000000Y-7000000D02*
X19000000Y-9000000D01*
X5250000Y-6750000D02*
X18750000Y-6750000D01*
X18750000Y-6750000D02*
G75*
G02*
X19000000Y-7000000I0J-250000D01*
G01*
X5250000Y-9250000D02*
G75*
G02*
X5000000Y-9000000I0J250000D01*
G01*
X5000000Y-7000000D02*
G75*
G02*
X5250000Y-6750000I250000J0D01*
G01*
D11*
X5258277Y-9563984D02*
X5258277Y-9363984D01*
X5258277Y-9363984D02*
X5305896Y-9363984D01*
X5305896Y-9363984D02*
X5334467Y-9373508D01*
X5334467Y-9373508D02*
X5353515Y-9392555D01*
X5353515Y-9392555D02*
X5363039Y-9411603D01*
X5363039Y-9411603D02*
X5372563Y-9449698D01*
X5372563Y-9449698D02*
X5372563Y-9478270D01*
X5372563Y-9478270D02*
X5363039Y-9516365D01*
X5363039Y-9516365D02*
X5353515Y-9535412D01*
X5353515Y-9535412D02*
X5334467Y-9554460D01*
X5334467Y-9554460D02*
X5305896Y-9563984D01*
X5305896Y-9563984D02*
X5258277Y-9563984D01*
X5458277Y-9563984D02*
X5458277Y-9430650D01*
X5458277Y-9468746D02*
X5467801Y-9449698D01*
X5467801Y-9449698D02*
X5477324Y-9440174D01*
X5477324Y-9440174D02*
X5496372Y-9430650D01*
X5496372Y-9430650D02*
X5515420Y-9430650D01*
X5582086Y-9563984D02*
X5582086Y-9430650D01*
X5582086Y-9363984D02*
X5572563Y-9373508D01*
X5572563Y-9373508D02*
X5582086Y-9383031D01*
X5582086Y-9383031D02*
X5591610Y-9373508D01*
X5591610Y-9373508D02*
X5582086Y-9363984D01*
X5582086Y-9363984D02*
X5582086Y-9383031D01*
X5705896Y-9563984D02*
X5686848Y-9554460D01*
X5686848Y-9554460D02*
X5677324Y-9535412D01*
X5677324Y-9535412D02*
X5677324Y-9363984D01*
X5810658Y-9563984D02*
X5791610Y-9554460D01*
X5791610Y-9554460D02*
X5782086Y-9535412D01*
X5782086Y-9535412D02*
X5782086Y-9363984D01*
X6039229Y-9563984D02*
X6039229Y-9363984D01*
X6039229Y-9363984D02*
X6105896Y-9506841D01*
X6105896Y-9506841D02*
X6172562Y-9363984D01*
X6172562Y-9363984D02*
X6172562Y-9563984D01*
X6353515Y-9563984D02*
X6353515Y-9459222D01*
X6353515Y-9459222D02*
X6343991Y-9440174D01*
X6343991Y-9440174D02*
X6324943Y-9430650D01*
X6324943Y-9430650D02*
X6286848Y-9430650D01*
X6286848Y-9430650D02*
X6267801Y-9440174D01*
X6353515Y-9554460D02*
X6334467Y-9563984D01*
X6334467Y-9563984D02*
X6286848Y-9563984D01*
X6286848Y-9563984D02*
X6267801Y-9554460D01*
X6267801Y-9554460D02*
X6258277Y-9535412D01*
X6258277Y-9535412D02*
X6258277Y-9516365D01*
X6258277Y-9516365D02*
X6267801Y-9497317D01*
X6267801Y-9497317D02*
X6286848Y-9487793D01*
X6286848Y-9487793D02*
X6334467Y-9487793D01*
X6334467Y-9487793D02*
X6353515Y-9478270D01*
X6448753Y-9430650D02*
X6448753Y-9630650D01*
X6448753Y-9440174D02*
X6467801Y-9430650D01*
X6467801Y-9430650D02*
X6505896Y-9430650D01*
X6505896Y-9430650D02*
X6524943Y-9440174D01*
X6524943Y-9440174D02*
X6534467Y-9449698D01*
X6534467Y-9449698D02*
X6543991Y-9468746D01*
X6543991Y-9468746D02*
X6543991Y-9525889D01*
X6543991Y-9525889D02*
X6534467Y-9544936D01*
X6534467Y-9544936D02*
X6524943Y-9554460D01*
X6524943Y-9554460D02*
X6505896Y-9563984D01*
X6505896Y-9563984D02*
X6467801Y-9563984D01*
X6467801Y-9563984D02*
X6448753Y-9554460D01*
X6629705Y-9544936D02*
X6639229Y-9554460D01*
X6639229Y-9554460D02*
X6629705Y-9563984D01*
X6629705Y-9563984D02*
X6620182Y-9554460D01*
X6620182Y-9554460D02*
X6629705Y-9544936D01*
X6629705Y-9544936D02*
X6629705Y-9563984D01*
X6629705Y-9440174D02*
X6639229Y-9449698D01*
X6639229Y-9449698D02*
X6629705Y-9459222D01*
X6629705Y-9459222D02*
X6620182Y-9449698D01*
X6620182Y-9449698D02*
X6629705Y-9440174D01*
X6629705Y-9440174D02*
X6629705Y-9459222D01*
M02*
