G04 #@! TF.GenerationSoftware,KiCad,Pcbnew,9.0.2-9.0.2-0~ubuntu22.04.1*
G04 #@! TF.CreationDate,2025-06-09T06:08:18+02:00*
G04 #@! TF.ProjectId,passive_PSU_Rev-A,70617373-6976-4655-9f50-53555f526576,rev?*
G04 #@! TF.SameCoordinates,Original*
G04 #@! TF.FileFunction,Legend,Bot*
G04 #@! TF.FilePolarity,Positive*
%FSLAX46Y46*%
G04 Gerber Fmt 4.6, Leading zero omitted, Abs format (unit mm)*
G04 Created by KiCad (PCBNEW 9.0.2-9.0.2-0~ubuntu22.04.1) date 2025-06-09 06:08:18*
%MOMM*%
%LPD*%
G01*
G04 APERTURE LIST*
%ADD10C,0.100000*%
%ADD11C,1.600000*%
%ADD12R,2.400000X2.400000*%
%ADD13C,2.400000*%
%ADD14C,3.000000*%
%ADD15C,2.000000*%
%ADD16O,1.600000X1.600000*%
%ADD17C,3.600000*%
%ADD18C,5.600000*%
%ADD19O,2.400000X2.400000*%
G04 APERTURE END LIST*
D10*
X124404761Y-78985780D02*
X124404761Y-79985780D01*
X124404761Y-79033399D02*
X124309523Y-78985780D01*
X124309523Y-78985780D02*
X124119047Y-78985780D01*
X124119047Y-78985780D02*
X124023809Y-79033399D01*
X124023809Y-79033399D02*
X123976190Y-79081018D01*
X123976190Y-79081018D02*
X123928571Y-79176256D01*
X123928571Y-79176256D02*
X123928571Y-79461970D01*
X123928571Y-79461970D02*
X123976190Y-79557208D01*
X123976190Y-79557208D02*
X124023809Y-79604828D01*
X124023809Y-79604828D02*
X124119047Y-79652447D01*
X124119047Y-79652447D02*
X124309523Y-79652447D01*
X124309523Y-79652447D02*
X124404761Y-79604828D01*
X123071428Y-79652447D02*
X123071428Y-79128637D01*
X123071428Y-79128637D02*
X123119047Y-79033399D01*
X123119047Y-79033399D02*
X123214285Y-78985780D01*
X123214285Y-78985780D02*
X123404761Y-78985780D01*
X123404761Y-78985780D02*
X123499999Y-79033399D01*
X123071428Y-79604828D02*
X123166666Y-79652447D01*
X123166666Y-79652447D02*
X123404761Y-79652447D01*
X123404761Y-79652447D02*
X123499999Y-79604828D01*
X123499999Y-79604828D02*
X123547618Y-79509589D01*
X123547618Y-79509589D02*
X123547618Y-79414351D01*
X123547618Y-79414351D02*
X123499999Y-79319113D01*
X123499999Y-79319113D02*
X123404761Y-79271494D01*
X123404761Y-79271494D02*
X123166666Y-79271494D01*
X123166666Y-79271494D02*
X123071428Y-79223875D01*
X122642856Y-79604828D02*
X122547618Y-79652447D01*
X122547618Y-79652447D02*
X122357142Y-79652447D01*
X122357142Y-79652447D02*
X122261904Y-79604828D01*
X122261904Y-79604828D02*
X122214285Y-79509589D01*
X122214285Y-79509589D02*
X122214285Y-79461970D01*
X122214285Y-79461970D02*
X122261904Y-79366732D01*
X122261904Y-79366732D02*
X122357142Y-79319113D01*
X122357142Y-79319113D02*
X122499999Y-79319113D01*
X122499999Y-79319113D02*
X122595237Y-79271494D01*
X122595237Y-79271494D02*
X122642856Y-79176256D01*
X122642856Y-79176256D02*
X122642856Y-79128637D01*
X122642856Y-79128637D02*
X122595237Y-79033399D01*
X122595237Y-79033399D02*
X122499999Y-78985780D01*
X122499999Y-78985780D02*
X122357142Y-78985780D01*
X122357142Y-78985780D02*
X122261904Y-79033399D01*
X121833332Y-79604828D02*
X121738094Y-79652447D01*
X121738094Y-79652447D02*
X121547618Y-79652447D01*
X121547618Y-79652447D02*
X121452380Y-79604828D01*
X121452380Y-79604828D02*
X121404761Y-79509589D01*
X121404761Y-79509589D02*
X121404761Y-79461970D01*
X121404761Y-79461970D02*
X121452380Y-79366732D01*
X121452380Y-79366732D02*
X121547618Y-79319113D01*
X121547618Y-79319113D02*
X121690475Y-79319113D01*
X121690475Y-79319113D02*
X121785713Y-79271494D01*
X121785713Y-79271494D02*
X121833332Y-79176256D01*
X121833332Y-79176256D02*
X121833332Y-79128637D01*
X121833332Y-79128637D02*
X121785713Y-79033399D01*
X121785713Y-79033399D02*
X121690475Y-78985780D01*
X121690475Y-78985780D02*
X121547618Y-78985780D01*
X121547618Y-78985780D02*
X121452380Y-79033399D01*
X120976189Y-79652447D02*
X120976189Y-78985780D01*
X120976189Y-78652447D02*
X121023808Y-78700066D01*
X121023808Y-78700066D02*
X120976189Y-78747685D01*
X120976189Y-78747685D02*
X120928570Y-78700066D01*
X120928570Y-78700066D02*
X120976189Y-78652447D01*
X120976189Y-78652447D02*
X120976189Y-78747685D01*
X120595237Y-78985780D02*
X120357142Y-79652447D01*
X120357142Y-79652447D02*
X120119047Y-78985780D01*
X119357142Y-79604828D02*
X119452380Y-79652447D01*
X119452380Y-79652447D02*
X119642856Y-79652447D01*
X119642856Y-79652447D02*
X119738094Y-79604828D01*
X119738094Y-79604828D02*
X119785713Y-79509589D01*
X119785713Y-79509589D02*
X119785713Y-79128637D01*
X119785713Y-79128637D02*
X119738094Y-79033399D01*
X119738094Y-79033399D02*
X119642856Y-78985780D01*
X119642856Y-78985780D02*
X119452380Y-78985780D01*
X119452380Y-78985780D02*
X119357142Y-79033399D01*
X119357142Y-79033399D02*
X119309523Y-79128637D01*
X119309523Y-79128637D02*
X119309523Y-79223875D01*
X119309523Y-79223875D02*
X119785713Y-79319113D01*
X118119046Y-79652447D02*
X118119046Y-78652447D01*
X118119046Y-78652447D02*
X117738094Y-78652447D01*
X117738094Y-78652447D02*
X117642856Y-78700066D01*
X117642856Y-78700066D02*
X117595237Y-78747685D01*
X117595237Y-78747685D02*
X117547618Y-78842923D01*
X117547618Y-78842923D02*
X117547618Y-78985780D01*
X117547618Y-78985780D02*
X117595237Y-79081018D01*
X117595237Y-79081018D02*
X117642856Y-79128637D01*
X117642856Y-79128637D02*
X117738094Y-79176256D01*
X117738094Y-79176256D02*
X118119046Y-79176256D01*
X117166665Y-79604828D02*
X117023808Y-79652447D01*
X117023808Y-79652447D02*
X116785713Y-79652447D01*
X116785713Y-79652447D02*
X116690475Y-79604828D01*
X116690475Y-79604828D02*
X116642856Y-79557208D01*
X116642856Y-79557208D02*
X116595237Y-79461970D01*
X116595237Y-79461970D02*
X116595237Y-79366732D01*
X116595237Y-79366732D02*
X116642856Y-79271494D01*
X116642856Y-79271494D02*
X116690475Y-79223875D01*
X116690475Y-79223875D02*
X116785713Y-79176256D01*
X116785713Y-79176256D02*
X116976189Y-79128637D01*
X116976189Y-79128637D02*
X117071427Y-79081018D01*
X117071427Y-79081018D02*
X117119046Y-79033399D01*
X117119046Y-79033399D02*
X117166665Y-78938161D01*
X117166665Y-78938161D02*
X117166665Y-78842923D01*
X117166665Y-78842923D02*
X117119046Y-78747685D01*
X117119046Y-78747685D02*
X117071427Y-78700066D01*
X117071427Y-78700066D02*
X116976189Y-78652447D01*
X116976189Y-78652447D02*
X116738094Y-78652447D01*
X116738094Y-78652447D02*
X116595237Y-78700066D01*
X116166665Y-78652447D02*
X116166665Y-79461970D01*
X116166665Y-79461970D02*
X116119046Y-79557208D01*
X116119046Y-79557208D02*
X116071427Y-79604828D01*
X116071427Y-79604828D02*
X115976189Y-79652447D01*
X115976189Y-79652447D02*
X115785713Y-79652447D01*
X115785713Y-79652447D02*
X115690475Y-79604828D01*
X115690475Y-79604828D02*
X115642856Y-79557208D01*
X115642856Y-79557208D02*
X115595237Y-79461970D01*
X115595237Y-79461970D02*
X115595237Y-78652447D01*
X121309524Y-81262391D02*
X121642857Y-80786200D01*
X121880952Y-81262391D02*
X121880952Y-80262391D01*
X121880952Y-80262391D02*
X121500000Y-80262391D01*
X121500000Y-80262391D02*
X121404762Y-80310010D01*
X121404762Y-80310010D02*
X121357143Y-80357629D01*
X121357143Y-80357629D02*
X121309524Y-80452867D01*
X121309524Y-80452867D02*
X121309524Y-80595724D01*
X121309524Y-80595724D02*
X121357143Y-80690962D01*
X121357143Y-80690962D02*
X121404762Y-80738581D01*
X121404762Y-80738581D02*
X121500000Y-80786200D01*
X121500000Y-80786200D02*
X121880952Y-80786200D01*
X120500000Y-81214772D02*
X120595238Y-81262391D01*
X120595238Y-81262391D02*
X120785714Y-81262391D01*
X120785714Y-81262391D02*
X120880952Y-81214772D01*
X120880952Y-81214772D02*
X120928571Y-81119533D01*
X120928571Y-81119533D02*
X120928571Y-80738581D01*
X120928571Y-80738581D02*
X120880952Y-80643343D01*
X120880952Y-80643343D02*
X120785714Y-80595724D01*
X120785714Y-80595724D02*
X120595238Y-80595724D01*
X120595238Y-80595724D02*
X120500000Y-80643343D01*
X120500000Y-80643343D02*
X120452381Y-80738581D01*
X120452381Y-80738581D02*
X120452381Y-80833819D01*
X120452381Y-80833819D02*
X120928571Y-80929057D01*
X120119047Y-80595724D02*
X119880952Y-81262391D01*
X119880952Y-81262391D02*
X119642857Y-80595724D01*
X118547618Y-80976676D02*
X118071428Y-80976676D01*
X118642856Y-81262391D02*
X118309523Y-80262391D01*
X118309523Y-80262391D02*
X117976190Y-81262391D01*
%LPC*%
D11*
X88555000Y-80000000D03*
X111455000Y-80000000D03*
D12*
X150987246Y-80000000D03*
D13*
X158487246Y-80000000D03*
D14*
X57500000Y-80000000D03*
D15*
X62500000Y-80000000D03*
X67500000Y-80000000D03*
D14*
X187500000Y-80000000D03*
D11*
X67150000Y-85000000D03*
D16*
X79850000Y-85000000D03*
D11*
X67150000Y-75000000D03*
D16*
X79850000Y-75000000D03*
D12*
X167987246Y-80000000D03*
D13*
X175487246Y-80000000D03*
D14*
X52500000Y-80000000D03*
D11*
X113650000Y-75000000D03*
D16*
X126350000Y-75000000D03*
D11*
X113650000Y-85000000D03*
D16*
X126350000Y-85000000D03*
D17*
X186500000Y-89000000D03*
D18*
X186500000Y-89000000D03*
D12*
X133987246Y-80000000D03*
D13*
X141487246Y-80000000D03*
D14*
X182500000Y-80000000D03*
D17*
X53500000Y-89000000D03*
D18*
X53500000Y-89000000D03*
D17*
X186500000Y-71000000D03*
D18*
X186500000Y-71000000D03*
D12*
X71650000Y-80000000D03*
D19*
X84350000Y-80000000D03*
D17*
X53500000Y-71000000D03*
D18*
X53500000Y-71000000D03*
%LPD*%
M02*
