M48
; DRILL file {KiCad 9.0.2-9.0.2-0~ubuntu22.04.1} date 2025-06-09T06:08:29+0200
; FORMAT={-:-/ absolute / metric / decimal}
; #@! TF.CreationDate,2025-06-09T06:08:29+02:00
; #@! TF.GenerationSoftware,Kicad,Pcbnew,9.0.2-9.0.2-0~ubuntu22.04.1
; #@! TF.FileFunction,Plated,1,2,PTH
FMAT,2
METRIC
; #@! TA.AperFunction,Plated,PTH,ComponentDrill
T1C0.800
; #@! TA.AperFunction,Plated,PTH,ComponentDrill
T2C1.000
; #@! TA.AperFunction,Plated,PTH,ComponentDrill
T3C1.200
; #@! TA.AperFunction,Plated,PTH,ComponentDrill
T4C1.500
; #@! TA.AperFunction,Plated,PTH,ComponentDrill
T5C3.200
%
G90
G05
T1
X67.15Y-75.0
X67.15Y-85.0
X79.85Y-75.0
X79.85Y-85.0
X88.555Y-80.0
X111.455Y-80.0
X113.65Y-75.0
X113.65Y-85.0
X126.35Y-75.0
X126.35Y-85.0
T2
X62.5Y-80.0
X67.5Y-80.0
T3
X71.65Y-80.0
X84.35Y-80.0
X133.987Y-80.0
X141.487Y-80.0
X150.987Y-80.0
X158.487Y-80.0
X167.987Y-80.0
X175.487Y-80.0
T4
X52.5Y-80.0
X57.5Y-80.0
X182.5Y-80.0
X187.5Y-80.0
T5
X53.5Y-71.0
X53.5Y-89.0
X186.5Y-71.0
X186.5Y-89.0
M30
