G04 #@! TF.GenerationSoftware,KiCad,Pcbnew,9.0.2-9.0.2-0~ubuntu22.04.1*
G04 #@! TF.CreationDate,2025-06-09T06:08:17+02:00*
G04 #@! TF.ProjectId,passive_PSU_Rev-A,70617373-6976-4655-9f50-53555f526576,rev?*
G04 #@! TF.SameCoordinates,Original*
G04 #@! TF.FileFunction,Copper,L1,Top*
G04 #@! TF.FilePolarity,Positive*
%FSLAX46Y46*%
G04 Gerber Fmt 4.6, Leading zero omitted, Abs format (unit mm)*
G04 Created by KiCad (PCBNEW 9.0.2-9.0.2-0~ubuntu22.04.1) date 2025-06-09 06:08:17*
%MOMM*%
%LPD*%
G01*
G04 APERTURE LIST*
G04 #@! TA.AperFunction,ComponentPad*
%ADD10C,1.600000*%
G04 #@! TD*
G04 #@! TA.AperFunction,ComponentPad*
%ADD11R,2.400000X2.400000*%
G04 #@! TD*
G04 #@! TA.AperFunction,ComponentPad*
%ADD12C,2.400000*%
G04 #@! TD*
G04 #@! TA.AperFunction,ComponentPad*
%ADD13C,3.000000*%
G04 #@! TD*
G04 #@! TA.AperFunction,ComponentPad*
%ADD14C,2.000000*%
G04 #@! TD*
G04 #@! TA.AperFunction,ComponentPad*
%ADD15O,1.600000X1.600000*%
G04 #@! TD*
G04 #@! TA.AperFunction,ComponentPad*
%ADD16C,3.600000*%
G04 #@! TD*
G04 #@! TA.AperFunction,ConnectorPad*
%ADD17C,5.600000*%
G04 #@! TD*
G04 #@! TA.AperFunction,ComponentPad*
%ADD18O,2.400000X2.400000*%
G04 #@! TD*
G04 APERTURE END LIST*
D10*
X88555000Y-80000000D03*
X111455000Y-80000000D03*
D11*
X150987246Y-80000000D03*
D12*
X158487246Y-80000000D03*
D13*
X57500000Y-80000000D03*
D14*
X62500000Y-80000000D03*
X67500000Y-80000000D03*
D13*
X187500000Y-80000000D03*
D10*
X67150000Y-85000000D03*
D15*
X79850000Y-85000000D03*
D10*
X67150000Y-75000000D03*
D15*
X79850000Y-75000000D03*
D11*
X167987246Y-80000000D03*
D12*
X175487246Y-80000000D03*
D13*
X52500000Y-80000000D03*
D10*
X113650000Y-75000000D03*
D15*
X126350000Y-75000000D03*
D10*
X113650000Y-85000000D03*
D15*
X126350000Y-85000000D03*
D16*
X186500000Y-89000000D03*
D17*
X186500000Y-89000000D03*
D11*
X133987246Y-80000000D03*
D12*
X141487246Y-80000000D03*
D13*
X182500000Y-80000000D03*
D16*
X53500000Y-89000000D03*
D17*
X53500000Y-89000000D03*
D16*
X186500000Y-71000000D03*
D17*
X186500000Y-71000000D03*
D11*
X71650000Y-80000000D03*
D18*
X84350000Y-80000000D03*
D16*
X53500000Y-71000000D03*
D17*
X53500000Y-71000000D03*
G04 #@! TA.AperFunction,Conductor*
G36*
X62515677Y-76519685D02*
G01*
X62536319Y-76536319D01*
X63963681Y-77963681D01*
X63997166Y-78025004D01*
X64000000Y-78051362D01*
X64000000Y-79130987D01*
X63980315Y-79198026D01*
X63927511Y-79243781D01*
X63858353Y-79253725D01*
X63794797Y-79224700D01*
X63775682Y-79203873D01*
X63722658Y-79130894D01*
X63722658Y-79130893D01*
X62982962Y-79870590D01*
X62965925Y-79807007D01*
X62900099Y-79692993D01*
X62807007Y-79599901D01*
X62692993Y-79534075D01*
X62629409Y-79517037D01*
X63369105Y-78777340D01*
X63369104Y-78777338D01*
X63286174Y-78717087D01*
X63075802Y-78609897D01*
X62851247Y-78536934D01*
X62851248Y-78536934D01*
X62618052Y-78500000D01*
X62381948Y-78500000D01*
X62148752Y-78536934D01*
X61924197Y-78609897D01*
X61713830Y-78717084D01*
X61630894Y-78777340D01*
X62370591Y-79517037D01*
X62307007Y-79534075D01*
X62192993Y-79599901D01*
X62099901Y-79692993D01*
X62034075Y-79807007D01*
X62017037Y-79870591D01*
X61277340Y-79130894D01*
X61217084Y-79213830D01*
X61109897Y-79424197D01*
X61036934Y-79648752D01*
X61000000Y-79881947D01*
X61000000Y-80118052D01*
X61036934Y-80351247D01*
X61109897Y-80575802D01*
X61217087Y-80786174D01*
X61277338Y-80869104D01*
X61277340Y-80869105D01*
X62017037Y-80129408D01*
X62034075Y-80192993D01*
X62099901Y-80307007D01*
X62192993Y-80400099D01*
X62307007Y-80465925D01*
X62370590Y-80482962D01*
X61630893Y-81222658D01*
X61713828Y-81282914D01*
X61924197Y-81390102D01*
X62148752Y-81463065D01*
X62148751Y-81463065D01*
X62381948Y-81500000D01*
X62618052Y-81500000D01*
X62851247Y-81463065D01*
X63075802Y-81390102D01*
X63286163Y-81282918D01*
X63286169Y-81282914D01*
X63369104Y-81222658D01*
X63369105Y-81222658D01*
X62629408Y-80482962D01*
X62692993Y-80465925D01*
X62807007Y-80400099D01*
X62900099Y-80307007D01*
X62965925Y-80192993D01*
X62982962Y-80129408D01*
X63722658Y-80869105D01*
X63722659Y-80869104D01*
X63775682Y-80796125D01*
X63831012Y-80753459D01*
X63900625Y-80747480D01*
X63962420Y-80780086D01*
X63996777Y-80840924D01*
X64000000Y-80869010D01*
X64000000Y-81948638D01*
X63980315Y-82015677D01*
X63963681Y-82036319D01*
X62536319Y-83463681D01*
X62474996Y-83497166D01*
X62448638Y-83500000D01*
X56551362Y-83500000D01*
X56484323Y-83480315D01*
X56463681Y-83463681D01*
X55036319Y-82036319D01*
X55002834Y-81974996D01*
X55000000Y-81948638D01*
X55000000Y-79868905D01*
X55500000Y-79868905D01*
X55500000Y-80131094D01*
X55534220Y-80391009D01*
X55534222Y-80391020D01*
X55602075Y-80644255D01*
X55702404Y-80886471D01*
X55702409Y-80886482D01*
X55833488Y-81113516D01*
X55833494Y-81113524D01*
X55920080Y-81226365D01*
X56822421Y-80324024D01*
X56835359Y-80355258D01*
X56917437Y-80478097D01*
X57021903Y-80582563D01*
X57144742Y-80664641D01*
X57175974Y-80677577D01*
X56273633Y-81579917D01*
X56273633Y-81579918D01*
X56386475Y-81666505D01*
X56386483Y-81666511D01*
X56613517Y-81797590D01*
X56613528Y-81797595D01*
X56855744Y-81897924D01*
X57108979Y-81965777D01*
X57108990Y-81965779D01*
X57368905Y-81999999D01*
X57368920Y-82000000D01*
X57631080Y-82000000D01*
X57631094Y-81999999D01*
X57891009Y-81965779D01*
X57891020Y-81965777D01*
X58144255Y-81897924D01*
X58386471Y-81797595D01*
X58386482Y-81797590D01*
X58613516Y-81666511D01*
X58613534Y-81666499D01*
X58726365Y-81579919D01*
X58726365Y-81579917D01*
X57824025Y-80677578D01*
X57855258Y-80664641D01*
X57978097Y-80582563D01*
X58082563Y-80478097D01*
X58164641Y-80355258D01*
X58177578Y-80324025D01*
X59079917Y-81226365D01*
X59079919Y-81226365D01*
X59166499Y-81113534D01*
X59166508Y-81113521D01*
X59166577Y-81113402D01*
X59166578Y-81113400D01*
X59166579Y-81113399D01*
X59297590Y-80886482D01*
X59297595Y-80886471D01*
X59397924Y-80644255D01*
X59465777Y-80391020D01*
X59465779Y-80391009D01*
X59499999Y-80131094D01*
X59500000Y-80131080D01*
X59500000Y-79868919D01*
X59499999Y-79868905D01*
X59465779Y-79608990D01*
X59465777Y-79608979D01*
X59397924Y-79355744D01*
X59297595Y-79113528D01*
X59297590Y-79113517D01*
X59166578Y-78886599D01*
X59166511Y-78886483D01*
X59166505Y-78886475D01*
X59079918Y-78773633D01*
X59079917Y-78773633D01*
X58177577Y-79675973D01*
X58164641Y-79644742D01*
X58082563Y-79521903D01*
X57978097Y-79417437D01*
X57855258Y-79335359D01*
X57824023Y-79322421D01*
X58726365Y-78420080D01*
X58613524Y-78333494D01*
X58613516Y-78333488D01*
X58386482Y-78202409D01*
X58386471Y-78202404D01*
X58144255Y-78102075D01*
X57891020Y-78034222D01*
X57891009Y-78034220D01*
X57631094Y-78000000D01*
X57368905Y-78000000D01*
X57108990Y-78034220D01*
X57108979Y-78034222D01*
X56855744Y-78102075D01*
X56613528Y-78202404D01*
X56613517Y-78202409D01*
X56386471Y-78333496D01*
X56273633Y-78420079D01*
X56273633Y-78420080D01*
X57175974Y-79322421D01*
X57144742Y-79335359D01*
X57021903Y-79417437D01*
X56917437Y-79521903D01*
X56835359Y-79644742D01*
X56822421Y-79675974D01*
X55920080Y-78773633D01*
X55920079Y-78773633D01*
X55833496Y-78886471D01*
X55702409Y-79113517D01*
X55702404Y-79113528D01*
X55602075Y-79355744D01*
X55534222Y-79608979D01*
X55534220Y-79608990D01*
X55500000Y-79868905D01*
X55000000Y-79868905D01*
X55000000Y-78051362D01*
X55019685Y-77984323D01*
X55036319Y-77963681D01*
X56463681Y-76536319D01*
X56525004Y-76502834D01*
X56551362Y-76500000D01*
X62448638Y-76500000D01*
X62515677Y-76519685D01*
G37*
G04 #@! TD.AperFunction*
G04 #@! TA.AperFunction,Conductor*
G36*
X114515677Y-73019685D02*
G01*
X114536319Y-73036319D01*
X115963681Y-74463681D01*
X115997166Y-74525004D01*
X116000000Y-74551362D01*
X116000000Y-85448638D01*
X115980315Y-85515677D01*
X115963681Y-85536319D01*
X114536319Y-86963681D01*
X114474996Y-86997166D01*
X114448638Y-87000000D01*
X84051362Y-87000000D01*
X83984323Y-86980315D01*
X83963681Y-86963681D01*
X82536319Y-85536319D01*
X82502834Y-85474996D01*
X82500000Y-85448638D01*
X82500000Y-84897682D01*
X112350000Y-84897682D01*
X112350000Y-85102317D01*
X112382009Y-85304417D01*
X112445244Y-85499031D01*
X112538141Y-85681350D01*
X112538147Y-85681359D01*
X112570523Y-85725921D01*
X112570524Y-85725922D01*
X113250000Y-85046446D01*
X113250000Y-85052661D01*
X113277259Y-85154394D01*
X113329920Y-85245606D01*
X113404394Y-85320080D01*
X113495606Y-85372741D01*
X113597339Y-85400000D01*
X113603553Y-85400000D01*
X112924076Y-86079474D01*
X112968650Y-86111859D01*
X113150968Y-86204755D01*
X113345582Y-86267990D01*
X113547683Y-86300000D01*
X113752317Y-86300000D01*
X113954417Y-86267990D01*
X114149031Y-86204755D01*
X114331349Y-86111859D01*
X114375921Y-86079474D01*
X113696447Y-85400000D01*
X113702661Y-85400000D01*
X113804394Y-85372741D01*
X113895606Y-85320080D01*
X113970080Y-85245606D01*
X114022741Y-85154394D01*
X114050000Y-85052661D01*
X114050000Y-85046447D01*
X114729474Y-85725921D01*
X114761859Y-85681349D01*
X114854755Y-85499031D01*
X114917990Y-85304417D01*
X114950000Y-85102317D01*
X114950000Y-84897682D01*
X114917990Y-84695582D01*
X114854755Y-84500968D01*
X114761859Y-84318650D01*
X114729474Y-84274077D01*
X114729474Y-84274076D01*
X114050000Y-84953551D01*
X114050000Y-84947339D01*
X114022741Y-84845606D01*
X113970080Y-84754394D01*
X113895606Y-84679920D01*
X113804394Y-84627259D01*
X113702661Y-84600000D01*
X113696446Y-84600000D01*
X114375922Y-83920524D01*
X114375921Y-83920523D01*
X114331359Y-83888147D01*
X114331350Y-83888141D01*
X114149031Y-83795244D01*
X113954417Y-83732009D01*
X113752317Y-83700000D01*
X113547683Y-83700000D01*
X113345582Y-83732009D01*
X113150968Y-83795244D01*
X112968644Y-83888143D01*
X112924077Y-83920523D01*
X112924077Y-83920524D01*
X113603554Y-84600000D01*
X113597339Y-84600000D01*
X113495606Y-84627259D01*
X113404394Y-84679920D01*
X113329920Y-84754394D01*
X113277259Y-84845606D01*
X113250000Y-84947339D01*
X113250000Y-84953553D01*
X112570524Y-84274077D01*
X112570523Y-84274077D01*
X112538143Y-84318644D01*
X112445244Y-84500968D01*
X112382009Y-84695582D01*
X112350000Y-84897682D01*
X82500000Y-84897682D01*
X82500000Y-80599410D01*
X82519685Y-80532371D01*
X82572489Y-80486616D01*
X82641647Y-80476672D01*
X82705203Y-80505697D01*
X82738561Y-80551957D01*
X82822045Y-80753502D01*
X82822054Y-80753520D01*
X82933464Y-80946491D01*
X82933466Y-80946495D01*
X83069130Y-81123293D01*
X83069138Y-81123302D01*
X83226698Y-81280862D01*
X83226706Y-81280869D01*
X83403504Y-81416533D01*
X83403508Y-81416535D01*
X83596479Y-81527945D01*
X83596497Y-81527954D01*
X83802379Y-81613235D01*
X84017632Y-81670912D01*
X84099999Y-81681755D01*
X84100000Y-81681755D01*
X84100000Y-80548482D01*
X84118409Y-80559111D01*
X84271009Y-80600000D01*
X84428991Y-80600000D01*
X84581591Y-80559111D01*
X84600000Y-80548482D01*
X84600000Y-81681755D01*
X84682367Y-81670912D01*
X84897620Y-81613235D01*
X85103502Y-81527954D01*
X85103520Y-81527945D01*
X85296491Y-81416535D01*
X85296495Y-81416533D01*
X85473293Y-81280869D01*
X85473302Y-81280862D01*
X85630862Y-81123302D01*
X85630869Y-81123293D01*
X85766533Y-80946495D01*
X85766535Y-80946491D01*
X85877945Y-80753520D01*
X85877954Y-80753502D01*
X85963235Y-80547620D01*
X86020912Y-80332367D01*
X86031756Y-80250000D01*
X84898482Y-80250000D01*
X84909111Y-80231591D01*
X84950000Y-80078991D01*
X84950000Y-79921009D01*
X84943740Y-79897648D01*
X87254500Y-79897648D01*
X87254500Y-80102351D01*
X87286522Y-80304534D01*
X87349781Y-80499223D01*
X87413691Y-80624653D01*
X87442585Y-80681359D01*
X87442715Y-80681613D01*
X87563028Y-80847213D01*
X87707786Y-80991971D01*
X87828226Y-81079474D01*
X87873390Y-81112287D01*
X87989607Y-81171503D01*
X88055776Y-81205218D01*
X88055778Y-81205218D01*
X88055781Y-81205220D01*
X88160137Y-81239127D01*
X88250465Y-81268477D01*
X88328705Y-81280869D01*
X88452648Y-81300500D01*
X88452649Y-81300500D01*
X88657351Y-81300500D01*
X88657352Y-81300500D01*
X88859534Y-81268477D01*
X89054219Y-81205220D01*
X89236610Y-81112287D01*
X89329590Y-81044732D01*
X89402213Y-80991971D01*
X89402215Y-80991968D01*
X89402219Y-80991966D01*
X89546966Y-80847219D01*
X89546968Y-80847215D01*
X89546971Y-80847213D01*
X89615055Y-80753502D01*
X89667287Y-80681610D01*
X89760220Y-80499219D01*
X89823477Y-80304534D01*
X89855500Y-80102352D01*
X89855500Y-79897682D01*
X110155000Y-79897682D01*
X110155000Y-80102317D01*
X110187009Y-80304417D01*
X110250244Y-80499031D01*
X110343141Y-80681350D01*
X110343147Y-80681359D01*
X110375523Y-80725921D01*
X110375524Y-80725922D01*
X111055000Y-80046446D01*
X111055000Y-80052661D01*
X111082259Y-80154394D01*
X111134920Y-80245606D01*
X111209394Y-80320080D01*
X111300606Y-80372741D01*
X111402339Y-80400000D01*
X111408553Y-80400000D01*
X110729076Y-81079474D01*
X110773650Y-81111859D01*
X110955968Y-81204755D01*
X111150582Y-81267990D01*
X111352683Y-81300000D01*
X111557317Y-81300000D01*
X111759417Y-81267990D01*
X111954031Y-81204755D01*
X112136349Y-81111859D01*
X112180921Y-81079474D01*
X111501447Y-80400000D01*
X111507661Y-80400000D01*
X111609394Y-80372741D01*
X111700606Y-80320080D01*
X111775080Y-80245606D01*
X111827741Y-80154394D01*
X111855000Y-80052661D01*
X111855000Y-80046447D01*
X112534474Y-80725921D01*
X112566859Y-80681349D01*
X112659755Y-80499031D01*
X112722990Y-80304417D01*
X112755000Y-80102317D01*
X112755000Y-79897682D01*
X112722990Y-79695582D01*
X112659755Y-79500968D01*
X112566859Y-79318650D01*
X112534474Y-79274077D01*
X112534474Y-79274076D01*
X111855000Y-79953551D01*
X111855000Y-79947339D01*
X111827741Y-79845606D01*
X111775080Y-79754394D01*
X111700606Y-79679920D01*
X111609394Y-79627259D01*
X111507661Y-79600000D01*
X111501446Y-79600000D01*
X112180922Y-78920524D01*
X112180921Y-78920523D01*
X112136359Y-78888147D01*
X112136350Y-78888141D01*
X111954031Y-78795244D01*
X111759417Y-78732009D01*
X111557317Y-78700000D01*
X111352683Y-78700000D01*
X111150582Y-78732009D01*
X110955968Y-78795244D01*
X110773644Y-78888143D01*
X110729077Y-78920523D01*
X110729077Y-78920524D01*
X111408554Y-79600000D01*
X111402339Y-79600000D01*
X111300606Y-79627259D01*
X111209394Y-79679920D01*
X111134920Y-79754394D01*
X111082259Y-79845606D01*
X111055000Y-79947339D01*
X111055000Y-79953553D01*
X110375524Y-79274077D01*
X110375523Y-79274077D01*
X110343143Y-79318644D01*
X110250244Y-79500968D01*
X110187009Y-79695582D01*
X110155000Y-79897682D01*
X89855500Y-79897682D01*
X89855500Y-79897648D01*
X89835030Y-79768409D01*
X89823477Y-79695465D01*
X89760761Y-79502446D01*
X89760220Y-79500781D01*
X89760218Y-79500778D01*
X89760218Y-79500776D01*
X89726503Y-79434607D01*
X89667287Y-79318390D01*
X89635092Y-79274077D01*
X89546971Y-79152786D01*
X89402213Y-79008028D01*
X89236613Y-78887715D01*
X89236612Y-78887714D01*
X89236610Y-78887713D01*
X89179653Y-78858691D01*
X89054223Y-78794781D01*
X88859534Y-78731522D01*
X88684995Y-78703878D01*
X88657352Y-78699500D01*
X88452648Y-78699500D01*
X88428329Y-78703351D01*
X88250465Y-78731522D01*
X88055776Y-78794781D01*
X87873386Y-78887715D01*
X87707786Y-79008028D01*
X87563028Y-79152786D01*
X87442715Y-79318386D01*
X87349781Y-79500776D01*
X87286522Y-79695465D01*
X87254500Y-79897648D01*
X84943740Y-79897648D01*
X84909111Y-79768409D01*
X84898482Y-79750000D01*
X86031755Y-79750000D01*
X86031755Y-79749999D01*
X86020912Y-79667632D01*
X85963235Y-79452379D01*
X85877954Y-79246497D01*
X85877945Y-79246479D01*
X85766535Y-79053508D01*
X85766533Y-79053504D01*
X85630869Y-78876706D01*
X85630862Y-78876698D01*
X85473302Y-78719138D01*
X85473293Y-78719130D01*
X85296495Y-78583466D01*
X85296491Y-78583464D01*
X85103520Y-78472054D01*
X85103502Y-78472045D01*
X84897618Y-78386763D01*
X84682363Y-78329087D01*
X84600000Y-78318242D01*
X84600000Y-79451517D01*
X84581591Y-79440889D01*
X84428991Y-79400000D01*
X84271009Y-79400000D01*
X84118409Y-79440889D01*
X84100000Y-79451517D01*
X84100000Y-78318242D01*
X84099999Y-78318242D01*
X84017636Y-78329087D01*
X83802381Y-78386763D01*
X83596497Y-78472045D01*
X83596479Y-78472054D01*
X83403508Y-78583464D01*
X83403504Y-78583466D01*
X83226706Y-78719130D01*
X83069130Y-78876706D01*
X82933466Y-79053504D01*
X82933464Y-79053508D01*
X82822054Y-79246479D01*
X82822047Y-79246492D01*
X82738561Y-79448043D01*
X82694719Y-79502446D01*
X82628425Y-79524510D01*
X82560726Y-79507230D01*
X82513116Y-79456093D01*
X82500000Y-79400589D01*
X82500000Y-74897682D01*
X112350000Y-74897682D01*
X112350000Y-75102317D01*
X112382009Y-75304417D01*
X112445244Y-75499031D01*
X112538141Y-75681350D01*
X112538147Y-75681359D01*
X112570523Y-75725921D01*
X112570524Y-75725922D01*
X113250000Y-75046446D01*
X113250000Y-75052661D01*
X113277259Y-75154394D01*
X113329920Y-75245606D01*
X113404394Y-75320080D01*
X113495606Y-75372741D01*
X113597339Y-75400000D01*
X113603553Y-75400000D01*
X112924076Y-76079474D01*
X112968650Y-76111859D01*
X113150968Y-76204755D01*
X113345582Y-76267990D01*
X113547683Y-76300000D01*
X113752317Y-76300000D01*
X113954417Y-76267990D01*
X114149031Y-76204755D01*
X114331349Y-76111859D01*
X114375921Y-76079474D01*
X113696447Y-75400000D01*
X113702661Y-75400000D01*
X113804394Y-75372741D01*
X113895606Y-75320080D01*
X113970080Y-75245606D01*
X114022741Y-75154394D01*
X114050000Y-75052661D01*
X114050000Y-75046447D01*
X114729474Y-75725921D01*
X114761859Y-75681349D01*
X114854755Y-75499031D01*
X114917990Y-75304417D01*
X114950000Y-75102317D01*
X114950000Y-74897682D01*
X114917990Y-74695582D01*
X114854755Y-74500968D01*
X114761859Y-74318650D01*
X114729474Y-74274077D01*
X114729474Y-74274076D01*
X114050000Y-74953551D01*
X114050000Y-74947339D01*
X114022741Y-74845606D01*
X113970080Y-74754394D01*
X113895606Y-74679920D01*
X113804394Y-74627259D01*
X113702661Y-74600000D01*
X113696446Y-74600000D01*
X114375922Y-73920524D01*
X114375921Y-73920523D01*
X114331359Y-73888147D01*
X114331350Y-73888141D01*
X114149031Y-73795244D01*
X113954417Y-73732009D01*
X113752317Y-73700000D01*
X113547683Y-73700000D01*
X113345582Y-73732009D01*
X113150968Y-73795244D01*
X112968644Y-73888143D01*
X112924077Y-73920523D01*
X112924077Y-73920524D01*
X113603554Y-74600000D01*
X113597339Y-74600000D01*
X113495606Y-74627259D01*
X113404394Y-74679920D01*
X113329920Y-74754394D01*
X113277259Y-74845606D01*
X113250000Y-74947339D01*
X113250000Y-74953553D01*
X112570524Y-74274077D01*
X112570523Y-74274077D01*
X112538143Y-74318644D01*
X112445244Y-74500968D01*
X112382009Y-74695582D01*
X112350000Y-74897682D01*
X82500000Y-74897682D01*
X82500000Y-74551362D01*
X82519685Y-74484323D01*
X82536319Y-74463681D01*
X83963681Y-73036319D01*
X84025004Y-73002834D01*
X84051362Y-73000000D01*
X114448638Y-73000000D01*
X114515677Y-73019685D01*
G37*
G04 #@! TD.AperFunction*
G04 #@! TA.AperFunction,Conductor*
G36*
X80515677Y-73019685D02*
G01*
X80536319Y-73036319D01*
X81963681Y-74463681D01*
X81997166Y-74525004D01*
X82000000Y-74551362D01*
X82000000Y-85448638D01*
X81980315Y-85515677D01*
X81963681Y-85536319D01*
X80536319Y-86963681D01*
X80474996Y-86997166D01*
X80448638Y-87000000D01*
X71051362Y-87000000D01*
X70984323Y-86980315D01*
X70963681Y-86963681D01*
X69536319Y-85536319D01*
X69521615Y-85509391D01*
X69505023Y-85483573D01*
X69504131Y-85477372D01*
X69502834Y-85474996D01*
X69500000Y-85448638D01*
X69500000Y-84750000D01*
X78573391Y-84750000D01*
X79534314Y-84750000D01*
X79529920Y-84754394D01*
X79477259Y-84845606D01*
X79450000Y-84947339D01*
X79450000Y-85052661D01*
X79477259Y-85154394D01*
X79529920Y-85245606D01*
X79534314Y-85250000D01*
X78573391Y-85250000D01*
X78582009Y-85304413D01*
X78645244Y-85499029D01*
X78738140Y-85681349D01*
X78858417Y-85846894D01*
X78858417Y-85846895D01*
X79003104Y-85991582D01*
X79168650Y-86111859D01*
X79350968Y-86204754D01*
X79545578Y-86267988D01*
X79600000Y-86276607D01*
X79600000Y-85315686D01*
X79604394Y-85320080D01*
X79695606Y-85372741D01*
X79797339Y-85400000D01*
X79902661Y-85400000D01*
X80004394Y-85372741D01*
X80095606Y-85320080D01*
X80100000Y-85315686D01*
X80100000Y-86276606D01*
X80154421Y-86267988D01*
X80349031Y-86204754D01*
X80531349Y-86111859D01*
X80696894Y-85991582D01*
X80696895Y-85991582D01*
X80841582Y-85846895D01*
X80841582Y-85846894D01*
X80961859Y-85681349D01*
X81054755Y-85499029D01*
X81117990Y-85304413D01*
X81126609Y-85250000D01*
X80165686Y-85250000D01*
X80170080Y-85245606D01*
X80222741Y-85154394D01*
X80250000Y-85052661D01*
X80250000Y-84947339D01*
X80222741Y-84845606D01*
X80170080Y-84754394D01*
X80165686Y-84750000D01*
X81126609Y-84750000D01*
X81117990Y-84695586D01*
X81054755Y-84500970D01*
X80961859Y-84318650D01*
X80841582Y-84153105D01*
X80841582Y-84153104D01*
X80696895Y-84008417D01*
X80531349Y-83888140D01*
X80349029Y-83795244D01*
X80154413Y-83732009D01*
X80100000Y-83723390D01*
X80100000Y-84684314D01*
X80095606Y-84679920D01*
X80004394Y-84627259D01*
X79902661Y-84600000D01*
X79797339Y-84600000D01*
X79695606Y-84627259D01*
X79604394Y-84679920D01*
X79600000Y-84684314D01*
X79600000Y-83723390D01*
X79545586Y-83732009D01*
X79350970Y-83795244D01*
X79168650Y-83888140D01*
X79003105Y-84008417D01*
X79003104Y-84008417D01*
X78858417Y-84153104D01*
X78858417Y-84153105D01*
X78738140Y-84318650D01*
X78645244Y-84500970D01*
X78582009Y-84695586D01*
X78573391Y-84750000D01*
X69500000Y-84750000D01*
X69500000Y-78752155D01*
X69950000Y-78752155D01*
X69950000Y-79750000D01*
X71101518Y-79750000D01*
X71090889Y-79768409D01*
X71050000Y-79921009D01*
X71050000Y-80078991D01*
X71090889Y-80231591D01*
X71101518Y-80250000D01*
X69950000Y-80250000D01*
X69950000Y-81247844D01*
X69956401Y-81307372D01*
X69956403Y-81307379D01*
X70006645Y-81442086D01*
X70006649Y-81442093D01*
X70092809Y-81557187D01*
X70092812Y-81557190D01*
X70207906Y-81643350D01*
X70207913Y-81643354D01*
X70342620Y-81693596D01*
X70342627Y-81693598D01*
X70402155Y-81699999D01*
X70402172Y-81700000D01*
X71400000Y-81700000D01*
X71400000Y-80548482D01*
X71418409Y-80559111D01*
X71571009Y-80600000D01*
X71728991Y-80600000D01*
X71881591Y-80559111D01*
X71900000Y-80548482D01*
X71900000Y-81700000D01*
X72897828Y-81700000D01*
X72897844Y-81699999D01*
X72957372Y-81693598D01*
X72957379Y-81693596D01*
X73092086Y-81643354D01*
X73092093Y-81643350D01*
X73207187Y-81557190D01*
X73207190Y-81557187D01*
X73293350Y-81442093D01*
X73293354Y-81442086D01*
X73343596Y-81307379D01*
X73343598Y-81307372D01*
X73349999Y-81247844D01*
X73350000Y-81247827D01*
X73350000Y-80250000D01*
X72198482Y-80250000D01*
X72209111Y-80231591D01*
X72250000Y-80078991D01*
X72250000Y-79921009D01*
X72209111Y-79768409D01*
X72198482Y-79750000D01*
X73350000Y-79750000D01*
X73350000Y-78752172D01*
X73349999Y-78752155D01*
X73343598Y-78692627D01*
X73343596Y-78692620D01*
X73293354Y-78557913D01*
X73293350Y-78557906D01*
X73207190Y-78442812D01*
X73207187Y-78442809D01*
X73092093Y-78356649D01*
X73092086Y-78356645D01*
X72957379Y-78306403D01*
X72957372Y-78306401D01*
X72897844Y-78300000D01*
X71900000Y-78300000D01*
X71900000Y-79451517D01*
X71881591Y-79440889D01*
X71728991Y-79400000D01*
X71571009Y-79400000D01*
X71418409Y-79440889D01*
X71400000Y-79451517D01*
X71400000Y-78300000D01*
X70402155Y-78300000D01*
X70342627Y-78306401D01*
X70342620Y-78306403D01*
X70207913Y-78356645D01*
X70207906Y-78356649D01*
X70092812Y-78442809D01*
X70092809Y-78442812D01*
X70006649Y-78557906D01*
X70006645Y-78557913D01*
X69956403Y-78692620D01*
X69956401Y-78692627D01*
X69950000Y-78752155D01*
X69500000Y-78752155D01*
X69500000Y-74750000D01*
X78573391Y-74750000D01*
X79534314Y-74750000D01*
X79529920Y-74754394D01*
X79477259Y-74845606D01*
X79450000Y-74947339D01*
X79450000Y-75052661D01*
X79477259Y-75154394D01*
X79529920Y-75245606D01*
X79534314Y-75250000D01*
X78573391Y-75250000D01*
X78582009Y-75304413D01*
X78645244Y-75499029D01*
X78738140Y-75681349D01*
X78858417Y-75846894D01*
X78858417Y-75846895D01*
X79003104Y-75991582D01*
X79168650Y-76111859D01*
X79350968Y-76204754D01*
X79545578Y-76267988D01*
X79600000Y-76276607D01*
X79600000Y-75315686D01*
X79604394Y-75320080D01*
X79695606Y-75372741D01*
X79797339Y-75400000D01*
X79902661Y-75400000D01*
X80004394Y-75372741D01*
X80095606Y-75320080D01*
X80100000Y-75315686D01*
X80100000Y-76276606D01*
X80154421Y-76267988D01*
X80349031Y-76204754D01*
X80531349Y-76111859D01*
X80696894Y-75991582D01*
X80696895Y-75991582D01*
X80841582Y-75846895D01*
X80841582Y-75846894D01*
X80961859Y-75681349D01*
X81054755Y-75499029D01*
X81117990Y-75304413D01*
X81126609Y-75250000D01*
X80165686Y-75250000D01*
X80170080Y-75245606D01*
X80222741Y-75154394D01*
X80250000Y-75052661D01*
X80250000Y-74947339D01*
X80222741Y-74845606D01*
X80170080Y-74754394D01*
X80165686Y-74750000D01*
X81126609Y-74750000D01*
X81117990Y-74695586D01*
X81054755Y-74500970D01*
X80961859Y-74318650D01*
X80841582Y-74153105D01*
X80841582Y-74153104D01*
X80696895Y-74008417D01*
X80531349Y-73888140D01*
X80349029Y-73795244D01*
X80154413Y-73732009D01*
X80100000Y-73723390D01*
X80100000Y-74684314D01*
X80095606Y-74679920D01*
X80004394Y-74627259D01*
X79902661Y-74600000D01*
X79797339Y-74600000D01*
X79695606Y-74627259D01*
X79604394Y-74679920D01*
X79600000Y-74684314D01*
X79600000Y-73723390D01*
X79545586Y-73732009D01*
X79350970Y-73795244D01*
X79168650Y-73888140D01*
X79003105Y-74008417D01*
X79003104Y-74008417D01*
X78858417Y-74153104D01*
X78858417Y-74153105D01*
X78738140Y-74318650D01*
X78645244Y-74500970D01*
X78582009Y-74695586D01*
X78573391Y-74750000D01*
X69500000Y-74750000D01*
X69500000Y-74551362D01*
X69519685Y-74484323D01*
X69536319Y-74463681D01*
X70963681Y-73036319D01*
X71025004Y-73002834D01*
X71051362Y-73000000D01*
X80448638Y-73000000D01*
X80515677Y-73019685D01*
G37*
G04 #@! TD.AperFunction*
G04 #@! TA.AperFunction,Conductor*
G36*
X67515677Y-73019685D02*
G01*
X67536319Y-73036319D01*
X68963681Y-74463681D01*
X68997166Y-74525004D01*
X69000000Y-74551362D01*
X69000000Y-79130987D01*
X68980315Y-79198026D01*
X68927511Y-79243781D01*
X68858353Y-79253725D01*
X68794797Y-79224700D01*
X68775682Y-79203873D01*
X68722658Y-79130894D01*
X68722658Y-79130893D01*
X67982962Y-79870590D01*
X67965925Y-79807007D01*
X67900099Y-79692993D01*
X67807007Y-79599901D01*
X67692993Y-79534075D01*
X67629409Y-79517037D01*
X68369105Y-78777340D01*
X68369104Y-78777338D01*
X68286174Y-78717087D01*
X68075802Y-78609897D01*
X67851247Y-78536934D01*
X67851248Y-78536934D01*
X67618052Y-78500000D01*
X67381948Y-78500000D01*
X67148752Y-78536934D01*
X66924197Y-78609897D01*
X66713830Y-78717084D01*
X66630894Y-78777340D01*
X67370591Y-79517037D01*
X67307007Y-79534075D01*
X67192993Y-79599901D01*
X67099901Y-79692993D01*
X67034075Y-79807007D01*
X67017037Y-79870591D01*
X66277340Y-79130894D01*
X66217084Y-79213830D01*
X66109897Y-79424197D01*
X66036934Y-79648752D01*
X66000000Y-79881947D01*
X66000000Y-80118052D01*
X66036934Y-80351247D01*
X66109897Y-80575802D01*
X66217087Y-80786174D01*
X66277338Y-80869104D01*
X66277340Y-80869105D01*
X67017037Y-80129408D01*
X67034075Y-80192993D01*
X67099901Y-80307007D01*
X67192993Y-80400099D01*
X67307007Y-80465925D01*
X67370590Y-80482962D01*
X66630893Y-81222658D01*
X66713828Y-81282914D01*
X66924197Y-81390102D01*
X67148752Y-81463065D01*
X67148751Y-81463065D01*
X67381948Y-81500000D01*
X67618052Y-81500000D01*
X67851247Y-81463065D01*
X68075802Y-81390102D01*
X68286163Y-81282918D01*
X68286169Y-81282914D01*
X68369104Y-81222658D01*
X68369105Y-81222658D01*
X67629408Y-80482962D01*
X67692993Y-80465925D01*
X67807007Y-80400099D01*
X67900099Y-80307007D01*
X67965925Y-80192993D01*
X67982962Y-80129409D01*
X68722658Y-80869105D01*
X68722659Y-80869104D01*
X68775682Y-80796125D01*
X68831012Y-80753459D01*
X68900625Y-80747480D01*
X68962420Y-80780086D01*
X68996777Y-80840924D01*
X69000000Y-80869010D01*
X69000000Y-85448638D01*
X68980315Y-85515677D01*
X68963681Y-85536319D01*
X67536319Y-86963681D01*
X67474996Y-86997166D01*
X67448638Y-87000000D01*
X66051362Y-87000000D01*
X65984323Y-86980315D01*
X65963681Y-86963681D01*
X64536319Y-85536319D01*
X64502834Y-85474996D01*
X64500000Y-85448638D01*
X64500000Y-84897682D01*
X65850000Y-84897682D01*
X65850000Y-85102317D01*
X65882009Y-85304417D01*
X65945244Y-85499031D01*
X66038141Y-85681350D01*
X66038147Y-85681359D01*
X66070523Y-85725921D01*
X66070524Y-85725922D01*
X66750000Y-85046446D01*
X66750000Y-85052661D01*
X66777259Y-85154394D01*
X66829920Y-85245606D01*
X66904394Y-85320080D01*
X66995606Y-85372741D01*
X67097339Y-85400000D01*
X67103553Y-85400000D01*
X66424076Y-86079474D01*
X66468650Y-86111859D01*
X66650968Y-86204755D01*
X66845582Y-86267990D01*
X67047683Y-86300000D01*
X67252317Y-86300000D01*
X67454417Y-86267990D01*
X67649031Y-86204755D01*
X67831349Y-86111859D01*
X67875921Y-86079474D01*
X67196447Y-85400000D01*
X67202661Y-85400000D01*
X67304394Y-85372741D01*
X67395606Y-85320080D01*
X67470080Y-85245606D01*
X67522741Y-85154394D01*
X67550000Y-85052661D01*
X67550000Y-85046447D01*
X68229474Y-85725921D01*
X68261859Y-85681349D01*
X68354755Y-85499031D01*
X68417990Y-85304417D01*
X68450000Y-85102317D01*
X68450000Y-84897682D01*
X68417990Y-84695582D01*
X68354755Y-84500968D01*
X68261859Y-84318650D01*
X68229474Y-84274077D01*
X68229474Y-84274076D01*
X67550000Y-84953551D01*
X67550000Y-84947339D01*
X67522741Y-84845606D01*
X67470080Y-84754394D01*
X67395606Y-84679920D01*
X67304394Y-84627259D01*
X67202661Y-84600000D01*
X67196446Y-84600000D01*
X67875922Y-83920524D01*
X67875921Y-83920523D01*
X67831359Y-83888147D01*
X67831350Y-83888141D01*
X67649031Y-83795244D01*
X67454417Y-83732009D01*
X67252317Y-83700000D01*
X67047683Y-83700000D01*
X66845582Y-83732009D01*
X66650968Y-83795244D01*
X66468644Y-83888143D01*
X66424077Y-83920523D01*
X66424077Y-83920524D01*
X67103554Y-84600000D01*
X67097339Y-84600000D01*
X66995606Y-84627259D01*
X66904394Y-84679920D01*
X66829920Y-84754394D01*
X66777259Y-84845606D01*
X66750000Y-84947339D01*
X66750000Y-84953553D01*
X66070524Y-84274077D01*
X66070523Y-84274077D01*
X66038143Y-84318644D01*
X65945244Y-84500968D01*
X65882009Y-84695582D01*
X65850000Y-84897682D01*
X64500000Y-84897682D01*
X64500000Y-74897682D01*
X65850000Y-74897682D01*
X65850000Y-75102317D01*
X65882009Y-75304417D01*
X65945244Y-75499031D01*
X66038141Y-75681350D01*
X66038147Y-75681359D01*
X66070523Y-75725921D01*
X66070524Y-75725922D01*
X66750000Y-75046446D01*
X66750000Y-75052661D01*
X66777259Y-75154394D01*
X66829920Y-75245606D01*
X66904394Y-75320080D01*
X66995606Y-75372741D01*
X67097339Y-75400000D01*
X67103553Y-75400000D01*
X66424076Y-76079474D01*
X66468650Y-76111859D01*
X66650968Y-76204755D01*
X66845582Y-76267990D01*
X67047683Y-76300000D01*
X67252317Y-76300000D01*
X67454417Y-76267990D01*
X67649031Y-76204755D01*
X67831349Y-76111859D01*
X67875921Y-76079474D01*
X67196447Y-75400000D01*
X67202661Y-75400000D01*
X67304394Y-75372741D01*
X67395606Y-75320080D01*
X67470080Y-75245606D01*
X67522741Y-75154394D01*
X67550000Y-75052661D01*
X67550000Y-75046447D01*
X68229474Y-75725921D01*
X68261859Y-75681349D01*
X68354755Y-75499031D01*
X68417990Y-75304417D01*
X68450000Y-75102317D01*
X68450000Y-74897682D01*
X68417990Y-74695582D01*
X68354755Y-74500968D01*
X68261859Y-74318650D01*
X68229474Y-74274077D01*
X68229474Y-74274076D01*
X67550000Y-74953551D01*
X67550000Y-74947339D01*
X67522741Y-74845606D01*
X67470080Y-74754394D01*
X67395606Y-74679920D01*
X67304394Y-74627259D01*
X67202661Y-74600000D01*
X67196446Y-74600000D01*
X67875922Y-73920524D01*
X67875921Y-73920523D01*
X67831359Y-73888147D01*
X67831350Y-73888141D01*
X67649031Y-73795244D01*
X67454417Y-73732009D01*
X67252317Y-73700000D01*
X67047683Y-73700000D01*
X66845582Y-73732009D01*
X66650968Y-73795244D01*
X66468644Y-73888143D01*
X66424077Y-73920523D01*
X66424077Y-73920524D01*
X67103554Y-74600000D01*
X67097339Y-74600000D01*
X66995606Y-74627259D01*
X66904394Y-74679920D01*
X66829920Y-74754394D01*
X66777259Y-74845606D01*
X66750000Y-74947339D01*
X66750000Y-74953553D01*
X66070524Y-74274077D01*
X66070523Y-74274077D01*
X66038143Y-74318644D01*
X65945244Y-74500968D01*
X65882009Y-74695582D01*
X65850000Y-74897682D01*
X64500000Y-74897682D01*
X64500000Y-74551362D01*
X64519685Y-74484323D01*
X64536319Y-74463681D01*
X65963681Y-73036319D01*
X66025004Y-73002834D01*
X66051362Y-73000000D01*
X67448638Y-73000000D01*
X67515677Y-73019685D01*
G37*
G04 #@! TD.AperFunction*
G04 #@! TA.AperFunction,Conductor*
G36*
X182515677Y-72519685D02*
G01*
X182536319Y-72536319D01*
X184963681Y-74963681D01*
X184997166Y-75025004D01*
X185000000Y-75051362D01*
X185000000Y-84948638D01*
X184980315Y-85015677D01*
X184963681Y-85036319D01*
X182536319Y-87463681D01*
X182474996Y-87497166D01*
X182448638Y-87500000D01*
X125551362Y-87500000D01*
X125484323Y-87480315D01*
X125463681Y-87463681D01*
X124036319Y-86036319D01*
X124002834Y-85974996D01*
X124000000Y-85948638D01*
X124000000Y-84750000D01*
X125073391Y-84750000D01*
X126034314Y-84750000D01*
X126029920Y-84754394D01*
X125977259Y-84845606D01*
X125950000Y-84947339D01*
X125950000Y-85052661D01*
X125977259Y-85154394D01*
X126029920Y-85245606D01*
X126034314Y-85250000D01*
X125073391Y-85250000D01*
X125082009Y-85304413D01*
X125145244Y-85499029D01*
X125238140Y-85681349D01*
X125358417Y-85846894D01*
X125358417Y-85846895D01*
X125503104Y-85991582D01*
X125668650Y-86111859D01*
X125850968Y-86204754D01*
X126045578Y-86267988D01*
X126100000Y-86276607D01*
X126100000Y-85315686D01*
X126104394Y-85320080D01*
X126195606Y-85372741D01*
X126297339Y-85400000D01*
X126402661Y-85400000D01*
X126504394Y-85372741D01*
X126595606Y-85320080D01*
X126600000Y-85315686D01*
X126600000Y-86276606D01*
X126654421Y-86267988D01*
X126849031Y-86204754D01*
X127031349Y-86111859D01*
X127196894Y-85991582D01*
X127196895Y-85991582D01*
X127341582Y-85846895D01*
X127341582Y-85846894D01*
X127461859Y-85681349D01*
X127554755Y-85499029D01*
X127617990Y-85304413D01*
X127626609Y-85250000D01*
X126665686Y-85250000D01*
X126670080Y-85245606D01*
X126722741Y-85154394D01*
X126750000Y-85052661D01*
X126750000Y-84947339D01*
X126722741Y-84845606D01*
X126670080Y-84754394D01*
X126665686Y-84750000D01*
X127626609Y-84750000D01*
X127617990Y-84695586D01*
X127554755Y-84500970D01*
X127461859Y-84318650D01*
X127341582Y-84153105D01*
X127341582Y-84153104D01*
X127196895Y-84008417D01*
X127031349Y-83888140D01*
X126849029Y-83795244D01*
X126654413Y-83732009D01*
X126600000Y-83723390D01*
X126600000Y-84684314D01*
X126595606Y-84679920D01*
X126504394Y-84627259D01*
X126402661Y-84600000D01*
X126297339Y-84600000D01*
X126195606Y-84627259D01*
X126104394Y-84679920D01*
X126100000Y-84684314D01*
X126100000Y-83723390D01*
X126045586Y-83732009D01*
X125850970Y-83795244D01*
X125668650Y-83888140D01*
X125503105Y-84008417D01*
X125503104Y-84008417D01*
X125358417Y-84153104D01*
X125358417Y-84153105D01*
X125238140Y-84318650D01*
X125145244Y-84500970D01*
X125082009Y-84695586D01*
X125073391Y-84750000D01*
X124000000Y-84750000D01*
X124000000Y-78752155D01*
X132287246Y-78752155D01*
X132287246Y-79750000D01*
X133438764Y-79750000D01*
X133428135Y-79768409D01*
X133387246Y-79921009D01*
X133387246Y-80078991D01*
X133428135Y-80231591D01*
X133438764Y-80250000D01*
X132287246Y-80250000D01*
X132287246Y-81247844D01*
X132293647Y-81307372D01*
X132293649Y-81307379D01*
X132343891Y-81442086D01*
X132343895Y-81442093D01*
X132430055Y-81557187D01*
X132430058Y-81557190D01*
X132545152Y-81643350D01*
X132545159Y-81643354D01*
X132679866Y-81693596D01*
X132679873Y-81693598D01*
X132739401Y-81699999D01*
X132739418Y-81700000D01*
X133737246Y-81700000D01*
X133737246Y-80548482D01*
X133755655Y-80559111D01*
X133908255Y-80600000D01*
X134066237Y-80600000D01*
X134218837Y-80559111D01*
X134237246Y-80548482D01*
X134237246Y-81700000D01*
X135235074Y-81700000D01*
X135235090Y-81699999D01*
X135294618Y-81693598D01*
X135294625Y-81693596D01*
X135429332Y-81643354D01*
X135429339Y-81643350D01*
X135544433Y-81557190D01*
X135544436Y-81557187D01*
X135630596Y-81442093D01*
X135630600Y-81442086D01*
X135680842Y-81307379D01*
X135680844Y-81307372D01*
X135687245Y-81247844D01*
X135687246Y-81247827D01*
X135687246Y-80250000D01*
X134535728Y-80250000D01*
X134546357Y-80231591D01*
X134587246Y-80078991D01*
X134587246Y-79921009D01*
X134578548Y-79888549D01*
X139786746Y-79888549D01*
X139786746Y-80111450D01*
X139786747Y-80111466D01*
X139815840Y-80332452D01*
X139815841Y-80332457D01*
X139815842Y-80332463D01*
X139855406Y-80480119D01*
X139873536Y-80547780D01*
X139873539Y-80547790D01*
X139958839Y-80753722D01*
X139958841Y-80753726D01*
X140070298Y-80946774D01*
X140070303Y-80946780D01*
X140070304Y-80946782D01*
X140205997Y-81123622D01*
X140206003Y-81123629D01*
X140363616Y-81281242D01*
X140363622Y-81281247D01*
X140540472Y-81416948D01*
X140733520Y-81528405D01*
X140939465Y-81613710D01*
X141154783Y-81671404D01*
X141375789Y-81700500D01*
X141375796Y-81700500D01*
X141598696Y-81700500D01*
X141598703Y-81700500D01*
X141819709Y-81671404D01*
X142035027Y-81613710D01*
X142240972Y-81528405D01*
X142434020Y-81416948D01*
X142610870Y-81281247D01*
X142768493Y-81123624D01*
X142904194Y-80946774D01*
X143015651Y-80753726D01*
X143100956Y-80547781D01*
X143158650Y-80332463D01*
X143187746Y-80111457D01*
X143187746Y-79888543D01*
X143158650Y-79667537D01*
X143100956Y-79452219D01*
X143015651Y-79246274D01*
X142904194Y-79053226D01*
X142865113Y-79002294D01*
X142768494Y-78876377D01*
X142768488Y-78876370D01*
X142644273Y-78752155D01*
X149287246Y-78752155D01*
X149287246Y-79750000D01*
X150438764Y-79750000D01*
X150428135Y-79768409D01*
X150387246Y-79921009D01*
X150387246Y-80078991D01*
X150428135Y-80231591D01*
X150438764Y-80250000D01*
X149287246Y-80250000D01*
X149287246Y-81247844D01*
X149293647Y-81307372D01*
X149293649Y-81307379D01*
X149343891Y-81442086D01*
X149343895Y-81442093D01*
X149430055Y-81557187D01*
X149430058Y-81557190D01*
X149545152Y-81643350D01*
X149545159Y-81643354D01*
X149679866Y-81693596D01*
X149679873Y-81693598D01*
X149739401Y-81699999D01*
X149739418Y-81700000D01*
X150737246Y-81700000D01*
X150737246Y-80548482D01*
X150755655Y-80559111D01*
X150908255Y-80600000D01*
X151066237Y-80600000D01*
X151218837Y-80559111D01*
X151237246Y-80548482D01*
X151237246Y-81700000D01*
X152235074Y-81700000D01*
X152235090Y-81699999D01*
X152294618Y-81693598D01*
X152294625Y-81693596D01*
X152429332Y-81643354D01*
X152429339Y-81643350D01*
X152544433Y-81557190D01*
X152544436Y-81557187D01*
X152630596Y-81442093D01*
X152630600Y-81442086D01*
X152680842Y-81307379D01*
X152680844Y-81307372D01*
X152687245Y-81247844D01*
X152687246Y-81247827D01*
X152687246Y-80250000D01*
X151535728Y-80250000D01*
X151546357Y-80231591D01*
X151587246Y-80078991D01*
X151587246Y-79921009D01*
X151578548Y-79888549D01*
X156786746Y-79888549D01*
X156786746Y-80111450D01*
X156786747Y-80111466D01*
X156815840Y-80332452D01*
X156815841Y-80332457D01*
X156815842Y-80332463D01*
X156855406Y-80480119D01*
X156873536Y-80547780D01*
X156873539Y-80547790D01*
X156958839Y-80753722D01*
X156958841Y-80753726D01*
X157070298Y-80946774D01*
X157070303Y-80946780D01*
X157070304Y-80946782D01*
X157205997Y-81123622D01*
X157206003Y-81123629D01*
X157363616Y-81281242D01*
X157363622Y-81281247D01*
X157540472Y-81416948D01*
X157733520Y-81528405D01*
X157939465Y-81613710D01*
X158154783Y-81671404D01*
X158375789Y-81700500D01*
X158375796Y-81700500D01*
X158598696Y-81700500D01*
X158598703Y-81700500D01*
X158819709Y-81671404D01*
X159035027Y-81613710D01*
X159240972Y-81528405D01*
X159434020Y-81416948D01*
X159610870Y-81281247D01*
X159768493Y-81123624D01*
X159904194Y-80946774D01*
X160015651Y-80753726D01*
X160100956Y-80547781D01*
X160158650Y-80332463D01*
X160187746Y-80111457D01*
X160187746Y-79888543D01*
X160158650Y-79667537D01*
X160100956Y-79452219D01*
X160015651Y-79246274D01*
X159904194Y-79053226D01*
X159865113Y-79002294D01*
X159768494Y-78876377D01*
X159768488Y-78876370D01*
X159644273Y-78752155D01*
X166287246Y-78752155D01*
X166287246Y-79750000D01*
X167438764Y-79750000D01*
X167428135Y-79768409D01*
X167387246Y-79921009D01*
X167387246Y-80078991D01*
X167428135Y-80231591D01*
X167438764Y-80250000D01*
X166287246Y-80250000D01*
X166287246Y-81247844D01*
X166293647Y-81307372D01*
X166293649Y-81307379D01*
X166343891Y-81442086D01*
X166343895Y-81442093D01*
X166430055Y-81557187D01*
X166430058Y-81557190D01*
X166545152Y-81643350D01*
X166545159Y-81643354D01*
X166679866Y-81693596D01*
X166679873Y-81693598D01*
X166739401Y-81699999D01*
X166739418Y-81700000D01*
X167737246Y-81700000D01*
X167737246Y-80548482D01*
X167755655Y-80559111D01*
X167908255Y-80600000D01*
X168066237Y-80600000D01*
X168218837Y-80559111D01*
X168237246Y-80548482D01*
X168237246Y-81700000D01*
X169235074Y-81700000D01*
X169235090Y-81699999D01*
X169294618Y-81693598D01*
X169294625Y-81693596D01*
X169429332Y-81643354D01*
X169429339Y-81643350D01*
X169544433Y-81557190D01*
X169544436Y-81557187D01*
X169630596Y-81442093D01*
X169630600Y-81442086D01*
X169680842Y-81307379D01*
X169680844Y-81307372D01*
X169687245Y-81247844D01*
X169687246Y-81247827D01*
X169687246Y-80250000D01*
X168535728Y-80250000D01*
X168546357Y-80231591D01*
X168587246Y-80078991D01*
X168587246Y-79921009D01*
X168578548Y-79888549D01*
X173786746Y-79888549D01*
X173786746Y-80111450D01*
X173786747Y-80111466D01*
X173815840Y-80332452D01*
X173815841Y-80332457D01*
X173815842Y-80332463D01*
X173855406Y-80480119D01*
X173873536Y-80547780D01*
X173873539Y-80547790D01*
X173958839Y-80753722D01*
X173958841Y-80753726D01*
X174070298Y-80946774D01*
X174070303Y-80946780D01*
X174070304Y-80946782D01*
X174205997Y-81123622D01*
X174206003Y-81123629D01*
X174363616Y-81281242D01*
X174363622Y-81281247D01*
X174540472Y-81416948D01*
X174733520Y-81528405D01*
X174939465Y-81613710D01*
X175154783Y-81671404D01*
X175375789Y-81700500D01*
X175375796Y-81700500D01*
X175598696Y-81700500D01*
X175598703Y-81700500D01*
X175819709Y-81671404D01*
X176035027Y-81613710D01*
X176240972Y-81528405D01*
X176434020Y-81416948D01*
X176610870Y-81281247D01*
X176768493Y-81123624D01*
X176904194Y-80946774D01*
X177015651Y-80753726D01*
X177100956Y-80547781D01*
X177158650Y-80332463D01*
X177187746Y-80111457D01*
X177187746Y-79888543D01*
X177185161Y-79868905D01*
X180500000Y-79868905D01*
X180500000Y-80131094D01*
X180534220Y-80391009D01*
X180534222Y-80391020D01*
X180602075Y-80644255D01*
X180702404Y-80886471D01*
X180702409Y-80886482D01*
X180833488Y-81113516D01*
X180833494Y-81113524D01*
X180920080Y-81226365D01*
X181822421Y-80324024D01*
X181835359Y-80355258D01*
X181917437Y-80478097D01*
X182021903Y-80582563D01*
X182144742Y-80664641D01*
X182175974Y-80677577D01*
X181273633Y-81579917D01*
X181273633Y-81579918D01*
X181386475Y-81666505D01*
X181386483Y-81666511D01*
X181613517Y-81797590D01*
X181613528Y-81797595D01*
X181855744Y-81897924D01*
X182108979Y-81965777D01*
X182108990Y-81965779D01*
X182368905Y-81999999D01*
X182368920Y-82000000D01*
X182631080Y-82000000D01*
X182631094Y-81999999D01*
X182891009Y-81965779D01*
X182891020Y-81965777D01*
X183144255Y-81897924D01*
X183386471Y-81797595D01*
X183386482Y-81797590D01*
X183613516Y-81666511D01*
X183613534Y-81666499D01*
X183726365Y-81579919D01*
X183726365Y-81579917D01*
X182824025Y-80677578D01*
X182855258Y-80664641D01*
X182978097Y-80582563D01*
X183082563Y-80478097D01*
X183164641Y-80355258D01*
X183177577Y-80324025D01*
X184079917Y-81226365D01*
X184079919Y-81226365D01*
X184166499Y-81113534D01*
X184166511Y-81113516D01*
X184297590Y-80886482D01*
X184297595Y-80886471D01*
X184397924Y-80644255D01*
X184465777Y-80391020D01*
X184465779Y-80391009D01*
X184499999Y-80131094D01*
X184500000Y-80131080D01*
X184500000Y-79868919D01*
X184499999Y-79868905D01*
X184465779Y-79608990D01*
X184465777Y-79608979D01*
X184397924Y-79355744D01*
X184297595Y-79113528D01*
X184297590Y-79113517D01*
X184166511Y-78886483D01*
X184166505Y-78886475D01*
X184079918Y-78773633D01*
X184079917Y-78773633D01*
X183177577Y-79675973D01*
X183164641Y-79644742D01*
X183082563Y-79521903D01*
X182978097Y-79417437D01*
X182855258Y-79335359D01*
X182824023Y-79322421D01*
X183726365Y-78420080D01*
X183613524Y-78333494D01*
X183613516Y-78333488D01*
X183386482Y-78202409D01*
X183386471Y-78202404D01*
X183144255Y-78102075D01*
X182891020Y-78034222D01*
X182891009Y-78034220D01*
X182631094Y-78000000D01*
X182368905Y-78000000D01*
X182108990Y-78034220D01*
X182108979Y-78034222D01*
X181855744Y-78102075D01*
X181613528Y-78202404D01*
X181613517Y-78202409D01*
X181386471Y-78333496D01*
X181273633Y-78420079D01*
X181273633Y-78420080D01*
X182175974Y-79322421D01*
X182144742Y-79335359D01*
X182021903Y-79417437D01*
X181917437Y-79521903D01*
X181835359Y-79644742D01*
X181822421Y-79675974D01*
X180920080Y-78773633D01*
X180920079Y-78773633D01*
X180833496Y-78886471D01*
X180702409Y-79113517D01*
X180702404Y-79113528D01*
X180602075Y-79355744D01*
X180534222Y-79608979D01*
X180534220Y-79608990D01*
X180500000Y-79868905D01*
X177185161Y-79868905D01*
X177158650Y-79667537D01*
X177100956Y-79452219D01*
X177015651Y-79246274D01*
X176904194Y-79053226D01*
X176865113Y-79002294D01*
X176768494Y-78876377D01*
X176768488Y-78876370D01*
X176610875Y-78718757D01*
X176610868Y-78718751D01*
X176434028Y-78583058D01*
X176434026Y-78583056D01*
X176434020Y-78583052D01*
X176434015Y-78583049D01*
X176434012Y-78583047D01*
X176420801Y-78575420D01*
X176240972Y-78471595D01*
X176240968Y-78471593D01*
X176035036Y-78386293D01*
X176035029Y-78386291D01*
X176035027Y-78386290D01*
X175819709Y-78328596D01*
X175819703Y-78328595D01*
X175819698Y-78328594D01*
X175598712Y-78299501D01*
X175598709Y-78299500D01*
X175598703Y-78299500D01*
X175375789Y-78299500D01*
X175375783Y-78299500D01*
X175375779Y-78299501D01*
X175154793Y-78328594D01*
X175154786Y-78328595D01*
X175154783Y-78328596D01*
X174939465Y-78386290D01*
X174939455Y-78386293D01*
X174733523Y-78471593D01*
X174733519Y-78471595D01*
X174540472Y-78583052D01*
X174540463Y-78583058D01*
X174363623Y-78718751D01*
X174363616Y-78718757D01*
X174206003Y-78876370D01*
X174205997Y-78876377D01*
X174070304Y-79053217D01*
X174070298Y-79053226D01*
X173958841Y-79246273D01*
X173958839Y-79246277D01*
X173873539Y-79452209D01*
X173873536Y-79452219D01*
X173825474Y-79631592D01*
X173815843Y-79667534D01*
X173815840Y-79667547D01*
X173786747Y-79888533D01*
X173786747Y-79888540D01*
X173786746Y-79888549D01*
X168578548Y-79888549D01*
X168546357Y-79768409D01*
X168535728Y-79750000D01*
X169687246Y-79750000D01*
X169687246Y-78752172D01*
X169687245Y-78752155D01*
X169680844Y-78692627D01*
X169680842Y-78692620D01*
X169630600Y-78557913D01*
X169630596Y-78557906D01*
X169544436Y-78442812D01*
X169544433Y-78442809D01*
X169429339Y-78356649D01*
X169429332Y-78356645D01*
X169294625Y-78306403D01*
X169294618Y-78306401D01*
X169235090Y-78300000D01*
X168237246Y-78300000D01*
X168237246Y-79451517D01*
X168218837Y-79440889D01*
X168066237Y-79400000D01*
X167908255Y-79400000D01*
X167755655Y-79440889D01*
X167737246Y-79451517D01*
X167737246Y-78300000D01*
X166739401Y-78300000D01*
X166679873Y-78306401D01*
X166679866Y-78306403D01*
X166545159Y-78356645D01*
X166545152Y-78356649D01*
X166430058Y-78442809D01*
X166430055Y-78442812D01*
X166343895Y-78557906D01*
X166343891Y-78557913D01*
X166293649Y-78692620D01*
X166293647Y-78692627D01*
X166287246Y-78752155D01*
X159644273Y-78752155D01*
X159610875Y-78718757D01*
X159610868Y-78718751D01*
X159434028Y-78583058D01*
X159434026Y-78583057D01*
X159434020Y-78583052D01*
X159240972Y-78471595D01*
X159240968Y-78471593D01*
X159035036Y-78386293D01*
X159035029Y-78386291D01*
X159035027Y-78386290D01*
X158819709Y-78328596D01*
X158819703Y-78328595D01*
X158819698Y-78328594D01*
X158598712Y-78299501D01*
X158598709Y-78299500D01*
X158598703Y-78299500D01*
X158375789Y-78299500D01*
X158375783Y-78299500D01*
X158375779Y-78299501D01*
X158154793Y-78328594D01*
X158154786Y-78328595D01*
X158154783Y-78328596D01*
X157939465Y-78386290D01*
X157939455Y-78386293D01*
X157733523Y-78471593D01*
X157733519Y-78471595D01*
X157540472Y-78583052D01*
X157540463Y-78583058D01*
X157363623Y-78718751D01*
X157363616Y-78718757D01*
X157206003Y-78876370D01*
X157205997Y-78876377D01*
X157070304Y-79053217D01*
X157070298Y-79053226D01*
X156958841Y-79246273D01*
X156958839Y-79246277D01*
X156873539Y-79452209D01*
X156873536Y-79452219D01*
X156825474Y-79631592D01*
X156815843Y-79667534D01*
X156815840Y-79667547D01*
X156786747Y-79888533D01*
X156786747Y-79888540D01*
X156786746Y-79888549D01*
X151578548Y-79888549D01*
X151546357Y-79768409D01*
X151535728Y-79750000D01*
X152687246Y-79750000D01*
X152687246Y-78752172D01*
X152687245Y-78752155D01*
X152680844Y-78692627D01*
X152680842Y-78692620D01*
X152630600Y-78557913D01*
X152630596Y-78557906D01*
X152544436Y-78442812D01*
X152544433Y-78442809D01*
X152429339Y-78356649D01*
X152429332Y-78356645D01*
X152294625Y-78306403D01*
X152294618Y-78306401D01*
X152235090Y-78300000D01*
X151237246Y-78300000D01*
X151237246Y-79451517D01*
X151218837Y-79440889D01*
X151066237Y-79400000D01*
X150908255Y-79400000D01*
X150755655Y-79440889D01*
X150737246Y-79451517D01*
X150737246Y-78300000D01*
X149739401Y-78300000D01*
X149679873Y-78306401D01*
X149679866Y-78306403D01*
X149545159Y-78356645D01*
X149545152Y-78356649D01*
X149430058Y-78442809D01*
X149430055Y-78442812D01*
X149343895Y-78557906D01*
X149343891Y-78557913D01*
X149293649Y-78692620D01*
X149293647Y-78692627D01*
X149287246Y-78752155D01*
X142644273Y-78752155D01*
X142610875Y-78718757D01*
X142610868Y-78718751D01*
X142434028Y-78583058D01*
X142434026Y-78583057D01*
X142434020Y-78583052D01*
X142240972Y-78471595D01*
X142240968Y-78471593D01*
X142035036Y-78386293D01*
X142035029Y-78386291D01*
X142035027Y-78386290D01*
X141819709Y-78328596D01*
X141819703Y-78328595D01*
X141819698Y-78328594D01*
X141598712Y-78299501D01*
X141598709Y-78299500D01*
X141598703Y-78299500D01*
X141375789Y-78299500D01*
X141375783Y-78299500D01*
X141375779Y-78299501D01*
X141154793Y-78328594D01*
X141154786Y-78328595D01*
X141154783Y-78328596D01*
X140939465Y-78386290D01*
X140939455Y-78386293D01*
X140733523Y-78471593D01*
X140733519Y-78471595D01*
X140540472Y-78583052D01*
X140540463Y-78583058D01*
X140363623Y-78718751D01*
X140363616Y-78718757D01*
X140206003Y-78876370D01*
X140205997Y-78876377D01*
X140070304Y-79053217D01*
X140070298Y-79053226D01*
X139958841Y-79246273D01*
X139958839Y-79246277D01*
X139873539Y-79452209D01*
X139873536Y-79452219D01*
X139825474Y-79631592D01*
X139815843Y-79667534D01*
X139815840Y-79667547D01*
X139786747Y-79888533D01*
X139786747Y-79888540D01*
X139786746Y-79888549D01*
X134578548Y-79888549D01*
X134546357Y-79768409D01*
X134535728Y-79750000D01*
X135687246Y-79750000D01*
X135687246Y-78752172D01*
X135687245Y-78752155D01*
X135680844Y-78692627D01*
X135680842Y-78692620D01*
X135630600Y-78557913D01*
X135630596Y-78557906D01*
X135544436Y-78442812D01*
X135544433Y-78442809D01*
X135429339Y-78356649D01*
X135429332Y-78356645D01*
X135294625Y-78306403D01*
X135294618Y-78306401D01*
X135235090Y-78300000D01*
X134237246Y-78300000D01*
X134237246Y-79451517D01*
X134218837Y-79440889D01*
X134066237Y-79400000D01*
X133908255Y-79400000D01*
X133755655Y-79440889D01*
X133737246Y-79451517D01*
X133737246Y-78300000D01*
X132739401Y-78300000D01*
X132679873Y-78306401D01*
X132679866Y-78306403D01*
X132545159Y-78356645D01*
X132545152Y-78356649D01*
X132430058Y-78442809D01*
X132430055Y-78442812D01*
X132343895Y-78557906D01*
X132343891Y-78557913D01*
X132293649Y-78692620D01*
X132293647Y-78692627D01*
X132287246Y-78752155D01*
X124000000Y-78752155D01*
X124000000Y-74750000D01*
X125073391Y-74750000D01*
X126034314Y-74750000D01*
X126029920Y-74754394D01*
X125977259Y-74845606D01*
X125950000Y-74947339D01*
X125950000Y-75052661D01*
X125977259Y-75154394D01*
X126029920Y-75245606D01*
X126034314Y-75250000D01*
X125073391Y-75250000D01*
X125082009Y-75304413D01*
X125145244Y-75499029D01*
X125238140Y-75681349D01*
X125358417Y-75846894D01*
X125358417Y-75846895D01*
X125503104Y-75991582D01*
X125668650Y-76111859D01*
X125850968Y-76204754D01*
X126045578Y-76267988D01*
X126100000Y-76276607D01*
X126100000Y-75315686D01*
X126104394Y-75320080D01*
X126195606Y-75372741D01*
X126297339Y-75400000D01*
X126402661Y-75400000D01*
X126504394Y-75372741D01*
X126595606Y-75320080D01*
X126600000Y-75315686D01*
X126600000Y-76276606D01*
X126654421Y-76267988D01*
X126849031Y-76204754D01*
X127031349Y-76111859D01*
X127196894Y-75991582D01*
X127196895Y-75991582D01*
X127341582Y-75846895D01*
X127341582Y-75846894D01*
X127461859Y-75681349D01*
X127554755Y-75499029D01*
X127617990Y-75304413D01*
X127626609Y-75250000D01*
X126665686Y-75250000D01*
X126670080Y-75245606D01*
X126722741Y-75154394D01*
X126750000Y-75052661D01*
X126750000Y-74947339D01*
X126722741Y-74845606D01*
X126670080Y-74754394D01*
X126665686Y-74750000D01*
X127626609Y-74750000D01*
X127617990Y-74695586D01*
X127554755Y-74500970D01*
X127461859Y-74318650D01*
X127341582Y-74153105D01*
X127341582Y-74153104D01*
X127196895Y-74008417D01*
X127031349Y-73888140D01*
X126849029Y-73795244D01*
X126654413Y-73732009D01*
X126600000Y-73723390D01*
X126600000Y-74684314D01*
X126595606Y-74679920D01*
X126504394Y-74627259D01*
X126402661Y-74600000D01*
X126297339Y-74600000D01*
X126195606Y-74627259D01*
X126104394Y-74679920D01*
X126100000Y-74684314D01*
X126100000Y-73723390D01*
X126045586Y-73732009D01*
X125850970Y-73795244D01*
X125668650Y-73888140D01*
X125503105Y-74008417D01*
X125503104Y-74008417D01*
X125358417Y-74153104D01*
X125358417Y-74153105D01*
X125238140Y-74318650D01*
X125145244Y-74500970D01*
X125082009Y-74695586D01*
X125073391Y-74750000D01*
X124000000Y-74750000D01*
X124000000Y-74051362D01*
X124019685Y-73984323D01*
X124036319Y-73963681D01*
X125463681Y-72536319D01*
X125525004Y-72502834D01*
X125551362Y-72500000D01*
X182448638Y-72500000D01*
X182515677Y-72519685D01*
G37*
G04 #@! TD.AperFunction*
M02*
