%TF.GenerationSoftware,KiCad,Pcbnew,9.0.2-9.0.2-0~ubuntu22.04.1*%
%TF.CreationDate,2025-06-09T10:54:35+02:00*%
%TF.ProjectId,safety_board_Rev-A,73616665-7479-45f6-926f-6172645f5265,rev?*%
%TF.SameCoordinates,Original*%
%TF.FileFunction,Soldermask,Bot*%
%TF.FilePolarity,Negative*%
%FSLAX46Y46*%
G04 Gerber Fmt 4.6, Leading zero omitted, Abs format (unit mm)*
G04 Created by KiCad (PCBNEW 9.0.2-9.0.2-0~ubuntu22.04.1) date 2025-06-09 10:54:35*
%MOMM*%
%LPD*%
G01*
G04 APERTURE LIST*
G04 Aperture macros list*
%AMRoundRect*
0 Rectangle with rounded corners*
0 $1 Rounding radius*
0 $2 $3 $4 $5 $6 $7 $8 $9 X,Y pos of 4 corners*
0 Add a 4 corners polygon primitive as box body*
4,1,4,$2,$3,$4,$5,$6,$7,$8,$9,$2,$3,0*
0 Add four circle primitives for the rounded corners*
1,1,$1+$1,$2,$3*
1,1,$1+$1,$4,$5*
1,1,$1+$1,$6,$7*
1,1,$1+$1,$8,$9*
0 Add four rect primitives between the rounded corners*
20,1,$1+$1,$2,$3,$4,$5,0*
20,1,$1+$1,$4,$5,$6,$7,0*
20,1,$1+$1,$6,$7,$8,$9,0*
20,1,$1+$1,$8,$9,$2,$3,0*%
G04 Aperture macros list end*
%ADD10C,1.600000*%
%ADD11C,3.600000*%
%ADD12C,5.600000*%
%ADD13RoundRect,0.250000X-0.550000X0.550000X-0.550000X-0.550000X0.550000X-0.550000X0.550000X0.550000X0*%
%ADD14R,1.050000X1.500000*%
%ADD15O,1.050000X1.500000*%
%ADD16C,2.800000*%
%ADD17RoundRect,0.250000X1.150000X1.150000X-1.150000X1.150000X-1.150000X-1.150000X1.150000X-1.150000X0*%
%ADD18C,3.000000*%
%ADD19RoundRect,0.249999X0.850001X-0.850001X0.850001X0.850001X-0.850001X0.850001X-0.850001X-0.850001X0*%
%ADD20C,2.200000*%
%ADD21RoundRect,0.250001X-0.949999X-0.949999X0.949999X-0.949999X0.949999X0.949999X-0.949999X0.949999X0*%
%ADD22C,2.400000*%
%ADD23RoundRect,0.250001X0.949999X0.949999X-0.949999X0.949999X-0.949999X-0.949999X0.949999X-0.949999X0*%
G04 APERTURE END LIST*
D10*
%TO.C,R5*%
X173000000Y-94420000D03*
X173000000Y-104580000D03*
%TD*%
D11*
%TO.C,H2*%
X98500000Y-102500000D03*
D12*
X98500000Y-102500000D03*
%TD*%
D11*
%TO.C,H1*%
X201500000Y-102500000D03*
D12*
X201500000Y-102500000D03*
%TD*%
D13*
%TO.C,D2*%
X176000000Y-94690000D03*
D10*
X176000000Y-102310000D03*
%TD*%
%TO.C,R4*%
X166000000Y-94420000D03*
X166000000Y-104580000D03*
%TD*%
%TO.C,R3*%
X162500000Y-104580000D03*
X162500000Y-94420000D03*
%TD*%
%TO.C,R2*%
X123500000Y-96420000D03*
X123500000Y-106580000D03*
%TD*%
%TO.C,R1*%
X120000000Y-96420000D03*
X120000000Y-106580000D03*
%TD*%
D14*
%TO.C,Q1*%
X159000000Y-95500000D03*
D15*
X157730000Y-95500000D03*
X156460000Y-95500000D03*
%TD*%
D16*
%TO.C,K1*%
X131877795Y-103750000D03*
X136877795Y-103750000D03*
X126877795Y-103750000D03*
X131877795Y-96250000D03*
X136877795Y-96250000D03*
X126877795Y-96250000D03*
D17*
X151877795Y-103750000D03*
D16*
X151877795Y-96250000D03*
%TD*%
D18*
%TO.C,J9*%
X147500000Y-110000000D03*
%TD*%
%TO.C,J8*%
X152500000Y-110000000D03*
%TD*%
%TO.C,J6*%
X130500000Y-110000000D03*
%TD*%
%TO.C,J4*%
X197500000Y-110000000D03*
%TD*%
%TO.C,J2*%
X102500000Y-110000000D03*
%TD*%
%TO.C,J1*%
X169500000Y-110000000D03*
%TD*%
D19*
%TO.C,D4*%
X169500000Y-104580000D03*
D20*
X169500000Y-94420000D03*
%TD*%
D19*
%TO.C,D1*%
X158500000Y-110080000D03*
D20*
X158500000Y-99920000D03*
%TD*%
D21*
%TO.C,C6*%
X106487246Y-101000000D03*
D22*
X113987246Y-101000000D03*
%TD*%
D23*
%TO.C,C2*%
X193512755Y-101000000D03*
D22*
X186012755Y-101000000D03*
%TD*%
D10*
%TO.C,C1*%
X179000000Y-105750000D03*
X179000000Y-109250000D03*
%TD*%
M02*
