M48
; DRILL file {KiCad 9.0.2-9.0.2-0~ubuntu22.04.1} date 2025-06-09T10:54:52+0200
; FORMAT={-:-/ absolute / metric / decimal}
; #@! TF.CreationDate,2025-06-09T10:54:52+02:00
; #@! TF.GenerationSoftware,Kicad,Pcbnew,9.0.2-9.0.2-0~ubuntu22.04.1
; #@! TF.FileFunction,Plated,1,2,PTH
FMAT,2
METRIC
; #@! TA.AperFunction,Plated,PTH,ComponentDrill
T1C0.750
; #@! TA.AperFunction,Plated,PTH,ComponentDrill
T2C0.800
; #@! TA.AperFunction,Plated,PTH,ComponentDrill
T3C1.100
; #@! TA.AperFunction,Plated,PTH,ComponentDrill
T4C1.200
; #@! TA.AperFunction,Plated,PTH,ComponentDrill
T5C1.500
; #@! TA.AperFunction,Plated,PTH,ComponentDrill
T6C3.200
%
G90
G05
T1
X156.46Y-95.5
X157.73Y-95.5
X159.0Y-95.5
T2
X120.0Y-96.42
X120.0Y-106.58
X123.5Y-96.42
X123.5Y-106.58
X162.5Y-94.42
X162.5Y-104.58
X166.0Y-94.42
X166.0Y-104.58
X173.0Y-94.42
X173.0Y-104.58
X176.0Y-94.69
X176.0Y-102.31
X179.0Y-105.75
X179.0Y-109.25
T3
X158.5Y-99.92
X158.5Y-110.08
X169.5Y-94.42
X169.5Y-104.58
T4
X106.487Y-101.0
X113.987Y-101.0
X186.013Y-101.0
X193.513Y-101.0
T5
X102.5Y-110.0
X126.878Y-96.25
X126.878Y-103.75
X130.5Y-110.0
X131.878Y-96.25
X131.878Y-103.75
X136.878Y-96.25
X136.878Y-103.75
X147.5Y-110.0
X151.878Y-96.25
X151.878Y-103.75
X152.5Y-110.0
X169.5Y-110.0
X197.5Y-110.0
T6
X98.5Y-102.5
X201.5Y-102.5
M30
