%TF.GenerationSoftware,KiCad,Pcbnew,9.0.2-9.0.2-0~ubuntu22.04.1*%
%TF.CreationDate,2025-06-09T10:54:52+02:00*%
%TF.ProjectId,safety_board_Rev-A,73616665-7479-45f6-926f-6172645f5265,rev?*%
%TF.SameCoordinates,Original*%
%TF.FileFunction,Drillmap*%
%TF.FilePolarity,Positive*%
%FSLAX45Y45*%
G04 Gerber Fmt 4.5, Leading zero omitted, Abs format (unit mm)*
G04 Created by KiCad (PCBNEW 9.0.2-9.0.2-0~ubuntu22.04.1) date 2025-06-09 10:54:52*
%MOMM*%
%LPD*%
G01*
G04 APERTURE LIST*
%ADD10C,0.050000*%
%ADD11C,0.200000*%
%ADD12C,0.100000*%
%ADD13C,0.110000*%
%ADD14C,0.120000*%
%ADD15C,0.150000*%
%ADD16C,0.320000*%
G04 APERTURE END LIST*
D10*
X20500000Y-11000000D02*
G75*
G02*
X20250000Y-11250000I-250000J0D01*
G01*
X20250000Y-9250000D02*
G75*
G02*
X20500000Y-9500000I0J-250000D01*
G01*
X9750000Y-11250000D02*
G75*
G02*
X9500000Y-11000000I0J250000D01*
G01*
X9500000Y-9500000D02*
G75*
G02*
X9750000Y-9250000I250000J0D01*
G01*
X9500000Y-9500000D02*
X9500000Y-11000000D01*
X15000000Y-9250000D02*
X9750000Y-9250000D01*
X15000000Y-11250000D02*
X9750000Y-11250000D01*
X20250000Y-11250000D02*
X15000000Y-11250000D01*
X20500000Y-9500000D02*
X20500000Y-11000000D01*
X15000000Y-9250000D02*
X20250000Y-9250000D01*
D11*
D12*
X15608500Y-9512500D02*
X15683500Y-9587500D01*
X15683500Y-9512500D02*
X15608500Y-9587500D01*
X15735500Y-9512500D02*
X15810500Y-9587500D01*
X15810500Y-9512500D02*
X15735500Y-9587500D01*
X15862500Y-9512500D02*
X15937500Y-9587500D01*
X15937500Y-9512500D02*
X15862500Y-9587500D01*
X12040000Y-9642000D02*
G75*
G02*
X11960000Y-9642000I-40000J0D01*
G01*
X11960000Y-9642000D02*
G75*
G02*
X12040000Y-9642000I40000J0D01*
G01*
X12040000Y-10658000D02*
G75*
G02*
X11960000Y-10658000I-40000J0D01*
G01*
X11960000Y-10658000D02*
G75*
G02*
X12040000Y-10658000I40000J0D01*
G01*
X12390000Y-9642000D02*
G75*
G02*
X12310000Y-9642000I-40000J0D01*
G01*
X12310000Y-9642000D02*
G75*
G02*
X12390000Y-9642000I40000J0D01*
G01*
X12390000Y-10658000D02*
G75*
G02*
X12310000Y-10658000I-40000J0D01*
G01*
X12310000Y-10658000D02*
G75*
G02*
X12390000Y-10658000I40000J0D01*
G01*
X16290000Y-9442000D02*
G75*
G02*
X16210000Y-9442000I-40000J0D01*
G01*
X16210000Y-9442000D02*
G75*
G02*
X16290000Y-9442000I40000J0D01*
G01*
X16290000Y-10458000D02*
G75*
G02*
X16210000Y-10458000I-40000J0D01*
G01*
X16210000Y-10458000D02*
G75*
G02*
X16290000Y-10458000I40000J0D01*
G01*
X16640000Y-9442000D02*
G75*
G02*
X16560000Y-9442000I-40000J0D01*
G01*
X16560000Y-9442000D02*
G75*
G02*
X16640000Y-9442000I40000J0D01*
G01*
X16640000Y-10458000D02*
G75*
G02*
X16560000Y-10458000I-40000J0D01*
G01*
X16560000Y-10458000D02*
G75*
G02*
X16640000Y-10458000I40000J0D01*
G01*
X17340000Y-9442000D02*
G75*
G02*
X17260000Y-9442000I-40000J0D01*
G01*
X17260000Y-9442000D02*
G75*
G02*
X17340000Y-9442000I40000J0D01*
G01*
X17340000Y-10458000D02*
G75*
G02*
X17260000Y-10458000I-40000J0D01*
G01*
X17260000Y-10458000D02*
G75*
G02*
X17340000Y-10458000I40000J0D01*
G01*
X17640000Y-9469000D02*
G75*
G02*
X17560000Y-9469000I-40000J0D01*
G01*
X17560000Y-9469000D02*
G75*
G02*
X17640000Y-9469000I40000J0D01*
G01*
X17640000Y-10231000D02*
G75*
G02*
X17560000Y-10231000I-40000J0D01*
G01*
X17560000Y-10231000D02*
G75*
G02*
X17640000Y-10231000I40000J0D01*
G01*
X17940000Y-10575000D02*
G75*
G02*
X17860000Y-10575000I-40000J0D01*
G01*
X17860000Y-10575000D02*
G75*
G02*
X17940000Y-10575000I40000J0D01*
G01*
X17940000Y-10925000D02*
G75*
G02*
X17860000Y-10925000I-40000J0D01*
G01*
X17860000Y-10925000D02*
G75*
G02*
X17940000Y-10925000I40000J0D01*
G01*
D13*
X15850000Y-9937000D02*
X15850000Y-10047000D01*
X15795000Y-9992000D02*
X15905000Y-9992000D01*
X15850000Y-10953000D02*
X15850000Y-11063000D01*
X15795000Y-11008000D02*
X15905000Y-11008000D01*
X16950000Y-9387000D02*
X16950000Y-9497000D01*
X16895000Y-9442000D02*
X17005000Y-9442000D01*
X16950000Y-10403000D02*
X16950000Y-10513000D01*
X16895000Y-10458000D02*
X17005000Y-10458000D01*
D14*
X10691151Y-10142427D02*
X10691151Y-10057573D01*
X10606298Y-10057573D01*
X10606298Y-10142427D01*
X10691151Y-10142427D01*
X11441151Y-10142427D02*
X11441151Y-10057573D01*
X11356298Y-10057573D01*
X11356298Y-10142427D01*
X11441151Y-10142427D01*
X18643702Y-10142427D02*
X18643702Y-10057573D01*
X18558849Y-10057573D01*
X18558849Y-10142427D01*
X18643702Y-10142427D01*
X19393702Y-10142427D02*
X19393702Y-10057573D01*
X19308849Y-10057573D01*
X19308849Y-10142427D01*
X19393702Y-10142427D01*
D15*
X10250000Y-11075000D02*
X10325000Y-11000000D01*
X10250000Y-10925000D01*
X10175000Y-11000000D01*
X10250000Y-11075000D01*
X12687779Y-9700000D02*
X12762779Y-9625000D01*
X12687779Y-9550000D01*
X12612779Y-9625000D01*
X12687779Y-9700000D01*
X12687779Y-10450000D02*
X12762779Y-10375000D01*
X12687779Y-10300000D01*
X12612779Y-10375000D01*
X12687779Y-10450000D01*
X13050000Y-11075000D02*
X13125000Y-11000000D01*
X13050000Y-10925000D01*
X12975000Y-11000000D01*
X13050000Y-11075000D01*
X13187779Y-9700000D02*
X13262779Y-9625000D01*
X13187779Y-9550000D01*
X13112779Y-9625000D01*
X13187779Y-9700000D01*
X13187779Y-10450000D02*
X13262779Y-10375000D01*
X13187779Y-10300000D01*
X13112779Y-10375000D01*
X13187779Y-10450000D01*
X13687779Y-9700000D02*
X13762779Y-9625000D01*
X13687779Y-9550000D01*
X13612779Y-9625000D01*
X13687779Y-9700000D01*
X13687779Y-10450000D02*
X13762779Y-10375000D01*
X13687779Y-10300000D01*
X13612779Y-10375000D01*
X13687779Y-10450000D01*
X14750000Y-11075000D02*
X14825000Y-11000000D01*
X14750000Y-10925000D01*
X14675000Y-11000000D01*
X14750000Y-11075000D01*
X15187779Y-9700000D02*
X15262779Y-9625000D01*
X15187779Y-9550000D01*
X15112779Y-9625000D01*
X15187779Y-9700000D01*
X15187779Y-10450000D02*
X15262779Y-10375000D01*
X15187779Y-10300000D01*
X15112779Y-10375000D01*
X15187779Y-10450000D01*
X15250000Y-11075000D02*
X15325000Y-11000000D01*
X15250000Y-10925000D01*
X15175000Y-11000000D01*
X15250000Y-11075000D01*
X16950000Y-11075000D02*
X17025000Y-11000000D01*
X16950000Y-10925000D01*
X16875000Y-11000000D01*
X16950000Y-11075000D01*
X19750000Y-11075000D02*
X19825000Y-11000000D01*
X19750000Y-10925000D01*
X19675000Y-11000000D01*
X19750000Y-11075000D01*
D16*
X9690000Y-10090000D02*
X10010000Y-10410000D01*
X10010000Y-10090000D02*
X9690000Y-10410000D01*
X10010000Y-10250000D02*
G75*
G02*
X9690000Y-10250000I-160000J0D01*
G01*
X9690000Y-10250000D02*
G75*
G02*
X10010000Y-10250000I160000J0D01*
G01*
X19990000Y-10090000D02*
X20310000Y-10410000D01*
X20310000Y-10090000D02*
X19990000Y-10410000D01*
X20310000Y-10250000D02*
G75*
G02*
X19990000Y-10250000I-160000J0D01*
G01*
X19990000Y-10250000D02*
G75*
G02*
X20310000Y-10250000I160000J0D01*
G01*
D11*
X9758277Y-11563984D02*
X9758277Y-11363984D01*
X9758277Y-11363984D02*
X9805896Y-11363984D01*
X9805896Y-11363984D02*
X9834467Y-11373508D01*
X9834467Y-11373508D02*
X9853515Y-11392555D01*
X9853515Y-11392555D02*
X9863039Y-11411603D01*
X9863039Y-11411603D02*
X9872563Y-11449698D01*
X9872563Y-11449698D02*
X9872563Y-11478269D01*
X9872563Y-11478269D02*
X9863039Y-11516365D01*
X9863039Y-11516365D02*
X9853515Y-11535412D01*
X9853515Y-11535412D02*
X9834467Y-11554460D01*
X9834467Y-11554460D02*
X9805896Y-11563984D01*
X9805896Y-11563984D02*
X9758277Y-11563984D01*
X9958277Y-11563984D02*
X9958277Y-11430650D01*
X9958277Y-11468746D02*
X9967801Y-11449698D01*
X9967801Y-11449698D02*
X9977324Y-11440174D01*
X9977324Y-11440174D02*
X9996372Y-11430650D01*
X9996372Y-11430650D02*
X10015420Y-11430650D01*
X10082086Y-11563984D02*
X10082086Y-11430650D01*
X10082086Y-11363984D02*
X10072563Y-11373508D01*
X10072563Y-11373508D02*
X10082086Y-11383031D01*
X10082086Y-11383031D02*
X10091610Y-11373508D01*
X10091610Y-11373508D02*
X10082086Y-11363984D01*
X10082086Y-11363984D02*
X10082086Y-11383031D01*
X10205896Y-11563984D02*
X10186848Y-11554460D01*
X10186848Y-11554460D02*
X10177324Y-11535412D01*
X10177324Y-11535412D02*
X10177324Y-11363984D01*
X10310658Y-11563984D02*
X10291610Y-11554460D01*
X10291610Y-11554460D02*
X10282086Y-11535412D01*
X10282086Y-11535412D02*
X10282086Y-11363984D01*
X10539229Y-11563984D02*
X10539229Y-11363984D01*
X10539229Y-11363984D02*
X10605896Y-11506841D01*
X10605896Y-11506841D02*
X10672563Y-11363984D01*
X10672563Y-11363984D02*
X10672563Y-11563984D01*
X10853515Y-11563984D02*
X10853515Y-11459222D01*
X10853515Y-11459222D02*
X10843991Y-11440174D01*
X10843991Y-11440174D02*
X10824944Y-11430650D01*
X10824944Y-11430650D02*
X10786848Y-11430650D01*
X10786848Y-11430650D02*
X10767801Y-11440174D01*
X10853515Y-11554460D02*
X10834467Y-11563984D01*
X10834467Y-11563984D02*
X10786848Y-11563984D01*
X10786848Y-11563984D02*
X10767801Y-11554460D01*
X10767801Y-11554460D02*
X10758277Y-11535412D01*
X10758277Y-11535412D02*
X10758277Y-11516365D01*
X10758277Y-11516365D02*
X10767801Y-11497317D01*
X10767801Y-11497317D02*
X10786848Y-11487793D01*
X10786848Y-11487793D02*
X10834467Y-11487793D01*
X10834467Y-11487793D02*
X10853515Y-11478269D01*
X10948753Y-11430650D02*
X10948753Y-11630650D01*
X10948753Y-11440174D02*
X10967801Y-11430650D01*
X10967801Y-11430650D02*
X11005896Y-11430650D01*
X11005896Y-11430650D02*
X11024944Y-11440174D01*
X11024944Y-11440174D02*
X11034467Y-11449698D01*
X11034467Y-11449698D02*
X11043991Y-11468746D01*
X11043991Y-11468746D02*
X11043991Y-11525888D01*
X11043991Y-11525888D02*
X11034467Y-11544936D01*
X11034467Y-11544936D02*
X11024944Y-11554460D01*
X11024944Y-11554460D02*
X11005896Y-11563984D01*
X11005896Y-11563984D02*
X10967801Y-11563984D01*
X10967801Y-11563984D02*
X10948753Y-11554460D01*
X11129705Y-11544936D02*
X11139229Y-11554460D01*
X11139229Y-11554460D02*
X11129705Y-11563984D01*
X11129705Y-11563984D02*
X11120182Y-11554460D01*
X11120182Y-11554460D02*
X11129705Y-11544936D01*
X11129705Y-11544936D02*
X11129705Y-11563984D01*
X11129705Y-11440174D02*
X11139229Y-11449698D01*
X11139229Y-11449698D02*
X11129705Y-11459222D01*
X11129705Y-11459222D02*
X11120182Y-11449698D01*
X11120182Y-11449698D02*
X11129705Y-11440174D01*
X11129705Y-11440174D02*
X11129705Y-11459222D01*
D12*
X9422500Y-11855000D02*
X9497500Y-11930000D01*
X9497500Y-11855000D02*
X9422500Y-11930000D01*
D11*
X9796372Y-11783984D02*
X9815420Y-11783984D01*
X9815420Y-11783984D02*
X9834467Y-11793508D01*
X9834467Y-11793508D02*
X9843991Y-11803031D01*
X9843991Y-11803031D02*
X9853515Y-11822079D01*
X9853515Y-11822079D02*
X9863039Y-11860174D01*
X9863039Y-11860174D02*
X9863039Y-11907793D01*
X9863039Y-11907793D02*
X9853515Y-11945888D01*
X9853515Y-11945888D02*
X9843991Y-11964936D01*
X9843991Y-11964936D02*
X9834467Y-11974460D01*
X9834467Y-11974460D02*
X9815420Y-11983984D01*
X9815420Y-11983984D02*
X9796372Y-11983984D01*
X9796372Y-11983984D02*
X9777324Y-11974460D01*
X9777324Y-11974460D02*
X9767801Y-11964936D01*
X9767801Y-11964936D02*
X9758277Y-11945888D01*
X9758277Y-11945888D02*
X9748753Y-11907793D01*
X9748753Y-11907793D02*
X9748753Y-11860174D01*
X9748753Y-11860174D02*
X9758277Y-11822079D01*
X9758277Y-11822079D02*
X9767801Y-11803031D01*
X9767801Y-11803031D02*
X9777324Y-11793508D01*
X9777324Y-11793508D02*
X9796372Y-11783984D01*
X9948753Y-11964936D02*
X9958277Y-11974460D01*
X9958277Y-11974460D02*
X9948753Y-11983984D01*
X9948753Y-11983984D02*
X9939229Y-11974460D01*
X9939229Y-11974460D02*
X9948753Y-11964936D01*
X9948753Y-11964936D02*
X9948753Y-11983984D01*
X10024944Y-11783984D02*
X10158277Y-11783984D01*
X10158277Y-11783984D02*
X10072563Y-11983984D01*
X10329705Y-11783984D02*
X10234467Y-11783984D01*
X10234467Y-11783984D02*
X10224944Y-11879222D01*
X10224944Y-11879222D02*
X10234467Y-11869698D01*
X10234467Y-11869698D02*
X10253515Y-11860174D01*
X10253515Y-11860174D02*
X10301134Y-11860174D01*
X10301134Y-11860174D02*
X10320182Y-11869698D01*
X10320182Y-11869698D02*
X10329705Y-11879222D01*
X10329705Y-11879222D02*
X10339229Y-11898269D01*
X10339229Y-11898269D02*
X10339229Y-11945888D01*
X10339229Y-11945888D02*
X10329705Y-11964936D01*
X10329705Y-11964936D02*
X10320182Y-11974460D01*
X10320182Y-11974460D02*
X10301134Y-11983984D01*
X10301134Y-11983984D02*
X10253515Y-11983984D01*
X10253515Y-11983984D02*
X10234467Y-11974460D01*
X10234467Y-11974460D02*
X10224944Y-11964936D01*
X10463039Y-11783984D02*
X10482086Y-11783984D01*
X10482086Y-11783984D02*
X10501134Y-11793508D01*
X10501134Y-11793508D02*
X10510658Y-11803031D01*
X10510658Y-11803031D02*
X10520182Y-11822079D01*
X10520182Y-11822079D02*
X10529705Y-11860174D01*
X10529705Y-11860174D02*
X10529705Y-11907793D01*
X10529705Y-11907793D02*
X10520182Y-11945888D01*
X10520182Y-11945888D02*
X10510658Y-11964936D01*
X10510658Y-11964936D02*
X10501134Y-11974460D01*
X10501134Y-11974460D02*
X10482086Y-11983984D01*
X10482086Y-11983984D02*
X10463039Y-11983984D01*
X10463039Y-11983984D02*
X10443991Y-11974460D01*
X10443991Y-11974460D02*
X10434467Y-11964936D01*
X10434467Y-11964936D02*
X10424944Y-11945888D01*
X10424944Y-11945888D02*
X10415420Y-11907793D01*
X10415420Y-11907793D02*
X10415420Y-11860174D01*
X10415420Y-11860174D02*
X10424944Y-11822079D01*
X10424944Y-11822079D02*
X10434467Y-11803031D01*
X10434467Y-11803031D02*
X10443991Y-11793508D01*
X10443991Y-11793508D02*
X10463039Y-11783984D01*
X10615420Y-11983984D02*
X10615420Y-11850650D01*
X10615420Y-11869698D02*
X10624944Y-11860174D01*
X10624944Y-11860174D02*
X10643991Y-11850650D01*
X10643991Y-11850650D02*
X10672563Y-11850650D01*
X10672563Y-11850650D02*
X10691610Y-11860174D01*
X10691610Y-11860174D02*
X10701134Y-11879222D01*
X10701134Y-11879222D02*
X10701134Y-11983984D01*
X10701134Y-11879222D02*
X10710658Y-11860174D01*
X10710658Y-11860174D02*
X10729705Y-11850650D01*
X10729705Y-11850650D02*
X10758277Y-11850650D01*
X10758277Y-11850650D02*
X10777325Y-11860174D01*
X10777325Y-11860174D02*
X10786848Y-11879222D01*
X10786848Y-11879222D02*
X10786848Y-11983984D01*
X10882086Y-11983984D02*
X10882086Y-11850650D01*
X10882086Y-11869698D02*
X10891610Y-11860174D01*
X10891610Y-11860174D02*
X10910658Y-11850650D01*
X10910658Y-11850650D02*
X10939229Y-11850650D01*
X10939229Y-11850650D02*
X10958277Y-11860174D01*
X10958277Y-11860174D02*
X10967801Y-11879222D01*
X10967801Y-11879222D02*
X10967801Y-11983984D01*
X10967801Y-11879222D02*
X10977325Y-11860174D01*
X10977325Y-11860174D02*
X10996372Y-11850650D01*
X10996372Y-11850650D02*
X11024944Y-11850650D01*
X11024944Y-11850650D02*
X11043991Y-11860174D01*
X11043991Y-11860174D02*
X11053515Y-11879222D01*
X11053515Y-11879222D02*
X11053515Y-11983984D01*
X11443991Y-11774460D02*
X11272563Y-12031603D01*
X11701134Y-11783984D02*
X11720182Y-11783984D01*
X11720182Y-11783984D02*
X11739229Y-11793508D01*
X11739229Y-11793508D02*
X11748753Y-11803031D01*
X11748753Y-11803031D02*
X11758277Y-11822079D01*
X11758277Y-11822079D02*
X11767801Y-11860174D01*
X11767801Y-11860174D02*
X11767801Y-11907793D01*
X11767801Y-11907793D02*
X11758277Y-11945888D01*
X11758277Y-11945888D02*
X11748753Y-11964936D01*
X11748753Y-11964936D02*
X11739229Y-11974460D01*
X11739229Y-11974460D02*
X11720182Y-11983984D01*
X11720182Y-11983984D02*
X11701134Y-11983984D01*
X11701134Y-11983984D02*
X11682086Y-11974460D01*
X11682086Y-11974460D02*
X11672563Y-11964936D01*
X11672563Y-11964936D02*
X11663039Y-11945888D01*
X11663039Y-11945888D02*
X11653515Y-11907793D01*
X11653515Y-11907793D02*
X11653515Y-11860174D01*
X11653515Y-11860174D02*
X11663039Y-11822079D01*
X11663039Y-11822079D02*
X11672563Y-11803031D01*
X11672563Y-11803031D02*
X11682086Y-11793508D01*
X11682086Y-11793508D02*
X11701134Y-11783984D01*
X11853515Y-11964936D02*
X11863039Y-11974460D01*
X11863039Y-11974460D02*
X11853515Y-11983984D01*
X11853515Y-11983984D02*
X11843991Y-11974460D01*
X11843991Y-11974460D02*
X11853515Y-11964936D01*
X11853515Y-11964936D02*
X11853515Y-11983984D01*
X11986848Y-11783984D02*
X12005896Y-11783984D01*
X12005896Y-11783984D02*
X12024944Y-11793508D01*
X12024944Y-11793508D02*
X12034467Y-11803031D01*
X12034467Y-11803031D02*
X12043991Y-11822079D01*
X12043991Y-11822079D02*
X12053515Y-11860174D01*
X12053515Y-11860174D02*
X12053515Y-11907793D01*
X12053515Y-11907793D02*
X12043991Y-11945888D01*
X12043991Y-11945888D02*
X12034467Y-11964936D01*
X12034467Y-11964936D02*
X12024944Y-11974460D01*
X12024944Y-11974460D02*
X12005896Y-11983984D01*
X12005896Y-11983984D02*
X11986848Y-11983984D01*
X11986848Y-11983984D02*
X11967801Y-11974460D01*
X11967801Y-11974460D02*
X11958277Y-11964936D01*
X11958277Y-11964936D02*
X11948753Y-11945888D01*
X11948753Y-11945888D02*
X11939229Y-11907793D01*
X11939229Y-11907793D02*
X11939229Y-11860174D01*
X11939229Y-11860174D02*
X11948753Y-11822079D01*
X11948753Y-11822079D02*
X11958277Y-11803031D01*
X11958277Y-11803031D02*
X11967801Y-11793508D01*
X11967801Y-11793508D02*
X11986848Y-11783984D01*
X12129706Y-11803031D02*
X12139229Y-11793508D01*
X12139229Y-11793508D02*
X12158277Y-11783984D01*
X12158277Y-11783984D02*
X12205896Y-11783984D01*
X12205896Y-11783984D02*
X12224944Y-11793508D01*
X12224944Y-11793508D02*
X12234467Y-11803031D01*
X12234467Y-11803031D02*
X12243991Y-11822079D01*
X12243991Y-11822079D02*
X12243991Y-11841127D01*
X12243991Y-11841127D02*
X12234467Y-11869698D01*
X12234467Y-11869698D02*
X12120182Y-11983984D01*
X12120182Y-11983984D02*
X12243991Y-11983984D01*
X12339229Y-11983984D02*
X12377325Y-11983984D01*
X12377325Y-11983984D02*
X12396372Y-11974460D01*
X12396372Y-11974460D02*
X12405896Y-11964936D01*
X12405896Y-11964936D02*
X12424944Y-11936365D01*
X12424944Y-11936365D02*
X12434467Y-11898269D01*
X12434467Y-11898269D02*
X12434467Y-11822079D01*
X12434467Y-11822079D02*
X12424944Y-11803031D01*
X12424944Y-11803031D02*
X12415420Y-11793508D01*
X12415420Y-11793508D02*
X12396372Y-11783984D01*
X12396372Y-11783984D02*
X12358277Y-11783984D01*
X12358277Y-11783984D02*
X12339229Y-11793508D01*
X12339229Y-11793508D02*
X12329706Y-11803031D01*
X12329706Y-11803031D02*
X12320182Y-11822079D01*
X12320182Y-11822079D02*
X12320182Y-11869698D01*
X12320182Y-11869698D02*
X12329706Y-11888746D01*
X12329706Y-11888746D02*
X12339229Y-11898269D01*
X12339229Y-11898269D02*
X12358277Y-11907793D01*
X12358277Y-11907793D02*
X12396372Y-11907793D01*
X12396372Y-11907793D02*
X12415420Y-11898269D01*
X12415420Y-11898269D02*
X12424944Y-11888746D01*
X12424944Y-11888746D02*
X12434467Y-11869698D01*
X12615420Y-11783984D02*
X12520182Y-11783984D01*
X12520182Y-11783984D02*
X12510658Y-11879222D01*
X12510658Y-11879222D02*
X12520182Y-11869698D01*
X12520182Y-11869698D02*
X12539229Y-11860174D01*
X12539229Y-11860174D02*
X12586848Y-11860174D01*
X12586848Y-11860174D02*
X12605896Y-11869698D01*
X12605896Y-11869698D02*
X12615420Y-11879222D01*
X12615420Y-11879222D02*
X12624944Y-11898269D01*
X12624944Y-11898269D02*
X12624944Y-11945888D01*
X12624944Y-11945888D02*
X12615420Y-11964936D01*
X12615420Y-11964936D02*
X12605896Y-11974460D01*
X12605896Y-11974460D02*
X12586848Y-11983984D01*
X12586848Y-11983984D02*
X12539229Y-11983984D01*
X12539229Y-11983984D02*
X12520182Y-11974460D01*
X12520182Y-11974460D02*
X12510658Y-11964936D01*
X12701134Y-11783984D02*
X12701134Y-11822079D01*
X12777325Y-11783984D02*
X12777325Y-11822079D01*
X13072563Y-12060174D02*
X13063039Y-12050650D01*
X13063039Y-12050650D02*
X13043991Y-12022079D01*
X13043991Y-12022079D02*
X13034468Y-12003031D01*
X13034468Y-12003031D02*
X13024944Y-11974460D01*
X13024944Y-11974460D02*
X13015420Y-11926841D01*
X13015420Y-11926841D02*
X13015420Y-11888746D01*
X13015420Y-11888746D02*
X13024944Y-11841127D01*
X13024944Y-11841127D02*
X13034468Y-11812555D01*
X13034468Y-11812555D02*
X13043991Y-11793508D01*
X13043991Y-11793508D02*
X13063039Y-11764936D01*
X13063039Y-11764936D02*
X13072563Y-11755412D01*
X13129706Y-11783984D02*
X13253515Y-11783984D01*
X13253515Y-11783984D02*
X13186848Y-11860174D01*
X13186848Y-11860174D02*
X13215420Y-11860174D01*
X13215420Y-11860174D02*
X13234468Y-11869698D01*
X13234468Y-11869698D02*
X13243991Y-11879222D01*
X13243991Y-11879222D02*
X13253515Y-11898269D01*
X13253515Y-11898269D02*
X13253515Y-11945888D01*
X13253515Y-11945888D02*
X13243991Y-11964936D01*
X13243991Y-11964936D02*
X13234468Y-11974460D01*
X13234468Y-11974460D02*
X13215420Y-11983984D01*
X13215420Y-11983984D02*
X13158277Y-11983984D01*
X13158277Y-11983984D02*
X13139229Y-11974460D01*
X13139229Y-11974460D02*
X13129706Y-11964936D01*
X13491610Y-11983984D02*
X13491610Y-11783984D01*
X13577325Y-11983984D02*
X13577325Y-11879222D01*
X13577325Y-11879222D02*
X13567801Y-11860174D01*
X13567801Y-11860174D02*
X13548753Y-11850650D01*
X13548753Y-11850650D02*
X13520182Y-11850650D01*
X13520182Y-11850650D02*
X13501134Y-11860174D01*
X13501134Y-11860174D02*
X13491610Y-11869698D01*
X13701134Y-11983984D02*
X13682087Y-11974460D01*
X13682087Y-11974460D02*
X13672563Y-11964936D01*
X13672563Y-11964936D02*
X13663039Y-11945888D01*
X13663039Y-11945888D02*
X13663039Y-11888746D01*
X13663039Y-11888746D02*
X13672563Y-11869698D01*
X13672563Y-11869698D02*
X13682087Y-11860174D01*
X13682087Y-11860174D02*
X13701134Y-11850650D01*
X13701134Y-11850650D02*
X13729706Y-11850650D01*
X13729706Y-11850650D02*
X13748753Y-11860174D01*
X13748753Y-11860174D02*
X13758277Y-11869698D01*
X13758277Y-11869698D02*
X13767801Y-11888746D01*
X13767801Y-11888746D02*
X13767801Y-11945888D01*
X13767801Y-11945888D02*
X13758277Y-11964936D01*
X13758277Y-11964936D02*
X13748753Y-11974460D01*
X13748753Y-11974460D02*
X13729706Y-11983984D01*
X13729706Y-11983984D02*
X13701134Y-11983984D01*
X13882087Y-11983984D02*
X13863039Y-11974460D01*
X13863039Y-11974460D02*
X13853515Y-11955412D01*
X13853515Y-11955412D02*
X13853515Y-11783984D01*
X14034468Y-11974460D02*
X14015420Y-11983984D01*
X14015420Y-11983984D02*
X13977325Y-11983984D01*
X13977325Y-11983984D02*
X13958277Y-11974460D01*
X13958277Y-11974460D02*
X13948753Y-11955412D01*
X13948753Y-11955412D02*
X13948753Y-11879222D01*
X13948753Y-11879222D02*
X13958277Y-11860174D01*
X13958277Y-11860174D02*
X13977325Y-11850650D01*
X13977325Y-11850650D02*
X14015420Y-11850650D01*
X14015420Y-11850650D02*
X14034468Y-11860174D01*
X14034468Y-11860174D02*
X14043991Y-11879222D01*
X14043991Y-11879222D02*
X14043991Y-11898269D01*
X14043991Y-11898269D02*
X13948753Y-11917317D01*
X14120182Y-11974460D02*
X14139230Y-11983984D01*
X14139230Y-11983984D02*
X14177325Y-11983984D01*
X14177325Y-11983984D02*
X14196372Y-11974460D01*
X14196372Y-11974460D02*
X14205896Y-11955412D01*
X14205896Y-11955412D02*
X14205896Y-11945888D01*
X14205896Y-11945888D02*
X14196372Y-11926841D01*
X14196372Y-11926841D02*
X14177325Y-11917317D01*
X14177325Y-11917317D02*
X14148753Y-11917317D01*
X14148753Y-11917317D02*
X14129706Y-11907793D01*
X14129706Y-11907793D02*
X14120182Y-11888746D01*
X14120182Y-11888746D02*
X14120182Y-11879222D01*
X14120182Y-11879222D02*
X14129706Y-11860174D01*
X14129706Y-11860174D02*
X14148753Y-11850650D01*
X14148753Y-11850650D02*
X14177325Y-11850650D01*
X14177325Y-11850650D02*
X14196372Y-11860174D01*
X14272563Y-12060174D02*
X14282087Y-12050650D01*
X14282087Y-12050650D02*
X14301134Y-12022079D01*
X14301134Y-12022079D02*
X14310658Y-12003031D01*
X14310658Y-12003031D02*
X14320182Y-11974460D01*
X14320182Y-11974460D02*
X14329706Y-11926841D01*
X14329706Y-11926841D02*
X14329706Y-11888746D01*
X14329706Y-11888746D02*
X14320182Y-11841127D01*
X14320182Y-11841127D02*
X14310658Y-11812555D01*
X14310658Y-11812555D02*
X14301134Y-11793508D01*
X14301134Y-11793508D02*
X14282087Y-11764936D01*
X14282087Y-11764936D02*
X14272563Y-11755412D01*
D12*
X9497500Y-12156500D02*
G75*
G02*
X9417500Y-12156500I-40000J0D01*
G01*
X9417500Y-12156500D02*
G75*
G02*
X9497500Y-12156500I40000J0D01*
G01*
D11*
X9796372Y-12047984D02*
X9815420Y-12047984D01*
X9815420Y-12047984D02*
X9834467Y-12057508D01*
X9834467Y-12057508D02*
X9843991Y-12067031D01*
X9843991Y-12067031D02*
X9853515Y-12086079D01*
X9853515Y-12086079D02*
X9863039Y-12124174D01*
X9863039Y-12124174D02*
X9863039Y-12171793D01*
X9863039Y-12171793D02*
X9853515Y-12209888D01*
X9853515Y-12209888D02*
X9843991Y-12228936D01*
X9843991Y-12228936D02*
X9834467Y-12238460D01*
X9834467Y-12238460D02*
X9815420Y-12247984D01*
X9815420Y-12247984D02*
X9796372Y-12247984D01*
X9796372Y-12247984D02*
X9777324Y-12238460D01*
X9777324Y-12238460D02*
X9767801Y-12228936D01*
X9767801Y-12228936D02*
X9758277Y-12209888D01*
X9758277Y-12209888D02*
X9748753Y-12171793D01*
X9748753Y-12171793D02*
X9748753Y-12124174D01*
X9748753Y-12124174D02*
X9758277Y-12086079D01*
X9758277Y-12086079D02*
X9767801Y-12067031D01*
X9767801Y-12067031D02*
X9777324Y-12057508D01*
X9777324Y-12057508D02*
X9796372Y-12047984D01*
X9948753Y-12228936D02*
X9958277Y-12238460D01*
X9958277Y-12238460D02*
X9948753Y-12247984D01*
X9948753Y-12247984D02*
X9939229Y-12238460D01*
X9939229Y-12238460D02*
X9948753Y-12228936D01*
X9948753Y-12228936D02*
X9948753Y-12247984D01*
X10072563Y-12133698D02*
X10053515Y-12124174D01*
X10053515Y-12124174D02*
X10043991Y-12114650D01*
X10043991Y-12114650D02*
X10034467Y-12095603D01*
X10034467Y-12095603D02*
X10034467Y-12086079D01*
X10034467Y-12086079D02*
X10043991Y-12067031D01*
X10043991Y-12067031D02*
X10053515Y-12057508D01*
X10053515Y-12057508D02*
X10072563Y-12047984D01*
X10072563Y-12047984D02*
X10110658Y-12047984D01*
X10110658Y-12047984D02*
X10129705Y-12057508D01*
X10129705Y-12057508D02*
X10139229Y-12067031D01*
X10139229Y-12067031D02*
X10148753Y-12086079D01*
X10148753Y-12086079D02*
X10148753Y-12095603D01*
X10148753Y-12095603D02*
X10139229Y-12114650D01*
X10139229Y-12114650D02*
X10129705Y-12124174D01*
X10129705Y-12124174D02*
X10110658Y-12133698D01*
X10110658Y-12133698D02*
X10072563Y-12133698D01*
X10072563Y-12133698D02*
X10053515Y-12143222D01*
X10053515Y-12143222D02*
X10043991Y-12152746D01*
X10043991Y-12152746D02*
X10034467Y-12171793D01*
X10034467Y-12171793D02*
X10034467Y-12209888D01*
X10034467Y-12209888D02*
X10043991Y-12228936D01*
X10043991Y-12228936D02*
X10053515Y-12238460D01*
X10053515Y-12238460D02*
X10072563Y-12247984D01*
X10072563Y-12247984D02*
X10110658Y-12247984D01*
X10110658Y-12247984D02*
X10129705Y-12238460D01*
X10129705Y-12238460D02*
X10139229Y-12228936D01*
X10139229Y-12228936D02*
X10148753Y-12209888D01*
X10148753Y-12209888D02*
X10148753Y-12171793D01*
X10148753Y-12171793D02*
X10139229Y-12152746D01*
X10139229Y-12152746D02*
X10129705Y-12143222D01*
X10129705Y-12143222D02*
X10110658Y-12133698D01*
X10272563Y-12047984D02*
X10291610Y-12047984D01*
X10291610Y-12047984D02*
X10310658Y-12057508D01*
X10310658Y-12057508D02*
X10320182Y-12067031D01*
X10320182Y-12067031D02*
X10329705Y-12086079D01*
X10329705Y-12086079D02*
X10339229Y-12124174D01*
X10339229Y-12124174D02*
X10339229Y-12171793D01*
X10339229Y-12171793D02*
X10329705Y-12209888D01*
X10329705Y-12209888D02*
X10320182Y-12228936D01*
X10320182Y-12228936D02*
X10310658Y-12238460D01*
X10310658Y-12238460D02*
X10291610Y-12247984D01*
X10291610Y-12247984D02*
X10272563Y-12247984D01*
X10272563Y-12247984D02*
X10253515Y-12238460D01*
X10253515Y-12238460D02*
X10243991Y-12228936D01*
X10243991Y-12228936D02*
X10234467Y-12209888D01*
X10234467Y-12209888D02*
X10224944Y-12171793D01*
X10224944Y-12171793D02*
X10224944Y-12124174D01*
X10224944Y-12124174D02*
X10234467Y-12086079D01*
X10234467Y-12086079D02*
X10243991Y-12067031D01*
X10243991Y-12067031D02*
X10253515Y-12057508D01*
X10253515Y-12057508D02*
X10272563Y-12047984D01*
X10463039Y-12047984D02*
X10482086Y-12047984D01*
X10482086Y-12047984D02*
X10501134Y-12057508D01*
X10501134Y-12057508D02*
X10510658Y-12067031D01*
X10510658Y-12067031D02*
X10520182Y-12086079D01*
X10520182Y-12086079D02*
X10529705Y-12124174D01*
X10529705Y-12124174D02*
X10529705Y-12171793D01*
X10529705Y-12171793D02*
X10520182Y-12209888D01*
X10520182Y-12209888D02*
X10510658Y-12228936D01*
X10510658Y-12228936D02*
X10501134Y-12238460D01*
X10501134Y-12238460D02*
X10482086Y-12247984D01*
X10482086Y-12247984D02*
X10463039Y-12247984D01*
X10463039Y-12247984D02*
X10443991Y-12238460D01*
X10443991Y-12238460D02*
X10434467Y-12228936D01*
X10434467Y-12228936D02*
X10424944Y-12209888D01*
X10424944Y-12209888D02*
X10415420Y-12171793D01*
X10415420Y-12171793D02*
X10415420Y-12124174D01*
X10415420Y-12124174D02*
X10424944Y-12086079D01*
X10424944Y-12086079D02*
X10434467Y-12067031D01*
X10434467Y-12067031D02*
X10443991Y-12057508D01*
X10443991Y-12057508D02*
X10463039Y-12047984D01*
X10615420Y-12247984D02*
X10615420Y-12114650D01*
X10615420Y-12133698D02*
X10624944Y-12124174D01*
X10624944Y-12124174D02*
X10643991Y-12114650D01*
X10643991Y-12114650D02*
X10672563Y-12114650D01*
X10672563Y-12114650D02*
X10691610Y-12124174D01*
X10691610Y-12124174D02*
X10701134Y-12143222D01*
X10701134Y-12143222D02*
X10701134Y-12247984D01*
X10701134Y-12143222D02*
X10710658Y-12124174D01*
X10710658Y-12124174D02*
X10729705Y-12114650D01*
X10729705Y-12114650D02*
X10758277Y-12114650D01*
X10758277Y-12114650D02*
X10777325Y-12124174D01*
X10777325Y-12124174D02*
X10786848Y-12143222D01*
X10786848Y-12143222D02*
X10786848Y-12247984D01*
X10882086Y-12247984D02*
X10882086Y-12114650D01*
X10882086Y-12133698D02*
X10891610Y-12124174D01*
X10891610Y-12124174D02*
X10910658Y-12114650D01*
X10910658Y-12114650D02*
X10939229Y-12114650D01*
X10939229Y-12114650D02*
X10958277Y-12124174D01*
X10958277Y-12124174D02*
X10967801Y-12143222D01*
X10967801Y-12143222D02*
X10967801Y-12247984D01*
X10967801Y-12143222D02*
X10977325Y-12124174D01*
X10977325Y-12124174D02*
X10996372Y-12114650D01*
X10996372Y-12114650D02*
X11024944Y-12114650D01*
X11024944Y-12114650D02*
X11043991Y-12124174D01*
X11043991Y-12124174D02*
X11053515Y-12143222D01*
X11053515Y-12143222D02*
X11053515Y-12247984D01*
X11443991Y-12038460D02*
X11272563Y-12295603D01*
X11701134Y-12047984D02*
X11720182Y-12047984D01*
X11720182Y-12047984D02*
X11739229Y-12057508D01*
X11739229Y-12057508D02*
X11748753Y-12067031D01*
X11748753Y-12067031D02*
X11758277Y-12086079D01*
X11758277Y-12086079D02*
X11767801Y-12124174D01*
X11767801Y-12124174D02*
X11767801Y-12171793D01*
X11767801Y-12171793D02*
X11758277Y-12209888D01*
X11758277Y-12209888D02*
X11748753Y-12228936D01*
X11748753Y-12228936D02*
X11739229Y-12238460D01*
X11739229Y-12238460D02*
X11720182Y-12247984D01*
X11720182Y-12247984D02*
X11701134Y-12247984D01*
X11701134Y-12247984D02*
X11682086Y-12238460D01*
X11682086Y-12238460D02*
X11672563Y-12228936D01*
X11672563Y-12228936D02*
X11663039Y-12209888D01*
X11663039Y-12209888D02*
X11653515Y-12171793D01*
X11653515Y-12171793D02*
X11653515Y-12124174D01*
X11653515Y-12124174D02*
X11663039Y-12086079D01*
X11663039Y-12086079D02*
X11672563Y-12067031D01*
X11672563Y-12067031D02*
X11682086Y-12057508D01*
X11682086Y-12057508D02*
X11701134Y-12047984D01*
X11853515Y-12228936D02*
X11863039Y-12238460D01*
X11863039Y-12238460D02*
X11853515Y-12247984D01*
X11853515Y-12247984D02*
X11843991Y-12238460D01*
X11843991Y-12238460D02*
X11853515Y-12228936D01*
X11853515Y-12228936D02*
X11853515Y-12247984D01*
X11986848Y-12047984D02*
X12005896Y-12047984D01*
X12005896Y-12047984D02*
X12024944Y-12057508D01*
X12024944Y-12057508D02*
X12034467Y-12067031D01*
X12034467Y-12067031D02*
X12043991Y-12086079D01*
X12043991Y-12086079D02*
X12053515Y-12124174D01*
X12053515Y-12124174D02*
X12053515Y-12171793D01*
X12053515Y-12171793D02*
X12043991Y-12209888D01*
X12043991Y-12209888D02*
X12034467Y-12228936D01*
X12034467Y-12228936D02*
X12024944Y-12238460D01*
X12024944Y-12238460D02*
X12005896Y-12247984D01*
X12005896Y-12247984D02*
X11986848Y-12247984D01*
X11986848Y-12247984D02*
X11967801Y-12238460D01*
X11967801Y-12238460D02*
X11958277Y-12228936D01*
X11958277Y-12228936D02*
X11948753Y-12209888D01*
X11948753Y-12209888D02*
X11939229Y-12171793D01*
X11939229Y-12171793D02*
X11939229Y-12124174D01*
X11939229Y-12124174D02*
X11948753Y-12086079D01*
X11948753Y-12086079D02*
X11958277Y-12067031D01*
X11958277Y-12067031D02*
X11967801Y-12057508D01*
X11967801Y-12057508D02*
X11986848Y-12047984D01*
X12120182Y-12047984D02*
X12243991Y-12047984D01*
X12243991Y-12047984D02*
X12177325Y-12124174D01*
X12177325Y-12124174D02*
X12205896Y-12124174D01*
X12205896Y-12124174D02*
X12224944Y-12133698D01*
X12224944Y-12133698D02*
X12234467Y-12143222D01*
X12234467Y-12143222D02*
X12243991Y-12162269D01*
X12243991Y-12162269D02*
X12243991Y-12209888D01*
X12243991Y-12209888D02*
X12234467Y-12228936D01*
X12234467Y-12228936D02*
X12224944Y-12238460D01*
X12224944Y-12238460D02*
X12205896Y-12247984D01*
X12205896Y-12247984D02*
X12148753Y-12247984D01*
X12148753Y-12247984D02*
X12129706Y-12238460D01*
X12129706Y-12238460D02*
X12120182Y-12228936D01*
X12434467Y-12247984D02*
X12320182Y-12247984D01*
X12377325Y-12247984D02*
X12377325Y-12047984D01*
X12377325Y-12047984D02*
X12358277Y-12076555D01*
X12358277Y-12076555D02*
X12339229Y-12095603D01*
X12339229Y-12095603D02*
X12320182Y-12105127D01*
X12615420Y-12047984D02*
X12520182Y-12047984D01*
X12520182Y-12047984D02*
X12510658Y-12143222D01*
X12510658Y-12143222D02*
X12520182Y-12133698D01*
X12520182Y-12133698D02*
X12539229Y-12124174D01*
X12539229Y-12124174D02*
X12586848Y-12124174D01*
X12586848Y-12124174D02*
X12605896Y-12133698D01*
X12605896Y-12133698D02*
X12615420Y-12143222D01*
X12615420Y-12143222D02*
X12624944Y-12162269D01*
X12624944Y-12162269D02*
X12624944Y-12209888D01*
X12624944Y-12209888D02*
X12615420Y-12228936D01*
X12615420Y-12228936D02*
X12605896Y-12238460D01*
X12605896Y-12238460D02*
X12586848Y-12247984D01*
X12586848Y-12247984D02*
X12539229Y-12247984D01*
X12539229Y-12247984D02*
X12520182Y-12238460D01*
X12520182Y-12238460D02*
X12510658Y-12228936D01*
X12701134Y-12047984D02*
X12701134Y-12086079D01*
X12777325Y-12047984D02*
X12777325Y-12086079D01*
X13072563Y-12324174D02*
X13063039Y-12314650D01*
X13063039Y-12314650D02*
X13043991Y-12286079D01*
X13043991Y-12286079D02*
X13034468Y-12267031D01*
X13034468Y-12267031D02*
X13024944Y-12238460D01*
X13024944Y-12238460D02*
X13015420Y-12190841D01*
X13015420Y-12190841D02*
X13015420Y-12152746D01*
X13015420Y-12152746D02*
X13024944Y-12105127D01*
X13024944Y-12105127D02*
X13034468Y-12076555D01*
X13034468Y-12076555D02*
X13043991Y-12057508D01*
X13043991Y-12057508D02*
X13063039Y-12028936D01*
X13063039Y-12028936D02*
X13072563Y-12019412D01*
X13253515Y-12247984D02*
X13139229Y-12247984D01*
X13196372Y-12247984D02*
X13196372Y-12047984D01*
X13196372Y-12047984D02*
X13177325Y-12076555D01*
X13177325Y-12076555D02*
X13158277Y-12095603D01*
X13158277Y-12095603D02*
X13139229Y-12105127D01*
X13424944Y-12114650D02*
X13424944Y-12247984D01*
X13377325Y-12038460D02*
X13329706Y-12181317D01*
X13329706Y-12181317D02*
X13453515Y-12181317D01*
X13682087Y-12247984D02*
X13682087Y-12047984D01*
X13767801Y-12247984D02*
X13767801Y-12143222D01*
X13767801Y-12143222D02*
X13758277Y-12124174D01*
X13758277Y-12124174D02*
X13739230Y-12114650D01*
X13739230Y-12114650D02*
X13710658Y-12114650D01*
X13710658Y-12114650D02*
X13691610Y-12124174D01*
X13691610Y-12124174D02*
X13682087Y-12133698D01*
X13891610Y-12247984D02*
X13872563Y-12238460D01*
X13872563Y-12238460D02*
X13863039Y-12228936D01*
X13863039Y-12228936D02*
X13853515Y-12209888D01*
X13853515Y-12209888D02*
X13853515Y-12152746D01*
X13853515Y-12152746D02*
X13863039Y-12133698D01*
X13863039Y-12133698D02*
X13872563Y-12124174D01*
X13872563Y-12124174D02*
X13891610Y-12114650D01*
X13891610Y-12114650D02*
X13920182Y-12114650D01*
X13920182Y-12114650D02*
X13939230Y-12124174D01*
X13939230Y-12124174D02*
X13948753Y-12133698D01*
X13948753Y-12133698D02*
X13958277Y-12152746D01*
X13958277Y-12152746D02*
X13958277Y-12209888D01*
X13958277Y-12209888D02*
X13948753Y-12228936D01*
X13948753Y-12228936D02*
X13939230Y-12238460D01*
X13939230Y-12238460D02*
X13920182Y-12247984D01*
X13920182Y-12247984D02*
X13891610Y-12247984D01*
X14072563Y-12247984D02*
X14053515Y-12238460D01*
X14053515Y-12238460D02*
X14043991Y-12219412D01*
X14043991Y-12219412D02*
X14043991Y-12047984D01*
X14224944Y-12238460D02*
X14205896Y-12247984D01*
X14205896Y-12247984D02*
X14167801Y-12247984D01*
X14167801Y-12247984D02*
X14148753Y-12238460D01*
X14148753Y-12238460D02*
X14139230Y-12219412D01*
X14139230Y-12219412D02*
X14139230Y-12143222D01*
X14139230Y-12143222D02*
X14148753Y-12124174D01*
X14148753Y-12124174D02*
X14167801Y-12114650D01*
X14167801Y-12114650D02*
X14205896Y-12114650D01*
X14205896Y-12114650D02*
X14224944Y-12124174D01*
X14224944Y-12124174D02*
X14234468Y-12143222D01*
X14234468Y-12143222D02*
X14234468Y-12162269D01*
X14234468Y-12162269D02*
X14139230Y-12181317D01*
X14310658Y-12238460D02*
X14329706Y-12247984D01*
X14329706Y-12247984D02*
X14367801Y-12247984D01*
X14367801Y-12247984D02*
X14386849Y-12238460D01*
X14386849Y-12238460D02*
X14396372Y-12219412D01*
X14396372Y-12219412D02*
X14396372Y-12209888D01*
X14396372Y-12209888D02*
X14386849Y-12190841D01*
X14386849Y-12190841D02*
X14367801Y-12181317D01*
X14367801Y-12181317D02*
X14339230Y-12181317D01*
X14339230Y-12181317D02*
X14320182Y-12171793D01*
X14320182Y-12171793D02*
X14310658Y-12152746D01*
X14310658Y-12152746D02*
X14310658Y-12143222D01*
X14310658Y-12143222D02*
X14320182Y-12124174D01*
X14320182Y-12124174D02*
X14339230Y-12114650D01*
X14339230Y-12114650D02*
X14367801Y-12114650D01*
X14367801Y-12114650D02*
X14386849Y-12124174D01*
X14463039Y-12324174D02*
X14472563Y-12314650D01*
X14472563Y-12314650D02*
X14491611Y-12286079D01*
X14491611Y-12286079D02*
X14501134Y-12267031D01*
X14501134Y-12267031D02*
X14510658Y-12238460D01*
X14510658Y-12238460D02*
X14520182Y-12190841D01*
X14520182Y-12190841D02*
X14520182Y-12152746D01*
X14520182Y-12152746D02*
X14510658Y-12105127D01*
X14510658Y-12105127D02*
X14501134Y-12076555D01*
X14501134Y-12076555D02*
X14491611Y-12057508D01*
X14491611Y-12057508D02*
X14472563Y-12028936D01*
X14472563Y-12028936D02*
X14463039Y-12019412D01*
D13*
X9442500Y-12365500D02*
X9442500Y-12475500D01*
X9387500Y-12420500D02*
X9497500Y-12420500D01*
D11*
X9863039Y-12511984D02*
X9748753Y-12511984D01*
X9805896Y-12511984D02*
X9805896Y-12311984D01*
X9805896Y-12311984D02*
X9786848Y-12340555D01*
X9786848Y-12340555D02*
X9767801Y-12359603D01*
X9767801Y-12359603D02*
X9748753Y-12369127D01*
X9948753Y-12492936D02*
X9958277Y-12502460D01*
X9958277Y-12502460D02*
X9948753Y-12511984D01*
X9948753Y-12511984D02*
X9939229Y-12502460D01*
X9939229Y-12502460D02*
X9948753Y-12492936D01*
X9948753Y-12492936D02*
X9948753Y-12511984D01*
X10148753Y-12511984D02*
X10034467Y-12511984D01*
X10091610Y-12511984D02*
X10091610Y-12311984D01*
X10091610Y-12311984D02*
X10072563Y-12340555D01*
X10072563Y-12340555D02*
X10053515Y-12359603D01*
X10053515Y-12359603D02*
X10034467Y-12369127D01*
X10272563Y-12311984D02*
X10291610Y-12311984D01*
X10291610Y-12311984D02*
X10310658Y-12321508D01*
X10310658Y-12321508D02*
X10320182Y-12331031D01*
X10320182Y-12331031D02*
X10329705Y-12350079D01*
X10329705Y-12350079D02*
X10339229Y-12388174D01*
X10339229Y-12388174D02*
X10339229Y-12435793D01*
X10339229Y-12435793D02*
X10329705Y-12473888D01*
X10329705Y-12473888D02*
X10320182Y-12492936D01*
X10320182Y-12492936D02*
X10310658Y-12502460D01*
X10310658Y-12502460D02*
X10291610Y-12511984D01*
X10291610Y-12511984D02*
X10272563Y-12511984D01*
X10272563Y-12511984D02*
X10253515Y-12502460D01*
X10253515Y-12502460D02*
X10243991Y-12492936D01*
X10243991Y-12492936D02*
X10234467Y-12473888D01*
X10234467Y-12473888D02*
X10224944Y-12435793D01*
X10224944Y-12435793D02*
X10224944Y-12388174D01*
X10224944Y-12388174D02*
X10234467Y-12350079D01*
X10234467Y-12350079D02*
X10243991Y-12331031D01*
X10243991Y-12331031D02*
X10253515Y-12321508D01*
X10253515Y-12321508D02*
X10272563Y-12311984D01*
X10463039Y-12311984D02*
X10482086Y-12311984D01*
X10482086Y-12311984D02*
X10501134Y-12321508D01*
X10501134Y-12321508D02*
X10510658Y-12331031D01*
X10510658Y-12331031D02*
X10520182Y-12350079D01*
X10520182Y-12350079D02*
X10529705Y-12388174D01*
X10529705Y-12388174D02*
X10529705Y-12435793D01*
X10529705Y-12435793D02*
X10520182Y-12473888D01*
X10520182Y-12473888D02*
X10510658Y-12492936D01*
X10510658Y-12492936D02*
X10501134Y-12502460D01*
X10501134Y-12502460D02*
X10482086Y-12511984D01*
X10482086Y-12511984D02*
X10463039Y-12511984D01*
X10463039Y-12511984D02*
X10443991Y-12502460D01*
X10443991Y-12502460D02*
X10434467Y-12492936D01*
X10434467Y-12492936D02*
X10424944Y-12473888D01*
X10424944Y-12473888D02*
X10415420Y-12435793D01*
X10415420Y-12435793D02*
X10415420Y-12388174D01*
X10415420Y-12388174D02*
X10424944Y-12350079D01*
X10424944Y-12350079D02*
X10434467Y-12331031D01*
X10434467Y-12331031D02*
X10443991Y-12321508D01*
X10443991Y-12321508D02*
X10463039Y-12311984D01*
X10615420Y-12511984D02*
X10615420Y-12378650D01*
X10615420Y-12397698D02*
X10624944Y-12388174D01*
X10624944Y-12388174D02*
X10643991Y-12378650D01*
X10643991Y-12378650D02*
X10672563Y-12378650D01*
X10672563Y-12378650D02*
X10691610Y-12388174D01*
X10691610Y-12388174D02*
X10701134Y-12407222D01*
X10701134Y-12407222D02*
X10701134Y-12511984D01*
X10701134Y-12407222D02*
X10710658Y-12388174D01*
X10710658Y-12388174D02*
X10729705Y-12378650D01*
X10729705Y-12378650D02*
X10758277Y-12378650D01*
X10758277Y-12378650D02*
X10777325Y-12388174D01*
X10777325Y-12388174D02*
X10786848Y-12407222D01*
X10786848Y-12407222D02*
X10786848Y-12511984D01*
X10882086Y-12511984D02*
X10882086Y-12378650D01*
X10882086Y-12397698D02*
X10891610Y-12388174D01*
X10891610Y-12388174D02*
X10910658Y-12378650D01*
X10910658Y-12378650D02*
X10939229Y-12378650D01*
X10939229Y-12378650D02*
X10958277Y-12388174D01*
X10958277Y-12388174D02*
X10967801Y-12407222D01*
X10967801Y-12407222D02*
X10967801Y-12511984D01*
X10967801Y-12407222D02*
X10977325Y-12388174D01*
X10977325Y-12388174D02*
X10996372Y-12378650D01*
X10996372Y-12378650D02*
X11024944Y-12378650D01*
X11024944Y-12378650D02*
X11043991Y-12388174D01*
X11043991Y-12388174D02*
X11053515Y-12407222D01*
X11053515Y-12407222D02*
X11053515Y-12511984D01*
X11443991Y-12302460D02*
X11272563Y-12559603D01*
X11701134Y-12311984D02*
X11720182Y-12311984D01*
X11720182Y-12311984D02*
X11739229Y-12321508D01*
X11739229Y-12321508D02*
X11748753Y-12331031D01*
X11748753Y-12331031D02*
X11758277Y-12350079D01*
X11758277Y-12350079D02*
X11767801Y-12388174D01*
X11767801Y-12388174D02*
X11767801Y-12435793D01*
X11767801Y-12435793D02*
X11758277Y-12473888D01*
X11758277Y-12473888D02*
X11748753Y-12492936D01*
X11748753Y-12492936D02*
X11739229Y-12502460D01*
X11739229Y-12502460D02*
X11720182Y-12511984D01*
X11720182Y-12511984D02*
X11701134Y-12511984D01*
X11701134Y-12511984D02*
X11682086Y-12502460D01*
X11682086Y-12502460D02*
X11672563Y-12492936D01*
X11672563Y-12492936D02*
X11663039Y-12473888D01*
X11663039Y-12473888D02*
X11653515Y-12435793D01*
X11653515Y-12435793D02*
X11653515Y-12388174D01*
X11653515Y-12388174D02*
X11663039Y-12350079D01*
X11663039Y-12350079D02*
X11672563Y-12331031D01*
X11672563Y-12331031D02*
X11682086Y-12321508D01*
X11682086Y-12321508D02*
X11701134Y-12311984D01*
X11853515Y-12492936D02*
X11863039Y-12502460D01*
X11863039Y-12502460D02*
X11853515Y-12511984D01*
X11853515Y-12511984D02*
X11843991Y-12502460D01*
X11843991Y-12502460D02*
X11853515Y-12492936D01*
X11853515Y-12492936D02*
X11853515Y-12511984D01*
X11986848Y-12311984D02*
X12005896Y-12311984D01*
X12005896Y-12311984D02*
X12024944Y-12321508D01*
X12024944Y-12321508D02*
X12034467Y-12331031D01*
X12034467Y-12331031D02*
X12043991Y-12350079D01*
X12043991Y-12350079D02*
X12053515Y-12388174D01*
X12053515Y-12388174D02*
X12053515Y-12435793D01*
X12053515Y-12435793D02*
X12043991Y-12473888D01*
X12043991Y-12473888D02*
X12034467Y-12492936D01*
X12034467Y-12492936D02*
X12024944Y-12502460D01*
X12024944Y-12502460D02*
X12005896Y-12511984D01*
X12005896Y-12511984D02*
X11986848Y-12511984D01*
X11986848Y-12511984D02*
X11967801Y-12502460D01*
X11967801Y-12502460D02*
X11958277Y-12492936D01*
X11958277Y-12492936D02*
X11948753Y-12473888D01*
X11948753Y-12473888D02*
X11939229Y-12435793D01*
X11939229Y-12435793D02*
X11939229Y-12388174D01*
X11939229Y-12388174D02*
X11948753Y-12350079D01*
X11948753Y-12350079D02*
X11958277Y-12331031D01*
X11958277Y-12331031D02*
X11967801Y-12321508D01*
X11967801Y-12321508D02*
X11986848Y-12311984D01*
X12224944Y-12378650D02*
X12224944Y-12511984D01*
X12177325Y-12302460D02*
X12129706Y-12445317D01*
X12129706Y-12445317D02*
X12253515Y-12445317D01*
X12310658Y-12311984D02*
X12434467Y-12311984D01*
X12434467Y-12311984D02*
X12367801Y-12388174D01*
X12367801Y-12388174D02*
X12396372Y-12388174D01*
X12396372Y-12388174D02*
X12415420Y-12397698D01*
X12415420Y-12397698D02*
X12424944Y-12407222D01*
X12424944Y-12407222D02*
X12434467Y-12426269D01*
X12434467Y-12426269D02*
X12434467Y-12473888D01*
X12434467Y-12473888D02*
X12424944Y-12492936D01*
X12424944Y-12492936D02*
X12415420Y-12502460D01*
X12415420Y-12502460D02*
X12396372Y-12511984D01*
X12396372Y-12511984D02*
X12339229Y-12511984D01*
X12339229Y-12511984D02*
X12320182Y-12502460D01*
X12320182Y-12502460D02*
X12310658Y-12492936D01*
X12501134Y-12311984D02*
X12624944Y-12311984D01*
X12624944Y-12311984D02*
X12558277Y-12388174D01*
X12558277Y-12388174D02*
X12586848Y-12388174D01*
X12586848Y-12388174D02*
X12605896Y-12397698D01*
X12605896Y-12397698D02*
X12615420Y-12407222D01*
X12615420Y-12407222D02*
X12624944Y-12426269D01*
X12624944Y-12426269D02*
X12624944Y-12473888D01*
X12624944Y-12473888D02*
X12615420Y-12492936D01*
X12615420Y-12492936D02*
X12605896Y-12502460D01*
X12605896Y-12502460D02*
X12586848Y-12511984D01*
X12586848Y-12511984D02*
X12529706Y-12511984D01*
X12529706Y-12511984D02*
X12510658Y-12502460D01*
X12510658Y-12502460D02*
X12501134Y-12492936D01*
X12701134Y-12311984D02*
X12701134Y-12350079D01*
X12777325Y-12311984D02*
X12777325Y-12350079D01*
X13072563Y-12588174D02*
X13063039Y-12578650D01*
X13063039Y-12578650D02*
X13043991Y-12550079D01*
X13043991Y-12550079D02*
X13034468Y-12531031D01*
X13034468Y-12531031D02*
X13024944Y-12502460D01*
X13024944Y-12502460D02*
X13015420Y-12454841D01*
X13015420Y-12454841D02*
X13015420Y-12416746D01*
X13015420Y-12416746D02*
X13024944Y-12369127D01*
X13024944Y-12369127D02*
X13034468Y-12340555D01*
X13034468Y-12340555D02*
X13043991Y-12321508D01*
X13043991Y-12321508D02*
X13063039Y-12292936D01*
X13063039Y-12292936D02*
X13072563Y-12283412D01*
X13234468Y-12378650D02*
X13234468Y-12511984D01*
X13186848Y-12302460D02*
X13139229Y-12445317D01*
X13139229Y-12445317D02*
X13263039Y-12445317D01*
X13491610Y-12511984D02*
X13491610Y-12311984D01*
X13577325Y-12511984D02*
X13577325Y-12407222D01*
X13577325Y-12407222D02*
X13567801Y-12388174D01*
X13567801Y-12388174D02*
X13548753Y-12378650D01*
X13548753Y-12378650D02*
X13520182Y-12378650D01*
X13520182Y-12378650D02*
X13501134Y-12388174D01*
X13501134Y-12388174D02*
X13491610Y-12397698D01*
X13701134Y-12511984D02*
X13682087Y-12502460D01*
X13682087Y-12502460D02*
X13672563Y-12492936D01*
X13672563Y-12492936D02*
X13663039Y-12473888D01*
X13663039Y-12473888D02*
X13663039Y-12416746D01*
X13663039Y-12416746D02*
X13672563Y-12397698D01*
X13672563Y-12397698D02*
X13682087Y-12388174D01*
X13682087Y-12388174D02*
X13701134Y-12378650D01*
X13701134Y-12378650D02*
X13729706Y-12378650D01*
X13729706Y-12378650D02*
X13748753Y-12388174D01*
X13748753Y-12388174D02*
X13758277Y-12397698D01*
X13758277Y-12397698D02*
X13767801Y-12416746D01*
X13767801Y-12416746D02*
X13767801Y-12473888D01*
X13767801Y-12473888D02*
X13758277Y-12492936D01*
X13758277Y-12492936D02*
X13748753Y-12502460D01*
X13748753Y-12502460D02*
X13729706Y-12511984D01*
X13729706Y-12511984D02*
X13701134Y-12511984D01*
X13882087Y-12511984D02*
X13863039Y-12502460D01*
X13863039Y-12502460D02*
X13853515Y-12483412D01*
X13853515Y-12483412D02*
X13853515Y-12311984D01*
X14034468Y-12502460D02*
X14015420Y-12511984D01*
X14015420Y-12511984D02*
X13977325Y-12511984D01*
X13977325Y-12511984D02*
X13958277Y-12502460D01*
X13958277Y-12502460D02*
X13948753Y-12483412D01*
X13948753Y-12483412D02*
X13948753Y-12407222D01*
X13948753Y-12407222D02*
X13958277Y-12388174D01*
X13958277Y-12388174D02*
X13977325Y-12378650D01*
X13977325Y-12378650D02*
X14015420Y-12378650D01*
X14015420Y-12378650D02*
X14034468Y-12388174D01*
X14034468Y-12388174D02*
X14043991Y-12407222D01*
X14043991Y-12407222D02*
X14043991Y-12426269D01*
X14043991Y-12426269D02*
X13948753Y-12445317D01*
X14120182Y-12502460D02*
X14139230Y-12511984D01*
X14139230Y-12511984D02*
X14177325Y-12511984D01*
X14177325Y-12511984D02*
X14196372Y-12502460D01*
X14196372Y-12502460D02*
X14205896Y-12483412D01*
X14205896Y-12483412D02*
X14205896Y-12473888D01*
X14205896Y-12473888D02*
X14196372Y-12454841D01*
X14196372Y-12454841D02*
X14177325Y-12445317D01*
X14177325Y-12445317D02*
X14148753Y-12445317D01*
X14148753Y-12445317D02*
X14129706Y-12435793D01*
X14129706Y-12435793D02*
X14120182Y-12416746D01*
X14120182Y-12416746D02*
X14120182Y-12407222D01*
X14120182Y-12407222D02*
X14129706Y-12388174D01*
X14129706Y-12388174D02*
X14148753Y-12378650D01*
X14148753Y-12378650D02*
X14177325Y-12378650D01*
X14177325Y-12378650D02*
X14196372Y-12388174D01*
X14272563Y-12588174D02*
X14282087Y-12578650D01*
X14282087Y-12578650D02*
X14301134Y-12550079D01*
X14301134Y-12550079D02*
X14310658Y-12531031D01*
X14310658Y-12531031D02*
X14320182Y-12502460D01*
X14320182Y-12502460D02*
X14329706Y-12454841D01*
X14329706Y-12454841D02*
X14329706Y-12416746D01*
X14329706Y-12416746D02*
X14320182Y-12369127D01*
X14320182Y-12369127D02*
X14310658Y-12340555D01*
X14310658Y-12340555D02*
X14301134Y-12321508D01*
X14301134Y-12321508D02*
X14282087Y-12292936D01*
X14282087Y-12292936D02*
X14272563Y-12283412D01*
D14*
X9479927Y-12726927D02*
X9479927Y-12642073D01*
X9395073Y-12642073D01*
X9395073Y-12726927D01*
X9479927Y-12726927D01*
D11*
X9863039Y-12775984D02*
X9748753Y-12775984D01*
X9805896Y-12775984D02*
X9805896Y-12575984D01*
X9805896Y-12575984D02*
X9786848Y-12604555D01*
X9786848Y-12604555D02*
X9767801Y-12623603D01*
X9767801Y-12623603D02*
X9748753Y-12633127D01*
X9948753Y-12756936D02*
X9958277Y-12766460D01*
X9958277Y-12766460D02*
X9948753Y-12775984D01*
X9948753Y-12775984D02*
X9939229Y-12766460D01*
X9939229Y-12766460D02*
X9948753Y-12756936D01*
X9948753Y-12756936D02*
X9948753Y-12775984D01*
X10034467Y-12595031D02*
X10043991Y-12585508D01*
X10043991Y-12585508D02*
X10063039Y-12575984D01*
X10063039Y-12575984D02*
X10110658Y-12575984D01*
X10110658Y-12575984D02*
X10129705Y-12585508D01*
X10129705Y-12585508D02*
X10139229Y-12595031D01*
X10139229Y-12595031D02*
X10148753Y-12614079D01*
X10148753Y-12614079D02*
X10148753Y-12633127D01*
X10148753Y-12633127D02*
X10139229Y-12661698D01*
X10139229Y-12661698D02*
X10024944Y-12775984D01*
X10024944Y-12775984D02*
X10148753Y-12775984D01*
X10272563Y-12575984D02*
X10291610Y-12575984D01*
X10291610Y-12575984D02*
X10310658Y-12585508D01*
X10310658Y-12585508D02*
X10320182Y-12595031D01*
X10320182Y-12595031D02*
X10329705Y-12614079D01*
X10329705Y-12614079D02*
X10339229Y-12652174D01*
X10339229Y-12652174D02*
X10339229Y-12699793D01*
X10339229Y-12699793D02*
X10329705Y-12737888D01*
X10329705Y-12737888D02*
X10320182Y-12756936D01*
X10320182Y-12756936D02*
X10310658Y-12766460D01*
X10310658Y-12766460D02*
X10291610Y-12775984D01*
X10291610Y-12775984D02*
X10272563Y-12775984D01*
X10272563Y-12775984D02*
X10253515Y-12766460D01*
X10253515Y-12766460D02*
X10243991Y-12756936D01*
X10243991Y-12756936D02*
X10234467Y-12737888D01*
X10234467Y-12737888D02*
X10224944Y-12699793D01*
X10224944Y-12699793D02*
X10224944Y-12652174D01*
X10224944Y-12652174D02*
X10234467Y-12614079D01*
X10234467Y-12614079D02*
X10243991Y-12595031D01*
X10243991Y-12595031D02*
X10253515Y-12585508D01*
X10253515Y-12585508D02*
X10272563Y-12575984D01*
X10463039Y-12575984D02*
X10482086Y-12575984D01*
X10482086Y-12575984D02*
X10501134Y-12585508D01*
X10501134Y-12585508D02*
X10510658Y-12595031D01*
X10510658Y-12595031D02*
X10520182Y-12614079D01*
X10520182Y-12614079D02*
X10529705Y-12652174D01*
X10529705Y-12652174D02*
X10529705Y-12699793D01*
X10529705Y-12699793D02*
X10520182Y-12737888D01*
X10520182Y-12737888D02*
X10510658Y-12756936D01*
X10510658Y-12756936D02*
X10501134Y-12766460D01*
X10501134Y-12766460D02*
X10482086Y-12775984D01*
X10482086Y-12775984D02*
X10463039Y-12775984D01*
X10463039Y-12775984D02*
X10443991Y-12766460D01*
X10443991Y-12766460D02*
X10434467Y-12756936D01*
X10434467Y-12756936D02*
X10424944Y-12737888D01*
X10424944Y-12737888D02*
X10415420Y-12699793D01*
X10415420Y-12699793D02*
X10415420Y-12652174D01*
X10415420Y-12652174D02*
X10424944Y-12614079D01*
X10424944Y-12614079D02*
X10434467Y-12595031D01*
X10434467Y-12595031D02*
X10443991Y-12585508D01*
X10443991Y-12585508D02*
X10463039Y-12575984D01*
X10615420Y-12775984D02*
X10615420Y-12642650D01*
X10615420Y-12661698D02*
X10624944Y-12652174D01*
X10624944Y-12652174D02*
X10643991Y-12642650D01*
X10643991Y-12642650D02*
X10672563Y-12642650D01*
X10672563Y-12642650D02*
X10691610Y-12652174D01*
X10691610Y-12652174D02*
X10701134Y-12671222D01*
X10701134Y-12671222D02*
X10701134Y-12775984D01*
X10701134Y-12671222D02*
X10710658Y-12652174D01*
X10710658Y-12652174D02*
X10729705Y-12642650D01*
X10729705Y-12642650D02*
X10758277Y-12642650D01*
X10758277Y-12642650D02*
X10777325Y-12652174D01*
X10777325Y-12652174D02*
X10786848Y-12671222D01*
X10786848Y-12671222D02*
X10786848Y-12775984D01*
X10882086Y-12775984D02*
X10882086Y-12642650D01*
X10882086Y-12661698D02*
X10891610Y-12652174D01*
X10891610Y-12652174D02*
X10910658Y-12642650D01*
X10910658Y-12642650D02*
X10939229Y-12642650D01*
X10939229Y-12642650D02*
X10958277Y-12652174D01*
X10958277Y-12652174D02*
X10967801Y-12671222D01*
X10967801Y-12671222D02*
X10967801Y-12775984D01*
X10967801Y-12671222D02*
X10977325Y-12652174D01*
X10977325Y-12652174D02*
X10996372Y-12642650D01*
X10996372Y-12642650D02*
X11024944Y-12642650D01*
X11024944Y-12642650D02*
X11043991Y-12652174D01*
X11043991Y-12652174D02*
X11053515Y-12671222D01*
X11053515Y-12671222D02*
X11053515Y-12775984D01*
X11443991Y-12566460D02*
X11272563Y-12823603D01*
X11701134Y-12575984D02*
X11720182Y-12575984D01*
X11720182Y-12575984D02*
X11739229Y-12585508D01*
X11739229Y-12585508D02*
X11748753Y-12595031D01*
X11748753Y-12595031D02*
X11758277Y-12614079D01*
X11758277Y-12614079D02*
X11767801Y-12652174D01*
X11767801Y-12652174D02*
X11767801Y-12699793D01*
X11767801Y-12699793D02*
X11758277Y-12737888D01*
X11758277Y-12737888D02*
X11748753Y-12756936D01*
X11748753Y-12756936D02*
X11739229Y-12766460D01*
X11739229Y-12766460D02*
X11720182Y-12775984D01*
X11720182Y-12775984D02*
X11701134Y-12775984D01*
X11701134Y-12775984D02*
X11682086Y-12766460D01*
X11682086Y-12766460D02*
X11672563Y-12756936D01*
X11672563Y-12756936D02*
X11663039Y-12737888D01*
X11663039Y-12737888D02*
X11653515Y-12699793D01*
X11653515Y-12699793D02*
X11653515Y-12652174D01*
X11653515Y-12652174D02*
X11663039Y-12614079D01*
X11663039Y-12614079D02*
X11672563Y-12595031D01*
X11672563Y-12595031D02*
X11682086Y-12585508D01*
X11682086Y-12585508D02*
X11701134Y-12575984D01*
X11853515Y-12756936D02*
X11863039Y-12766460D01*
X11863039Y-12766460D02*
X11853515Y-12775984D01*
X11853515Y-12775984D02*
X11843991Y-12766460D01*
X11843991Y-12766460D02*
X11853515Y-12756936D01*
X11853515Y-12756936D02*
X11853515Y-12775984D01*
X11986848Y-12575984D02*
X12005896Y-12575984D01*
X12005896Y-12575984D02*
X12024944Y-12585508D01*
X12024944Y-12585508D02*
X12034467Y-12595031D01*
X12034467Y-12595031D02*
X12043991Y-12614079D01*
X12043991Y-12614079D02*
X12053515Y-12652174D01*
X12053515Y-12652174D02*
X12053515Y-12699793D01*
X12053515Y-12699793D02*
X12043991Y-12737888D01*
X12043991Y-12737888D02*
X12034467Y-12756936D01*
X12034467Y-12756936D02*
X12024944Y-12766460D01*
X12024944Y-12766460D02*
X12005896Y-12775984D01*
X12005896Y-12775984D02*
X11986848Y-12775984D01*
X11986848Y-12775984D02*
X11967801Y-12766460D01*
X11967801Y-12766460D02*
X11958277Y-12756936D01*
X11958277Y-12756936D02*
X11948753Y-12737888D01*
X11948753Y-12737888D02*
X11939229Y-12699793D01*
X11939229Y-12699793D02*
X11939229Y-12652174D01*
X11939229Y-12652174D02*
X11948753Y-12614079D01*
X11948753Y-12614079D02*
X11958277Y-12595031D01*
X11958277Y-12595031D02*
X11967801Y-12585508D01*
X11967801Y-12585508D02*
X11986848Y-12575984D01*
X12224944Y-12642650D02*
X12224944Y-12775984D01*
X12177325Y-12566460D02*
X12129706Y-12709317D01*
X12129706Y-12709317D02*
X12253515Y-12709317D01*
X12310658Y-12575984D02*
X12443991Y-12575984D01*
X12443991Y-12575984D02*
X12358277Y-12775984D01*
X12510658Y-12595031D02*
X12520182Y-12585508D01*
X12520182Y-12585508D02*
X12539229Y-12575984D01*
X12539229Y-12575984D02*
X12586848Y-12575984D01*
X12586848Y-12575984D02*
X12605896Y-12585508D01*
X12605896Y-12585508D02*
X12615420Y-12595031D01*
X12615420Y-12595031D02*
X12624944Y-12614079D01*
X12624944Y-12614079D02*
X12624944Y-12633127D01*
X12624944Y-12633127D02*
X12615420Y-12661698D01*
X12615420Y-12661698D02*
X12501134Y-12775984D01*
X12501134Y-12775984D02*
X12624944Y-12775984D01*
X12701134Y-12575984D02*
X12701134Y-12614079D01*
X12777325Y-12575984D02*
X12777325Y-12614079D01*
X13072563Y-12852174D02*
X13063039Y-12842650D01*
X13063039Y-12842650D02*
X13043991Y-12814079D01*
X13043991Y-12814079D02*
X13034468Y-12795031D01*
X13034468Y-12795031D02*
X13024944Y-12766460D01*
X13024944Y-12766460D02*
X13015420Y-12718841D01*
X13015420Y-12718841D02*
X13015420Y-12680746D01*
X13015420Y-12680746D02*
X13024944Y-12633127D01*
X13024944Y-12633127D02*
X13034468Y-12604555D01*
X13034468Y-12604555D02*
X13043991Y-12585508D01*
X13043991Y-12585508D02*
X13063039Y-12556936D01*
X13063039Y-12556936D02*
X13072563Y-12547412D01*
X13234468Y-12642650D02*
X13234468Y-12775984D01*
X13186848Y-12566460D02*
X13139229Y-12709317D01*
X13139229Y-12709317D02*
X13263039Y-12709317D01*
X13491610Y-12775984D02*
X13491610Y-12575984D01*
X13577325Y-12775984D02*
X13577325Y-12671222D01*
X13577325Y-12671222D02*
X13567801Y-12652174D01*
X13567801Y-12652174D02*
X13548753Y-12642650D01*
X13548753Y-12642650D02*
X13520182Y-12642650D01*
X13520182Y-12642650D02*
X13501134Y-12652174D01*
X13501134Y-12652174D02*
X13491610Y-12661698D01*
X13701134Y-12775984D02*
X13682087Y-12766460D01*
X13682087Y-12766460D02*
X13672563Y-12756936D01*
X13672563Y-12756936D02*
X13663039Y-12737888D01*
X13663039Y-12737888D02*
X13663039Y-12680746D01*
X13663039Y-12680746D02*
X13672563Y-12661698D01*
X13672563Y-12661698D02*
X13682087Y-12652174D01*
X13682087Y-12652174D02*
X13701134Y-12642650D01*
X13701134Y-12642650D02*
X13729706Y-12642650D01*
X13729706Y-12642650D02*
X13748753Y-12652174D01*
X13748753Y-12652174D02*
X13758277Y-12661698D01*
X13758277Y-12661698D02*
X13767801Y-12680746D01*
X13767801Y-12680746D02*
X13767801Y-12737888D01*
X13767801Y-12737888D02*
X13758277Y-12756936D01*
X13758277Y-12756936D02*
X13748753Y-12766460D01*
X13748753Y-12766460D02*
X13729706Y-12775984D01*
X13729706Y-12775984D02*
X13701134Y-12775984D01*
X13882087Y-12775984D02*
X13863039Y-12766460D01*
X13863039Y-12766460D02*
X13853515Y-12747412D01*
X13853515Y-12747412D02*
X13853515Y-12575984D01*
X14034468Y-12766460D02*
X14015420Y-12775984D01*
X14015420Y-12775984D02*
X13977325Y-12775984D01*
X13977325Y-12775984D02*
X13958277Y-12766460D01*
X13958277Y-12766460D02*
X13948753Y-12747412D01*
X13948753Y-12747412D02*
X13948753Y-12671222D01*
X13948753Y-12671222D02*
X13958277Y-12652174D01*
X13958277Y-12652174D02*
X13977325Y-12642650D01*
X13977325Y-12642650D02*
X14015420Y-12642650D01*
X14015420Y-12642650D02*
X14034468Y-12652174D01*
X14034468Y-12652174D02*
X14043991Y-12671222D01*
X14043991Y-12671222D02*
X14043991Y-12690269D01*
X14043991Y-12690269D02*
X13948753Y-12709317D01*
X14120182Y-12766460D02*
X14139230Y-12775984D01*
X14139230Y-12775984D02*
X14177325Y-12775984D01*
X14177325Y-12775984D02*
X14196372Y-12766460D01*
X14196372Y-12766460D02*
X14205896Y-12747412D01*
X14205896Y-12747412D02*
X14205896Y-12737888D01*
X14205896Y-12737888D02*
X14196372Y-12718841D01*
X14196372Y-12718841D02*
X14177325Y-12709317D01*
X14177325Y-12709317D02*
X14148753Y-12709317D01*
X14148753Y-12709317D02*
X14129706Y-12699793D01*
X14129706Y-12699793D02*
X14120182Y-12680746D01*
X14120182Y-12680746D02*
X14120182Y-12671222D01*
X14120182Y-12671222D02*
X14129706Y-12652174D01*
X14129706Y-12652174D02*
X14148753Y-12642650D01*
X14148753Y-12642650D02*
X14177325Y-12642650D01*
X14177325Y-12642650D02*
X14196372Y-12652174D01*
X14272563Y-12852174D02*
X14282087Y-12842650D01*
X14282087Y-12842650D02*
X14301134Y-12814079D01*
X14301134Y-12814079D02*
X14310658Y-12795031D01*
X14310658Y-12795031D02*
X14320182Y-12766460D01*
X14320182Y-12766460D02*
X14329706Y-12718841D01*
X14329706Y-12718841D02*
X14329706Y-12680746D01*
X14329706Y-12680746D02*
X14320182Y-12633127D01*
X14320182Y-12633127D02*
X14310658Y-12604555D01*
X14310658Y-12604555D02*
X14301134Y-12585508D01*
X14301134Y-12585508D02*
X14282087Y-12556936D01*
X14282087Y-12556936D02*
X14272563Y-12547412D01*
D15*
X9422500Y-13023500D02*
X9497500Y-12948500D01*
X9422500Y-12873500D01*
X9347500Y-12948500D01*
X9422500Y-13023500D01*
D11*
X9863039Y-13039984D02*
X9748753Y-13039984D01*
X9805896Y-13039984D02*
X9805896Y-12839984D01*
X9805896Y-12839984D02*
X9786848Y-12868555D01*
X9786848Y-12868555D02*
X9767801Y-12887603D01*
X9767801Y-12887603D02*
X9748753Y-12897127D01*
X9948753Y-13020936D02*
X9958277Y-13030460D01*
X9958277Y-13030460D02*
X9948753Y-13039984D01*
X9948753Y-13039984D02*
X9939229Y-13030460D01*
X9939229Y-13030460D02*
X9948753Y-13020936D01*
X9948753Y-13020936D02*
X9948753Y-13039984D01*
X10139229Y-12839984D02*
X10043991Y-12839984D01*
X10043991Y-12839984D02*
X10034467Y-12935222D01*
X10034467Y-12935222D02*
X10043991Y-12925698D01*
X10043991Y-12925698D02*
X10063039Y-12916174D01*
X10063039Y-12916174D02*
X10110658Y-12916174D01*
X10110658Y-12916174D02*
X10129705Y-12925698D01*
X10129705Y-12925698D02*
X10139229Y-12935222D01*
X10139229Y-12935222D02*
X10148753Y-12954269D01*
X10148753Y-12954269D02*
X10148753Y-13001888D01*
X10148753Y-13001888D02*
X10139229Y-13020936D01*
X10139229Y-13020936D02*
X10129705Y-13030460D01*
X10129705Y-13030460D02*
X10110658Y-13039984D01*
X10110658Y-13039984D02*
X10063039Y-13039984D01*
X10063039Y-13039984D02*
X10043991Y-13030460D01*
X10043991Y-13030460D02*
X10034467Y-13020936D01*
X10272563Y-12839984D02*
X10291610Y-12839984D01*
X10291610Y-12839984D02*
X10310658Y-12849508D01*
X10310658Y-12849508D02*
X10320182Y-12859031D01*
X10320182Y-12859031D02*
X10329705Y-12878079D01*
X10329705Y-12878079D02*
X10339229Y-12916174D01*
X10339229Y-12916174D02*
X10339229Y-12963793D01*
X10339229Y-12963793D02*
X10329705Y-13001888D01*
X10329705Y-13001888D02*
X10320182Y-13020936D01*
X10320182Y-13020936D02*
X10310658Y-13030460D01*
X10310658Y-13030460D02*
X10291610Y-13039984D01*
X10291610Y-13039984D02*
X10272563Y-13039984D01*
X10272563Y-13039984D02*
X10253515Y-13030460D01*
X10253515Y-13030460D02*
X10243991Y-13020936D01*
X10243991Y-13020936D02*
X10234467Y-13001888D01*
X10234467Y-13001888D02*
X10224944Y-12963793D01*
X10224944Y-12963793D02*
X10224944Y-12916174D01*
X10224944Y-12916174D02*
X10234467Y-12878079D01*
X10234467Y-12878079D02*
X10243991Y-12859031D01*
X10243991Y-12859031D02*
X10253515Y-12849508D01*
X10253515Y-12849508D02*
X10272563Y-12839984D01*
X10463039Y-12839984D02*
X10482086Y-12839984D01*
X10482086Y-12839984D02*
X10501134Y-12849508D01*
X10501134Y-12849508D02*
X10510658Y-12859031D01*
X10510658Y-12859031D02*
X10520182Y-12878079D01*
X10520182Y-12878079D02*
X10529705Y-12916174D01*
X10529705Y-12916174D02*
X10529705Y-12963793D01*
X10529705Y-12963793D02*
X10520182Y-13001888D01*
X10520182Y-13001888D02*
X10510658Y-13020936D01*
X10510658Y-13020936D02*
X10501134Y-13030460D01*
X10501134Y-13030460D02*
X10482086Y-13039984D01*
X10482086Y-13039984D02*
X10463039Y-13039984D01*
X10463039Y-13039984D02*
X10443991Y-13030460D01*
X10443991Y-13030460D02*
X10434467Y-13020936D01*
X10434467Y-13020936D02*
X10424944Y-13001888D01*
X10424944Y-13001888D02*
X10415420Y-12963793D01*
X10415420Y-12963793D02*
X10415420Y-12916174D01*
X10415420Y-12916174D02*
X10424944Y-12878079D01*
X10424944Y-12878079D02*
X10434467Y-12859031D01*
X10434467Y-12859031D02*
X10443991Y-12849508D01*
X10443991Y-12849508D02*
X10463039Y-12839984D01*
X10615420Y-13039984D02*
X10615420Y-12906650D01*
X10615420Y-12925698D02*
X10624944Y-12916174D01*
X10624944Y-12916174D02*
X10643991Y-12906650D01*
X10643991Y-12906650D02*
X10672563Y-12906650D01*
X10672563Y-12906650D02*
X10691610Y-12916174D01*
X10691610Y-12916174D02*
X10701134Y-12935222D01*
X10701134Y-12935222D02*
X10701134Y-13039984D01*
X10701134Y-12935222D02*
X10710658Y-12916174D01*
X10710658Y-12916174D02*
X10729705Y-12906650D01*
X10729705Y-12906650D02*
X10758277Y-12906650D01*
X10758277Y-12906650D02*
X10777325Y-12916174D01*
X10777325Y-12916174D02*
X10786848Y-12935222D01*
X10786848Y-12935222D02*
X10786848Y-13039984D01*
X10882086Y-13039984D02*
X10882086Y-12906650D01*
X10882086Y-12925698D02*
X10891610Y-12916174D01*
X10891610Y-12916174D02*
X10910658Y-12906650D01*
X10910658Y-12906650D02*
X10939229Y-12906650D01*
X10939229Y-12906650D02*
X10958277Y-12916174D01*
X10958277Y-12916174D02*
X10967801Y-12935222D01*
X10967801Y-12935222D02*
X10967801Y-13039984D01*
X10967801Y-12935222D02*
X10977325Y-12916174D01*
X10977325Y-12916174D02*
X10996372Y-12906650D01*
X10996372Y-12906650D02*
X11024944Y-12906650D01*
X11024944Y-12906650D02*
X11043991Y-12916174D01*
X11043991Y-12916174D02*
X11053515Y-12935222D01*
X11053515Y-12935222D02*
X11053515Y-13039984D01*
X11443991Y-12830460D02*
X11272563Y-13087603D01*
X11701134Y-12839984D02*
X11720182Y-12839984D01*
X11720182Y-12839984D02*
X11739229Y-12849508D01*
X11739229Y-12849508D02*
X11748753Y-12859031D01*
X11748753Y-12859031D02*
X11758277Y-12878079D01*
X11758277Y-12878079D02*
X11767801Y-12916174D01*
X11767801Y-12916174D02*
X11767801Y-12963793D01*
X11767801Y-12963793D02*
X11758277Y-13001888D01*
X11758277Y-13001888D02*
X11748753Y-13020936D01*
X11748753Y-13020936D02*
X11739229Y-13030460D01*
X11739229Y-13030460D02*
X11720182Y-13039984D01*
X11720182Y-13039984D02*
X11701134Y-13039984D01*
X11701134Y-13039984D02*
X11682086Y-13030460D01*
X11682086Y-13030460D02*
X11672563Y-13020936D01*
X11672563Y-13020936D02*
X11663039Y-13001888D01*
X11663039Y-13001888D02*
X11653515Y-12963793D01*
X11653515Y-12963793D02*
X11653515Y-12916174D01*
X11653515Y-12916174D02*
X11663039Y-12878079D01*
X11663039Y-12878079D02*
X11672563Y-12859031D01*
X11672563Y-12859031D02*
X11682086Y-12849508D01*
X11682086Y-12849508D02*
X11701134Y-12839984D01*
X11853515Y-13020936D02*
X11863039Y-13030460D01*
X11863039Y-13030460D02*
X11853515Y-13039984D01*
X11853515Y-13039984D02*
X11843991Y-13030460D01*
X11843991Y-13030460D02*
X11853515Y-13020936D01*
X11853515Y-13020936D02*
X11853515Y-13039984D01*
X11986848Y-12839984D02*
X12005896Y-12839984D01*
X12005896Y-12839984D02*
X12024944Y-12849508D01*
X12024944Y-12849508D02*
X12034467Y-12859031D01*
X12034467Y-12859031D02*
X12043991Y-12878079D01*
X12043991Y-12878079D02*
X12053515Y-12916174D01*
X12053515Y-12916174D02*
X12053515Y-12963793D01*
X12053515Y-12963793D02*
X12043991Y-13001888D01*
X12043991Y-13001888D02*
X12034467Y-13020936D01*
X12034467Y-13020936D02*
X12024944Y-13030460D01*
X12024944Y-13030460D02*
X12005896Y-13039984D01*
X12005896Y-13039984D02*
X11986848Y-13039984D01*
X11986848Y-13039984D02*
X11967801Y-13030460D01*
X11967801Y-13030460D02*
X11958277Y-13020936D01*
X11958277Y-13020936D02*
X11948753Y-13001888D01*
X11948753Y-13001888D02*
X11939229Y-12963793D01*
X11939229Y-12963793D02*
X11939229Y-12916174D01*
X11939229Y-12916174D02*
X11948753Y-12878079D01*
X11948753Y-12878079D02*
X11958277Y-12859031D01*
X11958277Y-12859031D02*
X11967801Y-12849508D01*
X11967801Y-12849508D02*
X11986848Y-12839984D01*
X12234467Y-12839984D02*
X12139229Y-12839984D01*
X12139229Y-12839984D02*
X12129706Y-12935222D01*
X12129706Y-12935222D02*
X12139229Y-12925698D01*
X12139229Y-12925698D02*
X12158277Y-12916174D01*
X12158277Y-12916174D02*
X12205896Y-12916174D01*
X12205896Y-12916174D02*
X12224944Y-12925698D01*
X12224944Y-12925698D02*
X12234467Y-12935222D01*
X12234467Y-12935222D02*
X12243991Y-12954269D01*
X12243991Y-12954269D02*
X12243991Y-13001888D01*
X12243991Y-13001888D02*
X12234467Y-13020936D01*
X12234467Y-13020936D02*
X12224944Y-13030460D01*
X12224944Y-13030460D02*
X12205896Y-13039984D01*
X12205896Y-13039984D02*
X12158277Y-13039984D01*
X12158277Y-13039984D02*
X12139229Y-13030460D01*
X12139229Y-13030460D02*
X12129706Y-13020936D01*
X12339229Y-13039984D02*
X12377325Y-13039984D01*
X12377325Y-13039984D02*
X12396372Y-13030460D01*
X12396372Y-13030460D02*
X12405896Y-13020936D01*
X12405896Y-13020936D02*
X12424944Y-12992365D01*
X12424944Y-12992365D02*
X12434467Y-12954269D01*
X12434467Y-12954269D02*
X12434467Y-12878079D01*
X12434467Y-12878079D02*
X12424944Y-12859031D01*
X12424944Y-12859031D02*
X12415420Y-12849508D01*
X12415420Y-12849508D02*
X12396372Y-12839984D01*
X12396372Y-12839984D02*
X12358277Y-12839984D01*
X12358277Y-12839984D02*
X12339229Y-12849508D01*
X12339229Y-12849508D02*
X12329706Y-12859031D01*
X12329706Y-12859031D02*
X12320182Y-12878079D01*
X12320182Y-12878079D02*
X12320182Y-12925698D01*
X12320182Y-12925698D02*
X12329706Y-12944746D01*
X12329706Y-12944746D02*
X12339229Y-12954269D01*
X12339229Y-12954269D02*
X12358277Y-12963793D01*
X12358277Y-12963793D02*
X12396372Y-12963793D01*
X12396372Y-12963793D02*
X12415420Y-12954269D01*
X12415420Y-12954269D02*
X12424944Y-12944746D01*
X12424944Y-12944746D02*
X12434467Y-12925698D01*
X12624944Y-13039984D02*
X12510658Y-13039984D01*
X12567801Y-13039984D02*
X12567801Y-12839984D01*
X12567801Y-12839984D02*
X12548753Y-12868555D01*
X12548753Y-12868555D02*
X12529706Y-12887603D01*
X12529706Y-12887603D02*
X12510658Y-12897127D01*
X12701134Y-12839984D02*
X12701134Y-12878079D01*
X12777325Y-12839984D02*
X12777325Y-12878079D01*
X13072563Y-13116174D02*
X13063039Y-13106650D01*
X13063039Y-13106650D02*
X13043991Y-13078079D01*
X13043991Y-13078079D02*
X13034468Y-13059031D01*
X13034468Y-13059031D02*
X13024944Y-13030460D01*
X13024944Y-13030460D02*
X13015420Y-12982841D01*
X13015420Y-12982841D02*
X13015420Y-12944746D01*
X13015420Y-12944746D02*
X13024944Y-12897127D01*
X13024944Y-12897127D02*
X13034468Y-12868555D01*
X13034468Y-12868555D02*
X13043991Y-12849508D01*
X13043991Y-12849508D02*
X13063039Y-12820936D01*
X13063039Y-12820936D02*
X13072563Y-12811412D01*
X13253515Y-13039984D02*
X13139229Y-13039984D01*
X13196372Y-13039984D02*
X13196372Y-12839984D01*
X13196372Y-12839984D02*
X13177325Y-12868555D01*
X13177325Y-12868555D02*
X13158277Y-12887603D01*
X13158277Y-12887603D02*
X13139229Y-12897127D01*
X13424944Y-12906650D02*
X13424944Y-13039984D01*
X13377325Y-12830460D02*
X13329706Y-12973317D01*
X13329706Y-12973317D02*
X13453515Y-12973317D01*
X13682087Y-13039984D02*
X13682087Y-12839984D01*
X13767801Y-13039984D02*
X13767801Y-12935222D01*
X13767801Y-12935222D02*
X13758277Y-12916174D01*
X13758277Y-12916174D02*
X13739230Y-12906650D01*
X13739230Y-12906650D02*
X13710658Y-12906650D01*
X13710658Y-12906650D02*
X13691610Y-12916174D01*
X13691610Y-12916174D02*
X13682087Y-12925698D01*
X13891610Y-13039984D02*
X13872563Y-13030460D01*
X13872563Y-13030460D02*
X13863039Y-13020936D01*
X13863039Y-13020936D02*
X13853515Y-13001888D01*
X13853515Y-13001888D02*
X13853515Y-12944746D01*
X13853515Y-12944746D02*
X13863039Y-12925698D01*
X13863039Y-12925698D02*
X13872563Y-12916174D01*
X13872563Y-12916174D02*
X13891610Y-12906650D01*
X13891610Y-12906650D02*
X13920182Y-12906650D01*
X13920182Y-12906650D02*
X13939230Y-12916174D01*
X13939230Y-12916174D02*
X13948753Y-12925698D01*
X13948753Y-12925698D02*
X13958277Y-12944746D01*
X13958277Y-12944746D02*
X13958277Y-13001888D01*
X13958277Y-13001888D02*
X13948753Y-13020936D01*
X13948753Y-13020936D02*
X13939230Y-13030460D01*
X13939230Y-13030460D02*
X13920182Y-13039984D01*
X13920182Y-13039984D02*
X13891610Y-13039984D01*
X14072563Y-13039984D02*
X14053515Y-13030460D01*
X14053515Y-13030460D02*
X14043991Y-13011412D01*
X14043991Y-13011412D02*
X14043991Y-12839984D01*
X14224944Y-13030460D02*
X14205896Y-13039984D01*
X14205896Y-13039984D02*
X14167801Y-13039984D01*
X14167801Y-13039984D02*
X14148753Y-13030460D01*
X14148753Y-13030460D02*
X14139230Y-13011412D01*
X14139230Y-13011412D02*
X14139230Y-12935222D01*
X14139230Y-12935222D02*
X14148753Y-12916174D01*
X14148753Y-12916174D02*
X14167801Y-12906650D01*
X14167801Y-12906650D02*
X14205896Y-12906650D01*
X14205896Y-12906650D02*
X14224944Y-12916174D01*
X14224944Y-12916174D02*
X14234468Y-12935222D01*
X14234468Y-12935222D02*
X14234468Y-12954269D01*
X14234468Y-12954269D02*
X14139230Y-12973317D01*
X14310658Y-13030460D02*
X14329706Y-13039984D01*
X14329706Y-13039984D02*
X14367801Y-13039984D01*
X14367801Y-13039984D02*
X14386849Y-13030460D01*
X14386849Y-13030460D02*
X14396372Y-13011412D01*
X14396372Y-13011412D02*
X14396372Y-13001888D01*
X14396372Y-13001888D02*
X14386849Y-12982841D01*
X14386849Y-12982841D02*
X14367801Y-12973317D01*
X14367801Y-12973317D02*
X14339230Y-12973317D01*
X14339230Y-12973317D02*
X14320182Y-12963793D01*
X14320182Y-12963793D02*
X14310658Y-12944746D01*
X14310658Y-12944746D02*
X14310658Y-12935222D01*
X14310658Y-12935222D02*
X14320182Y-12916174D01*
X14320182Y-12916174D02*
X14339230Y-12906650D01*
X14339230Y-12906650D02*
X14367801Y-12906650D01*
X14367801Y-12906650D02*
X14386849Y-12916174D01*
X14463039Y-13116174D02*
X14472563Y-13106650D01*
X14472563Y-13106650D02*
X14491611Y-13078079D01*
X14491611Y-13078079D02*
X14501134Y-13059031D01*
X14501134Y-13059031D02*
X14510658Y-13030460D01*
X14510658Y-13030460D02*
X14520182Y-12982841D01*
X14520182Y-12982841D02*
X14520182Y-12944746D01*
X14520182Y-12944746D02*
X14510658Y-12897127D01*
X14510658Y-12897127D02*
X14501134Y-12868555D01*
X14501134Y-12868555D02*
X14491611Y-12849508D01*
X14491611Y-12849508D02*
X14472563Y-12820936D01*
X14472563Y-12820936D02*
X14463039Y-12811412D01*
X9297500Y-13118500D02*
X9497500Y-13318500D01*
X9497500Y-13118500D02*
X9297500Y-13318500D01*
X9497500Y-13218500D02*
G75*
G02*
X9297500Y-13218500I-100000J0D01*
G01*
X9297500Y-13218500D02*
G75*
G02*
X9497500Y-13218500I100000J0D01*
G01*
X9739229Y-13109984D02*
X9863039Y-13109984D01*
X9863039Y-13109984D02*
X9796372Y-13186174D01*
X9796372Y-13186174D02*
X9824944Y-13186174D01*
X9824944Y-13186174D02*
X9843991Y-13195698D01*
X9843991Y-13195698D02*
X9853515Y-13205222D01*
X9853515Y-13205222D02*
X9863039Y-13224269D01*
X9863039Y-13224269D02*
X9863039Y-13271888D01*
X9863039Y-13271888D02*
X9853515Y-13290936D01*
X9853515Y-13290936D02*
X9843991Y-13300460D01*
X9843991Y-13300460D02*
X9824944Y-13309984D01*
X9824944Y-13309984D02*
X9767801Y-13309984D01*
X9767801Y-13309984D02*
X9748753Y-13300460D01*
X9748753Y-13300460D02*
X9739229Y-13290936D01*
X9948753Y-13290936D02*
X9958277Y-13300460D01*
X9958277Y-13300460D02*
X9948753Y-13309984D01*
X9948753Y-13309984D02*
X9939229Y-13300460D01*
X9939229Y-13300460D02*
X9948753Y-13290936D01*
X9948753Y-13290936D02*
X9948753Y-13309984D01*
X10034467Y-13129031D02*
X10043991Y-13119508D01*
X10043991Y-13119508D02*
X10063039Y-13109984D01*
X10063039Y-13109984D02*
X10110658Y-13109984D01*
X10110658Y-13109984D02*
X10129705Y-13119508D01*
X10129705Y-13119508D02*
X10139229Y-13129031D01*
X10139229Y-13129031D02*
X10148753Y-13148079D01*
X10148753Y-13148079D02*
X10148753Y-13167127D01*
X10148753Y-13167127D02*
X10139229Y-13195698D01*
X10139229Y-13195698D02*
X10024944Y-13309984D01*
X10024944Y-13309984D02*
X10148753Y-13309984D01*
X10272563Y-13109984D02*
X10291610Y-13109984D01*
X10291610Y-13109984D02*
X10310658Y-13119508D01*
X10310658Y-13119508D02*
X10320182Y-13129031D01*
X10320182Y-13129031D02*
X10329705Y-13148079D01*
X10329705Y-13148079D02*
X10339229Y-13186174D01*
X10339229Y-13186174D02*
X10339229Y-13233793D01*
X10339229Y-13233793D02*
X10329705Y-13271888D01*
X10329705Y-13271888D02*
X10320182Y-13290936D01*
X10320182Y-13290936D02*
X10310658Y-13300460D01*
X10310658Y-13300460D02*
X10291610Y-13309984D01*
X10291610Y-13309984D02*
X10272563Y-13309984D01*
X10272563Y-13309984D02*
X10253515Y-13300460D01*
X10253515Y-13300460D02*
X10243991Y-13290936D01*
X10243991Y-13290936D02*
X10234467Y-13271888D01*
X10234467Y-13271888D02*
X10224944Y-13233793D01*
X10224944Y-13233793D02*
X10224944Y-13186174D01*
X10224944Y-13186174D02*
X10234467Y-13148079D01*
X10234467Y-13148079D02*
X10243991Y-13129031D01*
X10243991Y-13129031D02*
X10253515Y-13119508D01*
X10253515Y-13119508D02*
X10272563Y-13109984D01*
X10463039Y-13109984D02*
X10482086Y-13109984D01*
X10482086Y-13109984D02*
X10501134Y-13119508D01*
X10501134Y-13119508D02*
X10510658Y-13129031D01*
X10510658Y-13129031D02*
X10520182Y-13148079D01*
X10520182Y-13148079D02*
X10529705Y-13186174D01*
X10529705Y-13186174D02*
X10529705Y-13233793D01*
X10529705Y-13233793D02*
X10520182Y-13271888D01*
X10520182Y-13271888D02*
X10510658Y-13290936D01*
X10510658Y-13290936D02*
X10501134Y-13300460D01*
X10501134Y-13300460D02*
X10482086Y-13309984D01*
X10482086Y-13309984D02*
X10463039Y-13309984D01*
X10463039Y-13309984D02*
X10443991Y-13300460D01*
X10443991Y-13300460D02*
X10434467Y-13290936D01*
X10434467Y-13290936D02*
X10424944Y-13271888D01*
X10424944Y-13271888D02*
X10415420Y-13233793D01*
X10415420Y-13233793D02*
X10415420Y-13186174D01*
X10415420Y-13186174D02*
X10424944Y-13148079D01*
X10424944Y-13148079D02*
X10434467Y-13129031D01*
X10434467Y-13129031D02*
X10443991Y-13119508D01*
X10443991Y-13119508D02*
X10463039Y-13109984D01*
X10615420Y-13309984D02*
X10615420Y-13176650D01*
X10615420Y-13195698D02*
X10624944Y-13186174D01*
X10624944Y-13186174D02*
X10643991Y-13176650D01*
X10643991Y-13176650D02*
X10672563Y-13176650D01*
X10672563Y-13176650D02*
X10691610Y-13186174D01*
X10691610Y-13186174D02*
X10701134Y-13205222D01*
X10701134Y-13205222D02*
X10701134Y-13309984D01*
X10701134Y-13205222D02*
X10710658Y-13186174D01*
X10710658Y-13186174D02*
X10729705Y-13176650D01*
X10729705Y-13176650D02*
X10758277Y-13176650D01*
X10758277Y-13176650D02*
X10777325Y-13186174D01*
X10777325Y-13186174D02*
X10786848Y-13205222D01*
X10786848Y-13205222D02*
X10786848Y-13309984D01*
X10882086Y-13309984D02*
X10882086Y-13176650D01*
X10882086Y-13195698D02*
X10891610Y-13186174D01*
X10891610Y-13186174D02*
X10910658Y-13176650D01*
X10910658Y-13176650D02*
X10939229Y-13176650D01*
X10939229Y-13176650D02*
X10958277Y-13186174D01*
X10958277Y-13186174D02*
X10967801Y-13205222D01*
X10967801Y-13205222D02*
X10967801Y-13309984D01*
X10967801Y-13205222D02*
X10977325Y-13186174D01*
X10977325Y-13186174D02*
X10996372Y-13176650D01*
X10996372Y-13176650D02*
X11024944Y-13176650D01*
X11024944Y-13176650D02*
X11043991Y-13186174D01*
X11043991Y-13186174D02*
X11053515Y-13205222D01*
X11053515Y-13205222D02*
X11053515Y-13309984D01*
X11443991Y-13100460D02*
X11272563Y-13357603D01*
X11701134Y-13109984D02*
X11720182Y-13109984D01*
X11720182Y-13109984D02*
X11739229Y-13119508D01*
X11739229Y-13119508D02*
X11748753Y-13129031D01*
X11748753Y-13129031D02*
X11758277Y-13148079D01*
X11758277Y-13148079D02*
X11767801Y-13186174D01*
X11767801Y-13186174D02*
X11767801Y-13233793D01*
X11767801Y-13233793D02*
X11758277Y-13271888D01*
X11758277Y-13271888D02*
X11748753Y-13290936D01*
X11748753Y-13290936D02*
X11739229Y-13300460D01*
X11739229Y-13300460D02*
X11720182Y-13309984D01*
X11720182Y-13309984D02*
X11701134Y-13309984D01*
X11701134Y-13309984D02*
X11682086Y-13300460D01*
X11682086Y-13300460D02*
X11672563Y-13290936D01*
X11672563Y-13290936D02*
X11663039Y-13271888D01*
X11663039Y-13271888D02*
X11653515Y-13233793D01*
X11653515Y-13233793D02*
X11653515Y-13186174D01*
X11653515Y-13186174D02*
X11663039Y-13148079D01*
X11663039Y-13148079D02*
X11672563Y-13129031D01*
X11672563Y-13129031D02*
X11682086Y-13119508D01*
X11682086Y-13119508D02*
X11701134Y-13109984D01*
X11853515Y-13290936D02*
X11863039Y-13300460D01*
X11863039Y-13300460D02*
X11853515Y-13309984D01*
X11853515Y-13309984D02*
X11843991Y-13300460D01*
X11843991Y-13300460D02*
X11853515Y-13290936D01*
X11853515Y-13290936D02*
X11853515Y-13309984D01*
X12053515Y-13309984D02*
X11939229Y-13309984D01*
X11996372Y-13309984D02*
X11996372Y-13109984D01*
X11996372Y-13109984D02*
X11977325Y-13138555D01*
X11977325Y-13138555D02*
X11958277Y-13157603D01*
X11958277Y-13157603D02*
X11939229Y-13167127D01*
X12129706Y-13129031D02*
X12139229Y-13119508D01*
X12139229Y-13119508D02*
X12158277Y-13109984D01*
X12158277Y-13109984D02*
X12205896Y-13109984D01*
X12205896Y-13109984D02*
X12224944Y-13119508D01*
X12224944Y-13119508D02*
X12234467Y-13129031D01*
X12234467Y-13129031D02*
X12243991Y-13148079D01*
X12243991Y-13148079D02*
X12243991Y-13167127D01*
X12243991Y-13167127D02*
X12234467Y-13195698D01*
X12234467Y-13195698D02*
X12120182Y-13309984D01*
X12120182Y-13309984D02*
X12243991Y-13309984D01*
X12415420Y-13109984D02*
X12377325Y-13109984D01*
X12377325Y-13109984D02*
X12358277Y-13119508D01*
X12358277Y-13119508D02*
X12348753Y-13129031D01*
X12348753Y-13129031D02*
X12329706Y-13157603D01*
X12329706Y-13157603D02*
X12320182Y-13195698D01*
X12320182Y-13195698D02*
X12320182Y-13271888D01*
X12320182Y-13271888D02*
X12329706Y-13290936D01*
X12329706Y-13290936D02*
X12339229Y-13300460D01*
X12339229Y-13300460D02*
X12358277Y-13309984D01*
X12358277Y-13309984D02*
X12396372Y-13309984D01*
X12396372Y-13309984D02*
X12415420Y-13300460D01*
X12415420Y-13300460D02*
X12424944Y-13290936D01*
X12424944Y-13290936D02*
X12434467Y-13271888D01*
X12434467Y-13271888D02*
X12434467Y-13224269D01*
X12434467Y-13224269D02*
X12424944Y-13205222D01*
X12424944Y-13205222D02*
X12415420Y-13195698D01*
X12415420Y-13195698D02*
X12396372Y-13186174D01*
X12396372Y-13186174D02*
X12358277Y-13186174D01*
X12358277Y-13186174D02*
X12339229Y-13195698D01*
X12339229Y-13195698D02*
X12329706Y-13205222D01*
X12329706Y-13205222D02*
X12320182Y-13224269D01*
X12558277Y-13109984D02*
X12577325Y-13109984D01*
X12577325Y-13109984D02*
X12596372Y-13119508D01*
X12596372Y-13119508D02*
X12605896Y-13129031D01*
X12605896Y-13129031D02*
X12615420Y-13148079D01*
X12615420Y-13148079D02*
X12624944Y-13186174D01*
X12624944Y-13186174D02*
X12624944Y-13233793D01*
X12624944Y-13233793D02*
X12615420Y-13271888D01*
X12615420Y-13271888D02*
X12605896Y-13290936D01*
X12605896Y-13290936D02*
X12596372Y-13300460D01*
X12596372Y-13300460D02*
X12577325Y-13309984D01*
X12577325Y-13309984D02*
X12558277Y-13309984D01*
X12558277Y-13309984D02*
X12539229Y-13300460D01*
X12539229Y-13300460D02*
X12529706Y-13290936D01*
X12529706Y-13290936D02*
X12520182Y-13271888D01*
X12520182Y-13271888D02*
X12510658Y-13233793D01*
X12510658Y-13233793D02*
X12510658Y-13186174D01*
X12510658Y-13186174D02*
X12520182Y-13148079D01*
X12520182Y-13148079D02*
X12529706Y-13129031D01*
X12529706Y-13129031D02*
X12539229Y-13119508D01*
X12539229Y-13119508D02*
X12558277Y-13109984D01*
X12701134Y-13109984D02*
X12701134Y-13148079D01*
X12777325Y-13109984D02*
X12777325Y-13148079D01*
X13072563Y-13386174D02*
X13063039Y-13376650D01*
X13063039Y-13376650D02*
X13043991Y-13348079D01*
X13043991Y-13348079D02*
X13034468Y-13329031D01*
X13034468Y-13329031D02*
X13024944Y-13300460D01*
X13024944Y-13300460D02*
X13015420Y-13252841D01*
X13015420Y-13252841D02*
X13015420Y-13214746D01*
X13015420Y-13214746D02*
X13024944Y-13167127D01*
X13024944Y-13167127D02*
X13034468Y-13138555D01*
X13034468Y-13138555D02*
X13043991Y-13119508D01*
X13043991Y-13119508D02*
X13063039Y-13090936D01*
X13063039Y-13090936D02*
X13072563Y-13081412D01*
X13139229Y-13129031D02*
X13148753Y-13119508D01*
X13148753Y-13119508D02*
X13167801Y-13109984D01*
X13167801Y-13109984D02*
X13215420Y-13109984D01*
X13215420Y-13109984D02*
X13234468Y-13119508D01*
X13234468Y-13119508D02*
X13243991Y-13129031D01*
X13243991Y-13129031D02*
X13253515Y-13148079D01*
X13253515Y-13148079D02*
X13253515Y-13167127D01*
X13253515Y-13167127D02*
X13243991Y-13195698D01*
X13243991Y-13195698D02*
X13129706Y-13309984D01*
X13129706Y-13309984D02*
X13253515Y-13309984D01*
X13491610Y-13309984D02*
X13491610Y-13109984D01*
X13577325Y-13309984D02*
X13577325Y-13205222D01*
X13577325Y-13205222D02*
X13567801Y-13186174D01*
X13567801Y-13186174D02*
X13548753Y-13176650D01*
X13548753Y-13176650D02*
X13520182Y-13176650D01*
X13520182Y-13176650D02*
X13501134Y-13186174D01*
X13501134Y-13186174D02*
X13491610Y-13195698D01*
X13701134Y-13309984D02*
X13682087Y-13300460D01*
X13682087Y-13300460D02*
X13672563Y-13290936D01*
X13672563Y-13290936D02*
X13663039Y-13271888D01*
X13663039Y-13271888D02*
X13663039Y-13214746D01*
X13663039Y-13214746D02*
X13672563Y-13195698D01*
X13672563Y-13195698D02*
X13682087Y-13186174D01*
X13682087Y-13186174D02*
X13701134Y-13176650D01*
X13701134Y-13176650D02*
X13729706Y-13176650D01*
X13729706Y-13176650D02*
X13748753Y-13186174D01*
X13748753Y-13186174D02*
X13758277Y-13195698D01*
X13758277Y-13195698D02*
X13767801Y-13214746D01*
X13767801Y-13214746D02*
X13767801Y-13271888D01*
X13767801Y-13271888D02*
X13758277Y-13290936D01*
X13758277Y-13290936D02*
X13748753Y-13300460D01*
X13748753Y-13300460D02*
X13729706Y-13309984D01*
X13729706Y-13309984D02*
X13701134Y-13309984D01*
X13882087Y-13309984D02*
X13863039Y-13300460D01*
X13863039Y-13300460D02*
X13853515Y-13281412D01*
X13853515Y-13281412D02*
X13853515Y-13109984D01*
X14034468Y-13300460D02*
X14015420Y-13309984D01*
X14015420Y-13309984D02*
X13977325Y-13309984D01*
X13977325Y-13309984D02*
X13958277Y-13300460D01*
X13958277Y-13300460D02*
X13948753Y-13281412D01*
X13948753Y-13281412D02*
X13948753Y-13205222D01*
X13948753Y-13205222D02*
X13958277Y-13186174D01*
X13958277Y-13186174D02*
X13977325Y-13176650D01*
X13977325Y-13176650D02*
X14015420Y-13176650D01*
X14015420Y-13176650D02*
X14034468Y-13186174D01*
X14034468Y-13186174D02*
X14043991Y-13205222D01*
X14043991Y-13205222D02*
X14043991Y-13224269D01*
X14043991Y-13224269D02*
X13948753Y-13243317D01*
X14120182Y-13300460D02*
X14139230Y-13309984D01*
X14139230Y-13309984D02*
X14177325Y-13309984D01*
X14177325Y-13309984D02*
X14196372Y-13300460D01*
X14196372Y-13300460D02*
X14205896Y-13281412D01*
X14205896Y-13281412D02*
X14205896Y-13271888D01*
X14205896Y-13271888D02*
X14196372Y-13252841D01*
X14196372Y-13252841D02*
X14177325Y-13243317D01*
X14177325Y-13243317D02*
X14148753Y-13243317D01*
X14148753Y-13243317D02*
X14129706Y-13233793D01*
X14129706Y-13233793D02*
X14120182Y-13214746D01*
X14120182Y-13214746D02*
X14120182Y-13205222D01*
X14120182Y-13205222D02*
X14129706Y-13186174D01*
X14129706Y-13186174D02*
X14148753Y-13176650D01*
X14148753Y-13176650D02*
X14177325Y-13176650D01*
X14177325Y-13176650D02*
X14196372Y-13186174D01*
X14272563Y-13386174D02*
X14282087Y-13376650D01*
X14282087Y-13376650D02*
X14301134Y-13348079D01*
X14301134Y-13348079D02*
X14310658Y-13329031D01*
X14310658Y-13329031D02*
X14320182Y-13300460D01*
X14320182Y-13300460D02*
X14329706Y-13252841D01*
X14329706Y-13252841D02*
X14329706Y-13214746D01*
X14329706Y-13214746D02*
X14320182Y-13167127D01*
X14320182Y-13167127D02*
X14310658Y-13138555D01*
X14310658Y-13138555D02*
X14301134Y-13119508D01*
X14301134Y-13119508D02*
X14282087Y-13090936D01*
X14282087Y-13090936D02*
X14272563Y-13081412D01*
M02*
