%TF.GenerationSoftware,KiCad,Pcbnew,9.0.2-9.0.2-0~ubuntu22.04.1*%
%TF.CreationDate,2025-06-09T10:54:52+02:00*%
%TF.ProjectId,safety_board_Rev-A,73616665-7479-45f6-926f-6172645f5265,rev?*%
%TF.SameCoordinates,Original*%
%TF.FileFunction,Drillmap*%
%TF.FilePolarity,Positive*%
%FSLAX45Y45*%
G04 Gerber Fmt 4.5, Leading zero omitted, Abs format (unit mm)*
G04 Created by KiCad (PCBNEW 9.0.2-9.0.2-0~ubuntu22.04.1) date 2025-06-09 10:54:52*
%MOMM*%
%LPD*%
G01*
G04 APERTURE LIST*
%ADD10C,0.050000*%
%ADD11C,0.200000*%
G04 APERTURE END LIST*
D10*
X20500000Y-11000000D02*
G75*
G02*
X20250000Y-11250000I-250000J0D01*
G01*
X20250000Y-9250000D02*
G75*
G02*
X20500000Y-9500000I0J-250000D01*
G01*
X9750000Y-11250000D02*
G75*
G02*
X9500000Y-11000000I0J250000D01*
G01*
X9500000Y-9500000D02*
G75*
G02*
X9750000Y-9250000I250000J0D01*
G01*
X9500000Y-9500000D02*
X9500000Y-11000000D01*
X15000000Y-9250000D02*
X9750000Y-9250000D01*
X15000000Y-11250000D02*
X9750000Y-11250000D01*
X20250000Y-11250000D02*
X15000000Y-11250000D01*
X20500000Y-9500000D02*
X20500000Y-11000000D01*
X15000000Y-9250000D02*
X20250000Y-9250000D01*
D11*
X9758277Y-11563984D02*
X9758277Y-11363984D01*
X9758277Y-11363984D02*
X9805896Y-11363984D01*
X9805896Y-11363984D02*
X9834467Y-11373508D01*
X9834467Y-11373508D02*
X9853515Y-11392555D01*
X9853515Y-11392555D02*
X9863039Y-11411603D01*
X9863039Y-11411603D02*
X9872563Y-11449698D01*
X9872563Y-11449698D02*
X9872563Y-11478269D01*
X9872563Y-11478269D02*
X9863039Y-11516365D01*
X9863039Y-11516365D02*
X9853515Y-11535412D01*
X9853515Y-11535412D02*
X9834467Y-11554460D01*
X9834467Y-11554460D02*
X9805896Y-11563984D01*
X9805896Y-11563984D02*
X9758277Y-11563984D01*
X9958277Y-11563984D02*
X9958277Y-11430650D01*
X9958277Y-11468746D02*
X9967801Y-11449698D01*
X9967801Y-11449698D02*
X9977324Y-11440174D01*
X9977324Y-11440174D02*
X9996372Y-11430650D01*
X9996372Y-11430650D02*
X10015420Y-11430650D01*
X10082086Y-11563984D02*
X10082086Y-11430650D01*
X10082086Y-11363984D02*
X10072563Y-11373508D01*
X10072563Y-11373508D02*
X10082086Y-11383031D01*
X10082086Y-11383031D02*
X10091610Y-11373508D01*
X10091610Y-11373508D02*
X10082086Y-11363984D01*
X10082086Y-11363984D02*
X10082086Y-11383031D01*
X10205896Y-11563984D02*
X10186848Y-11554460D01*
X10186848Y-11554460D02*
X10177324Y-11535412D01*
X10177324Y-11535412D02*
X10177324Y-11363984D01*
X10310658Y-11563984D02*
X10291610Y-11554460D01*
X10291610Y-11554460D02*
X10282086Y-11535412D01*
X10282086Y-11535412D02*
X10282086Y-11363984D01*
X10539229Y-11563984D02*
X10539229Y-11363984D01*
X10539229Y-11363984D02*
X10605896Y-11506841D01*
X10605896Y-11506841D02*
X10672563Y-11363984D01*
X10672563Y-11363984D02*
X10672563Y-11563984D01*
X10853515Y-11563984D02*
X10853515Y-11459222D01*
X10853515Y-11459222D02*
X10843991Y-11440174D01*
X10843991Y-11440174D02*
X10824944Y-11430650D01*
X10824944Y-11430650D02*
X10786848Y-11430650D01*
X10786848Y-11430650D02*
X10767801Y-11440174D01*
X10853515Y-11554460D02*
X10834467Y-11563984D01*
X10834467Y-11563984D02*
X10786848Y-11563984D01*
X10786848Y-11563984D02*
X10767801Y-11554460D01*
X10767801Y-11554460D02*
X10758277Y-11535412D01*
X10758277Y-11535412D02*
X10758277Y-11516365D01*
X10758277Y-11516365D02*
X10767801Y-11497317D01*
X10767801Y-11497317D02*
X10786848Y-11487793D01*
X10786848Y-11487793D02*
X10834467Y-11487793D01*
X10834467Y-11487793D02*
X10853515Y-11478269D01*
X10948753Y-11430650D02*
X10948753Y-11630650D01*
X10948753Y-11440174D02*
X10967801Y-11430650D01*
X10967801Y-11430650D02*
X11005896Y-11430650D01*
X11005896Y-11430650D02*
X11024944Y-11440174D01*
X11024944Y-11440174D02*
X11034467Y-11449698D01*
X11034467Y-11449698D02*
X11043991Y-11468746D01*
X11043991Y-11468746D02*
X11043991Y-11525888D01*
X11043991Y-11525888D02*
X11034467Y-11544936D01*
X11034467Y-11544936D02*
X11024944Y-11554460D01*
X11024944Y-11554460D02*
X11005896Y-11563984D01*
X11005896Y-11563984D02*
X10967801Y-11563984D01*
X10967801Y-11563984D02*
X10948753Y-11554460D01*
X11129705Y-11544936D02*
X11139229Y-11554460D01*
X11139229Y-11554460D02*
X11129705Y-11563984D01*
X11129705Y-11563984D02*
X11120182Y-11554460D01*
X11120182Y-11554460D02*
X11129705Y-11544936D01*
X11129705Y-11544936D02*
X11129705Y-11563984D01*
X11129705Y-11440174D02*
X11139229Y-11449698D01*
X11139229Y-11449698D02*
X11129705Y-11459222D01*
X11129705Y-11459222D02*
X11120182Y-11449698D01*
X11120182Y-11449698D02*
X11129705Y-11440174D01*
X11129705Y-11440174D02*
X11129705Y-11459222D01*
M02*
