%TF.GenerationSoftware,KiCad,Pcbnew,9.0.2-9.0.2-0~ubuntu22.04.1*%
%TF.CreationDate,2025-06-09T10:54:34+02:00*%
%TF.ProjectId,safety_board_Rev-A,73616665-7479-45f6-926f-6172645f5265,rev?*%
%TF.SameCoordinates,Original*%
%TF.FileFunction,Copper,L2,Bot*%
%TF.FilePolarity,Positive*%
%FSLAX46Y46*%
G04 Gerber Fmt 4.6, Leading zero omitted, Abs format (unit mm)*
G04 Created by KiCad (PCBNEW 9.0.2-9.0.2-0~ubuntu22.04.1) date 2025-06-09 10:54:34*
%MOMM*%
%LPD*%
G01*
G04 APERTURE LIST*
G04 Aperture macros list*
%AMRoundRect*
0 Rectangle with rounded corners*
0 $1 Rounding radius*
0 $2 $3 $4 $5 $6 $7 $8 $9 X,Y pos of 4 corners*
0 Add a 4 corners polygon primitive as box body*
4,1,4,$2,$3,$4,$5,$6,$7,$8,$9,$2,$3,0*
0 Add four circle primitives for the rounded corners*
1,1,$1+$1,$2,$3*
1,1,$1+$1,$4,$5*
1,1,$1+$1,$6,$7*
1,1,$1+$1,$8,$9*
0 Add four rect primitives between the rounded corners*
20,1,$1+$1,$2,$3,$4,$5,0*
20,1,$1+$1,$4,$5,$6,$7,0*
20,1,$1+$1,$6,$7,$8,$9,0*
20,1,$1+$1,$8,$9,$2,$3,0*%
G04 Aperture macros list end*
%TA.AperFunction,ComponentPad*%
%ADD10C,1.600000*%
%TD*%
%TA.AperFunction,ComponentPad*%
%ADD11C,3.600000*%
%TD*%
%TA.AperFunction,ConnectorPad*%
%ADD12C,5.600000*%
%TD*%
%TA.AperFunction,ComponentPad*%
%ADD13RoundRect,0.250000X-0.550000X0.550000X-0.550000X-0.550000X0.550000X-0.550000X0.550000X0.550000X0*%
%TD*%
%TA.AperFunction,ComponentPad*%
%ADD14R,1.050000X1.500000*%
%TD*%
%TA.AperFunction,ComponentPad*%
%ADD15O,1.050000X1.500000*%
%TD*%
%TA.AperFunction,ComponentPad*%
%ADD16C,2.800000*%
%TD*%
%TA.AperFunction,ComponentPad*%
%ADD17RoundRect,0.250000X1.150000X1.150000X-1.150000X1.150000X-1.150000X-1.150000X1.150000X-1.150000X0*%
%TD*%
%TA.AperFunction,ComponentPad*%
%ADD18C,3.000000*%
%TD*%
%TA.AperFunction,ComponentPad*%
%ADD19RoundRect,0.249999X0.850001X-0.850001X0.850001X0.850001X-0.850001X0.850001X-0.850001X-0.850001X0*%
%TD*%
%TA.AperFunction,ComponentPad*%
%ADD20C,2.200000*%
%TD*%
%TA.AperFunction,ComponentPad*%
%ADD21RoundRect,0.250001X-0.949999X-0.949999X0.949999X-0.949999X0.949999X0.949999X-0.949999X0.949999X0*%
%TD*%
%TA.AperFunction,ComponentPad*%
%ADD22C,2.400000*%
%TD*%
%TA.AperFunction,ComponentPad*%
%ADD23RoundRect,0.250001X0.949999X0.949999X-0.949999X0.949999X-0.949999X-0.949999X0.949999X-0.949999X0*%
%TD*%
%TA.AperFunction,Conductor*%
%ADD24C,1.000000*%
%TD*%
%TA.AperFunction,Conductor*%
%ADD25C,0.500000*%
%TD*%
G04 APERTURE END LIST*
D10*
%TO.P,R5,2*%
%TO.N,Net-(D2-K)*%
X173000000Y-94420000D03*
%TO.P,R5,1*%
%TO.N,Net-(D4-A)*%
X173000000Y-104580000D03*
%TD*%
D11*
%TO.P,H2,1,1*%
%TO.N,GND*%
X98500000Y-102500000D03*
D12*
X98500000Y-102500000D03*
%TD*%
D11*
%TO.P,H1,1,1*%
%TO.N,GND*%
X201500000Y-102500000D03*
D12*
X201500000Y-102500000D03*
%TD*%
D13*
%TO.P,D2,1,K*%
%TO.N,Net-(D2-K)*%
X176000000Y-94690000D03*
D10*
%TO.P,D2,2,A*%
%TO.N,Net-(D2-A)*%
X176000000Y-102310000D03*
%TD*%
%TO.P,R4,1*%
%TO.N,GND*%
X166000000Y-94420000D03*
%TO.P,R4,2*%
%TO.N,Net-(D2-A)*%
X166000000Y-104580000D03*
%TD*%
%TO.P,R3,1*%
%TO.N,Net-(D1-K)*%
X162500000Y-104580000D03*
%TO.P,R3,2*%
%TO.N,Net-(D2-K)*%
X162500000Y-94420000D03*
%TD*%
%TO.P,R2,1*%
%TO.N,Net-(K1-Pad22)*%
X123500000Y-96420000D03*
%TO.P,R2,2*%
%TO.N,GND*%
X123500000Y-106580000D03*
%TD*%
%TO.P,R1,1*%
%TO.N,Net-(K1-Pad12)*%
X120000000Y-96420000D03*
%TO.P,R1,2*%
%TO.N,GND*%
X120000000Y-106580000D03*
%TD*%
D14*
%TO.P,Q1,1,S*%
%TO.N,GND*%
X159000000Y-95500000D03*
D15*
%TO.P,Q1,2,G*%
%TO.N,Net-(D2-A)*%
X157730000Y-95500000D03*
%TO.P,Q1,3,D*%
%TO.N,Net-(D1-A)*%
X156460000Y-95500000D03*
%TD*%
D16*
%TO.P,K1,11*%
%TO.N,Net-(C6-Pad2)*%
X131877795Y-103750000D03*
%TO.P,K1,12*%
%TO.N,Net-(K1-Pad12)*%
X136877795Y-103750000D03*
%TO.P,K1,14*%
%TO.N,Net-(J9-Pin_1)*%
X126877795Y-103750000D03*
%TO.P,K1,21*%
%TO.N,Net-(C2-Pad2)*%
X131877795Y-96250000D03*
%TO.P,K1,22*%
%TO.N,Net-(K1-Pad22)*%
X136877795Y-96250000D03*
%TO.P,K1,24*%
%TO.N,Net-(J8-Pin_1)*%
X126877795Y-96250000D03*
D17*
%TO.P,K1,A1*%
%TO.N,Net-(D1-K)*%
X151877795Y-103750000D03*
D16*
%TO.P,K1,A2*%
%TO.N,Net-(D1-A)*%
X151877795Y-96250000D03*
%TD*%
D18*
%TO.P,J9,1,Pin_1*%
%TO.N,Net-(J9-Pin_1)*%
X147500000Y-110000000D03*
%TD*%
%TO.P,J8,1,Pin_1*%
%TO.N,Net-(J8-Pin_1)*%
X152500000Y-110000000D03*
%TD*%
%TO.P,J6,1,Pin_1*%
%TO.N,GND*%
X130500000Y-110000000D03*
%TD*%
%TO.P,J4,1,Pin_1*%
%TO.N,Net-(J4-Pin_1)*%
X197500000Y-110000000D03*
%TD*%
%TO.P,J2,1,Pin_1*%
%TO.N,Net-(J2-Pin_1)*%
X102500000Y-110000000D03*
%TD*%
%TO.P,J1,1,Pin_1*%
%TO.N,Net-(D1-K)*%
X169500000Y-110000000D03*
%TD*%
D19*
%TO.P,D4,1,K*%
%TO.N,Net-(D1-K)*%
X169500000Y-104580000D03*
D20*
%TO.P,D4,2,A*%
%TO.N,Net-(D4-A)*%
X169500000Y-94420000D03*
%TD*%
D19*
%TO.P,D1,1,K*%
%TO.N,Net-(D1-K)*%
X158500000Y-110080000D03*
D20*
%TO.P,D1,2,A*%
%TO.N,Net-(D1-A)*%
X158500000Y-99920000D03*
%TD*%
D21*
%TO.P,C6,1*%
%TO.N,Net-(J2-Pin_1)*%
X106487246Y-101000000D03*
D22*
%TO.P,C6,2*%
%TO.N,Net-(C6-Pad2)*%
X113987246Y-101000000D03*
%TD*%
D23*
%TO.P,C2,1*%
%TO.N,Net-(J4-Pin_1)*%
X193512755Y-101000000D03*
D22*
%TO.P,C2,2*%
%TO.N,Net-(C2-Pad2)*%
X186012755Y-101000000D03*
%TD*%
D10*
%TO.P,C1,1*%
%TO.N,Net-(D2-K)*%
X179000000Y-105750000D03*
%TO.P,C1,2*%
%TO.N,GND*%
X179000000Y-109250000D03*
%TD*%
D24*
%TO.N,Net-(D4-A)*%
X173000000Y-104580000D02*
X173000000Y-97920000D01*
X173000000Y-97920000D02*
X169500000Y-94420000D01*
D25*
%TO.N,Net-(D2-A)*%
X157730000Y-95500000D02*
X157730000Y-96310000D01*
X157730000Y-96310000D02*
X166000000Y-104580000D01*
D24*
%TO.N,Net-(K1-Pad22)*%
X123500000Y-96420000D02*
X125580000Y-98500000D01*
X125580000Y-98500000D02*
X134627795Y-98500000D01*
X134627795Y-98500000D02*
X136877795Y-96250000D01*
%TO.N,Net-(K1-Pad12)*%
X120000000Y-96420000D02*
X123580000Y-100000000D01*
X123580000Y-100000000D02*
X133127795Y-100000000D01*
X133127795Y-100000000D02*
X136877795Y-103750000D01*
%TO.N,Net-(D2-K)*%
X179000000Y-105750000D02*
X179000000Y-97690000D01*
X179000000Y-97690000D02*
X176000000Y-94690000D01*
%TD*%
%TA.AperFunction,Conductor*%
%TO.N,GND*%
G36*
X161910943Y-93002294D02*
G01*
X161917205Y-93001119D01*
X161944064Y-93012020D01*
X161971870Y-93020185D01*
X161976040Y-93024998D01*
X161981946Y-93027395D01*
X161998651Y-93051092D01*
X162017625Y-93072989D01*
X162018531Y-93079292D01*
X162022203Y-93084501D01*
X162023444Y-93113460D01*
X162027569Y-93142147D01*
X162024922Y-93147942D01*
X162025195Y-93154307D01*
X162010585Y-93179336D01*
X161998544Y-93205703D01*
X161992378Y-93210527D01*
X161989973Y-93214649D01*
X161961126Y-93234985D01*
X161818386Y-93307715D01*
X161652786Y-93428028D01*
X161508028Y-93572786D01*
X161387715Y-93738386D01*
X161294781Y-93920776D01*
X161231522Y-94115465D01*
X161199500Y-94317648D01*
X161199500Y-94522351D01*
X161231522Y-94724534D01*
X161294781Y-94919223D01*
X161353457Y-95034379D01*
X161387585Y-95101359D01*
X161387715Y-95101613D01*
X161508028Y-95267213D01*
X161652786Y-95411971D01*
X161772721Y-95499107D01*
X161818390Y-95532287D01*
X161934607Y-95591503D01*
X162000776Y-95625218D01*
X162000778Y-95625218D01*
X162000781Y-95625220D01*
X162060873Y-95644745D01*
X162195465Y-95688477D01*
X162296557Y-95704488D01*
X162397648Y-95720500D01*
X162397649Y-95720500D01*
X162602351Y-95720500D01*
X162602352Y-95720500D01*
X162804534Y-95688477D01*
X162999219Y-95625220D01*
X163181610Y-95532287D01*
X163296927Y-95448505D01*
X163347213Y-95411971D01*
X163347215Y-95411968D01*
X163347219Y-95411966D01*
X163491966Y-95267219D01*
X163491968Y-95267215D01*
X163491971Y-95267213D01*
X163576726Y-95150556D01*
X163612287Y-95101610D01*
X163705220Y-94919219D01*
X163768477Y-94724534D01*
X163800500Y-94522352D01*
X163800500Y-94317648D01*
X163798757Y-94306645D01*
X163768477Y-94115465D01*
X163706019Y-93923241D01*
X163705220Y-93920781D01*
X163705218Y-93920778D01*
X163705218Y-93920776D01*
X163654210Y-93820668D01*
X163612287Y-93738390D01*
X163580092Y-93694077D01*
X163491971Y-93572786D01*
X163347213Y-93428028D01*
X163181613Y-93307715D01*
X163181612Y-93307714D01*
X163181610Y-93307713D01*
X163089983Y-93261026D01*
X163038874Y-93234985D01*
X162988078Y-93187010D01*
X162971283Y-93119189D01*
X162993821Y-93053054D01*
X163048536Y-93009603D01*
X163095169Y-93000500D01*
X165405932Y-93000500D01*
X165472971Y-93020185D01*
X165518726Y-93072989D01*
X165528670Y-93142147D01*
X165499645Y-93205703D01*
X165462227Y-93234985D01*
X165318644Y-93308143D01*
X165274077Y-93340523D01*
X165274077Y-93340524D01*
X165953554Y-94020000D01*
X165947339Y-94020000D01*
X165845606Y-94047259D01*
X165754394Y-94099920D01*
X165679920Y-94174394D01*
X165627259Y-94265606D01*
X165600000Y-94367339D01*
X165600000Y-94373553D01*
X164920524Y-93694077D01*
X164920523Y-93694077D01*
X164888143Y-93738644D01*
X164795244Y-93920968D01*
X164732009Y-94115582D01*
X164700000Y-94317682D01*
X164700000Y-94522317D01*
X164732009Y-94724417D01*
X164795244Y-94919031D01*
X164888141Y-95101350D01*
X164888147Y-95101359D01*
X164920523Y-95145921D01*
X164920524Y-95145922D01*
X165600000Y-94466446D01*
X165600000Y-94472661D01*
X165627259Y-94574394D01*
X165679920Y-94665606D01*
X165754394Y-94740080D01*
X165845606Y-94792741D01*
X165947339Y-94820000D01*
X165953553Y-94820000D01*
X165274076Y-95499474D01*
X165318650Y-95531859D01*
X165500968Y-95624755D01*
X165695582Y-95687990D01*
X165897683Y-95720000D01*
X166102317Y-95720000D01*
X166304417Y-95687990D01*
X166499031Y-95624755D01*
X166681349Y-95531859D01*
X166725921Y-95499474D01*
X166046447Y-94820000D01*
X166052661Y-94820000D01*
X166154394Y-94792741D01*
X166245606Y-94740080D01*
X166320080Y-94665606D01*
X166372741Y-94574394D01*
X166400000Y-94472661D01*
X166400000Y-94466447D01*
X167079474Y-95145921D01*
X167111859Y-95101349D01*
X167204755Y-94919031D01*
X167267990Y-94724417D01*
X167300000Y-94522317D01*
X167300000Y-94317682D01*
X167267990Y-94115582D01*
X167204755Y-93920968D01*
X167111859Y-93738650D01*
X167079474Y-93694077D01*
X167079474Y-93694076D01*
X166400000Y-94373551D01*
X166400000Y-94367339D01*
X166372741Y-94265606D01*
X166320080Y-94174394D01*
X166245606Y-94099920D01*
X166154394Y-94047259D01*
X166052661Y-94020000D01*
X166046446Y-94020000D01*
X166725922Y-93340524D01*
X166725921Y-93340523D01*
X166681359Y-93308147D01*
X166681350Y-93308141D01*
X166537773Y-93234985D01*
X166486977Y-93187010D01*
X166470182Y-93119189D01*
X166492719Y-93053055D01*
X166547434Y-93009603D01*
X166594068Y-93000500D01*
X168356689Y-93000500D01*
X168423728Y-93020185D01*
X168469483Y-93072989D01*
X168479427Y-93142147D01*
X168450402Y-93205703D01*
X168444370Y-93212181D01*
X168279205Y-93377345D01*
X168279201Y-93377350D01*
X168131132Y-93581151D01*
X168016760Y-93805616D01*
X167938910Y-94045214D01*
X167927784Y-94115460D01*
X167899500Y-94294038D01*
X167899500Y-94545962D01*
X167911430Y-94621282D01*
X167938910Y-94794785D01*
X168016760Y-95034383D01*
X168073592Y-95145921D01*
X168126623Y-95250000D01*
X168131132Y-95258848D01*
X168279201Y-95462649D01*
X168279205Y-95462654D01*
X168457345Y-95640794D01*
X168457350Y-95640798D01*
X168591675Y-95738390D01*
X168661155Y-95788870D01*
X168804184Y-95861747D01*
X168885616Y-95903239D01*
X168885618Y-95903239D01*
X168885621Y-95903241D01*
X169125215Y-95981090D01*
X169374038Y-96020500D01*
X169374039Y-96020500D01*
X169630834Y-96020500D01*
X169630834Y-96022030D01*
X169692577Y-96034976D01*
X169721651Y-96056571D01*
X171963181Y-98298101D01*
X171996666Y-98359424D01*
X171999500Y-98385782D01*
X171999500Y-103704237D01*
X171979815Y-103771276D01*
X171975818Y-103777122D01*
X171887715Y-103898386D01*
X171794781Y-104080776D01*
X171731522Y-104275465D01*
X171699500Y-104477648D01*
X171699500Y-104682351D01*
X171731522Y-104884534D01*
X171794781Y-105079223D01*
X171858691Y-105204653D01*
X171882195Y-105250781D01*
X171887715Y-105261613D01*
X172008028Y-105427213D01*
X172152786Y-105571971D01*
X172307749Y-105684556D01*
X172318390Y-105692287D01*
X172430347Y-105749332D01*
X172500776Y-105785218D01*
X172500778Y-105785218D01*
X172500781Y-105785220D01*
X172605137Y-105819127D01*
X172695465Y-105848477D01*
X172730822Y-105854077D01*
X172897648Y-105880500D01*
X172897649Y-105880500D01*
X173102351Y-105880500D01*
X173102352Y-105880500D01*
X173304534Y-105848477D01*
X173499219Y-105785220D01*
X173681610Y-105692287D01*
X173783883Y-105617982D01*
X173847213Y-105571971D01*
X173847215Y-105571968D01*
X173847219Y-105571966D01*
X173991966Y-105427219D01*
X173991968Y-105427215D01*
X173991971Y-105427213D01*
X174075670Y-105312009D01*
X174112287Y-105261610D01*
X174205220Y-105079219D01*
X174268477Y-104884534D01*
X174300500Y-104682352D01*
X174300500Y-104477648D01*
X174299728Y-104472776D01*
X174268477Y-104275465D01*
X174239127Y-104185137D01*
X174205220Y-104080781D01*
X174205218Y-104080778D01*
X174205218Y-104080776D01*
X174171503Y-104014607D01*
X174112287Y-103898390D01*
X174094972Y-103874558D01*
X174024182Y-103777122D01*
X174000702Y-103711316D01*
X174000500Y-103704237D01*
X174000500Y-102207648D01*
X174699500Y-102207648D01*
X174699500Y-102412351D01*
X174731522Y-102614534D01*
X174794781Y-102809223D01*
X174844919Y-102907623D01*
X174886893Y-102990001D01*
X174887715Y-102991613D01*
X175008028Y-103157213D01*
X175152786Y-103301971D01*
X175302396Y-103410667D01*
X175318390Y-103422287D01*
X175434607Y-103481503D01*
X175500776Y-103515218D01*
X175500778Y-103515218D01*
X175500781Y-103515220D01*
X175605137Y-103549127D01*
X175695465Y-103578477D01*
X175796557Y-103594488D01*
X175897648Y-103610500D01*
X175897649Y-103610500D01*
X176102351Y-103610500D01*
X176102352Y-103610500D01*
X176304534Y-103578477D01*
X176499219Y-103515220D01*
X176681610Y-103422287D01*
X176774590Y-103354732D01*
X176847213Y-103301971D01*
X176847215Y-103301968D01*
X176847219Y-103301966D01*
X176991966Y-103157219D01*
X176991968Y-103157215D01*
X176991971Y-103157213D01*
X177073362Y-103045186D01*
X177112287Y-102991610D01*
X177205220Y-102809219D01*
X177268477Y-102614534D01*
X177300500Y-102412352D01*
X177300500Y-102207648D01*
X177288414Y-102131342D01*
X177268477Y-102005465D01*
X177228559Y-101882611D01*
X177205220Y-101810781D01*
X177205218Y-101810778D01*
X177205218Y-101810776D01*
X177171503Y-101744607D01*
X177112287Y-101628390D01*
X177104556Y-101617749D01*
X176991971Y-101462786D01*
X176847213Y-101318028D01*
X176681613Y-101197715D01*
X176681612Y-101197714D01*
X176681610Y-101197713D01*
X176624653Y-101168691D01*
X176499223Y-101104781D01*
X176304534Y-101041522D01*
X176129995Y-101013878D01*
X176102352Y-101009500D01*
X175897648Y-101009500D01*
X175873329Y-101013351D01*
X175695465Y-101041522D01*
X175500776Y-101104781D01*
X175318386Y-101197715D01*
X175152786Y-101318028D01*
X175008028Y-101462786D01*
X174887715Y-101628386D01*
X174794781Y-101810776D01*
X174731522Y-102005465D01*
X174699500Y-102207648D01*
X174000500Y-102207648D01*
X174000500Y-97821458D01*
X173993952Y-97788542D01*
X173993952Y-97788540D01*
X173974048Y-97688477D01*
X173962051Y-97628164D01*
X173948912Y-97596444D01*
X173909171Y-97500499D01*
X173886635Y-97446092D01*
X173886628Y-97446079D01*
X173777140Y-97282219D01*
X173711000Y-97216079D01*
X173637782Y-97142861D01*
X173637781Y-97142860D01*
X172278311Y-95783390D01*
X172244827Y-95722069D01*
X172249811Y-95652377D01*
X172291683Y-95596444D01*
X172357147Y-95572027D01*
X172422288Y-95585226D01*
X172500776Y-95625218D01*
X172500778Y-95625218D01*
X172500781Y-95625220D01*
X172560873Y-95644745D01*
X172695465Y-95688477D01*
X172796557Y-95704488D01*
X172897648Y-95720500D01*
X172897649Y-95720500D01*
X173102351Y-95720500D01*
X173102352Y-95720500D01*
X173304534Y-95688477D01*
X173499219Y-95625220D01*
X173681610Y-95532287D01*
X173796927Y-95448505D01*
X173847213Y-95411971D01*
X173847215Y-95411968D01*
X173847219Y-95411966D01*
X173991966Y-95267219D01*
X173991968Y-95267215D01*
X173991971Y-95267213D01*
X174076726Y-95150556D01*
X174112287Y-95101610D01*
X174205220Y-94919219D01*
X174268477Y-94724534D01*
X174300500Y-94522352D01*
X174300500Y-94317648D01*
X174268477Y-94115466D01*
X174260197Y-94089983D01*
X174699500Y-94089983D01*
X174699500Y-95290001D01*
X174699501Y-95290018D01*
X174710000Y-95392796D01*
X174710001Y-95392799D01*
X174756223Y-95532287D01*
X174765186Y-95559334D01*
X174857288Y-95708656D01*
X174981344Y-95832712D01*
X175130666Y-95924814D01*
X175297203Y-95979999D01*
X175399991Y-95990500D01*
X175834217Y-95990499D01*
X175901256Y-96010183D01*
X175921898Y-96026818D01*
X177963181Y-98068101D01*
X177996666Y-98129424D01*
X177999500Y-98155782D01*
X177999500Y-104874237D01*
X177979815Y-104941276D01*
X177975818Y-104947122D01*
X177887715Y-105068386D01*
X177794781Y-105250776D01*
X177731522Y-105445465D01*
X177699500Y-105647648D01*
X177699500Y-105852351D01*
X177731522Y-106054534D01*
X177794781Y-106249223D01*
X177887715Y-106431613D01*
X178008028Y-106597213D01*
X178152786Y-106741971D01*
X178307749Y-106854556D01*
X178318390Y-106862287D01*
X178434607Y-106921503D01*
X178500776Y-106955218D01*
X178500778Y-106955218D01*
X178500781Y-106955220D01*
X178577046Y-106980000D01*
X178695465Y-107018477D01*
X178796557Y-107034488D01*
X178897648Y-107050500D01*
X178897649Y-107050500D01*
X179102351Y-107050500D01*
X179102352Y-107050500D01*
X179304534Y-107018477D01*
X179499219Y-106955220D01*
X179681610Y-106862287D01*
X179774590Y-106794732D01*
X179847213Y-106741971D01*
X179847215Y-106741968D01*
X179847219Y-106741966D01*
X179991966Y-106597219D01*
X179991968Y-106597215D01*
X179991971Y-106597213D01*
X180078814Y-106477682D01*
X180112287Y-106431610D01*
X180205220Y-106249219D01*
X180268477Y-106054534D01*
X180300500Y-105852352D01*
X180300500Y-105647648D01*
X180268477Y-105445465D01*
X180214714Y-105280000D01*
X180205220Y-105250781D01*
X180205218Y-105250778D01*
X180205218Y-105250776D01*
X180170140Y-105181933D01*
X180112287Y-105068390D01*
X180099654Y-105051003D01*
X180024182Y-104947122D01*
X180000702Y-104881316D01*
X180000500Y-104874237D01*
X180000500Y-100888549D01*
X184312255Y-100888549D01*
X184312255Y-101111450D01*
X184312256Y-101111466D01*
X184341349Y-101332452D01*
X184341350Y-101332457D01*
X184341351Y-101332463D01*
X184391735Y-101520500D01*
X184399045Y-101547780D01*
X184399048Y-101547790D01*
X184432434Y-101628390D01*
X184484350Y-101753726D01*
X184595807Y-101946774D01*
X184595812Y-101946780D01*
X184595813Y-101946782D01*
X184731506Y-102123622D01*
X184731512Y-102123629D01*
X184889125Y-102281242D01*
X184889132Y-102281248D01*
X184937115Y-102318066D01*
X185065981Y-102416948D01*
X185259029Y-102528405D01*
X185464974Y-102613710D01*
X185680292Y-102671404D01*
X185901298Y-102700500D01*
X185901305Y-102700500D01*
X186124205Y-102700500D01*
X186124212Y-102700500D01*
X186345218Y-102671404D01*
X186560536Y-102613710D01*
X186766481Y-102528405D01*
X186959529Y-102416948D01*
X187136379Y-102281247D01*
X187294002Y-102123624D01*
X187429703Y-101946774D01*
X187541160Y-101753726D01*
X187626465Y-101547781D01*
X187684159Y-101332463D01*
X187713255Y-101111457D01*
X187713255Y-100888543D01*
X187684159Y-100667537D01*
X187626465Y-100452219D01*
X187541160Y-100246274D01*
X187429703Y-100053226D01*
X187388849Y-99999984D01*
X191812255Y-99999984D01*
X191812255Y-102000015D01*
X191822755Y-102102795D01*
X191822756Y-102102797D01*
X191829659Y-102123629D01*
X191877941Y-102269335D01*
X191877942Y-102269337D01*
X191970041Y-102418651D01*
X191970044Y-102418655D01*
X192094099Y-102542710D01*
X192094103Y-102542713D01*
X192243417Y-102634812D01*
X192243419Y-102634813D01*
X192243421Y-102634814D01*
X192409958Y-102689999D01*
X192512747Y-102700500D01*
X192512752Y-102700500D01*
X194512758Y-102700500D01*
X194512763Y-102700500D01*
X194615552Y-102689999D01*
X194782089Y-102634814D01*
X194931410Y-102542711D01*
X195055466Y-102418655D01*
X195147569Y-102269334D01*
X195202754Y-102102797D01*
X195213255Y-102000008D01*
X195213255Y-99999992D01*
X195202754Y-99897203D01*
X195147569Y-99730666D01*
X195140223Y-99718757D01*
X195055468Y-99581348D01*
X195055465Y-99581344D01*
X194931410Y-99457289D01*
X194931406Y-99457286D01*
X194782092Y-99365187D01*
X194782090Y-99365186D01*
X194671662Y-99328594D01*
X194615552Y-99310001D01*
X194615550Y-99310000D01*
X194512770Y-99299500D01*
X194512763Y-99299500D01*
X192512747Y-99299500D01*
X192512739Y-99299500D01*
X192409959Y-99310000D01*
X192409958Y-99310001D01*
X192243419Y-99365186D01*
X192243417Y-99365187D01*
X192094103Y-99457286D01*
X192094099Y-99457289D01*
X191970044Y-99581344D01*
X191970041Y-99581348D01*
X191877942Y-99730662D01*
X191877941Y-99730664D01*
X191822756Y-99897203D01*
X191822755Y-99897204D01*
X191812255Y-99999984D01*
X187388849Y-99999984D01*
X187294002Y-99876376D01*
X187293997Y-99876370D01*
X187136384Y-99718757D01*
X187136377Y-99718751D01*
X186959537Y-99583058D01*
X186959535Y-99583057D01*
X186959529Y-99583052D01*
X186766481Y-99471595D01*
X186766479Y-99471594D01*
X186766477Y-99471593D01*
X186560545Y-99386293D01*
X186560538Y-99386291D01*
X186560536Y-99386290D01*
X186345218Y-99328596D01*
X186345212Y-99328595D01*
X186345207Y-99328594D01*
X186124221Y-99299501D01*
X186124218Y-99299500D01*
X186124212Y-99299500D01*
X185901298Y-99299500D01*
X185901292Y-99299500D01*
X185901288Y-99299501D01*
X185680302Y-99328594D01*
X185680295Y-99328595D01*
X185680292Y-99328596D01*
X185543736Y-99365186D01*
X185464974Y-99386290D01*
X185464964Y-99386293D01*
X185259032Y-99471593D01*
X185259030Y-99471594D01*
X185259029Y-99471595D01*
X185208417Y-99500816D01*
X185065981Y-99583052D01*
X185065972Y-99583058D01*
X184889132Y-99718751D01*
X184889125Y-99718757D01*
X184731512Y-99876370D01*
X184731506Y-99876377D01*
X184595813Y-100053217D01*
X184595807Y-100053226D01*
X184484350Y-100246273D01*
X184484348Y-100246277D01*
X184399048Y-100452209D01*
X184399045Y-100452219D01*
X184341352Y-100667534D01*
X184341349Y-100667547D01*
X184312256Y-100888533D01*
X184312255Y-100888549D01*
X180000500Y-100888549D01*
X180000500Y-97591458D01*
X180000499Y-97591457D01*
X179988730Y-97532287D01*
X179962052Y-97398165D01*
X179886632Y-97216086D01*
X179886631Y-97216085D01*
X179886628Y-97216079D01*
X179777140Y-97052219D01*
X179777137Y-97052215D01*
X177336818Y-94611897D01*
X177303333Y-94550574D01*
X177300499Y-94524216D01*
X177300499Y-94089998D01*
X177300498Y-94089981D01*
X177289999Y-93987203D01*
X177289998Y-93987200D01*
X177267987Y-93920776D01*
X177234814Y-93820666D01*
X177142712Y-93671344D01*
X177018656Y-93547288D01*
X176869334Y-93455186D01*
X176702797Y-93400001D01*
X176702795Y-93400000D01*
X176600010Y-93389500D01*
X175399998Y-93389500D01*
X175399981Y-93389501D01*
X175297203Y-93400000D01*
X175297200Y-93400001D01*
X175130668Y-93455185D01*
X175130663Y-93455187D01*
X174981342Y-93547289D01*
X174857289Y-93671342D01*
X174765187Y-93820663D01*
X174765186Y-93820666D01*
X174710001Y-93987203D01*
X174710001Y-93987204D01*
X174710000Y-93987204D01*
X174699500Y-94089983D01*
X174260197Y-94089983D01*
X174205220Y-93920781D01*
X174205218Y-93920778D01*
X174205218Y-93920776D01*
X174154210Y-93820668D01*
X174112287Y-93738390D01*
X174080092Y-93694077D01*
X173991971Y-93572786D01*
X173847213Y-93428028D01*
X173681613Y-93307715D01*
X173681612Y-93307714D01*
X173681610Y-93307713D01*
X173589983Y-93261026D01*
X173538874Y-93234985D01*
X173488078Y-93187010D01*
X173471283Y-93119189D01*
X173493821Y-93053054D01*
X173548536Y-93009603D01*
X173595169Y-93000500D01*
X202434108Y-93000500D01*
X202495933Y-93000500D01*
X202504043Y-93000765D01*
X202752895Y-93017075D01*
X202768953Y-93019190D01*
X202939198Y-93053054D01*
X203009535Y-93067045D01*
X203025202Y-93071243D01*
X203194947Y-93128863D01*
X203257481Y-93150091D01*
X203272458Y-93156294D01*
X203391056Y-93214780D01*
X203492460Y-93264787D01*
X203506508Y-93272897D01*
X203710464Y-93409177D01*
X203723325Y-93419045D01*
X203838040Y-93519648D01*
X203907749Y-93580781D01*
X203919218Y-93592250D01*
X204080951Y-93776671D01*
X204090825Y-93789539D01*
X204227102Y-93993492D01*
X204235212Y-94007539D01*
X204343702Y-94227534D01*
X204349909Y-94242520D01*
X204428756Y-94474797D01*
X204432954Y-94490464D01*
X204480807Y-94731035D01*
X204482925Y-94747116D01*
X204486049Y-94794785D01*
X204499121Y-94994225D01*
X204499235Y-94995956D01*
X204499500Y-95004066D01*
X204499500Y-109995933D01*
X204499235Y-110004043D01*
X204482925Y-110252883D01*
X204480807Y-110268964D01*
X204432954Y-110509535D01*
X204428756Y-110525202D01*
X204349909Y-110757479D01*
X204343702Y-110772465D01*
X204235212Y-110992460D01*
X204227102Y-111006507D01*
X204090825Y-111210460D01*
X204080951Y-111223328D01*
X203919218Y-111407749D01*
X203907749Y-111419218D01*
X203723328Y-111580951D01*
X203710460Y-111590825D01*
X203506507Y-111727102D01*
X203492460Y-111735212D01*
X203272465Y-111843702D01*
X203257479Y-111849909D01*
X203025202Y-111928756D01*
X203009535Y-111932954D01*
X202768964Y-111980807D01*
X202752883Y-111982925D01*
X202504043Y-111999235D01*
X202495933Y-111999500D01*
X198500538Y-111999500D01*
X198433499Y-111979815D01*
X198387744Y-111927011D01*
X198377800Y-111857853D01*
X198406825Y-111794297D01*
X198438538Y-111768113D01*
X198613803Y-111666924D01*
X198614357Y-111666499D01*
X198821851Y-111507282D01*
X198821855Y-111507277D01*
X198821860Y-111507274D01*
X199007274Y-111321860D01*
X199007277Y-111321855D01*
X199007282Y-111321851D01*
X199166924Y-111113803D01*
X199298043Y-110886697D01*
X199398398Y-110644419D01*
X199466270Y-110391116D01*
X199500500Y-110131120D01*
X199500500Y-109868880D01*
X199466270Y-109608884D01*
X199398398Y-109355581D01*
X199376478Y-109302661D01*
X199298046Y-109113309D01*
X199298041Y-109113299D01*
X199166924Y-108886196D01*
X199007281Y-108678148D01*
X199007274Y-108678140D01*
X198821860Y-108492726D01*
X198821851Y-108492718D01*
X198613803Y-108333075D01*
X198386700Y-108201958D01*
X198386690Y-108201953D01*
X198144428Y-108101605D01*
X198144421Y-108101603D01*
X198144419Y-108101602D01*
X197891116Y-108033730D01*
X197833339Y-108026123D01*
X197631127Y-107999500D01*
X197631120Y-107999500D01*
X197368880Y-107999500D01*
X197368872Y-107999500D01*
X197137772Y-108029926D01*
X197108884Y-108033730D01*
X196855581Y-108101602D01*
X196855571Y-108101605D01*
X196613309Y-108201953D01*
X196613299Y-108201958D01*
X196386196Y-108333075D01*
X196178148Y-108492718D01*
X195992718Y-108678148D01*
X195833075Y-108886196D01*
X195701958Y-109113299D01*
X195701953Y-109113309D01*
X195601605Y-109355571D01*
X195601602Y-109355581D01*
X195533730Y-109608884D01*
X195533716Y-109608990D01*
X195499500Y-109868872D01*
X195499500Y-110131127D01*
X195517648Y-110268964D01*
X195533730Y-110391116D01*
X195567597Y-110517509D01*
X195601602Y-110644418D01*
X195601605Y-110644428D01*
X195701953Y-110886690D01*
X195701958Y-110886700D01*
X195833075Y-111113803D01*
X195992718Y-111321851D01*
X195992726Y-111321860D01*
X196178140Y-111507274D01*
X196178148Y-111507281D01*
X196386196Y-111666924D01*
X196561462Y-111768113D01*
X196609677Y-111818680D01*
X196622901Y-111887287D01*
X196596933Y-111952151D01*
X196540019Y-111992680D01*
X196499462Y-111999500D01*
X170500538Y-111999500D01*
X170433499Y-111979815D01*
X170387744Y-111927011D01*
X170377800Y-111857853D01*
X170406825Y-111794297D01*
X170438538Y-111768113D01*
X170613803Y-111666924D01*
X170614357Y-111666499D01*
X170821851Y-111507282D01*
X170821855Y-111507277D01*
X170821860Y-111507274D01*
X171007274Y-111321860D01*
X171007277Y-111321855D01*
X171007282Y-111321851D01*
X171166924Y-111113803D01*
X171298043Y-110886697D01*
X171398398Y-110644419D01*
X171466270Y-110391116D01*
X171500500Y-110131120D01*
X171500500Y-109868880D01*
X171466270Y-109608884D01*
X171398398Y-109355581D01*
X171376478Y-109302661D01*
X171329924Y-109190269D01*
X171312284Y-109147682D01*
X177700000Y-109147682D01*
X177700000Y-109352317D01*
X177732009Y-109554417D01*
X177795244Y-109749031D01*
X177888141Y-109931350D01*
X177888147Y-109931359D01*
X177920523Y-109975921D01*
X177920524Y-109975922D01*
X178600000Y-109296446D01*
X178600000Y-109302661D01*
X178627259Y-109404394D01*
X178679920Y-109495606D01*
X178754394Y-109570080D01*
X178845606Y-109622741D01*
X178947339Y-109650000D01*
X178953553Y-109650000D01*
X178274076Y-110329474D01*
X178318650Y-110361859D01*
X178500968Y-110454755D01*
X178695582Y-110517990D01*
X178897683Y-110550000D01*
X179102317Y-110550000D01*
X179304417Y-110517990D01*
X179499031Y-110454755D01*
X179681349Y-110361859D01*
X179725921Y-110329474D01*
X179046447Y-109650000D01*
X179052661Y-109650000D01*
X179154394Y-109622741D01*
X179245606Y-109570080D01*
X179320080Y-109495606D01*
X179372741Y-109404394D01*
X179400000Y-109302661D01*
X179400000Y-109296448D01*
X180079474Y-109975922D01*
X180079474Y-109975921D01*
X180111859Y-109931349D01*
X180204755Y-109749031D01*
X180267990Y-109554417D01*
X180300000Y-109352317D01*
X180300000Y-109147682D01*
X180267990Y-108945582D01*
X180204755Y-108750968D01*
X180111859Y-108568650D01*
X180079474Y-108524077D01*
X180079474Y-108524076D01*
X179400000Y-109203551D01*
X179400000Y-109197339D01*
X179372741Y-109095606D01*
X179320080Y-109004394D01*
X179245606Y-108929920D01*
X179154394Y-108877259D01*
X179052661Y-108850000D01*
X179046446Y-108850000D01*
X179725922Y-108170524D01*
X179725921Y-108170523D01*
X179681359Y-108138147D01*
X179681350Y-108138141D01*
X179499031Y-108045244D01*
X179304417Y-107982009D01*
X179102317Y-107950000D01*
X178897683Y-107950000D01*
X178695582Y-107982009D01*
X178500968Y-108045244D01*
X178318644Y-108138143D01*
X178274077Y-108170523D01*
X178274077Y-108170524D01*
X178953554Y-108850000D01*
X178947339Y-108850000D01*
X178845606Y-108877259D01*
X178754394Y-108929920D01*
X178679920Y-109004394D01*
X178627259Y-109095606D01*
X178600000Y-109197339D01*
X178600000Y-109203553D01*
X177920524Y-108524077D01*
X177920523Y-108524077D01*
X177888143Y-108568644D01*
X177795244Y-108750968D01*
X177732009Y-108945582D01*
X177700000Y-109147682D01*
X171312284Y-109147682D01*
X171298046Y-109113309D01*
X171298041Y-109113299D01*
X171166924Y-108886196D01*
X171007281Y-108678148D01*
X171007274Y-108678140D01*
X170821860Y-108492726D01*
X170821851Y-108492718D01*
X170613803Y-108333075D01*
X170600110Y-108325170D01*
X170386700Y-108201958D01*
X170386690Y-108201953D01*
X170144428Y-108101605D01*
X170144421Y-108101603D01*
X170144419Y-108101602D01*
X169891116Y-108033730D01*
X169833339Y-108026123D01*
X169631127Y-107999500D01*
X169631120Y-107999500D01*
X169368880Y-107999500D01*
X169368872Y-107999500D01*
X169137772Y-108029926D01*
X169108884Y-108033730D01*
X168855581Y-108101602D01*
X168855571Y-108101605D01*
X168613309Y-108201953D01*
X168613299Y-108201958D01*
X168386196Y-108333075D01*
X168178148Y-108492718D01*
X167992718Y-108678148D01*
X167833075Y-108886196D01*
X167701958Y-109113299D01*
X167701953Y-109113309D01*
X167601605Y-109355571D01*
X167601602Y-109355581D01*
X167533730Y-109608884D01*
X167533716Y-109608990D01*
X167499500Y-109868872D01*
X167499500Y-110131127D01*
X167517648Y-110268964D01*
X167533730Y-110391116D01*
X167567597Y-110517509D01*
X167601602Y-110644418D01*
X167601605Y-110644428D01*
X167701953Y-110886690D01*
X167701958Y-110886700D01*
X167833075Y-111113803D01*
X167992718Y-111321851D01*
X167992726Y-111321860D01*
X168178140Y-111507274D01*
X168178148Y-111507281D01*
X168386196Y-111666924D01*
X168561462Y-111768113D01*
X168609677Y-111818680D01*
X168622901Y-111887287D01*
X168596933Y-111952151D01*
X168540019Y-111992680D01*
X168499462Y-111999500D01*
X153500538Y-111999500D01*
X153433499Y-111979815D01*
X153387744Y-111927011D01*
X153377800Y-111857853D01*
X153406825Y-111794297D01*
X153438538Y-111768113D01*
X153613803Y-111666924D01*
X153614357Y-111666499D01*
X153821851Y-111507282D01*
X153821855Y-111507277D01*
X153821860Y-111507274D01*
X154007274Y-111321860D01*
X154007277Y-111321855D01*
X154007282Y-111321851D01*
X154166924Y-111113803D01*
X154298043Y-110886697D01*
X154398398Y-110644419D01*
X154466270Y-110391116D01*
X154500500Y-110131120D01*
X154500500Y-109868880D01*
X154466270Y-109608884D01*
X154398398Y-109355581D01*
X154376478Y-109302661D01*
X154344014Y-109224286D01*
X154325663Y-109179982D01*
X156899500Y-109179982D01*
X156899500Y-110980017D01*
X156910000Y-111082796D01*
X156920186Y-111113534D01*
X156965186Y-111249335D01*
X157057288Y-111398656D01*
X157181344Y-111522712D01*
X157330665Y-111614814D01*
X157497202Y-111669999D01*
X157599990Y-111680500D01*
X157599995Y-111680500D01*
X159400005Y-111680500D01*
X159400010Y-111680500D01*
X159502798Y-111669999D01*
X159669335Y-111614814D01*
X159818656Y-111522712D01*
X159942712Y-111398656D01*
X160034814Y-111249335D01*
X160089999Y-111082798D01*
X160100500Y-110980010D01*
X160100500Y-109179990D01*
X160089999Y-109077202D01*
X160034814Y-108910665D01*
X159942712Y-108761344D01*
X159818656Y-108637288D01*
X159707376Y-108568650D01*
X159669337Y-108545187D01*
X159669332Y-108545185D01*
X159605629Y-108524076D01*
X159502798Y-108490001D01*
X159502796Y-108490000D01*
X159400017Y-108479500D01*
X159400010Y-108479500D01*
X157599990Y-108479500D01*
X157599982Y-108479500D01*
X157497203Y-108490000D01*
X157497202Y-108490001D01*
X157488979Y-108492726D01*
X157330667Y-108545185D01*
X157330662Y-108545187D01*
X157181342Y-108637289D01*
X157057289Y-108761342D01*
X156965187Y-108910662D01*
X156965185Y-108910667D01*
X156937349Y-108994669D01*
X156910001Y-109077202D01*
X156910001Y-109077203D01*
X156910000Y-109077203D01*
X156899500Y-109179982D01*
X154325663Y-109179982D01*
X154298046Y-109113309D01*
X154298041Y-109113299D01*
X154166924Y-108886196D01*
X154007281Y-108678148D01*
X154007274Y-108678140D01*
X153821860Y-108492726D01*
X153821851Y-108492718D01*
X153613803Y-108333075D01*
X153386700Y-108201958D01*
X153386690Y-108201953D01*
X153144428Y-108101605D01*
X153144421Y-108101603D01*
X153144419Y-108101602D01*
X152891116Y-108033730D01*
X152833339Y-108026123D01*
X152631127Y-107999500D01*
X152631120Y-107999500D01*
X152368880Y-107999500D01*
X152368872Y-107999500D01*
X152137772Y-108029926D01*
X152108884Y-108033730D01*
X151855581Y-108101602D01*
X151855571Y-108101605D01*
X151613309Y-108201953D01*
X151613299Y-108201958D01*
X151386196Y-108333075D01*
X151178148Y-108492718D01*
X150992718Y-108678148D01*
X150833075Y-108886196D01*
X150701958Y-109113299D01*
X150701953Y-109113309D01*
X150601605Y-109355571D01*
X150601602Y-109355581D01*
X150533730Y-109608884D01*
X150533716Y-109608990D01*
X150499500Y-109868872D01*
X150499500Y-110131127D01*
X150517648Y-110268964D01*
X150533730Y-110391116D01*
X150567597Y-110517509D01*
X150601602Y-110644418D01*
X150601605Y-110644428D01*
X150701953Y-110886690D01*
X150701958Y-110886700D01*
X150833075Y-111113803D01*
X150992718Y-111321851D01*
X150992726Y-111321860D01*
X151178140Y-111507274D01*
X151178148Y-111507281D01*
X151386196Y-111666924D01*
X151561462Y-111768113D01*
X151609677Y-111818680D01*
X151622901Y-111887287D01*
X151596933Y-111952151D01*
X151540019Y-111992680D01*
X151499462Y-111999500D01*
X148500538Y-111999500D01*
X148433499Y-111979815D01*
X148387744Y-111927011D01*
X148377800Y-111857853D01*
X148406825Y-111794297D01*
X148438538Y-111768113D01*
X148613803Y-111666924D01*
X148614357Y-111666499D01*
X148821851Y-111507282D01*
X148821855Y-111507277D01*
X148821860Y-111507274D01*
X149007274Y-111321860D01*
X149007277Y-111321855D01*
X149007282Y-111321851D01*
X149166924Y-111113803D01*
X149298043Y-110886697D01*
X149398398Y-110644419D01*
X149466270Y-110391116D01*
X149500500Y-110131120D01*
X149500500Y-109868880D01*
X149466270Y-109608884D01*
X149398398Y-109355581D01*
X149376478Y-109302661D01*
X149298046Y-109113309D01*
X149298041Y-109113299D01*
X149166924Y-108886196D01*
X149007281Y-108678148D01*
X149007274Y-108678140D01*
X148821860Y-108492726D01*
X148821851Y-108492718D01*
X148613803Y-108333075D01*
X148386700Y-108201958D01*
X148386690Y-108201953D01*
X148144428Y-108101605D01*
X148144421Y-108101603D01*
X148144419Y-108101602D01*
X147891116Y-108033730D01*
X147833339Y-108026123D01*
X147631127Y-107999500D01*
X147631120Y-107999500D01*
X147368880Y-107999500D01*
X147368872Y-107999500D01*
X147137772Y-108029926D01*
X147108884Y-108033730D01*
X146855581Y-108101602D01*
X146855571Y-108101605D01*
X146613309Y-108201953D01*
X146613299Y-108201958D01*
X146386196Y-108333075D01*
X146178148Y-108492718D01*
X145992718Y-108678148D01*
X145833075Y-108886196D01*
X145701958Y-109113299D01*
X145701953Y-109113309D01*
X145601605Y-109355571D01*
X145601602Y-109355581D01*
X145533730Y-109608884D01*
X145533716Y-109608990D01*
X145499500Y-109868872D01*
X145499500Y-110131127D01*
X145517648Y-110268964D01*
X145533730Y-110391116D01*
X145567597Y-110517509D01*
X145601602Y-110644418D01*
X145601605Y-110644428D01*
X145701953Y-110886690D01*
X145701958Y-110886700D01*
X145833075Y-111113803D01*
X145992718Y-111321851D01*
X145992726Y-111321860D01*
X146178140Y-111507274D01*
X146178148Y-111507281D01*
X146386196Y-111666924D01*
X146561462Y-111768113D01*
X146609677Y-111818680D01*
X146622901Y-111887287D01*
X146596933Y-111952151D01*
X146540019Y-111992680D01*
X146499462Y-111999500D01*
X131499538Y-111999500D01*
X131432499Y-111979815D01*
X131386744Y-111927011D01*
X131376800Y-111857853D01*
X131405825Y-111794297D01*
X131437538Y-111768113D01*
X131613516Y-111666511D01*
X131613534Y-111666499D01*
X131726365Y-111579919D01*
X131726365Y-111579917D01*
X130824025Y-110677578D01*
X130855258Y-110664641D01*
X130978097Y-110582563D01*
X131082563Y-110478097D01*
X131164641Y-110355258D01*
X131177577Y-110324025D01*
X132079917Y-111226365D01*
X132079919Y-111226365D01*
X132166499Y-111113534D01*
X132166511Y-111113516D01*
X132297590Y-110886482D01*
X132297595Y-110886471D01*
X132397924Y-110644255D01*
X132465777Y-110391020D01*
X132465779Y-110391009D01*
X132499999Y-110131094D01*
X132500000Y-110131080D01*
X132500000Y-109868919D01*
X132499999Y-109868905D01*
X132465779Y-109608990D01*
X132465777Y-109608979D01*
X132397924Y-109355744D01*
X132297595Y-109113528D01*
X132297590Y-109113517D01*
X132166511Y-108886483D01*
X132166505Y-108886475D01*
X132079918Y-108773633D01*
X132079917Y-108773633D01*
X131177577Y-109675973D01*
X131164641Y-109644742D01*
X131082563Y-109521903D01*
X130978097Y-109417437D01*
X130855258Y-109335359D01*
X130824023Y-109322421D01*
X131726365Y-108420080D01*
X131613524Y-108333494D01*
X131613516Y-108333488D01*
X131386482Y-108202409D01*
X131386471Y-108202404D01*
X131144255Y-108102075D01*
X130891020Y-108034222D01*
X130891009Y-108034220D01*
X130631094Y-108000000D01*
X130368905Y-108000000D01*
X130108990Y-108034220D01*
X130108979Y-108034222D01*
X129855744Y-108102075D01*
X129613528Y-108202404D01*
X129613517Y-108202409D01*
X129386471Y-108333496D01*
X129273633Y-108420079D01*
X129273633Y-108420080D01*
X130175974Y-109322421D01*
X130144742Y-109335359D01*
X130021903Y-109417437D01*
X129917437Y-109521903D01*
X129835359Y-109644742D01*
X129822421Y-109675974D01*
X128920080Y-108773633D01*
X128920079Y-108773633D01*
X128833496Y-108886471D01*
X128702409Y-109113517D01*
X128702404Y-109113528D01*
X128602075Y-109355744D01*
X128534222Y-109608979D01*
X128534220Y-109608990D01*
X128500000Y-109868905D01*
X128500000Y-110131094D01*
X128534220Y-110391009D01*
X128534222Y-110391020D01*
X128602075Y-110644255D01*
X128702404Y-110886471D01*
X128702409Y-110886482D01*
X128833488Y-111113516D01*
X128833494Y-111113524D01*
X128920080Y-111226365D01*
X129822421Y-110324024D01*
X129835359Y-110355258D01*
X129917437Y-110478097D01*
X130021903Y-110582563D01*
X130144742Y-110664641D01*
X130175974Y-110677577D01*
X129273633Y-111579917D01*
X129273633Y-111579918D01*
X129386475Y-111666505D01*
X129386483Y-111666511D01*
X129562462Y-111768113D01*
X129610678Y-111818680D01*
X129623900Y-111887287D01*
X129597932Y-111952152D01*
X129541018Y-111992680D01*
X129500462Y-111999500D01*
X103500538Y-111999500D01*
X103433499Y-111979815D01*
X103387744Y-111927011D01*
X103377800Y-111857853D01*
X103406825Y-111794297D01*
X103438538Y-111768113D01*
X103613803Y-111666924D01*
X103614357Y-111666499D01*
X103821851Y-111507282D01*
X103821855Y-111507277D01*
X103821860Y-111507274D01*
X104007274Y-111321860D01*
X104007277Y-111321855D01*
X104007282Y-111321851D01*
X104166924Y-111113803D01*
X104298043Y-110886697D01*
X104398398Y-110644419D01*
X104466270Y-110391116D01*
X104500500Y-110131120D01*
X104500500Y-109868880D01*
X104466270Y-109608884D01*
X104398398Y-109355581D01*
X104376478Y-109302661D01*
X104298046Y-109113309D01*
X104298041Y-109113299D01*
X104166924Y-108886196D01*
X104007281Y-108678148D01*
X104007274Y-108678140D01*
X103821860Y-108492726D01*
X103821851Y-108492718D01*
X103613803Y-108333075D01*
X103386700Y-108201958D01*
X103386690Y-108201953D01*
X103144428Y-108101605D01*
X103144421Y-108101603D01*
X103144419Y-108101602D01*
X102891116Y-108033730D01*
X102833339Y-108026123D01*
X102631127Y-107999500D01*
X102631120Y-107999500D01*
X102368880Y-107999500D01*
X102368872Y-107999500D01*
X102137772Y-108029926D01*
X102108884Y-108033730D01*
X101855581Y-108101602D01*
X101855571Y-108101605D01*
X101613309Y-108201953D01*
X101613299Y-108201958D01*
X101386196Y-108333075D01*
X101178148Y-108492718D01*
X100992718Y-108678148D01*
X100833075Y-108886196D01*
X100701958Y-109113299D01*
X100701953Y-109113309D01*
X100601605Y-109355571D01*
X100601602Y-109355581D01*
X100533730Y-109608884D01*
X100533716Y-109608990D01*
X100499500Y-109868872D01*
X100499500Y-110131127D01*
X100517648Y-110268964D01*
X100533730Y-110391116D01*
X100567597Y-110517509D01*
X100601602Y-110644418D01*
X100601605Y-110644428D01*
X100701953Y-110886690D01*
X100701958Y-110886700D01*
X100833075Y-111113803D01*
X100992718Y-111321851D01*
X100992726Y-111321860D01*
X101178140Y-111507274D01*
X101178148Y-111507281D01*
X101386196Y-111666924D01*
X101561462Y-111768113D01*
X101609677Y-111818680D01*
X101622901Y-111887287D01*
X101596933Y-111952151D01*
X101540019Y-111992680D01*
X101499462Y-111999500D01*
X97504067Y-111999500D01*
X97495957Y-111999235D01*
X97247116Y-111982925D01*
X97231035Y-111980807D01*
X96990464Y-111932954D01*
X96974797Y-111928756D01*
X96742520Y-111849909D01*
X96727534Y-111843702D01*
X96507539Y-111735212D01*
X96493492Y-111727102D01*
X96289539Y-111590825D01*
X96276671Y-111580951D01*
X96092250Y-111419218D01*
X96080781Y-111407749D01*
X96005450Y-111321851D01*
X95919045Y-111223325D01*
X95909174Y-111210460D01*
X95844403Y-111113524D01*
X95772897Y-111006507D01*
X95764787Y-110992460D01*
X95658855Y-110777652D01*
X95656294Y-110772458D01*
X95650090Y-110757479D01*
X95571243Y-110525202D01*
X95567045Y-110509535D01*
X95559186Y-110470026D01*
X95519190Y-110268953D01*
X95517075Y-110252895D01*
X95500765Y-110004043D01*
X95500500Y-109995933D01*
X95500500Y-106477682D01*
X118700000Y-106477682D01*
X118700000Y-106682317D01*
X118732009Y-106884417D01*
X118795244Y-107079031D01*
X118888141Y-107261350D01*
X118888147Y-107261359D01*
X118920523Y-107305921D01*
X118920524Y-107305922D01*
X119600000Y-106626446D01*
X119600000Y-106632661D01*
X119627259Y-106734394D01*
X119679920Y-106825606D01*
X119754394Y-106900080D01*
X119845606Y-106952741D01*
X119947339Y-106980000D01*
X119953553Y-106980000D01*
X119274076Y-107659474D01*
X119318650Y-107691859D01*
X119500968Y-107784755D01*
X119695582Y-107847990D01*
X119897683Y-107880000D01*
X120102317Y-107880000D01*
X120304417Y-107847990D01*
X120499031Y-107784755D01*
X120681349Y-107691859D01*
X120725921Y-107659474D01*
X120046447Y-106980000D01*
X120052661Y-106980000D01*
X120154394Y-106952741D01*
X120245606Y-106900080D01*
X120320080Y-106825606D01*
X120372741Y-106734394D01*
X120400000Y-106632661D01*
X120400000Y-106626447D01*
X121079474Y-107305921D01*
X121111859Y-107261349D01*
X121204755Y-107079031D01*
X121267990Y-106884417D01*
X121300000Y-106682317D01*
X121300000Y-106477682D01*
X122200000Y-106477682D01*
X122200000Y-106682317D01*
X122232009Y-106884417D01*
X122295244Y-107079031D01*
X122388141Y-107261350D01*
X122388147Y-107261359D01*
X122420523Y-107305921D01*
X122420524Y-107305922D01*
X123100000Y-106626446D01*
X123100000Y-106632661D01*
X123127259Y-106734394D01*
X123179920Y-106825606D01*
X123254394Y-106900080D01*
X123345606Y-106952741D01*
X123447339Y-106980000D01*
X123453553Y-106980000D01*
X122774076Y-107659474D01*
X122818650Y-107691859D01*
X123000968Y-107784755D01*
X123195582Y-107847990D01*
X123397683Y-107880000D01*
X123602317Y-107880000D01*
X123804417Y-107847990D01*
X123999031Y-107784755D01*
X124181349Y-107691859D01*
X124225921Y-107659474D01*
X123546447Y-106980000D01*
X123552661Y-106980000D01*
X123654394Y-106952741D01*
X123745606Y-106900080D01*
X123820080Y-106825606D01*
X123872741Y-106734394D01*
X123900000Y-106632661D01*
X123900000Y-106626447D01*
X124579474Y-107305921D01*
X124611859Y-107261349D01*
X124704755Y-107079031D01*
X124767990Y-106884417D01*
X124800000Y-106682317D01*
X124800000Y-106477682D01*
X124767990Y-106275582D01*
X124704755Y-106080968D01*
X124611859Y-105898650D01*
X124579474Y-105854077D01*
X124579474Y-105854076D01*
X123900000Y-106533551D01*
X123900000Y-106527339D01*
X123872741Y-106425606D01*
X123820080Y-106334394D01*
X123745606Y-106259920D01*
X123654394Y-106207259D01*
X123552661Y-106180000D01*
X123546446Y-106180000D01*
X124225922Y-105500524D01*
X124225921Y-105500523D01*
X124181359Y-105468147D01*
X124181350Y-105468141D01*
X123999031Y-105375244D01*
X123804417Y-105312009D01*
X123602317Y-105280000D01*
X123397683Y-105280000D01*
X123195582Y-105312009D01*
X123000968Y-105375244D01*
X122818644Y-105468143D01*
X122774077Y-105500523D01*
X122774077Y-105500524D01*
X123453554Y-106180000D01*
X123447339Y-106180000D01*
X123345606Y-106207259D01*
X123254394Y-106259920D01*
X123179920Y-106334394D01*
X123127259Y-106425606D01*
X123100000Y-106527339D01*
X123100000Y-106533553D01*
X122420524Y-105854077D01*
X122420523Y-105854077D01*
X122388143Y-105898644D01*
X122295244Y-106080968D01*
X122232009Y-106275582D01*
X122200000Y-106477682D01*
X121300000Y-106477682D01*
X121267990Y-106275582D01*
X121204755Y-106080968D01*
X121111859Y-105898650D01*
X121079474Y-105854077D01*
X121079474Y-105854076D01*
X120400000Y-106533551D01*
X120400000Y-106527339D01*
X120372741Y-106425606D01*
X120320080Y-106334394D01*
X120245606Y-106259920D01*
X120154394Y-106207259D01*
X120052661Y-106180000D01*
X120046446Y-106180000D01*
X120725922Y-105500524D01*
X120725921Y-105500523D01*
X120681359Y-105468147D01*
X120681350Y-105468141D01*
X120499031Y-105375244D01*
X120304417Y-105312009D01*
X120102317Y-105280000D01*
X119897683Y-105280000D01*
X119695582Y-105312009D01*
X119500968Y-105375244D01*
X119318644Y-105468143D01*
X119274077Y-105500523D01*
X119274077Y-105500524D01*
X119953554Y-106180000D01*
X119947339Y-106180000D01*
X119845606Y-106207259D01*
X119754394Y-106259920D01*
X119679920Y-106334394D01*
X119627259Y-106425606D01*
X119600000Y-106527339D01*
X119600000Y-106533553D01*
X118920524Y-105854077D01*
X118920523Y-105854077D01*
X118888143Y-105898644D01*
X118795244Y-106080968D01*
X118732009Y-106275582D01*
X118700000Y-106477682D01*
X95500500Y-106477682D01*
X95500500Y-103625441D01*
X124977295Y-103625441D01*
X124977295Y-103874558D01*
X124977296Y-103874575D01*
X125004443Y-104080781D01*
X125009813Y-104121565D01*
X125051051Y-104275466D01*
X125074293Y-104362207D01*
X125169625Y-104592361D01*
X125169632Y-104592376D01*
X125294195Y-104808126D01*
X125445855Y-105005774D01*
X125445861Y-105005781D01*
X125622013Y-105181933D01*
X125622020Y-105181939D01*
X125819668Y-105333599D01*
X126035418Y-105458162D01*
X126035433Y-105458169D01*
X126118823Y-105492710D01*
X126265588Y-105553502D01*
X126506230Y-105617982D01*
X126753230Y-105650500D01*
X126753237Y-105650500D01*
X127002353Y-105650500D01*
X127002360Y-105650500D01*
X127249360Y-105617982D01*
X127490002Y-105553502D01*
X127720168Y-105458164D01*
X127935922Y-105333599D01*
X128133571Y-105181938D01*
X128309733Y-105005776D01*
X128461394Y-104808127D01*
X128585959Y-104592373D01*
X128681297Y-104362207D01*
X128745777Y-104121565D01*
X128778295Y-103874565D01*
X128778295Y-103625441D01*
X129977295Y-103625441D01*
X129977295Y-103874558D01*
X129977296Y-103874575D01*
X130004443Y-104080781D01*
X130009813Y-104121565D01*
X130051051Y-104275466D01*
X130074293Y-104362207D01*
X130169625Y-104592361D01*
X130169632Y-104592376D01*
X130294195Y-104808126D01*
X130445855Y-105005774D01*
X130445861Y-105005781D01*
X130622013Y-105181933D01*
X130622020Y-105181939D01*
X130819668Y-105333599D01*
X131035418Y-105458162D01*
X131035433Y-105458169D01*
X131118823Y-105492710D01*
X131265588Y-105553502D01*
X131506230Y-105617982D01*
X131753230Y-105650500D01*
X131753237Y-105650500D01*
X132002353Y-105650500D01*
X132002360Y-105650500D01*
X132249360Y-105617982D01*
X132490002Y-105553502D01*
X132720168Y-105458164D01*
X132935922Y-105333599D01*
X133133571Y-105181938D01*
X133309733Y-105005776D01*
X133461394Y-104808127D01*
X133585959Y-104592373D01*
X133681297Y-104362207D01*
X133745777Y-104121565D01*
X133778295Y-103874565D01*
X133778295Y-103625435D01*
X133745777Y-103378435D01*
X133681297Y-103137793D01*
X133620746Y-102991610D01*
X133585964Y-102907638D01*
X133585957Y-102907623D01*
X133461394Y-102691873D01*
X133309734Y-102494225D01*
X133309728Y-102494218D01*
X133133576Y-102318066D01*
X133133569Y-102318060D01*
X132935921Y-102166400D01*
X132720171Y-102041837D01*
X132720156Y-102041830D01*
X132490002Y-101946498D01*
X132373144Y-101915186D01*
X132249360Y-101882018D01*
X132249359Y-101882017D01*
X132249356Y-101882017D01*
X132002370Y-101849501D01*
X132002365Y-101849500D01*
X132002360Y-101849500D01*
X131753230Y-101849500D01*
X131753224Y-101849500D01*
X131753219Y-101849501D01*
X131506233Y-101882017D01*
X131265587Y-101946498D01*
X131035433Y-102041830D01*
X131035418Y-102041837D01*
X130819668Y-102166400D01*
X130622020Y-102318060D01*
X130622013Y-102318066D01*
X130445861Y-102494218D01*
X130445855Y-102494225D01*
X130294195Y-102691873D01*
X130169632Y-102907623D01*
X130169625Y-102907638D01*
X130074293Y-103137792D01*
X130009812Y-103378438D01*
X129977296Y-103625424D01*
X129977295Y-103625441D01*
X128778295Y-103625441D01*
X128778295Y-103625435D01*
X128745777Y-103378435D01*
X128681297Y-103137793D01*
X128620746Y-102991610D01*
X128585964Y-102907638D01*
X128585957Y-102907623D01*
X128461394Y-102691873D01*
X128309734Y-102494225D01*
X128309728Y-102494218D01*
X128133576Y-102318066D01*
X128133569Y-102318060D01*
X127935921Y-102166400D01*
X127720171Y-102041837D01*
X127720156Y-102041830D01*
X127490002Y-101946498D01*
X127373144Y-101915186D01*
X127249360Y-101882018D01*
X127249359Y-101882017D01*
X127249356Y-101882017D01*
X127002370Y-101849501D01*
X127002365Y-101849500D01*
X127002360Y-101849500D01*
X126753230Y-101849500D01*
X126753224Y-101849500D01*
X126753219Y-101849501D01*
X126506233Y-101882017D01*
X126265587Y-101946498D01*
X126035433Y-102041830D01*
X126035418Y-102041837D01*
X125819668Y-102166400D01*
X125622020Y-102318060D01*
X125622013Y-102318066D01*
X125445861Y-102494218D01*
X125445855Y-102494225D01*
X125294195Y-102691873D01*
X125169632Y-102907623D01*
X125169625Y-102907638D01*
X125074293Y-103137792D01*
X125009812Y-103378438D01*
X124977296Y-103625424D01*
X124977295Y-103625441D01*
X95500500Y-103625441D01*
X95500500Y-99999984D01*
X104786746Y-99999984D01*
X104786746Y-102000015D01*
X104797246Y-102102795D01*
X104797247Y-102102797D01*
X104804150Y-102123629D01*
X104852432Y-102269335D01*
X104852433Y-102269337D01*
X104944532Y-102418651D01*
X104944535Y-102418655D01*
X105068590Y-102542710D01*
X105068594Y-102542713D01*
X105217908Y-102634812D01*
X105217910Y-102634813D01*
X105217912Y-102634814D01*
X105384449Y-102689999D01*
X105487238Y-102700500D01*
X105487243Y-102700500D01*
X107487249Y-102700500D01*
X107487254Y-102700500D01*
X107590043Y-102689999D01*
X107756580Y-102634814D01*
X107905901Y-102542711D01*
X108029957Y-102418655D01*
X108122060Y-102269334D01*
X108177245Y-102102797D01*
X108187746Y-102000008D01*
X108187746Y-100888549D01*
X112286746Y-100888549D01*
X112286746Y-101111450D01*
X112286747Y-101111466D01*
X112315840Y-101332452D01*
X112315841Y-101332457D01*
X112315842Y-101332463D01*
X112366226Y-101520500D01*
X112373536Y-101547780D01*
X112373539Y-101547790D01*
X112406925Y-101628390D01*
X112458841Y-101753726D01*
X112570298Y-101946774D01*
X112570303Y-101946780D01*
X112570304Y-101946782D01*
X112705997Y-102123622D01*
X112706003Y-102123629D01*
X112863616Y-102281242D01*
X112863623Y-102281248D01*
X112911606Y-102318066D01*
X113040472Y-102416948D01*
X113233520Y-102528405D01*
X113439465Y-102613710D01*
X113654783Y-102671404D01*
X113875789Y-102700500D01*
X113875796Y-102700500D01*
X114098696Y-102700500D01*
X114098703Y-102700500D01*
X114319709Y-102671404D01*
X114535027Y-102613710D01*
X114740972Y-102528405D01*
X114934020Y-102416948D01*
X115110870Y-102281247D01*
X115268493Y-102123624D01*
X115404194Y-101946774D01*
X115515651Y-101753726D01*
X115600956Y-101547781D01*
X115658650Y-101332463D01*
X115687746Y-101111457D01*
X115687746Y-100888543D01*
X115658650Y-100667537D01*
X115600956Y-100452219D01*
X115515651Y-100246274D01*
X115404194Y-100053226D01*
X115268493Y-99876376D01*
X115268488Y-99876370D01*
X115110875Y-99718757D01*
X115110868Y-99718751D01*
X114934028Y-99583058D01*
X114934026Y-99583057D01*
X114934020Y-99583052D01*
X114740972Y-99471595D01*
X114740970Y-99471594D01*
X114740968Y-99471593D01*
X114535036Y-99386293D01*
X114535029Y-99386291D01*
X114535027Y-99386290D01*
X114319709Y-99328596D01*
X114319703Y-99328595D01*
X114319698Y-99328594D01*
X114098712Y-99299501D01*
X114098709Y-99299500D01*
X114098703Y-99299500D01*
X113875789Y-99299500D01*
X113875783Y-99299500D01*
X113875779Y-99299501D01*
X113654793Y-99328594D01*
X113654786Y-99328595D01*
X113654783Y-99328596D01*
X113518227Y-99365186D01*
X113439465Y-99386290D01*
X113439455Y-99386293D01*
X113233523Y-99471593D01*
X113233521Y-99471594D01*
X113233520Y-99471595D01*
X113182908Y-99500816D01*
X113040472Y-99583052D01*
X113040463Y-99583058D01*
X112863623Y-99718751D01*
X112863616Y-99718757D01*
X112706003Y-99876370D01*
X112705997Y-99876377D01*
X112570304Y-100053217D01*
X112570298Y-100053226D01*
X112458841Y-100246273D01*
X112458839Y-100246277D01*
X112373539Y-100452209D01*
X112373536Y-100452219D01*
X112315843Y-100667534D01*
X112315840Y-100667547D01*
X112286747Y-100888533D01*
X112286746Y-100888549D01*
X108187746Y-100888549D01*
X108187746Y-99999992D01*
X108177245Y-99897203D01*
X108122060Y-99730666D01*
X108114714Y-99718757D01*
X108029959Y-99581348D01*
X108029956Y-99581344D01*
X107905901Y-99457289D01*
X107905897Y-99457286D01*
X107756583Y-99365187D01*
X107756581Y-99365186D01*
X107646153Y-99328594D01*
X107590043Y-99310001D01*
X107590041Y-99310000D01*
X107487261Y-99299500D01*
X107487254Y-99299500D01*
X105487238Y-99299500D01*
X105487230Y-99299500D01*
X105384450Y-99310000D01*
X105384449Y-99310001D01*
X105217910Y-99365186D01*
X105217908Y-99365187D01*
X105068594Y-99457286D01*
X105068590Y-99457289D01*
X104944535Y-99581344D01*
X104944532Y-99581348D01*
X104852433Y-99730662D01*
X104852432Y-99730664D01*
X104797247Y-99897203D01*
X104797246Y-99897204D01*
X104786746Y-99999984D01*
X95500500Y-99999984D01*
X95500500Y-96317648D01*
X118699500Y-96317648D01*
X118699500Y-96522351D01*
X118731522Y-96724534D01*
X118794781Y-96919223D01*
X118858691Y-97044653D01*
X118883000Y-97092361D01*
X118887715Y-97101613D01*
X119008028Y-97267213D01*
X119152786Y-97411971D01*
X119281900Y-97505776D01*
X119318390Y-97532287D01*
X119434517Y-97591457D01*
X119500776Y-97625218D01*
X119500778Y-97625218D01*
X119500781Y-97625220D01*
X119584362Y-97652377D01*
X119695465Y-97688477D01*
X119772966Y-97700751D01*
X119843513Y-97711925D01*
X119906648Y-97741854D01*
X119911797Y-97746717D01*
X122942215Y-100777137D01*
X122942219Y-100777140D01*
X123106079Y-100886628D01*
X123106088Y-100886633D01*
X123110714Y-100888549D01*
X123288165Y-100962052D01*
X123481455Y-101000500D01*
X123481458Y-101000501D01*
X123481460Y-101000501D01*
X123684655Y-101000501D01*
X123684675Y-101000500D01*
X132662013Y-101000500D01*
X132729052Y-101020185D01*
X132749694Y-101036819D01*
X134976467Y-103263592D01*
X135009952Y-103324915D01*
X135010406Y-103375450D01*
X135009814Y-103378427D01*
X134977296Y-103625424D01*
X134977295Y-103625441D01*
X134977295Y-103874558D01*
X134977296Y-103874575D01*
X135004443Y-104080781D01*
X135009813Y-104121565D01*
X135051051Y-104275466D01*
X135074293Y-104362207D01*
X135169625Y-104592361D01*
X135169632Y-104592376D01*
X135294195Y-104808126D01*
X135445855Y-105005774D01*
X135445861Y-105005781D01*
X135622013Y-105181933D01*
X135622020Y-105181939D01*
X135819668Y-105333599D01*
X136035418Y-105458162D01*
X136035433Y-105458169D01*
X136118823Y-105492710D01*
X136265588Y-105553502D01*
X136506230Y-105617982D01*
X136753230Y-105650500D01*
X136753237Y-105650500D01*
X137002353Y-105650500D01*
X137002360Y-105650500D01*
X137249360Y-105617982D01*
X137490002Y-105553502D01*
X137720168Y-105458164D01*
X137935922Y-105333599D01*
X138133571Y-105181938D01*
X138309733Y-105005776D01*
X138461394Y-104808127D01*
X138585959Y-104592373D01*
X138681297Y-104362207D01*
X138745777Y-104121565D01*
X138778295Y-103874565D01*
X138778295Y-103625435D01*
X138745777Y-103378435D01*
X138681297Y-103137793D01*
X138620746Y-102991610D01*
X138585964Y-102907638D01*
X138585957Y-102907623D01*
X138461394Y-102691873D01*
X138408025Y-102622320D01*
X138352519Y-102549983D01*
X149977295Y-102549983D01*
X149977295Y-104950001D01*
X149977296Y-104950018D01*
X149987795Y-105052796D01*
X149987796Y-105052799D01*
X150042980Y-105219331D01*
X150042982Y-105219336D01*
X150069057Y-105261610D01*
X150135083Y-105368656D01*
X150259139Y-105492712D01*
X150408461Y-105584814D01*
X150574998Y-105639999D01*
X150677786Y-105650500D01*
X153077803Y-105650499D01*
X153180592Y-105639999D01*
X153347129Y-105584814D01*
X153496451Y-105492712D01*
X153620507Y-105368656D01*
X153712609Y-105219334D01*
X153767794Y-105052797D01*
X153778295Y-104950009D01*
X153778295Y-104477648D01*
X161199500Y-104477648D01*
X161199500Y-104682351D01*
X161231522Y-104884534D01*
X161294781Y-105079223D01*
X161358691Y-105204653D01*
X161382195Y-105250781D01*
X161387715Y-105261613D01*
X161508028Y-105427213D01*
X161652786Y-105571971D01*
X161807749Y-105684556D01*
X161818390Y-105692287D01*
X161930347Y-105749332D01*
X162000776Y-105785218D01*
X162000778Y-105785218D01*
X162000781Y-105785220D01*
X162105137Y-105819127D01*
X162195465Y-105848477D01*
X162230822Y-105854077D01*
X162397648Y-105880500D01*
X162397649Y-105880500D01*
X162602351Y-105880500D01*
X162602352Y-105880500D01*
X162804534Y-105848477D01*
X162999219Y-105785220D01*
X163181610Y-105692287D01*
X163283883Y-105617982D01*
X163347213Y-105571971D01*
X163347215Y-105571968D01*
X163347219Y-105571966D01*
X163491966Y-105427219D01*
X163491968Y-105427215D01*
X163491971Y-105427213D01*
X163575670Y-105312009D01*
X163612287Y-105261610D01*
X163705220Y-105079219D01*
X163768477Y-104884534D01*
X163800500Y-104682352D01*
X163800500Y-104477648D01*
X163799728Y-104472776D01*
X163768477Y-104275465D01*
X163739127Y-104185137D01*
X163705220Y-104080781D01*
X163705218Y-104080778D01*
X163705218Y-104080776D01*
X163671503Y-104014607D01*
X163612287Y-103898390D01*
X163594972Y-103874558D01*
X163491971Y-103732786D01*
X163347213Y-103588028D01*
X163181613Y-103467715D01*
X163181612Y-103467714D01*
X163181610Y-103467713D01*
X163092451Y-103422284D01*
X162999223Y-103374781D01*
X162804534Y-103311522D01*
X162629995Y-103283878D01*
X162602352Y-103279500D01*
X162397648Y-103279500D01*
X162373329Y-103283351D01*
X162195465Y-103311522D01*
X162000776Y-103374781D01*
X161818386Y-103467715D01*
X161652786Y-103588028D01*
X161508028Y-103732786D01*
X161387715Y-103898386D01*
X161294781Y-104080776D01*
X161231522Y-104275465D01*
X161199500Y-104477648D01*
X153778295Y-104477648D01*
X153778294Y-103749718D01*
X153778294Y-102549998D01*
X153778293Y-102549981D01*
X153767794Y-102447203D01*
X153767793Y-102447200D01*
X153757766Y-102416941D01*
X153712609Y-102280666D01*
X153620507Y-102131344D01*
X153496451Y-102007288D01*
X153347129Y-101915186D01*
X153180592Y-101860001D01*
X153180590Y-101860000D01*
X153077805Y-101849500D01*
X150677793Y-101849500D01*
X150677776Y-101849501D01*
X150574998Y-101860000D01*
X150574995Y-101860001D01*
X150408463Y-101915185D01*
X150408458Y-101915187D01*
X150259137Y-102007289D01*
X150135084Y-102131342D01*
X150042982Y-102280663D01*
X150042981Y-102280666D01*
X149987796Y-102447203D01*
X149987796Y-102447204D01*
X149987795Y-102447204D01*
X149977295Y-102549983D01*
X138352519Y-102549983D01*
X138309734Y-102494225D01*
X138309728Y-102494218D01*
X138133576Y-102318066D01*
X138133569Y-102318060D01*
X137935921Y-102166400D01*
X137720171Y-102041837D01*
X137720156Y-102041830D01*
X137490002Y-101946498D01*
X137373144Y-101915186D01*
X137249360Y-101882018D01*
X137249359Y-101882017D01*
X137249356Y-101882017D01*
X137002370Y-101849501D01*
X137002365Y-101849500D01*
X137002360Y-101849500D01*
X136753230Y-101849500D01*
X136753224Y-101849500D01*
X136753219Y-101849501D01*
X136506222Y-101882019D01*
X136503245Y-101882611D01*
X136502341Y-101882530D01*
X136502205Y-101882548D01*
X136502200Y-101882517D01*
X136433654Y-101876376D01*
X136391387Y-101848672D01*
X134254896Y-99712181D01*
X134221411Y-99650858D01*
X134226395Y-99581166D01*
X134268267Y-99525233D01*
X134333731Y-99500816D01*
X134342577Y-99500500D01*
X134726338Y-99500500D01*
X134770019Y-99491810D01*
X134871650Y-99471595D01*
X134919631Y-99462051D01*
X134972960Y-99439961D01*
X135101709Y-99386632D01*
X135265577Y-99277139D01*
X135404934Y-99137782D01*
X135404934Y-99137780D01*
X135415142Y-99127573D01*
X135415144Y-99127570D01*
X136391388Y-98151325D01*
X136452709Y-98117842D01*
X136503258Y-98117390D01*
X136506212Y-98117977D01*
X136506230Y-98117982D01*
X136753230Y-98150500D01*
X136753237Y-98150500D01*
X137002353Y-98150500D01*
X137002360Y-98150500D01*
X137249360Y-98117982D01*
X137490002Y-98053502D01*
X137720168Y-97958164D01*
X137935922Y-97833599D01*
X138133571Y-97681938D01*
X138309733Y-97505776D01*
X138461394Y-97308127D01*
X138585959Y-97092373D01*
X138681297Y-96862207D01*
X138745777Y-96621565D01*
X138778295Y-96374565D01*
X138778295Y-96125441D01*
X149977295Y-96125441D01*
X149977295Y-96374558D01*
X149977296Y-96374575D01*
X150007920Y-96607190D01*
X150009813Y-96621565D01*
X150033802Y-96711092D01*
X150074293Y-96862207D01*
X150169625Y-97092361D01*
X150169632Y-97092376D01*
X150294195Y-97308126D01*
X150445855Y-97505774D01*
X150445861Y-97505781D01*
X150622013Y-97681933D01*
X150622020Y-97681939D01*
X150819668Y-97833599D01*
X151035418Y-97958162D01*
X151035433Y-97958169D01*
X151134620Y-97999253D01*
X151265588Y-98053502D01*
X151506230Y-98117982D01*
X151753230Y-98150500D01*
X151753237Y-98150500D01*
X152002353Y-98150500D01*
X152002360Y-98150500D01*
X152249360Y-98117982D01*
X152490002Y-98053502D01*
X152720168Y-97958164D01*
X152935922Y-97833599D01*
X153133571Y-97681938D01*
X153309733Y-97505776D01*
X153461394Y-97308127D01*
X153585959Y-97092373D01*
X153681297Y-96862207D01*
X153745777Y-96621565D01*
X153778295Y-96374565D01*
X153778295Y-96125435D01*
X153745777Y-95878435D01*
X153681297Y-95637793D01*
X153623330Y-95497849D01*
X153585964Y-95407638D01*
X153585957Y-95407623D01*
X153483352Y-95229905D01*
X153461394Y-95191873D01*
X153447673Y-95173992D01*
X155434500Y-95173992D01*
X155434500Y-95826007D01*
X155473907Y-96024119D01*
X155473909Y-96024127D01*
X155551212Y-96210752D01*
X155551217Y-96210762D01*
X155663441Y-96378718D01*
X155806281Y-96521558D01*
X155974237Y-96633782D01*
X155974241Y-96633784D01*
X155974244Y-96633786D01*
X156160873Y-96711091D01*
X156324288Y-96743596D01*
X156358992Y-96750499D01*
X156358996Y-96750500D01*
X156358997Y-96750500D01*
X156561004Y-96750500D01*
X156561005Y-96750499D01*
X156759127Y-96711091D01*
X156928476Y-96640943D01*
X156960047Y-96637549D01*
X156991380Y-96632472D01*
X156994527Y-96633842D01*
X156997942Y-96633475D01*
X157026330Y-96647685D01*
X157055444Y-96660358D01*
X157058546Y-96663811D01*
X157060421Y-96664750D01*
X157079025Y-96686610D01*
X157080956Y-96689500D01*
X157104364Y-96724534D01*
X157147049Y-96788417D01*
X158466451Y-98107819D01*
X158499936Y-98169142D01*
X158494952Y-98238834D01*
X158453080Y-98294767D01*
X158387616Y-98319184D01*
X158378770Y-98319500D01*
X158374038Y-98319500D01*
X158279838Y-98334420D01*
X158125214Y-98358910D01*
X157885616Y-98436760D01*
X157661151Y-98551132D01*
X157457350Y-98699201D01*
X157457345Y-98699205D01*
X157279205Y-98877345D01*
X157279201Y-98877350D01*
X157131132Y-99081151D01*
X157016760Y-99305616D01*
X156938910Y-99545214D01*
X156909537Y-99730666D01*
X156899500Y-99794038D01*
X156899500Y-100045962D01*
X156901539Y-100058833D01*
X156938910Y-100294785D01*
X157016760Y-100534383D01*
X157131132Y-100758848D01*
X157279201Y-100962649D01*
X157279205Y-100962654D01*
X157457345Y-101140794D01*
X157457350Y-101140798D01*
X157635117Y-101269952D01*
X157661155Y-101288870D01*
X157804184Y-101361747D01*
X157885616Y-101403239D01*
X157885618Y-101403239D01*
X157885621Y-101403241D01*
X158125215Y-101481090D01*
X158374038Y-101520500D01*
X158374039Y-101520500D01*
X158625961Y-101520500D01*
X158625962Y-101520500D01*
X158874785Y-101481090D01*
X159114379Y-101403241D01*
X159338845Y-101288870D01*
X159542656Y-101140793D01*
X159720793Y-100962656D01*
X159868870Y-100758845D01*
X159983241Y-100534379D01*
X160061090Y-100294785D01*
X160100500Y-100045962D01*
X160100500Y-100041229D01*
X160120185Y-99974190D01*
X160172989Y-99928435D01*
X160242147Y-99918491D01*
X160305703Y-99947516D01*
X160312167Y-99953535D01*
X162461428Y-102102795D01*
X164673526Y-104314893D01*
X164707011Y-104376216D01*
X164708318Y-104421971D01*
X164699500Y-104477647D01*
X164699500Y-104682351D01*
X164731522Y-104884534D01*
X164794781Y-105079223D01*
X164858691Y-105204653D01*
X164882195Y-105250781D01*
X164887715Y-105261613D01*
X165008028Y-105427213D01*
X165152786Y-105571971D01*
X165307749Y-105684556D01*
X165318390Y-105692287D01*
X165430347Y-105749332D01*
X165500776Y-105785218D01*
X165500778Y-105785218D01*
X165500781Y-105785220D01*
X165605137Y-105819127D01*
X165695465Y-105848477D01*
X165730822Y-105854077D01*
X165897648Y-105880500D01*
X165897649Y-105880500D01*
X166102351Y-105880500D01*
X166102352Y-105880500D01*
X166304534Y-105848477D01*
X166499219Y-105785220D01*
X166681610Y-105692287D01*
X166783883Y-105617982D01*
X166847213Y-105571971D01*
X166847215Y-105571968D01*
X166847219Y-105571966D01*
X166991966Y-105427219D01*
X166991968Y-105427215D01*
X166991971Y-105427213D01*
X167075670Y-105312009D01*
X167112287Y-105261610D01*
X167205220Y-105079219D01*
X167268477Y-104884534D01*
X167300500Y-104682352D01*
X167300500Y-104477648D01*
X167299728Y-104472776D01*
X167268477Y-104275465D01*
X167239127Y-104185137D01*
X167205220Y-104080781D01*
X167205218Y-104080778D01*
X167205218Y-104080776D01*
X167171503Y-104014607D01*
X167112287Y-103898390D01*
X167094972Y-103874558D01*
X167004272Y-103749718D01*
X167004271Y-103749717D01*
X166991969Y-103732784D01*
X166939167Y-103679982D01*
X167899500Y-103679982D01*
X167899500Y-105480017D01*
X167910000Y-105582796D01*
X167932435Y-105650499D01*
X167965186Y-105749335D01*
X168057288Y-105898656D01*
X168181344Y-106022712D01*
X168330665Y-106114814D01*
X168497202Y-106169999D01*
X168599990Y-106180500D01*
X168599995Y-106180500D01*
X170400005Y-106180500D01*
X170400010Y-106180500D01*
X170502798Y-106169999D01*
X170669335Y-106114814D01*
X170818656Y-106022712D01*
X170942712Y-105898656D01*
X171034814Y-105749335D01*
X171089999Y-105582798D01*
X171100500Y-105480010D01*
X171100500Y-103679990D01*
X171089999Y-103577202D01*
X171034814Y-103410665D01*
X170942712Y-103261344D01*
X170818656Y-103137288D01*
X170669335Y-103045186D01*
X170502798Y-102990001D01*
X170502796Y-102990000D01*
X170400017Y-102979500D01*
X170400010Y-102979500D01*
X168599990Y-102979500D01*
X168599982Y-102979500D01*
X168497203Y-102990000D01*
X168497202Y-102990001D01*
X168414669Y-103017349D01*
X168330667Y-103045185D01*
X168330662Y-103045187D01*
X168181342Y-103137289D01*
X168057289Y-103261342D01*
X167965187Y-103410662D01*
X167965186Y-103410665D01*
X167910001Y-103577202D01*
X167910001Y-103577203D01*
X167910000Y-103577203D01*
X167899500Y-103679982D01*
X166939167Y-103679982D01*
X166847213Y-103588028D01*
X166681613Y-103467715D01*
X166681612Y-103467714D01*
X166681610Y-103467713D01*
X166592451Y-103422284D01*
X166499223Y-103374781D01*
X166304534Y-103311522D01*
X166129995Y-103283878D01*
X166102352Y-103279500D01*
X165897648Y-103279500D01*
X165841971Y-103288318D01*
X165772678Y-103279363D01*
X165734893Y-103253526D01*
X159443049Y-96961681D01*
X159409564Y-96900358D01*
X159414548Y-96830666D01*
X159456420Y-96774733D01*
X159521884Y-96750316D01*
X159530730Y-96750000D01*
X159572828Y-96750000D01*
X159572844Y-96749999D01*
X159632372Y-96743598D01*
X159632379Y-96743596D01*
X159767086Y-96693354D01*
X159767093Y-96693350D01*
X159882187Y-96607190D01*
X159882190Y-96607187D01*
X159968350Y-96492093D01*
X159968354Y-96492086D01*
X160018596Y-96357379D01*
X160018598Y-96357372D01*
X160024999Y-96297844D01*
X160025000Y-96297827D01*
X160025000Y-95750000D01*
X159280330Y-95750000D01*
X159300075Y-95730255D01*
X159349444Y-95644745D01*
X159375000Y-95549370D01*
X159375000Y-95450630D01*
X159349444Y-95355255D01*
X159300075Y-95269745D01*
X159280330Y-95250000D01*
X160025000Y-95250000D01*
X160025000Y-94702172D01*
X160024999Y-94702155D01*
X160018598Y-94642627D01*
X160018596Y-94642620D01*
X159968354Y-94507913D01*
X159968350Y-94507906D01*
X159882190Y-94392812D01*
X159882187Y-94392809D01*
X159767093Y-94306649D01*
X159767086Y-94306645D01*
X159632379Y-94256403D01*
X159632372Y-94256401D01*
X159572844Y-94250000D01*
X159250000Y-94250000D01*
X159250000Y-95219670D01*
X159230255Y-95199925D01*
X159144745Y-95150556D01*
X159049370Y-95125000D01*
X158950630Y-95125000D01*
X158855255Y-95150556D01*
X158769745Y-95199925D01*
X158755500Y-95214170D01*
X158755500Y-95173997D01*
X158750277Y-95147740D01*
X158750032Y-95136953D01*
X158750211Y-95136284D01*
X158750000Y-95134134D01*
X158750000Y-94250000D01*
X158427155Y-94250000D01*
X158367627Y-94256401D01*
X158367620Y-94256403D01*
X158232913Y-94306645D01*
X158232911Y-94306646D01*
X158232092Y-94307260D01*
X158231134Y-94307616D01*
X158225132Y-94310895D01*
X158224660Y-94310031D01*
X158166625Y-94331671D01*
X158110338Y-94322547D01*
X158029131Y-94288910D01*
X158029119Y-94288907D01*
X157831007Y-94249500D01*
X157831003Y-94249500D01*
X157628997Y-94249500D01*
X157628992Y-94249500D01*
X157430880Y-94288907D01*
X157430872Y-94288909D01*
X157244244Y-94366213D01*
X157163891Y-94419904D01*
X157097213Y-94440782D01*
X157029833Y-94422297D01*
X157026109Y-94419904D01*
X156945755Y-94366213D01*
X156759127Y-94288909D01*
X156759119Y-94288907D01*
X156561007Y-94249500D01*
X156561003Y-94249500D01*
X156358997Y-94249500D01*
X156358992Y-94249500D01*
X156160880Y-94288907D01*
X156160872Y-94288909D01*
X155974247Y-94366212D01*
X155974237Y-94366217D01*
X155806281Y-94478441D01*
X155663441Y-94621281D01*
X155551217Y-94789237D01*
X155551212Y-94789247D01*
X155473909Y-94975872D01*
X155473907Y-94975880D01*
X155434500Y-95173992D01*
X153447673Y-95173992D01*
X153309734Y-94994225D01*
X153309728Y-94994218D01*
X153133576Y-94818066D01*
X153133569Y-94818060D01*
X152935921Y-94666400D01*
X152720171Y-94541837D01*
X152720156Y-94541830D01*
X152490002Y-94446498D01*
X152390752Y-94419904D01*
X152249360Y-94382018D01*
X152249359Y-94382017D01*
X152249356Y-94382017D01*
X152002370Y-94349501D01*
X152002365Y-94349500D01*
X152002360Y-94349500D01*
X151753230Y-94349500D01*
X151753224Y-94349500D01*
X151753219Y-94349501D01*
X151506233Y-94382017D01*
X151265587Y-94446498D01*
X151035433Y-94541830D01*
X151035418Y-94541837D01*
X150819668Y-94666400D01*
X150622020Y-94818060D01*
X150622013Y-94818066D01*
X150445861Y-94994218D01*
X150445855Y-94994225D01*
X150294195Y-95191873D01*
X150169632Y-95407623D01*
X150169625Y-95407638D01*
X150074293Y-95637792D01*
X150009812Y-95878438D01*
X149977296Y-96125424D01*
X149977295Y-96125441D01*
X138778295Y-96125441D01*
X138778295Y-96125435D01*
X138745777Y-95878435D01*
X138681297Y-95637793D01*
X138623330Y-95497849D01*
X138585964Y-95407638D01*
X138585957Y-95407623D01*
X138461394Y-95191873D01*
X138309734Y-94994225D01*
X138309728Y-94994218D01*
X138133576Y-94818066D01*
X138133569Y-94818060D01*
X137935921Y-94666400D01*
X137720171Y-94541837D01*
X137720156Y-94541830D01*
X137490002Y-94446498D01*
X137390752Y-94419904D01*
X137249360Y-94382018D01*
X137249359Y-94382017D01*
X137249356Y-94382017D01*
X137002370Y-94349501D01*
X137002365Y-94349500D01*
X137002360Y-94349500D01*
X136753230Y-94349500D01*
X136753224Y-94349500D01*
X136753219Y-94349501D01*
X136506233Y-94382017D01*
X136265587Y-94446498D01*
X136035433Y-94541830D01*
X136035418Y-94541837D01*
X135819668Y-94666400D01*
X135622020Y-94818060D01*
X135622013Y-94818066D01*
X135445861Y-94994218D01*
X135445855Y-94994225D01*
X135294195Y-95191873D01*
X135169632Y-95407623D01*
X135169625Y-95407638D01*
X135074293Y-95637792D01*
X135009812Y-95878438D01*
X134977296Y-96125424D01*
X134977295Y-96125441D01*
X134977295Y-96374558D01*
X134977296Y-96374575D01*
X135009812Y-96621563D01*
X135010405Y-96624541D01*
X135010323Y-96625445D01*
X135010343Y-96625590D01*
X135010310Y-96625594D01*
X135004173Y-96694132D01*
X134976467Y-96736406D01*
X134249694Y-97463181D01*
X134188371Y-97496666D01*
X134162013Y-97499500D01*
X133565510Y-97499500D01*
X133498471Y-97479815D01*
X133452716Y-97427011D01*
X133442772Y-97357853D01*
X133460281Y-97312171D01*
X133459365Y-97311642D01*
X133557488Y-97141687D01*
X133585959Y-97092373D01*
X133681297Y-96862207D01*
X133745777Y-96621565D01*
X133778295Y-96374565D01*
X133778295Y-96125435D01*
X133745777Y-95878435D01*
X133681297Y-95637793D01*
X133623330Y-95497849D01*
X133585964Y-95407638D01*
X133585957Y-95407623D01*
X133461394Y-95191873D01*
X133309734Y-94994225D01*
X133309728Y-94994218D01*
X133133576Y-94818066D01*
X133133569Y-94818060D01*
X132935921Y-94666400D01*
X132720171Y-94541837D01*
X132720156Y-94541830D01*
X132490002Y-94446498D01*
X132390752Y-94419904D01*
X132249360Y-94382018D01*
X132249359Y-94382017D01*
X132249356Y-94382017D01*
X132002370Y-94349501D01*
X132002365Y-94349500D01*
X132002360Y-94349500D01*
X131753230Y-94349500D01*
X131753224Y-94349500D01*
X131753219Y-94349501D01*
X131506233Y-94382017D01*
X131265587Y-94446498D01*
X131035433Y-94541830D01*
X131035418Y-94541837D01*
X130819668Y-94666400D01*
X130622020Y-94818060D01*
X130622013Y-94818066D01*
X130445861Y-94994218D01*
X130445855Y-94994225D01*
X130294195Y-95191873D01*
X130169632Y-95407623D01*
X130169625Y-95407638D01*
X130074293Y-95637792D01*
X130009812Y-95878438D01*
X129977296Y-96125424D01*
X129977295Y-96125441D01*
X129977295Y-96374558D01*
X129977296Y-96374575D01*
X130007920Y-96607190D01*
X130009813Y-96621565D01*
X130033802Y-96711092D01*
X130074293Y-96862207D01*
X130169625Y-97092361D01*
X130169632Y-97092376D01*
X130296225Y-97311642D01*
X130294977Y-97312362D01*
X130314060Y-97373263D01*
X130295588Y-97440646D01*
X130243618Y-97487347D01*
X130190080Y-97499500D01*
X128565510Y-97499500D01*
X128498471Y-97479815D01*
X128452716Y-97427011D01*
X128442772Y-97357853D01*
X128460281Y-97312171D01*
X128459365Y-97311642D01*
X128557488Y-97141687D01*
X128585959Y-97092373D01*
X128681297Y-96862207D01*
X128745777Y-96621565D01*
X128778295Y-96374565D01*
X128778295Y-96125435D01*
X128745777Y-95878435D01*
X128681297Y-95637793D01*
X128623330Y-95497849D01*
X128585964Y-95407638D01*
X128585957Y-95407623D01*
X128461394Y-95191873D01*
X128309734Y-94994225D01*
X128309728Y-94994218D01*
X128133576Y-94818066D01*
X128133569Y-94818060D01*
X127935921Y-94666400D01*
X127720171Y-94541837D01*
X127720156Y-94541830D01*
X127490002Y-94446498D01*
X127390752Y-94419904D01*
X127249360Y-94382018D01*
X127249359Y-94382017D01*
X127249356Y-94382017D01*
X127002370Y-94349501D01*
X127002365Y-94349500D01*
X127002360Y-94349500D01*
X126753230Y-94349500D01*
X126753224Y-94349500D01*
X126753219Y-94349501D01*
X126506233Y-94382017D01*
X126265587Y-94446498D01*
X126035433Y-94541830D01*
X126035418Y-94541837D01*
X125819668Y-94666400D01*
X125622020Y-94818060D01*
X125622013Y-94818066D01*
X125445861Y-94994218D01*
X125445855Y-94994225D01*
X125294195Y-95191873D01*
X125169632Y-95407623D01*
X125169625Y-95407638D01*
X125074293Y-95637792D01*
X125009812Y-95878438D01*
X124989544Y-96032388D01*
X124961277Y-96096284D01*
X124902952Y-96134755D01*
X124833088Y-96135586D01*
X124773864Y-96098514D01*
X124748674Y-96054520D01*
X124741483Y-96032388D01*
X124705220Y-95920781D01*
X124612287Y-95738390D01*
X124590684Y-95708656D01*
X124491971Y-95572786D01*
X124347213Y-95428028D01*
X124181613Y-95307715D01*
X124181612Y-95307714D01*
X124181610Y-95307713D01*
X124107094Y-95269745D01*
X123999223Y-95214781D01*
X123804534Y-95151522D01*
X123629995Y-95123878D01*
X123602352Y-95119500D01*
X123397648Y-95119500D01*
X123373329Y-95123351D01*
X123195465Y-95151522D01*
X123000776Y-95214781D01*
X122818386Y-95307715D01*
X122652786Y-95428028D01*
X122508028Y-95572786D01*
X122387715Y-95738386D01*
X122294781Y-95920776D01*
X122231522Y-96115465D01*
X122199500Y-96317648D01*
X122199500Y-96522351D01*
X122231522Y-96724534D01*
X122294781Y-96919223D01*
X122334774Y-96997711D01*
X122347670Y-97066380D01*
X122321394Y-97131120D01*
X122264288Y-97171378D01*
X122194482Y-97174370D01*
X122136608Y-97141687D01*
X121326717Y-96331797D01*
X121293232Y-96270474D01*
X121291925Y-96263513D01*
X121268477Y-96115466D01*
X121268477Y-96115465D01*
X121227873Y-95990499D01*
X121205220Y-95920781D01*
X121205218Y-95920778D01*
X121205218Y-95920776D01*
X121168872Y-95849444D01*
X121112287Y-95738390D01*
X121090684Y-95708656D01*
X120991971Y-95572786D01*
X120847213Y-95428028D01*
X120681613Y-95307715D01*
X120681612Y-95307714D01*
X120681610Y-95307713D01*
X120607094Y-95269745D01*
X120499223Y-95214781D01*
X120304534Y-95151522D01*
X120129995Y-95123878D01*
X120102352Y-95119500D01*
X119897648Y-95119500D01*
X119873329Y-95123351D01*
X119695465Y-95151522D01*
X119500776Y-95214781D01*
X119318386Y-95307715D01*
X119152786Y-95428028D01*
X119008028Y-95572786D01*
X118887715Y-95738386D01*
X118794781Y-95920776D01*
X118731522Y-96115465D01*
X118699500Y-96317648D01*
X95500500Y-96317648D01*
X95500500Y-95004066D01*
X95500765Y-94995956D01*
X95517075Y-94747102D01*
X95519190Y-94731048D01*
X95567045Y-94490462D01*
X95571243Y-94474797D01*
X95608102Y-94366213D01*
X95650093Y-94242512D01*
X95656291Y-94227547D01*
X95764790Y-94007533D01*
X95772893Y-93993498D01*
X95909182Y-93789527D01*
X95919039Y-93776681D01*
X96080786Y-93592244D01*
X96092244Y-93580786D01*
X96276681Y-93419039D01*
X96289527Y-93409182D01*
X96493498Y-93272893D01*
X96507533Y-93264790D01*
X96727547Y-93156291D01*
X96742512Y-93150093D01*
X96935740Y-93084501D01*
X96974797Y-93071243D01*
X96990464Y-93067045D01*
X97231048Y-93019190D01*
X97247102Y-93017075D01*
X97495957Y-93000765D01*
X97504067Y-93000500D01*
X97565892Y-93000500D01*
X149934108Y-93000500D01*
X161904831Y-93000500D01*
X161910943Y-93002294D01*
G37*
%TD.AperFunction*%
%TD*%
M02*
