%TF.GenerationSoftware,KiCad,Pcbnew,9.0.2-9.0.2-0~ubuntu22.04.1*%
%TF.CreationDate,2025-06-09T10:54:34+02:00*%
%TF.ProjectId,safety_board_Rev-A,73616665-7479-45f6-926f-6172645f5265,rev?*%
%TF.SameCoordinates,Original*%
%TF.FileFunction,Legend,Top*%
%TF.FilePolarity,Positive*%
%FSLAX46Y46*%
G04 Gerber Fmt 4.6, Leading zero omitted, Abs format (unit mm)*
G04 Created by KiCad (PCBNEW 9.0.2-9.0.2-0~ubuntu22.04.1) date 2025-06-09 10:54:34*
%MOMM*%
%LPD*%
G01*
G04 APERTURE LIST*
G04 Aperture macros list*
%AMRoundRect*
0 Rectangle with rounded corners*
0 $1 Rounding radius*
0 $2 $3 $4 $5 $6 $7 $8 $9 X,Y pos of 4 corners*
0 Add a 4 corners polygon primitive as box body*
4,1,4,$2,$3,$4,$5,$6,$7,$8,$9,$2,$3,0*
0 Add four circle primitives for the rounded corners*
1,1,$1+$1,$2,$3*
1,1,$1+$1,$4,$5*
1,1,$1+$1,$6,$7*
1,1,$1+$1,$8,$9*
0 Add four rect primitives between the rounded corners*
20,1,$1+$1,$2,$3,$4,$5,0*
20,1,$1+$1,$4,$5,$6,$7,0*
20,1,$1+$1,$6,$7,$8,$9,0*
20,1,$1+$1,$8,$9,$2,$3,0*%
G04 Aperture macros list end*
%ADD10C,0.150000*%
%ADD11C,0.120000*%
%ADD12C,1.600000*%
%ADD13C,3.600000*%
%ADD14C,5.600000*%
%ADD15RoundRect,0.250000X-0.550000X0.550000X-0.550000X-0.550000X0.550000X-0.550000X0.550000X0.550000X0*%
%ADD16R,1.050000X1.500000*%
%ADD17O,1.050000X1.500000*%
%ADD18C,2.800000*%
%ADD19RoundRect,0.250000X1.150000X1.150000X-1.150000X1.150000X-1.150000X-1.150000X1.150000X-1.150000X0*%
%ADD20C,3.000000*%
%ADD21RoundRect,0.249999X0.850001X-0.850001X0.850001X0.850001X-0.850001X0.850001X-0.850001X-0.850001X0*%
%ADD22C,2.200000*%
%ADD23RoundRect,0.250001X-0.949999X-0.949999X0.949999X-0.949999X0.949999X0.949999X-0.949999X0.949999X0*%
%ADD24C,2.400000*%
%ADD25RoundRect,0.250001X0.949999X0.949999X-0.949999X0.949999X-0.949999X-0.949999X0.949999X-0.949999X0*%
G04 APERTURE END LIST*
D10*
X150809523Y-107954819D02*
X150714285Y-107907200D01*
X150714285Y-107907200D02*
X150666666Y-107859580D01*
X150666666Y-107859580D02*
X150619047Y-107764342D01*
X150619047Y-107764342D02*
X150619047Y-107478628D01*
X150619047Y-107478628D02*
X150666666Y-107383390D01*
X150666666Y-107383390D02*
X150714285Y-107335771D01*
X150714285Y-107335771D02*
X150809523Y-107288152D01*
X150809523Y-107288152D02*
X150952380Y-107288152D01*
X150952380Y-107288152D02*
X151047618Y-107335771D01*
X151047618Y-107335771D02*
X151095237Y-107383390D01*
X151095237Y-107383390D02*
X151142856Y-107478628D01*
X151142856Y-107478628D02*
X151142856Y-107764342D01*
X151142856Y-107764342D02*
X151095237Y-107859580D01*
X151095237Y-107859580D02*
X151047618Y-107907200D01*
X151047618Y-107907200D02*
X150952380Y-107954819D01*
X150952380Y-107954819D02*
X150809523Y-107954819D01*
X151999999Y-107288152D02*
X151999999Y-107954819D01*
X151571428Y-107288152D02*
X151571428Y-107811961D01*
X151571428Y-107811961D02*
X151619047Y-107907200D01*
X151619047Y-107907200D02*
X151714285Y-107954819D01*
X151714285Y-107954819D02*
X151857142Y-107954819D01*
X151857142Y-107954819D02*
X151952380Y-107907200D01*
X151952380Y-107907200D02*
X151999999Y-107859580D01*
X152333333Y-107288152D02*
X152714285Y-107288152D01*
X152476190Y-106954819D02*
X152476190Y-107811961D01*
X152476190Y-107811961D02*
X152523809Y-107907200D01*
X152523809Y-107907200D02*
X152619047Y-107954819D01*
X152619047Y-107954819D02*
X152714285Y-107954819D01*
X154142857Y-107431009D02*
X154285714Y-107478628D01*
X154285714Y-107478628D02*
X154333333Y-107526247D01*
X154333333Y-107526247D02*
X154380952Y-107621485D01*
X154380952Y-107621485D02*
X154380952Y-107764342D01*
X154380952Y-107764342D02*
X154333333Y-107859580D01*
X154333333Y-107859580D02*
X154285714Y-107907200D01*
X154285714Y-107907200D02*
X154190476Y-107954819D01*
X154190476Y-107954819D02*
X153809524Y-107954819D01*
X153809524Y-107954819D02*
X153809524Y-106954819D01*
X153809524Y-106954819D02*
X154142857Y-106954819D01*
X154142857Y-106954819D02*
X154238095Y-107002438D01*
X154238095Y-107002438D02*
X154285714Y-107050057D01*
X154285714Y-107050057D02*
X154333333Y-107145295D01*
X154333333Y-107145295D02*
X154333333Y-107240533D01*
X154333333Y-107240533D02*
X154285714Y-107335771D01*
X154285714Y-107335771D02*
X154238095Y-107383390D01*
X154238095Y-107383390D02*
X154142857Y-107431009D01*
X154142857Y-107431009D02*
X153809524Y-107431009D01*
X177119048Y-102573866D02*
X177880953Y-102573866D01*
X177500000Y-102954819D02*
X177500000Y-102192914D01*
X171809524Y-108745085D02*
X171857143Y-108697466D01*
X171857143Y-108697466D02*
X171952381Y-108649847D01*
X171952381Y-108649847D02*
X172190476Y-108649847D01*
X172190476Y-108649847D02*
X172285714Y-108697466D01*
X172285714Y-108697466D02*
X172333333Y-108745085D01*
X172333333Y-108745085D02*
X172380952Y-108840323D01*
X172380952Y-108840323D02*
X172380952Y-108935561D01*
X172380952Y-108935561D02*
X172333333Y-109078418D01*
X172333333Y-109078418D02*
X171761905Y-109649847D01*
X171761905Y-109649847D02*
X172380952Y-109649847D01*
X173238095Y-108983180D02*
X173238095Y-109649847D01*
X173000000Y-108602228D02*
X172761905Y-109316513D01*
X172761905Y-109316513D02*
X173380952Y-109316513D01*
X173619048Y-108649847D02*
X173952381Y-109649847D01*
X173952381Y-109649847D02*
X174285714Y-108649847D01*
X172142857Y-111212172D02*
X172285714Y-111259791D01*
X172285714Y-111259791D02*
X172523809Y-111259791D01*
X172523809Y-111259791D02*
X172619047Y-111212172D01*
X172619047Y-111212172D02*
X172666666Y-111164552D01*
X172666666Y-111164552D02*
X172714285Y-111069314D01*
X172714285Y-111069314D02*
X172714285Y-110974076D01*
X172714285Y-110974076D02*
X172666666Y-110878838D01*
X172666666Y-110878838D02*
X172619047Y-110831219D01*
X172619047Y-110831219D02*
X172523809Y-110783600D01*
X172523809Y-110783600D02*
X172333333Y-110735981D01*
X172333333Y-110735981D02*
X172238095Y-110688362D01*
X172238095Y-110688362D02*
X172190476Y-110640743D01*
X172190476Y-110640743D02*
X172142857Y-110545505D01*
X172142857Y-110545505D02*
X172142857Y-110450267D01*
X172142857Y-110450267D02*
X172190476Y-110355029D01*
X172190476Y-110355029D02*
X172238095Y-110307410D01*
X172238095Y-110307410D02*
X172333333Y-110259791D01*
X172333333Y-110259791D02*
X172571428Y-110259791D01*
X172571428Y-110259791D02*
X172714285Y-110307410D01*
X173047619Y-110259791D02*
X173285714Y-111259791D01*
X173285714Y-111259791D02*
X173476190Y-110545505D01*
X173476190Y-110545505D02*
X173666666Y-111259791D01*
X173666666Y-111259791D02*
X173904762Y-110259791D01*
X192666667Y-110454819D02*
X192666667Y-109788152D01*
X192666667Y-109454819D02*
X192619048Y-109502438D01*
X192619048Y-109502438D02*
X192666667Y-109550057D01*
X192666667Y-109550057D02*
X192714286Y-109502438D01*
X192714286Y-109502438D02*
X192666667Y-109454819D01*
X192666667Y-109454819D02*
X192666667Y-109550057D01*
X193142857Y-109788152D02*
X193142857Y-110454819D01*
X193142857Y-109883390D02*
X193190476Y-109835771D01*
X193190476Y-109835771D02*
X193285714Y-109788152D01*
X193285714Y-109788152D02*
X193428571Y-109788152D01*
X193428571Y-109788152D02*
X193523809Y-109835771D01*
X193523809Y-109835771D02*
X193571428Y-109931009D01*
X193571428Y-109931009D02*
X193571428Y-110454819D01*
X195142857Y-109931009D02*
X195285714Y-109978628D01*
X195285714Y-109978628D02*
X195333333Y-110026247D01*
X195333333Y-110026247D02*
X195380952Y-110121485D01*
X195380952Y-110121485D02*
X195380952Y-110264342D01*
X195380952Y-110264342D02*
X195333333Y-110359580D01*
X195333333Y-110359580D02*
X195285714Y-110407200D01*
X195285714Y-110407200D02*
X195190476Y-110454819D01*
X195190476Y-110454819D02*
X194809524Y-110454819D01*
X194809524Y-110454819D02*
X194809524Y-109454819D01*
X194809524Y-109454819D02*
X195142857Y-109454819D01*
X195142857Y-109454819D02*
X195238095Y-109502438D01*
X195238095Y-109502438D02*
X195285714Y-109550057D01*
X195285714Y-109550057D02*
X195333333Y-109645295D01*
X195333333Y-109645295D02*
X195333333Y-109740533D01*
X195333333Y-109740533D02*
X195285714Y-109835771D01*
X195285714Y-109835771D02*
X195238095Y-109883390D01*
X195238095Y-109883390D02*
X195142857Y-109931009D01*
X195142857Y-109931009D02*
X194809524Y-109931009D01*
X132738095Y-109502438D02*
X132642857Y-109454819D01*
X132642857Y-109454819D02*
X132500000Y-109454819D01*
X132500000Y-109454819D02*
X132357143Y-109502438D01*
X132357143Y-109502438D02*
X132261905Y-109597676D01*
X132261905Y-109597676D02*
X132214286Y-109692914D01*
X132214286Y-109692914D02*
X132166667Y-109883390D01*
X132166667Y-109883390D02*
X132166667Y-110026247D01*
X132166667Y-110026247D02*
X132214286Y-110216723D01*
X132214286Y-110216723D02*
X132261905Y-110311961D01*
X132261905Y-110311961D02*
X132357143Y-110407200D01*
X132357143Y-110407200D02*
X132500000Y-110454819D01*
X132500000Y-110454819D02*
X132595238Y-110454819D01*
X132595238Y-110454819D02*
X132738095Y-110407200D01*
X132738095Y-110407200D02*
X132785714Y-110359580D01*
X132785714Y-110359580D02*
X132785714Y-110026247D01*
X132785714Y-110026247D02*
X132595238Y-110026247D01*
X133214286Y-110454819D02*
X133214286Y-109454819D01*
X133214286Y-109454819D02*
X133785714Y-110454819D01*
X133785714Y-110454819D02*
X133785714Y-109454819D01*
X134261905Y-110454819D02*
X134261905Y-109454819D01*
X134261905Y-109454819D02*
X134500000Y-109454819D01*
X134500000Y-109454819D02*
X134642857Y-109502438D01*
X134642857Y-109502438D02*
X134738095Y-109597676D01*
X134738095Y-109597676D02*
X134785714Y-109692914D01*
X134785714Y-109692914D02*
X134833333Y-109883390D01*
X134833333Y-109883390D02*
X134833333Y-110026247D01*
X134833333Y-110026247D02*
X134785714Y-110216723D01*
X134785714Y-110216723D02*
X134738095Y-110311961D01*
X134738095Y-110311961D02*
X134642857Y-110407200D01*
X134642857Y-110407200D02*
X134500000Y-110454819D01*
X134500000Y-110454819D02*
X134261905Y-110454819D01*
X104738095Y-110454819D02*
X104738095Y-109788152D01*
X104738095Y-109454819D02*
X104690476Y-109502438D01*
X104690476Y-109502438D02*
X104738095Y-109550057D01*
X104738095Y-109550057D02*
X104785714Y-109502438D01*
X104785714Y-109502438D02*
X104738095Y-109454819D01*
X104738095Y-109454819D02*
X104738095Y-109550057D01*
X105214285Y-109788152D02*
X105214285Y-110454819D01*
X105214285Y-109883390D02*
X105261904Y-109835771D01*
X105261904Y-109835771D02*
X105357142Y-109788152D01*
X105357142Y-109788152D02*
X105499999Y-109788152D01*
X105499999Y-109788152D02*
X105595237Y-109835771D01*
X105595237Y-109835771D02*
X105642856Y-109931009D01*
X105642856Y-109931009D02*
X105642856Y-110454819D01*
X106833333Y-110169104D02*
X107309523Y-110169104D01*
X106738095Y-110454819D02*
X107071428Y-109454819D01*
X107071428Y-109454819D02*
X107404761Y-110454819D01*
X145880952Y-107954819D02*
X145785714Y-107907200D01*
X145785714Y-107907200D02*
X145738095Y-107859580D01*
X145738095Y-107859580D02*
X145690476Y-107764342D01*
X145690476Y-107764342D02*
X145690476Y-107478628D01*
X145690476Y-107478628D02*
X145738095Y-107383390D01*
X145738095Y-107383390D02*
X145785714Y-107335771D01*
X145785714Y-107335771D02*
X145880952Y-107288152D01*
X145880952Y-107288152D02*
X146023809Y-107288152D01*
X146023809Y-107288152D02*
X146119047Y-107335771D01*
X146119047Y-107335771D02*
X146166666Y-107383390D01*
X146166666Y-107383390D02*
X146214285Y-107478628D01*
X146214285Y-107478628D02*
X146214285Y-107764342D01*
X146214285Y-107764342D02*
X146166666Y-107859580D01*
X146166666Y-107859580D02*
X146119047Y-107907200D01*
X146119047Y-107907200D02*
X146023809Y-107954819D01*
X146023809Y-107954819D02*
X145880952Y-107954819D01*
X147071428Y-107288152D02*
X147071428Y-107954819D01*
X146642857Y-107288152D02*
X146642857Y-107811961D01*
X146642857Y-107811961D02*
X146690476Y-107907200D01*
X146690476Y-107907200D02*
X146785714Y-107954819D01*
X146785714Y-107954819D02*
X146928571Y-107954819D01*
X146928571Y-107954819D02*
X147023809Y-107907200D01*
X147023809Y-107907200D02*
X147071428Y-107859580D01*
X147404762Y-107288152D02*
X147785714Y-107288152D01*
X147547619Y-106954819D02*
X147547619Y-107811961D01*
X147547619Y-107811961D02*
X147595238Y-107907200D01*
X147595238Y-107907200D02*
X147690476Y-107954819D01*
X147690476Y-107954819D02*
X147785714Y-107954819D01*
X148833334Y-107669104D02*
X149309524Y-107669104D01*
X148738096Y-107954819D02*
X149071429Y-106954819D01*
X149071429Y-106954819D02*
X149404762Y-107954819D01*
X173454819Y-99666666D02*
X172978628Y-99999999D01*
X173454819Y-100238094D02*
X172454819Y-100238094D01*
X172454819Y-100238094D02*
X172454819Y-99857142D01*
X172454819Y-99857142D02*
X172502438Y-99761904D01*
X172502438Y-99761904D02*
X172550057Y-99714285D01*
X172550057Y-99714285D02*
X172645295Y-99666666D01*
X172645295Y-99666666D02*
X172788152Y-99666666D01*
X172788152Y-99666666D02*
X172883390Y-99714285D01*
X172883390Y-99714285D02*
X172931009Y-99761904D01*
X172931009Y-99761904D02*
X172978628Y-99857142D01*
X172978628Y-99857142D02*
X172978628Y-100238094D01*
X172454819Y-98761904D02*
X172454819Y-99238094D01*
X172454819Y-99238094D02*
X172931009Y-99285713D01*
X172931009Y-99285713D02*
X172883390Y-99238094D01*
X172883390Y-99238094D02*
X172835771Y-99142856D01*
X172835771Y-99142856D02*
X172835771Y-98904761D01*
X172835771Y-98904761D02*
X172883390Y-98809523D01*
X172883390Y-98809523D02*
X172931009Y-98761904D01*
X172931009Y-98761904D02*
X173026247Y-98714285D01*
X173026247Y-98714285D02*
X173264342Y-98714285D01*
X173264342Y-98714285D02*
X173359580Y-98761904D01*
X173359580Y-98761904D02*
X173407200Y-98809523D01*
X173407200Y-98809523D02*
X173454819Y-98904761D01*
X173454819Y-98904761D02*
X173454819Y-99142856D01*
X173454819Y-99142856D02*
X173407200Y-99238094D01*
X173407200Y-99238094D02*
X173359580Y-99285713D01*
X176454819Y-99238094D02*
X175454819Y-99238094D01*
X175454819Y-99238094D02*
X175454819Y-98999999D01*
X175454819Y-98999999D02*
X175502438Y-98857142D01*
X175502438Y-98857142D02*
X175597676Y-98761904D01*
X175597676Y-98761904D02*
X175692914Y-98714285D01*
X175692914Y-98714285D02*
X175883390Y-98666666D01*
X175883390Y-98666666D02*
X176026247Y-98666666D01*
X176026247Y-98666666D02*
X176216723Y-98714285D01*
X176216723Y-98714285D02*
X176311961Y-98761904D01*
X176311961Y-98761904D02*
X176407200Y-98857142D01*
X176407200Y-98857142D02*
X176454819Y-98999999D01*
X176454819Y-98999999D02*
X176454819Y-99238094D01*
X175550057Y-98285713D02*
X175502438Y-98238094D01*
X175502438Y-98238094D02*
X175454819Y-98142856D01*
X175454819Y-98142856D02*
X175454819Y-97904761D01*
X175454819Y-97904761D02*
X175502438Y-97809523D01*
X175502438Y-97809523D02*
X175550057Y-97761904D01*
X175550057Y-97761904D02*
X175645295Y-97714285D01*
X175645295Y-97714285D02*
X175740533Y-97714285D01*
X175740533Y-97714285D02*
X175883390Y-97761904D01*
X175883390Y-97761904D02*
X176454819Y-98333332D01*
X176454819Y-98333332D02*
X176454819Y-97714285D01*
X178254819Y-94951904D02*
X177254819Y-94951904D01*
X178254819Y-94380476D02*
X177683390Y-94809047D01*
X177254819Y-94380476D02*
X177826247Y-94951904D01*
X166454819Y-99666666D02*
X165978628Y-99999999D01*
X166454819Y-100238094D02*
X165454819Y-100238094D01*
X165454819Y-100238094D02*
X165454819Y-99857142D01*
X165454819Y-99857142D02*
X165502438Y-99761904D01*
X165502438Y-99761904D02*
X165550057Y-99714285D01*
X165550057Y-99714285D02*
X165645295Y-99666666D01*
X165645295Y-99666666D02*
X165788152Y-99666666D01*
X165788152Y-99666666D02*
X165883390Y-99714285D01*
X165883390Y-99714285D02*
X165931009Y-99761904D01*
X165931009Y-99761904D02*
X165978628Y-99857142D01*
X165978628Y-99857142D02*
X165978628Y-100238094D01*
X165788152Y-98809523D02*
X166454819Y-98809523D01*
X165407200Y-99047618D02*
X166121485Y-99285713D01*
X166121485Y-99285713D02*
X166121485Y-98666666D01*
X162954819Y-99666666D02*
X162478628Y-99999999D01*
X162954819Y-100238094D02*
X161954819Y-100238094D01*
X161954819Y-100238094D02*
X161954819Y-99857142D01*
X161954819Y-99857142D02*
X162002438Y-99761904D01*
X162002438Y-99761904D02*
X162050057Y-99714285D01*
X162050057Y-99714285D02*
X162145295Y-99666666D01*
X162145295Y-99666666D02*
X162288152Y-99666666D01*
X162288152Y-99666666D02*
X162383390Y-99714285D01*
X162383390Y-99714285D02*
X162431009Y-99761904D01*
X162431009Y-99761904D02*
X162478628Y-99857142D01*
X162478628Y-99857142D02*
X162478628Y-100238094D01*
X161954819Y-99333332D02*
X161954819Y-98714285D01*
X161954819Y-98714285D02*
X162335771Y-99047618D01*
X162335771Y-99047618D02*
X162335771Y-98904761D01*
X162335771Y-98904761D02*
X162383390Y-98809523D01*
X162383390Y-98809523D02*
X162431009Y-98761904D01*
X162431009Y-98761904D02*
X162526247Y-98714285D01*
X162526247Y-98714285D02*
X162764342Y-98714285D01*
X162764342Y-98714285D02*
X162859580Y-98761904D01*
X162859580Y-98761904D02*
X162907200Y-98809523D01*
X162907200Y-98809523D02*
X162954819Y-98904761D01*
X162954819Y-98904761D02*
X162954819Y-99190475D01*
X162954819Y-99190475D02*
X162907200Y-99285713D01*
X162907200Y-99285713D02*
X162859580Y-99333332D01*
X123954819Y-101666666D02*
X123478628Y-101999999D01*
X123954819Y-102238094D02*
X122954819Y-102238094D01*
X122954819Y-102238094D02*
X122954819Y-101857142D01*
X122954819Y-101857142D02*
X123002438Y-101761904D01*
X123002438Y-101761904D02*
X123050057Y-101714285D01*
X123050057Y-101714285D02*
X123145295Y-101666666D01*
X123145295Y-101666666D02*
X123288152Y-101666666D01*
X123288152Y-101666666D02*
X123383390Y-101714285D01*
X123383390Y-101714285D02*
X123431009Y-101761904D01*
X123431009Y-101761904D02*
X123478628Y-101857142D01*
X123478628Y-101857142D02*
X123478628Y-102238094D01*
X123050057Y-101285713D02*
X123002438Y-101238094D01*
X123002438Y-101238094D02*
X122954819Y-101142856D01*
X122954819Y-101142856D02*
X122954819Y-100904761D01*
X122954819Y-100904761D02*
X123002438Y-100809523D01*
X123002438Y-100809523D02*
X123050057Y-100761904D01*
X123050057Y-100761904D02*
X123145295Y-100714285D01*
X123145295Y-100714285D02*
X123240533Y-100714285D01*
X123240533Y-100714285D02*
X123383390Y-100761904D01*
X123383390Y-100761904D02*
X123954819Y-101333332D01*
X123954819Y-101333332D02*
X123954819Y-100714285D01*
X120454819Y-101666666D02*
X119978628Y-101999999D01*
X120454819Y-102238094D02*
X119454819Y-102238094D01*
X119454819Y-102238094D02*
X119454819Y-101857142D01*
X119454819Y-101857142D02*
X119502438Y-101761904D01*
X119502438Y-101761904D02*
X119550057Y-101714285D01*
X119550057Y-101714285D02*
X119645295Y-101666666D01*
X119645295Y-101666666D02*
X119788152Y-101666666D01*
X119788152Y-101666666D02*
X119883390Y-101714285D01*
X119883390Y-101714285D02*
X119931009Y-101761904D01*
X119931009Y-101761904D02*
X119978628Y-101857142D01*
X119978628Y-101857142D02*
X119978628Y-102238094D01*
X120454819Y-100714285D02*
X120454819Y-101285713D01*
X120454819Y-100999999D02*
X119454819Y-100999999D01*
X119454819Y-100999999D02*
X119597676Y-101095237D01*
X119597676Y-101095237D02*
X119692914Y-101190475D01*
X119692914Y-101190475D02*
X119740533Y-101285713D01*
X157634761Y-97550057D02*
X157539523Y-97502438D01*
X157539523Y-97502438D02*
X157444285Y-97407200D01*
X157444285Y-97407200D02*
X157301428Y-97264342D01*
X157301428Y-97264342D02*
X157206190Y-97216723D01*
X157206190Y-97216723D02*
X157110952Y-97216723D01*
X157158571Y-97454819D02*
X157063333Y-97407200D01*
X157063333Y-97407200D02*
X156968095Y-97311961D01*
X156968095Y-97311961D02*
X156920476Y-97121485D01*
X156920476Y-97121485D02*
X156920476Y-96788152D01*
X156920476Y-96788152D02*
X156968095Y-96597676D01*
X156968095Y-96597676D02*
X157063333Y-96502438D01*
X157063333Y-96502438D02*
X157158571Y-96454819D01*
X157158571Y-96454819D02*
X157349047Y-96454819D01*
X157349047Y-96454819D02*
X157444285Y-96502438D01*
X157444285Y-96502438D02*
X157539523Y-96597676D01*
X157539523Y-96597676D02*
X157587142Y-96788152D01*
X157587142Y-96788152D02*
X157587142Y-97121485D01*
X157587142Y-97121485D02*
X157539523Y-97311961D01*
X157539523Y-97311961D02*
X157444285Y-97407200D01*
X157444285Y-97407200D02*
X157349047Y-97454819D01*
X157349047Y-97454819D02*
X157158571Y-97454819D01*
X158539523Y-97454819D02*
X157968095Y-97454819D01*
X158253809Y-97454819D02*
X158253809Y-96454819D01*
X158253809Y-96454819D02*
X158158571Y-96597676D01*
X158158571Y-96597676D02*
X158063333Y-96692914D01*
X158063333Y-96692914D02*
X157968095Y-96740533D01*
X139139700Y-100454819D02*
X139139700Y-99454819D01*
X139711128Y-100454819D02*
X139282557Y-99883390D01*
X139711128Y-99454819D02*
X139139700Y-100026247D01*
X140663509Y-100454819D02*
X140092081Y-100454819D01*
X140377795Y-100454819D02*
X140377795Y-99454819D01*
X140377795Y-99454819D02*
X140282557Y-99597676D01*
X140282557Y-99597676D02*
X140187319Y-99692914D01*
X140187319Y-99692914D02*
X140092081Y-99740533D01*
X169954819Y-100238094D02*
X168954819Y-100238094D01*
X168954819Y-100238094D02*
X168954819Y-99999999D01*
X168954819Y-99999999D02*
X169002438Y-99857142D01*
X169002438Y-99857142D02*
X169097676Y-99761904D01*
X169097676Y-99761904D02*
X169192914Y-99714285D01*
X169192914Y-99714285D02*
X169383390Y-99666666D01*
X169383390Y-99666666D02*
X169526247Y-99666666D01*
X169526247Y-99666666D02*
X169716723Y-99714285D01*
X169716723Y-99714285D02*
X169811961Y-99761904D01*
X169811961Y-99761904D02*
X169907200Y-99857142D01*
X169907200Y-99857142D02*
X169954819Y-99999999D01*
X169954819Y-99999999D02*
X169954819Y-100238094D01*
X169288152Y-98809523D02*
X169954819Y-98809523D01*
X168907200Y-99047618D02*
X169621485Y-99285713D01*
X169621485Y-99285713D02*
X169621485Y-98666666D01*
X167854819Y-104841904D02*
X166854819Y-104841904D01*
X167854819Y-104270476D02*
X167283390Y-104699047D01*
X166854819Y-104270476D02*
X167426247Y-104841904D01*
X158954819Y-105738094D02*
X157954819Y-105738094D01*
X157954819Y-105738094D02*
X157954819Y-105499999D01*
X157954819Y-105499999D02*
X158002438Y-105357142D01*
X158002438Y-105357142D02*
X158097676Y-105261904D01*
X158097676Y-105261904D02*
X158192914Y-105214285D01*
X158192914Y-105214285D02*
X158383390Y-105166666D01*
X158383390Y-105166666D02*
X158526247Y-105166666D01*
X158526247Y-105166666D02*
X158716723Y-105214285D01*
X158716723Y-105214285D02*
X158811961Y-105261904D01*
X158811961Y-105261904D02*
X158907200Y-105357142D01*
X158907200Y-105357142D02*
X158954819Y-105499999D01*
X158954819Y-105499999D02*
X158954819Y-105738094D01*
X158954819Y-104214285D02*
X158954819Y-104785713D01*
X158954819Y-104499999D02*
X157954819Y-104499999D01*
X157954819Y-104499999D02*
X158097676Y-104595237D01*
X158097676Y-104595237D02*
X158192914Y-104690475D01*
X158192914Y-104690475D02*
X158240533Y-104785713D01*
X156854819Y-110341904D02*
X155854819Y-110341904D01*
X156854819Y-109770476D02*
X156283390Y-110199047D01*
X155854819Y-109770476D02*
X156426247Y-110341904D01*
X108833333Y-101359580D02*
X108785714Y-101407200D01*
X108785714Y-101407200D02*
X108642857Y-101454819D01*
X108642857Y-101454819D02*
X108547619Y-101454819D01*
X108547619Y-101454819D02*
X108404762Y-101407200D01*
X108404762Y-101407200D02*
X108309524Y-101311961D01*
X108309524Y-101311961D02*
X108261905Y-101216723D01*
X108261905Y-101216723D02*
X108214286Y-101026247D01*
X108214286Y-101026247D02*
X108214286Y-100883390D01*
X108214286Y-100883390D02*
X108261905Y-100692914D01*
X108261905Y-100692914D02*
X108309524Y-100597676D01*
X108309524Y-100597676D02*
X108404762Y-100502438D01*
X108404762Y-100502438D02*
X108547619Y-100454819D01*
X108547619Y-100454819D02*
X108642857Y-100454819D01*
X108642857Y-100454819D02*
X108785714Y-100502438D01*
X108785714Y-100502438D02*
X108833333Y-100550057D01*
X109690476Y-100454819D02*
X109500000Y-100454819D01*
X109500000Y-100454819D02*
X109404762Y-100502438D01*
X109404762Y-100502438D02*
X109357143Y-100550057D01*
X109357143Y-100550057D02*
X109261905Y-100692914D01*
X109261905Y-100692914D02*
X109214286Y-100883390D01*
X109214286Y-100883390D02*
X109214286Y-101264342D01*
X109214286Y-101264342D02*
X109261905Y-101359580D01*
X109261905Y-101359580D02*
X109309524Y-101407200D01*
X109309524Y-101407200D02*
X109404762Y-101454819D01*
X109404762Y-101454819D02*
X109595238Y-101454819D01*
X109595238Y-101454819D02*
X109690476Y-101407200D01*
X109690476Y-101407200D02*
X109738095Y-101359580D01*
X109738095Y-101359580D02*
X109785714Y-101264342D01*
X109785714Y-101264342D02*
X109785714Y-101026247D01*
X109785714Y-101026247D02*
X109738095Y-100931009D01*
X109738095Y-100931009D02*
X109690476Y-100883390D01*
X109690476Y-100883390D02*
X109595238Y-100835771D01*
X109595238Y-100835771D02*
X109404762Y-100835771D01*
X109404762Y-100835771D02*
X109309524Y-100883390D01*
X109309524Y-100883390D02*
X109261905Y-100931009D01*
X109261905Y-100931009D02*
X109214286Y-101026247D01*
X190833333Y-101359580D02*
X190785714Y-101407200D01*
X190785714Y-101407200D02*
X190642857Y-101454819D01*
X190642857Y-101454819D02*
X190547619Y-101454819D01*
X190547619Y-101454819D02*
X190404762Y-101407200D01*
X190404762Y-101407200D02*
X190309524Y-101311961D01*
X190309524Y-101311961D02*
X190261905Y-101216723D01*
X190261905Y-101216723D02*
X190214286Y-101026247D01*
X190214286Y-101026247D02*
X190214286Y-100883390D01*
X190214286Y-100883390D02*
X190261905Y-100692914D01*
X190261905Y-100692914D02*
X190309524Y-100597676D01*
X190309524Y-100597676D02*
X190404762Y-100502438D01*
X190404762Y-100502438D02*
X190547619Y-100454819D01*
X190547619Y-100454819D02*
X190642857Y-100454819D01*
X190642857Y-100454819D02*
X190785714Y-100502438D01*
X190785714Y-100502438D02*
X190833333Y-100550057D01*
X191214286Y-100550057D02*
X191261905Y-100502438D01*
X191261905Y-100502438D02*
X191357143Y-100454819D01*
X191357143Y-100454819D02*
X191595238Y-100454819D01*
X191595238Y-100454819D02*
X191690476Y-100502438D01*
X191690476Y-100502438D02*
X191738095Y-100550057D01*
X191738095Y-100550057D02*
X191785714Y-100645295D01*
X191785714Y-100645295D02*
X191785714Y-100740533D01*
X191785714Y-100740533D02*
X191738095Y-100883390D01*
X191738095Y-100883390D02*
X191166667Y-101454819D01*
X191166667Y-101454819D02*
X191785714Y-101454819D01*
X178833333Y-107859580D02*
X178785714Y-107907200D01*
X178785714Y-107907200D02*
X178642857Y-107954819D01*
X178642857Y-107954819D02*
X178547619Y-107954819D01*
X178547619Y-107954819D02*
X178404762Y-107907200D01*
X178404762Y-107907200D02*
X178309524Y-107811961D01*
X178309524Y-107811961D02*
X178261905Y-107716723D01*
X178261905Y-107716723D02*
X178214286Y-107526247D01*
X178214286Y-107526247D02*
X178214286Y-107383390D01*
X178214286Y-107383390D02*
X178261905Y-107192914D01*
X178261905Y-107192914D02*
X178309524Y-107097676D01*
X178309524Y-107097676D02*
X178404762Y-107002438D01*
X178404762Y-107002438D02*
X178547619Y-106954819D01*
X178547619Y-106954819D02*
X178642857Y-106954819D01*
X178642857Y-106954819D02*
X178785714Y-107002438D01*
X178785714Y-107002438D02*
X178833333Y-107050057D01*
X179785714Y-107954819D02*
X179214286Y-107954819D01*
X179500000Y-107954819D02*
X179500000Y-106954819D01*
X179500000Y-106954819D02*
X179404762Y-107097676D01*
X179404762Y-107097676D02*
X179309524Y-107192914D01*
X179309524Y-107192914D02*
X179214286Y-107240533D01*
%TO.C,R5*%
D11*
X171630000Y-102770000D02*
X174370000Y-102770000D01*
X174370000Y-96230000D01*
X171630000Y-96230000D01*
X171630000Y-102770000D01*
X173000000Y-95460000D02*
X173000000Y-96230000D01*
X173000000Y-103540000D02*
X173000000Y-102770000D01*
%TO.C,D2*%
X176000000Y-95730000D02*
X176000000Y-96380000D01*
X177120000Y-96980000D02*
X174880000Y-96980000D01*
X177120000Y-97100000D02*
X174880000Y-97100000D01*
X177120000Y-97220000D02*
X174880000Y-97220000D01*
X176000000Y-101270000D02*
X176000000Y-100620000D01*
X177120000Y-96380000D02*
X174880000Y-96380000D01*
X174880000Y-100620000D01*
X177120000Y-100620000D01*
X177120000Y-96380000D01*
%TO.C,R4*%
X166000000Y-95460000D02*
X166000000Y-96230000D01*
X166000000Y-103540000D02*
X166000000Y-102770000D01*
X167370000Y-96230000D02*
X164630000Y-96230000D01*
X164630000Y-102770000D01*
X167370000Y-102770000D01*
X167370000Y-96230000D01*
%TO.C,R3*%
X162500000Y-103540000D02*
X162500000Y-102770000D01*
X162500000Y-95460000D02*
X162500000Y-96230000D01*
X161130000Y-102770000D02*
X163870000Y-102770000D01*
X163870000Y-96230000D01*
X161130000Y-96230000D01*
X161130000Y-102770000D01*
%TO.C,R2*%
X123500000Y-97460000D02*
X123500000Y-98230000D01*
X123500000Y-105540000D02*
X123500000Y-104770000D01*
X124870000Y-98230000D02*
X122130000Y-98230000D01*
X122130000Y-104770000D01*
X124870000Y-104770000D01*
X124870000Y-98230000D01*
%TO.C,R1*%
X120000000Y-97460000D02*
X120000000Y-98230000D01*
X120000000Y-105540000D02*
X120000000Y-104770000D01*
X121370000Y-98230000D02*
X118630000Y-98230000D01*
X118630000Y-104770000D01*
X121370000Y-104770000D01*
X121370000Y-98230000D01*
%TO.C,Q1*%
X159530000Y-93650000D02*
X155930000Y-93650000D01*
X159568478Y-93661522D02*
G75*
G02*
X157730000Y-98100001I-1838478J-1838478D01*
G01*
X157730000Y-98100000D02*
G75*
G02*
X155891522Y-93661522I0J2600000D01*
G01*
%TO.C,K1*%
X154497795Y-106320000D02*
X125257795Y-106320000D01*
X154497795Y-100400000D02*
X154497795Y-106320000D01*
X154497795Y-99600000D02*
X154497795Y-93680000D01*
X149337795Y-103750000D02*
X148067795Y-103750000D01*
X149337795Y-102480000D02*
X148067795Y-102480000D01*
X149337795Y-100575000D02*
X146797795Y-99305000D01*
X149337795Y-97400000D02*
X149337795Y-102480000D01*
X148067795Y-103750000D02*
X148067795Y-102480000D01*
X148067795Y-102480000D02*
X146797795Y-102480000D01*
X148067795Y-97400000D02*
X148067795Y-96130000D01*
X148067795Y-96130000D02*
X149337795Y-96130000D01*
X146797795Y-102480000D02*
X146797795Y-97400000D01*
X146797795Y-97400000D02*
X149337795Y-97400000D01*
X125257795Y-104350000D02*
X125257795Y-106320000D01*
X125257795Y-103150000D02*
X125257795Y-96850000D01*
X125257795Y-93680000D02*
X154497795Y-93680000D01*
X125257795Y-93680000D02*
X125257795Y-95650000D01*
X154837206Y-100200000D02*
X154497795Y-100000000D01*
X154837206Y-99800000D01*
X154837206Y-100200000D01*
G36*
X154837206Y-100200000D02*
G01*
X154497795Y-100000000D01*
X154837206Y-99800000D01*
X154837206Y-100200000D01*
G37*
%TO.C,J9*%
X149250000Y-110000000D02*
G75*
G02*
X145750000Y-110000000I-1750000J0D01*
G01*
X145750000Y-110000000D02*
G75*
G02*
X149250000Y-110000000I1750000J0D01*
G01*
%TO.C,J8*%
X154250000Y-110000000D02*
G75*
G02*
X150750000Y-110000000I-1750000J0D01*
G01*
X150750000Y-110000000D02*
G75*
G02*
X154250000Y-110000000I1750000J0D01*
G01*
%TO.C,J6*%
X132250000Y-110000000D02*
G75*
G02*
X128750000Y-110000000I-1750000J0D01*
G01*
X128750000Y-110000000D02*
G75*
G02*
X132250000Y-110000000I1750000J0D01*
G01*
%TO.C,J4*%
X199250000Y-110000000D02*
G75*
G02*
X195750000Y-110000000I-1750000J0D01*
G01*
X195750000Y-110000000D02*
G75*
G02*
X199250000Y-110000000I1750000J0D01*
G01*
%TO.C,J2*%
X104250000Y-110000000D02*
G75*
G02*
X100750000Y-110000000I-1750000J0D01*
G01*
X100750000Y-110000000D02*
G75*
G02*
X104250000Y-110000000I1750000J0D01*
G01*
%TO.C,J1*%
X171250000Y-110000000D02*
G75*
G02*
X167750000Y-110000000I-1750000J0D01*
G01*
X167750000Y-110000000D02*
G75*
G02*
X171250000Y-110000000I1750000J0D01*
G01*
%TO.C,D4*%
X169500000Y-103240000D02*
X169500000Y-102220000D01*
X168030000Y-101440000D02*
X170970000Y-101440000D01*
X168030000Y-101320000D02*
X170970000Y-101320000D01*
X168030000Y-101200000D02*
X170970000Y-101200000D01*
X169500000Y-95760000D02*
X169500000Y-96780000D01*
X168030000Y-102220000D02*
X170970000Y-102220000D01*
X170970000Y-96780000D01*
X168030000Y-96780000D01*
X168030000Y-102220000D01*
%TO.C,D1*%
X158500000Y-108740000D02*
X158500000Y-107720000D01*
X157030000Y-106940000D02*
X159970000Y-106940000D01*
X157030000Y-106820000D02*
X159970000Y-106820000D01*
X157030000Y-106700000D02*
X159970000Y-106700000D01*
X158500000Y-101260000D02*
X158500000Y-102280000D01*
X157030000Y-107720000D02*
X159970000Y-107720000D01*
X159970000Y-102280000D01*
X157030000Y-102280000D01*
X157030000Y-107720000D01*
%TO.C,C6*%
X101547755Y-96445000D02*
X103147755Y-96445000D01*
X102347755Y-95645000D02*
X102347755Y-97245000D01*
X110237246Y-92920000D02*
X110237246Y-109080000D01*
X110277246Y-92920000D02*
X110277246Y-109080000D01*
X110317246Y-92920000D02*
X110317246Y-109080000D01*
X110357246Y-92921000D02*
X110357246Y-109079000D01*
X110397246Y-92922000D02*
X110397246Y-109078000D01*
X110437246Y-92922000D02*
X110437246Y-109078000D01*
X110477246Y-92924000D02*
X110477246Y-109076000D01*
X110517246Y-92925000D02*
X110517246Y-109075000D01*
X110557246Y-92926000D02*
X110557246Y-109074000D01*
X110597246Y-92928000D02*
X110597246Y-109072000D01*
X110637246Y-92930000D02*
X110637246Y-109070000D01*
X110677246Y-92932000D02*
X110677246Y-109068000D01*
X110717246Y-92934000D02*
X110717246Y-109066000D01*
X110757246Y-92937000D02*
X110757246Y-109063000D01*
X110797246Y-92939000D02*
X110797246Y-109061000D01*
X110837246Y-92942000D02*
X110837246Y-109058000D01*
X110877246Y-92945000D02*
X110877246Y-109055000D01*
X110917246Y-92949000D02*
X110917246Y-109051000D01*
X110957246Y-92952000D02*
X110957246Y-109048000D01*
X110997246Y-92956000D02*
X110997246Y-109044000D01*
X111037246Y-92960000D02*
X111037246Y-109040000D01*
X111077246Y-92964000D02*
X111077246Y-109036000D01*
X111117246Y-92968000D02*
X111117246Y-109032000D01*
X111157246Y-92972000D02*
X111157246Y-109028000D01*
X111197246Y-92977000D02*
X111197246Y-109023000D01*
X111237246Y-92982000D02*
X111237246Y-109018000D01*
X111277246Y-92987000D02*
X111277246Y-109013000D01*
X111317246Y-92992000D02*
X111317246Y-109008000D01*
X111357246Y-92998000D02*
X111357246Y-109002000D01*
X111397246Y-93003000D02*
X111397246Y-108997000D01*
X111437246Y-93009000D02*
X111437246Y-108991000D01*
X111477246Y-93015000D02*
X111477246Y-108985000D01*
X111517246Y-93022000D02*
X111517246Y-108978000D01*
X111557246Y-93028000D02*
X111557246Y-108972000D01*
X111597246Y-93035000D02*
X111597246Y-108965000D01*
X111637246Y-93042000D02*
X111637246Y-108958000D01*
X111677246Y-93049000D02*
X111677246Y-108951000D01*
X111717246Y-93056000D02*
X111717246Y-108944000D01*
X111757246Y-93064000D02*
X111757246Y-108936000D01*
X111797246Y-93071000D02*
X111797246Y-108929000D01*
X111837246Y-93079000D02*
X111837246Y-108921000D01*
X111877246Y-93087000D02*
X111877246Y-108913000D01*
X111917246Y-93096000D02*
X111917246Y-108904000D01*
X111957246Y-93104000D02*
X111957246Y-108896000D01*
X111997246Y-93113000D02*
X111997246Y-108887000D01*
X112037246Y-93122000D02*
X112037246Y-108878000D01*
X112077246Y-93131000D02*
X112077246Y-108869000D01*
X112117246Y-93141000D02*
X112117246Y-108859000D01*
X112157246Y-93150000D02*
X112157246Y-108850000D01*
X112197246Y-93160000D02*
X112197246Y-108840000D01*
X112237246Y-93170000D02*
X112237246Y-108830000D01*
X112277246Y-93180000D02*
X112277246Y-108820000D01*
X112317246Y-93191000D02*
X112317246Y-108809000D01*
X112357246Y-93202000D02*
X112357246Y-108798000D01*
X112397246Y-93213000D02*
X112397246Y-108787000D01*
X112437246Y-93224000D02*
X112437246Y-108776000D01*
X112477246Y-93235000D02*
X112477246Y-108765000D01*
X112517246Y-93247000D02*
X112517246Y-108753000D01*
X112557246Y-93258000D02*
X112557246Y-99560000D01*
X112557246Y-102440000D02*
X112557246Y-108742000D01*
X112597246Y-93271000D02*
X112597246Y-99560000D01*
X112597246Y-102440000D02*
X112597246Y-108729000D01*
X112637246Y-93283000D02*
X112637246Y-99560000D01*
X112637246Y-102440000D02*
X112637246Y-108717000D01*
X112677246Y-93295000D02*
X112677246Y-99560000D01*
X112677246Y-102440000D02*
X112677246Y-108705000D01*
X112717246Y-93308000D02*
X112717246Y-99560000D01*
X112717246Y-102440000D02*
X112717246Y-108692000D01*
X112757246Y-93321000D02*
X112757246Y-99560000D01*
X112757246Y-102440000D02*
X112757246Y-108679000D01*
X112797246Y-93334000D02*
X112797246Y-99560000D01*
X112797246Y-102440000D02*
X112797246Y-108666000D01*
X112837246Y-93348000D02*
X112837246Y-99560000D01*
X112837246Y-102440000D02*
X112837246Y-108652000D01*
X112877246Y-93361000D02*
X112877246Y-99560000D01*
X112877246Y-102440000D02*
X112877246Y-108639000D01*
X112917246Y-93375000D02*
X112917246Y-99560000D01*
X112917246Y-102440000D02*
X112917246Y-108625000D01*
X112957246Y-93389000D02*
X112957246Y-99560000D01*
X112957246Y-102440000D02*
X112957246Y-108611000D01*
X112997246Y-93403000D02*
X112997246Y-99560000D01*
X112997246Y-102440000D02*
X112997246Y-108597000D01*
X113037246Y-93418000D02*
X113037246Y-99560000D01*
X113037246Y-102440000D02*
X113037246Y-108582000D01*
X113077246Y-93433000D02*
X113077246Y-99560000D01*
X113077246Y-102440000D02*
X113077246Y-108567000D01*
X113117246Y-93448000D02*
X113117246Y-99560000D01*
X113117246Y-102440000D02*
X113117246Y-108552000D01*
X113157246Y-93463000D02*
X113157246Y-99560000D01*
X113157246Y-102440000D02*
X113157246Y-108537000D01*
X113197246Y-93479000D02*
X113197246Y-99560000D01*
X113197246Y-102440000D02*
X113197246Y-108521000D01*
X113237246Y-93495000D02*
X113237246Y-99560000D01*
X113237246Y-102440000D02*
X113237246Y-108505000D01*
X113277246Y-93511000D02*
X113277246Y-99560000D01*
X113277246Y-102440000D02*
X113277246Y-108489000D01*
X113317246Y-93527000D02*
X113317246Y-99560000D01*
X113317246Y-102440000D02*
X113317246Y-108473000D01*
X113357246Y-93543000D02*
X113357246Y-99560000D01*
X113357246Y-102440000D02*
X113357246Y-108457000D01*
X113397246Y-93560000D02*
X113397246Y-99560000D01*
X113397246Y-102440000D02*
X113397246Y-108440000D01*
X113437246Y-93577000D02*
X113437246Y-99560000D01*
X113437246Y-102440000D02*
X113437246Y-108423000D01*
X113477246Y-93594000D02*
X113477246Y-99560000D01*
X113477246Y-102440000D02*
X113477246Y-108406000D01*
X113517246Y-93612000D02*
X113517246Y-99560000D01*
X113517246Y-102440000D02*
X113517246Y-108388000D01*
X113557246Y-93630000D02*
X113557246Y-99560000D01*
X113557246Y-102440000D02*
X113557246Y-108370000D01*
X113597246Y-93648000D02*
X113597246Y-99560000D01*
X113597246Y-102440000D02*
X113597246Y-108352000D01*
X113637246Y-93666000D02*
X113637246Y-99560000D01*
X113637246Y-102440000D02*
X113637246Y-108334000D01*
X113677246Y-93685000D02*
X113677246Y-99560000D01*
X113677246Y-102440000D02*
X113677246Y-108315000D01*
X113717246Y-93704000D02*
X113717246Y-99560000D01*
X113717246Y-102440000D02*
X113717246Y-108296000D01*
X113757246Y-93723000D02*
X113757246Y-99560000D01*
X113757246Y-102440000D02*
X113757246Y-108277000D01*
X113797246Y-93742000D02*
X113797246Y-99560000D01*
X113797246Y-102440000D02*
X113797246Y-108258000D01*
X113837246Y-93762000D02*
X113837246Y-99560000D01*
X113837246Y-102440000D02*
X113837246Y-108238000D01*
X113877246Y-93782000D02*
X113877246Y-99560000D01*
X113877246Y-102440000D02*
X113877246Y-108218000D01*
X113917246Y-93802000D02*
X113917246Y-99560000D01*
X113917246Y-102440000D02*
X113917246Y-108198000D01*
X113957246Y-93822000D02*
X113957246Y-99560000D01*
X113957246Y-102440000D02*
X113957246Y-108178000D01*
X113997246Y-93843000D02*
X113997246Y-99560000D01*
X113997246Y-102440000D02*
X113997246Y-108157000D01*
X114037246Y-93864000D02*
X114037246Y-99560000D01*
X114037246Y-102440000D02*
X114037246Y-108136000D01*
X114077246Y-93885000D02*
X114077246Y-99560000D01*
X114077246Y-102440000D02*
X114077246Y-108115000D01*
X114117246Y-93907000D02*
X114117246Y-99560000D01*
X114117246Y-102440000D02*
X114117246Y-108093000D01*
X114157246Y-93929000D02*
X114157246Y-99560000D01*
X114157246Y-102440000D02*
X114157246Y-108071000D01*
X114197246Y-93951000D02*
X114197246Y-99560000D01*
X114197246Y-102440000D02*
X114197246Y-108049000D01*
X114237246Y-93974000D02*
X114237246Y-99560000D01*
X114237246Y-102440000D02*
X114237246Y-108026000D01*
X114277246Y-93996000D02*
X114277246Y-99560000D01*
X114277246Y-102440000D02*
X114277246Y-108004000D01*
X114317246Y-94019000D02*
X114317246Y-99560000D01*
X114317246Y-102440000D02*
X114317246Y-107981000D01*
X114357246Y-94043000D02*
X114357246Y-99560000D01*
X114357246Y-102440000D02*
X114357246Y-107957000D01*
X114397246Y-94067000D02*
X114397246Y-99560000D01*
X114397246Y-102440000D02*
X114397246Y-107933000D01*
X114437246Y-94091000D02*
X114437246Y-99560000D01*
X114437246Y-102440000D02*
X114437246Y-107909000D01*
X114477246Y-94115000D02*
X114477246Y-99560000D01*
X114477246Y-102440000D02*
X114477246Y-107885000D01*
X114517246Y-94140000D02*
X114517246Y-99560000D01*
X114517246Y-102440000D02*
X114517246Y-107860000D01*
X114557246Y-94165000D02*
X114557246Y-99560000D01*
X114557246Y-102440000D02*
X114557246Y-107835000D01*
X114597246Y-94190000D02*
X114597246Y-99560000D01*
X114597246Y-102440000D02*
X114597246Y-107810000D01*
X114637246Y-94215000D02*
X114637246Y-99560000D01*
X114637246Y-102440000D02*
X114637246Y-107785000D01*
X114677246Y-94241000D02*
X114677246Y-99560000D01*
X114677246Y-102440000D02*
X114677246Y-107759000D01*
X114717246Y-94268000D02*
X114717246Y-99560000D01*
X114717246Y-102440000D02*
X114717246Y-107732000D01*
X114757246Y-94294000D02*
X114757246Y-99560000D01*
X114757246Y-102440000D02*
X114757246Y-107706000D01*
X114797246Y-94321000D02*
X114797246Y-99560000D01*
X114797246Y-102440000D02*
X114797246Y-107679000D01*
X114837246Y-94349000D02*
X114837246Y-99560000D01*
X114837246Y-102440000D02*
X114837246Y-107651000D01*
X114877246Y-94376000D02*
X114877246Y-99560000D01*
X114877246Y-102440000D02*
X114877246Y-107624000D01*
X114917246Y-94404000D02*
X114917246Y-99560000D01*
X114917246Y-102440000D02*
X114917246Y-107596000D01*
X114957246Y-94433000D02*
X114957246Y-99560000D01*
X114957246Y-102440000D02*
X114957246Y-107567000D01*
X114997246Y-94461000D02*
X114997246Y-99560000D01*
X114997246Y-102440000D02*
X114997246Y-107539000D01*
X115037246Y-94491000D02*
X115037246Y-99560000D01*
X115037246Y-102440000D02*
X115037246Y-107509000D01*
X115077246Y-94520000D02*
X115077246Y-99560000D01*
X115077246Y-102440000D02*
X115077246Y-107480000D01*
X115117246Y-94550000D02*
X115117246Y-99560000D01*
X115117246Y-102440000D02*
X115117246Y-107450000D01*
X115157246Y-94580000D02*
X115157246Y-99560000D01*
X115157246Y-102440000D02*
X115157246Y-107420000D01*
X115197246Y-94611000D02*
X115197246Y-99560000D01*
X115197246Y-102440000D02*
X115197246Y-107389000D01*
X115237246Y-94642000D02*
X115237246Y-99560000D01*
X115237246Y-102440000D02*
X115237246Y-107358000D01*
X115277246Y-94673000D02*
X115277246Y-99560000D01*
X115277246Y-102440000D02*
X115277246Y-107327000D01*
X115317246Y-94705000D02*
X115317246Y-99560000D01*
X115317246Y-102440000D02*
X115317246Y-107295000D01*
X115357246Y-94738000D02*
X115357246Y-99560000D01*
X115357246Y-102440000D02*
X115357246Y-107262000D01*
X115397246Y-94770000D02*
X115397246Y-99560000D01*
X115397246Y-102440000D02*
X115397246Y-107230000D01*
X115437246Y-94803000D02*
X115437246Y-107197000D01*
X115477246Y-94837000D02*
X115477246Y-107163000D01*
X115517246Y-94871000D02*
X115517246Y-107129000D01*
X115557246Y-94906000D02*
X115557246Y-107094000D01*
X115597246Y-94940000D02*
X115597246Y-107060000D01*
X115637246Y-94976000D02*
X115637246Y-107024000D01*
X115677246Y-95012000D02*
X115677246Y-106988000D01*
X115717246Y-95048000D02*
X115717246Y-106952000D01*
X115757246Y-95085000D02*
X115757246Y-106915000D01*
X115797246Y-95122000D02*
X115797246Y-106878000D01*
X115837246Y-95160000D02*
X115837246Y-106840000D01*
X115877246Y-95198000D02*
X115877246Y-106802000D01*
X115917246Y-95237000D02*
X115917246Y-106763000D01*
X115957246Y-95277000D02*
X115957246Y-106723000D01*
X115997246Y-95317000D02*
X115997246Y-106683000D01*
X116037246Y-95357000D02*
X116037246Y-106643000D01*
X116077246Y-95398000D02*
X116077246Y-106602000D01*
X116117246Y-95440000D02*
X116117246Y-106560000D01*
X116157246Y-95482000D02*
X116157246Y-106518000D01*
X116197246Y-95525000D02*
X116197246Y-106475000D01*
X116237246Y-95569000D02*
X116237246Y-106431000D01*
X116277246Y-95613000D02*
X116277246Y-106387000D01*
X116317246Y-95658000D02*
X116317246Y-106342000D01*
X116357246Y-95703000D02*
X116357246Y-106297000D01*
X116397246Y-95750000D02*
X116397246Y-106250000D01*
X116437246Y-95796000D02*
X116437246Y-106204000D01*
X116477246Y-95844000D02*
X116477246Y-106156000D01*
X116517246Y-95893000D02*
X116517246Y-106107000D01*
X116557246Y-95942000D02*
X116557246Y-106058000D01*
X116597246Y-95992000D02*
X116597246Y-106008000D01*
X116637246Y-96043000D02*
X116637246Y-105957000D01*
X116677246Y-96094000D02*
X116677246Y-105906000D01*
X116717246Y-96147000D02*
X116717246Y-105853000D01*
X116757246Y-96200000D02*
X116757246Y-105800000D01*
X116797246Y-96255000D02*
X116797246Y-105745000D01*
X116837246Y-96310000D02*
X116837246Y-105690000D01*
X116877246Y-96366000D02*
X116877246Y-105634000D01*
X116917246Y-96424000D02*
X116917246Y-105576000D01*
X116957246Y-96482000D02*
X116957246Y-105518000D01*
X116997246Y-96541000D02*
X116997246Y-105459000D01*
X117037246Y-96602000D02*
X117037246Y-105398000D01*
X117077246Y-96664000D02*
X117077246Y-105336000D01*
X117117246Y-96727000D02*
X117117246Y-105273000D01*
X117157246Y-96792000D02*
X117157246Y-105208000D01*
X117197246Y-96858000D02*
X117197246Y-105142000D01*
X117237246Y-96925000D02*
X117237246Y-105075000D01*
X117277246Y-96994000D02*
X117277246Y-105006000D01*
X117317246Y-97064000D02*
X117317246Y-104936000D01*
X117357246Y-97136000D02*
X117357246Y-104864000D01*
X117397246Y-97210000D02*
X117397246Y-104790000D01*
X117437246Y-97286000D02*
X117437246Y-104714000D01*
X117477246Y-97363000D02*
X117477246Y-104637000D01*
X117517246Y-97443000D02*
X117517246Y-104557000D01*
X117557246Y-97525000D02*
X117557246Y-104475000D01*
X117597246Y-97610000D02*
X117597246Y-104390000D01*
X117637246Y-97697000D02*
X117637246Y-104303000D01*
X117677246Y-97787000D02*
X117677246Y-104213000D01*
X117717246Y-97880000D02*
X117717246Y-104120000D01*
X117757246Y-97977000D02*
X117757246Y-104023000D01*
X117797246Y-98077000D02*
X117797246Y-103923000D01*
X117837246Y-98181000D02*
X117837246Y-103819000D01*
X117877246Y-98290000D02*
X117877246Y-103710000D01*
X117917246Y-98403000D02*
X117917246Y-103597000D01*
X117957246Y-98523000D02*
X117957246Y-103477000D01*
X117997246Y-98649000D02*
X117997246Y-103351000D01*
X118037246Y-98783000D02*
X118037246Y-103217000D01*
X118077246Y-98926000D02*
X118077246Y-103074000D01*
X118117246Y-99080000D02*
X118117246Y-102920000D01*
X118157246Y-99249000D02*
X118157246Y-102751000D01*
X118197246Y-99436000D02*
X118197246Y-102564000D01*
X118237246Y-99649000D02*
X118237246Y-102351000D01*
X118277246Y-99903000D02*
X118277246Y-102097000D01*
X118317246Y-100235000D02*
X118317246Y-101765000D01*
X118357246Y-101000000D02*
G75*
G02*
X102117246Y-101000000I-8120000J0D01*
G01*
X102117246Y-101000000D02*
G75*
G02*
X118357246Y-101000000I8120000J0D01*
G01*
%TO.C,C2*%
X198452246Y-105555000D02*
X196852246Y-105555000D01*
X197652246Y-106355000D02*
X197652246Y-104755000D01*
X189762755Y-109080000D02*
X189762755Y-92920000D01*
X189722755Y-109080000D02*
X189722755Y-92920000D01*
X189682755Y-109080000D02*
X189682755Y-92920000D01*
X189642755Y-109079000D02*
X189642755Y-92921000D01*
X189602755Y-109078000D02*
X189602755Y-92922000D01*
X189562755Y-109078000D02*
X189562755Y-92922000D01*
X189522755Y-109076000D02*
X189522755Y-92924000D01*
X189482755Y-109075000D02*
X189482755Y-92925000D01*
X189442755Y-109074000D02*
X189442755Y-92926000D01*
X189402755Y-109072000D02*
X189402755Y-92928000D01*
X189362755Y-109070000D02*
X189362755Y-92930000D01*
X189322755Y-109068000D02*
X189322755Y-92932000D01*
X189282755Y-109066000D02*
X189282755Y-92934000D01*
X189242755Y-109063000D02*
X189242755Y-92937000D01*
X189202755Y-109061000D02*
X189202755Y-92939000D01*
X189162755Y-109058000D02*
X189162755Y-92942000D01*
X189122755Y-109055000D02*
X189122755Y-92945000D01*
X189082755Y-109051000D02*
X189082755Y-92949000D01*
X189042755Y-109048000D02*
X189042755Y-92952000D01*
X189002755Y-109044000D02*
X189002755Y-92956000D01*
X188962755Y-109040000D02*
X188962755Y-92960000D01*
X188922755Y-109036000D02*
X188922755Y-92964000D01*
X188882755Y-109032000D02*
X188882755Y-92968000D01*
X188842755Y-109028000D02*
X188842755Y-92972000D01*
X188802755Y-109023000D02*
X188802755Y-92977000D01*
X188762755Y-109018000D02*
X188762755Y-92982000D01*
X188722755Y-109013000D02*
X188722755Y-92987000D01*
X188682755Y-109008000D02*
X188682755Y-92992000D01*
X188642755Y-109002000D02*
X188642755Y-92998000D01*
X188602755Y-108997000D02*
X188602755Y-93003000D01*
X188562755Y-108991000D02*
X188562755Y-93009000D01*
X188522755Y-108985000D02*
X188522755Y-93015000D01*
X188482755Y-108978000D02*
X188482755Y-93022000D01*
X188442755Y-108972000D02*
X188442755Y-93028000D01*
X188402755Y-108965000D02*
X188402755Y-93035000D01*
X188362755Y-108958000D02*
X188362755Y-93042000D01*
X188322755Y-108951000D02*
X188322755Y-93049000D01*
X188282755Y-108944000D02*
X188282755Y-93056000D01*
X188242755Y-108936000D02*
X188242755Y-93064000D01*
X188202755Y-108929000D02*
X188202755Y-93071000D01*
X188162755Y-108921000D02*
X188162755Y-93079000D01*
X188122755Y-108913000D02*
X188122755Y-93087000D01*
X188082755Y-108904000D02*
X188082755Y-93096000D01*
X188042755Y-108896000D02*
X188042755Y-93104000D01*
X188002755Y-108887000D02*
X188002755Y-93113000D01*
X187962755Y-108878000D02*
X187962755Y-93122000D01*
X187922755Y-108869000D02*
X187922755Y-93131000D01*
X187882755Y-108859000D02*
X187882755Y-93141000D01*
X187842755Y-108850000D02*
X187842755Y-93150000D01*
X187802755Y-108840000D02*
X187802755Y-93160000D01*
X187762755Y-108830000D02*
X187762755Y-93170000D01*
X187722755Y-108820000D02*
X187722755Y-93180000D01*
X187682755Y-108809000D02*
X187682755Y-93191000D01*
X187642755Y-108798000D02*
X187642755Y-93202000D01*
X187602755Y-108787000D02*
X187602755Y-93213000D01*
X187562755Y-108776000D02*
X187562755Y-93224000D01*
X187522755Y-108765000D02*
X187522755Y-93235000D01*
X187482755Y-108753000D02*
X187482755Y-93247000D01*
X187442755Y-108742000D02*
X187442755Y-102440000D01*
X187442755Y-99560000D02*
X187442755Y-93258000D01*
X187402755Y-108729000D02*
X187402755Y-102440000D01*
X187402755Y-99560000D02*
X187402755Y-93271000D01*
X187362755Y-108717000D02*
X187362755Y-102440000D01*
X187362755Y-99560000D02*
X187362755Y-93283000D01*
X187322755Y-108705000D02*
X187322755Y-102440000D01*
X187322755Y-99560000D02*
X187322755Y-93295000D01*
X187282755Y-108692000D02*
X187282755Y-102440000D01*
X187282755Y-99560000D02*
X187282755Y-93308000D01*
X187242755Y-108679000D02*
X187242755Y-102440000D01*
X187242755Y-99560000D02*
X187242755Y-93321000D01*
X187202755Y-108666000D02*
X187202755Y-102440000D01*
X187202755Y-99560000D02*
X187202755Y-93334000D01*
X187162755Y-108652000D02*
X187162755Y-102440000D01*
X187162755Y-99560000D02*
X187162755Y-93348000D01*
X187122755Y-108639000D02*
X187122755Y-102440000D01*
X187122755Y-99560000D02*
X187122755Y-93361000D01*
X187082755Y-108625000D02*
X187082755Y-102440000D01*
X187082755Y-99560000D02*
X187082755Y-93375000D01*
X187042755Y-108611000D02*
X187042755Y-102440000D01*
X187042755Y-99560000D02*
X187042755Y-93389000D01*
X187002755Y-108597000D02*
X187002755Y-102440000D01*
X187002755Y-99560000D02*
X187002755Y-93403000D01*
X186962755Y-108582000D02*
X186962755Y-102440000D01*
X186962755Y-99560000D02*
X186962755Y-93418000D01*
X186922755Y-108567000D02*
X186922755Y-102440000D01*
X186922755Y-99560000D02*
X186922755Y-93433000D01*
X186882755Y-108552000D02*
X186882755Y-102440000D01*
X186882755Y-99560000D02*
X186882755Y-93448000D01*
X186842755Y-108537000D02*
X186842755Y-102440000D01*
X186842755Y-99560000D02*
X186842755Y-93463000D01*
X186802755Y-108521000D02*
X186802755Y-102440000D01*
X186802755Y-99560000D02*
X186802755Y-93479000D01*
X186762755Y-108505000D02*
X186762755Y-102440000D01*
X186762755Y-99560000D02*
X186762755Y-93495000D01*
X186722755Y-108489000D02*
X186722755Y-102440000D01*
X186722755Y-99560000D02*
X186722755Y-93511000D01*
X186682755Y-108473000D02*
X186682755Y-102440000D01*
X186682755Y-99560000D02*
X186682755Y-93527000D01*
X186642755Y-108457000D02*
X186642755Y-102440000D01*
X186642755Y-99560000D02*
X186642755Y-93543000D01*
X186602755Y-108440000D02*
X186602755Y-102440000D01*
X186602755Y-99560000D02*
X186602755Y-93560000D01*
X186562755Y-108423000D02*
X186562755Y-102440000D01*
X186562755Y-99560000D02*
X186562755Y-93577000D01*
X186522755Y-108406000D02*
X186522755Y-102440000D01*
X186522755Y-99560000D02*
X186522755Y-93594000D01*
X186482755Y-108388000D02*
X186482755Y-102440000D01*
X186482755Y-99560000D02*
X186482755Y-93612000D01*
X186442755Y-108370000D02*
X186442755Y-102440000D01*
X186442755Y-99560000D02*
X186442755Y-93630000D01*
X186402755Y-108352000D02*
X186402755Y-102440000D01*
X186402755Y-99560000D02*
X186402755Y-93648000D01*
X186362755Y-108334000D02*
X186362755Y-102440000D01*
X186362755Y-99560000D02*
X186362755Y-93666000D01*
X186322755Y-108315000D02*
X186322755Y-102440000D01*
X186322755Y-99560000D02*
X186322755Y-93685000D01*
X186282755Y-108296000D02*
X186282755Y-102440000D01*
X186282755Y-99560000D02*
X186282755Y-93704000D01*
X186242755Y-108277000D02*
X186242755Y-102440000D01*
X186242755Y-99560000D02*
X186242755Y-93723000D01*
X186202755Y-108258000D02*
X186202755Y-102440000D01*
X186202755Y-99560000D02*
X186202755Y-93742000D01*
X186162755Y-108238000D02*
X186162755Y-102440000D01*
X186162755Y-99560000D02*
X186162755Y-93762000D01*
X186122755Y-108218000D02*
X186122755Y-102440000D01*
X186122755Y-99560000D02*
X186122755Y-93782000D01*
X186082755Y-108198000D02*
X186082755Y-102440000D01*
X186082755Y-99560000D02*
X186082755Y-93802000D01*
X186042755Y-108178000D02*
X186042755Y-102440000D01*
X186042755Y-99560000D02*
X186042755Y-93822000D01*
X186002755Y-108157000D02*
X186002755Y-102440000D01*
X186002755Y-99560000D02*
X186002755Y-93843000D01*
X185962755Y-108136000D02*
X185962755Y-102440000D01*
X185962755Y-99560000D02*
X185962755Y-93864000D01*
X185922755Y-108115000D02*
X185922755Y-102440000D01*
X185922755Y-99560000D02*
X185922755Y-93885000D01*
X185882755Y-108093000D02*
X185882755Y-102440000D01*
X185882755Y-99560000D02*
X185882755Y-93907000D01*
X185842755Y-108071000D02*
X185842755Y-102440000D01*
X185842755Y-99560000D02*
X185842755Y-93929000D01*
X185802755Y-108049000D02*
X185802755Y-102440000D01*
X185802755Y-99560000D02*
X185802755Y-93951000D01*
X185762755Y-108026000D02*
X185762755Y-102440000D01*
X185762755Y-99560000D02*
X185762755Y-93974000D01*
X185722755Y-108004000D02*
X185722755Y-102440000D01*
X185722755Y-99560000D02*
X185722755Y-93996000D01*
X185682755Y-107981000D02*
X185682755Y-102440000D01*
X185682755Y-99560000D02*
X185682755Y-94019000D01*
X185642755Y-107957000D02*
X185642755Y-102440000D01*
X185642755Y-99560000D02*
X185642755Y-94043000D01*
X185602755Y-107933000D02*
X185602755Y-102440000D01*
X185602755Y-99560000D02*
X185602755Y-94067000D01*
X185562755Y-107909000D02*
X185562755Y-102440000D01*
X185562755Y-99560000D02*
X185562755Y-94091000D01*
X185522755Y-107885000D02*
X185522755Y-102440000D01*
X185522755Y-99560000D02*
X185522755Y-94115000D01*
X185482755Y-107860000D02*
X185482755Y-102440000D01*
X185482755Y-99560000D02*
X185482755Y-94140000D01*
X185442755Y-107835000D02*
X185442755Y-102440000D01*
X185442755Y-99560000D02*
X185442755Y-94165000D01*
X185402755Y-107810000D02*
X185402755Y-102440000D01*
X185402755Y-99560000D02*
X185402755Y-94190000D01*
X185362755Y-107785000D02*
X185362755Y-102440000D01*
X185362755Y-99560000D02*
X185362755Y-94215000D01*
X185322755Y-107759000D02*
X185322755Y-102440000D01*
X185322755Y-99560000D02*
X185322755Y-94241000D01*
X185282755Y-107732000D02*
X185282755Y-102440000D01*
X185282755Y-99560000D02*
X185282755Y-94268000D01*
X185242755Y-107706000D02*
X185242755Y-102440000D01*
X185242755Y-99560000D02*
X185242755Y-94294000D01*
X185202755Y-107679000D02*
X185202755Y-102440000D01*
X185202755Y-99560000D02*
X185202755Y-94321000D01*
X185162755Y-107651000D02*
X185162755Y-102440000D01*
X185162755Y-99560000D02*
X185162755Y-94349000D01*
X185122755Y-107624000D02*
X185122755Y-102440000D01*
X185122755Y-99560000D02*
X185122755Y-94376000D01*
X185082755Y-107596000D02*
X185082755Y-102440000D01*
X185082755Y-99560000D02*
X185082755Y-94404000D01*
X185042755Y-107567000D02*
X185042755Y-102440000D01*
X185042755Y-99560000D02*
X185042755Y-94433000D01*
X185002755Y-107539000D02*
X185002755Y-102440000D01*
X185002755Y-99560000D02*
X185002755Y-94461000D01*
X184962755Y-107509000D02*
X184962755Y-102440000D01*
X184962755Y-99560000D02*
X184962755Y-94491000D01*
X184922755Y-107480000D02*
X184922755Y-102440000D01*
X184922755Y-99560000D02*
X184922755Y-94520000D01*
X184882755Y-107450000D02*
X184882755Y-102440000D01*
X184882755Y-99560000D02*
X184882755Y-94550000D01*
X184842755Y-107420000D02*
X184842755Y-102440000D01*
X184842755Y-99560000D02*
X184842755Y-94580000D01*
X184802755Y-107389000D02*
X184802755Y-102440000D01*
X184802755Y-99560000D02*
X184802755Y-94611000D01*
X184762755Y-107358000D02*
X184762755Y-102440000D01*
X184762755Y-99560000D02*
X184762755Y-94642000D01*
X184722755Y-107327000D02*
X184722755Y-102440000D01*
X184722755Y-99560000D02*
X184722755Y-94673000D01*
X184682755Y-107295000D02*
X184682755Y-102440000D01*
X184682755Y-99560000D02*
X184682755Y-94705000D01*
X184642755Y-107262000D02*
X184642755Y-102440000D01*
X184642755Y-99560000D02*
X184642755Y-94738000D01*
X184602755Y-107230000D02*
X184602755Y-102440000D01*
X184602755Y-99560000D02*
X184602755Y-94770000D01*
X184562755Y-107197000D02*
X184562755Y-94803000D01*
X184522755Y-107163000D02*
X184522755Y-94837000D01*
X184482755Y-107129000D02*
X184482755Y-94871000D01*
X184442755Y-107094000D02*
X184442755Y-94906000D01*
X184402755Y-107060000D02*
X184402755Y-94940000D01*
X184362755Y-107024000D02*
X184362755Y-94976000D01*
X184322755Y-106988000D02*
X184322755Y-95012000D01*
X184282755Y-106952000D02*
X184282755Y-95048000D01*
X184242755Y-106915000D02*
X184242755Y-95085000D01*
X184202755Y-106878000D02*
X184202755Y-95122000D01*
X184162755Y-106840000D02*
X184162755Y-95160000D01*
X184122755Y-106802000D02*
X184122755Y-95198000D01*
X184082755Y-106763000D02*
X184082755Y-95237000D01*
X184042755Y-106723000D02*
X184042755Y-95277000D01*
X184002755Y-106683000D02*
X184002755Y-95317000D01*
X183962755Y-106643000D02*
X183962755Y-95357000D01*
X183922755Y-106602000D02*
X183922755Y-95398000D01*
X183882755Y-106560000D02*
X183882755Y-95440000D01*
X183842755Y-106518000D02*
X183842755Y-95482000D01*
X183802755Y-106475000D02*
X183802755Y-95525000D01*
X183762755Y-106431000D02*
X183762755Y-95569000D01*
X183722755Y-106387000D02*
X183722755Y-95613000D01*
X183682755Y-106342000D02*
X183682755Y-95658000D01*
X183642755Y-106297000D02*
X183642755Y-95703000D01*
X183602755Y-106250000D02*
X183602755Y-95750000D01*
X183562755Y-106204000D02*
X183562755Y-95796000D01*
X183522755Y-106156000D02*
X183522755Y-95844000D01*
X183482755Y-106107000D02*
X183482755Y-95893000D01*
X183442755Y-106058000D02*
X183442755Y-95942000D01*
X183402755Y-106008000D02*
X183402755Y-95992000D01*
X183362755Y-105957000D02*
X183362755Y-96043000D01*
X183322755Y-105906000D02*
X183322755Y-96094000D01*
X183282755Y-105853000D02*
X183282755Y-96147000D01*
X183242755Y-105800000D02*
X183242755Y-96200000D01*
X183202755Y-105745000D02*
X183202755Y-96255000D01*
X183162755Y-105690000D02*
X183162755Y-96310000D01*
X183122755Y-105634000D02*
X183122755Y-96366000D01*
X183082755Y-105576000D02*
X183082755Y-96424000D01*
X183042755Y-105518000D02*
X183042755Y-96482000D01*
X183002755Y-105459000D02*
X183002755Y-96541000D01*
X182962755Y-105398000D02*
X182962755Y-96602000D01*
X182922755Y-105336000D02*
X182922755Y-96664000D01*
X182882755Y-105273000D02*
X182882755Y-96727000D01*
X182842755Y-105208000D02*
X182842755Y-96792000D01*
X182802755Y-105142000D02*
X182802755Y-96858000D01*
X182762755Y-105075000D02*
X182762755Y-96925000D01*
X182722755Y-105006000D02*
X182722755Y-96994000D01*
X182682755Y-104936000D02*
X182682755Y-97064000D01*
X182642755Y-104864000D02*
X182642755Y-97136000D01*
X182602755Y-104790000D02*
X182602755Y-97210000D01*
X182562755Y-104714000D02*
X182562755Y-97286000D01*
X182522755Y-104637000D02*
X182522755Y-97363000D01*
X182482755Y-104557000D02*
X182482755Y-97443000D01*
X182442755Y-104475000D02*
X182442755Y-97525000D01*
X182402755Y-104390000D02*
X182402755Y-97610000D01*
X182362755Y-104303000D02*
X182362755Y-97697000D01*
X182322755Y-104213000D02*
X182322755Y-97787000D01*
X182282755Y-104120000D02*
X182282755Y-97880000D01*
X182242755Y-104023000D02*
X182242755Y-97977000D01*
X182202755Y-103923000D02*
X182202755Y-98077000D01*
X182162755Y-103819000D02*
X182162755Y-98181000D01*
X182122755Y-103710000D02*
X182122755Y-98290000D01*
X182082755Y-103597000D02*
X182082755Y-98403000D01*
X182042755Y-103477000D02*
X182042755Y-98523000D01*
X182002755Y-103351000D02*
X182002755Y-98649000D01*
X181962755Y-103217000D02*
X181962755Y-98783000D01*
X181922755Y-103074000D02*
X181922755Y-98926000D01*
X181882755Y-102920000D02*
X181882755Y-99080000D01*
X181842755Y-102751000D02*
X181842755Y-99249000D01*
X181802755Y-102564000D02*
X181802755Y-99436000D01*
X181762755Y-102351000D02*
X181762755Y-99649000D01*
X181722755Y-102097000D02*
X181722755Y-99903000D01*
X181682755Y-101765000D02*
X181682755Y-100235000D01*
X197882755Y-101000000D02*
G75*
G02*
X181642755Y-101000000I-8120000J0D01*
G01*
X181642755Y-101000000D02*
G75*
G02*
X197882755Y-101000000I8120000J0D01*
G01*
%TO.C,C1*%
X183120000Y-107500000D02*
G75*
G02*
X174880000Y-107500000I-4120000J0D01*
G01*
X174880000Y-107500000D02*
G75*
G02*
X183120000Y-107500000I4120000J0D01*
G01*
%TD*%
%LPC*%
D12*
%TO.C,R5*%
X173000000Y-94420000D03*
X173000000Y-104580000D03*
%TD*%
D13*
%TO.C,H2*%
X98500000Y-102500000D03*
D14*
X98500000Y-102500000D03*
%TD*%
D13*
%TO.C,H1*%
X201500000Y-102500000D03*
D14*
X201500000Y-102500000D03*
%TD*%
D15*
%TO.C,D2*%
X176000000Y-94690000D03*
D12*
X176000000Y-102310000D03*
%TD*%
%TO.C,R4*%
X166000000Y-94420000D03*
X166000000Y-104580000D03*
%TD*%
%TO.C,R3*%
X162500000Y-104580000D03*
X162500000Y-94420000D03*
%TD*%
%TO.C,R2*%
X123500000Y-96420000D03*
X123500000Y-106580000D03*
%TD*%
%TO.C,R1*%
X120000000Y-96420000D03*
X120000000Y-106580000D03*
%TD*%
D16*
%TO.C,Q1*%
X159000000Y-95500000D03*
D17*
X157730000Y-95500000D03*
X156460000Y-95500000D03*
%TD*%
D18*
%TO.C,K1*%
X131877795Y-103750000D03*
X136877795Y-103750000D03*
X126877795Y-103750000D03*
X131877795Y-96250000D03*
X136877795Y-96250000D03*
X126877795Y-96250000D03*
D19*
X151877795Y-103750000D03*
D18*
X151877795Y-96250000D03*
%TD*%
D20*
%TO.C,J9*%
X147500000Y-110000000D03*
%TD*%
%TO.C,J8*%
X152500000Y-110000000D03*
%TD*%
%TO.C,J6*%
X130500000Y-110000000D03*
%TD*%
%TO.C,J4*%
X197500000Y-110000000D03*
%TD*%
%TO.C,J2*%
X102500000Y-110000000D03*
%TD*%
%TO.C,J1*%
X169500000Y-110000000D03*
%TD*%
D21*
%TO.C,D4*%
X169500000Y-104580000D03*
D22*
X169500000Y-94420000D03*
%TD*%
D21*
%TO.C,D1*%
X158500000Y-110080000D03*
D22*
X158500000Y-99920000D03*
%TD*%
D23*
%TO.C,C6*%
X106487246Y-101000000D03*
D24*
X113987246Y-101000000D03*
%TD*%
D25*
%TO.C,C2*%
X193512755Y-101000000D03*
D24*
X186012755Y-101000000D03*
%TD*%
D12*
%TO.C,C1*%
X179000000Y-105750000D03*
X179000000Y-109250000D03*
%TD*%
%LPD*%
M02*
