%TF.GenerationSoftware,KiCad,Pcbnew,9.0.2-9.0.2-0~ubuntu22.04.1*%
%TF.CreationDate,2025-06-09T10:54:35+02:00*%
%TF.ProjectId,safety_board_Rev-A,73616665-7479-45f6-926f-6172645f5265,rev?*%
%TF.SameCoordinates,Original*%
%TF.FileFunction,Legend,Bot*%
%TF.FilePolarity,Positive*%
%FSLAX46Y46*%
G04 Gerber Fmt 4.6, Leading zero omitted, Abs format (unit mm)*
G04 Created by KiCad (PCBNEW 9.0.2-9.0.2-0~ubuntu22.04.1) date 2025-06-09 10:54:35*
%MOMM*%
%LPD*%
G01*
G04 APERTURE LIST*
G04 Aperture macros list*
%AMRoundRect*
0 Rectangle with rounded corners*
0 $1 Rounding radius*
0 $2 $3 $4 $5 $6 $7 $8 $9 X,Y pos of 4 corners*
0 Add a 4 corners polygon primitive as box body*
4,1,4,$2,$3,$4,$5,$6,$7,$8,$9,$2,$3,0*
0 Add four circle primitives for the rounded corners*
1,1,$1+$1,$2,$3*
1,1,$1+$1,$4,$5*
1,1,$1+$1,$6,$7*
1,1,$1+$1,$8,$9*
0 Add four rect primitives between the rounded corners*
20,1,$1+$1,$2,$3,$4,$5,0*
20,1,$1+$1,$4,$5,$6,$7,0*
20,1,$1+$1,$6,$7,$8,$9,0*
20,1,$1+$1,$8,$9,$2,$3,0*%
G04 Aperture macros list end*
%ADD10C,0.150000*%
%ADD11C,1.600000*%
%ADD12C,3.600000*%
%ADD13C,5.600000*%
%ADD14RoundRect,0.250000X-0.550000X0.550000X-0.550000X-0.550000X0.550000X-0.550000X0.550000X0.550000X0*%
%ADD15R,1.050000X1.500000*%
%ADD16O,1.050000X1.500000*%
%ADD17C,2.800000*%
%ADD18RoundRect,0.250000X1.150000X1.150000X-1.150000X1.150000X-1.150000X-1.150000X1.150000X-1.150000X0*%
%ADD19C,3.000000*%
%ADD20RoundRect,0.249999X0.850001X-0.850001X0.850001X0.850001X-0.850001X0.850001X-0.850001X-0.850001X0*%
%ADD21C,2.200000*%
%ADD22RoundRect,0.250001X-0.949999X-0.949999X0.949999X-0.949999X0.949999X0.949999X-0.949999X0.949999X0*%
%ADD23C,2.400000*%
%ADD24RoundRect,0.250001X0.949999X0.949999X-0.949999X0.949999X-0.949999X-0.949999X0.949999X-0.949999X0*%
G04 APERTURE END LIST*
D10*
X149357143Y-99602228D02*
X149214286Y-99649847D01*
X149214286Y-99649847D02*
X148976191Y-99649847D01*
X148976191Y-99649847D02*
X148880953Y-99602228D01*
X148880953Y-99602228D02*
X148833334Y-99554608D01*
X148833334Y-99554608D02*
X148785715Y-99459370D01*
X148785715Y-99459370D02*
X148785715Y-99364132D01*
X148785715Y-99364132D02*
X148833334Y-99268894D01*
X148833334Y-99268894D02*
X148880953Y-99221275D01*
X148880953Y-99221275D02*
X148976191Y-99173656D01*
X148976191Y-99173656D02*
X149166667Y-99126037D01*
X149166667Y-99126037D02*
X149261905Y-99078418D01*
X149261905Y-99078418D02*
X149309524Y-99030799D01*
X149309524Y-99030799D02*
X149357143Y-98935561D01*
X149357143Y-98935561D02*
X149357143Y-98840323D01*
X149357143Y-98840323D02*
X149309524Y-98745085D01*
X149309524Y-98745085D02*
X149261905Y-98697466D01*
X149261905Y-98697466D02*
X149166667Y-98649847D01*
X149166667Y-98649847D02*
X148928572Y-98649847D01*
X148928572Y-98649847D02*
X148785715Y-98697466D01*
X147928572Y-99649847D02*
X147928572Y-99126037D01*
X147928572Y-99126037D02*
X147976191Y-99030799D01*
X147976191Y-99030799D02*
X148071429Y-98983180D01*
X148071429Y-98983180D02*
X148261905Y-98983180D01*
X148261905Y-98983180D02*
X148357143Y-99030799D01*
X147928572Y-99602228D02*
X148023810Y-99649847D01*
X148023810Y-99649847D02*
X148261905Y-99649847D01*
X148261905Y-99649847D02*
X148357143Y-99602228D01*
X148357143Y-99602228D02*
X148404762Y-99506989D01*
X148404762Y-99506989D02*
X148404762Y-99411751D01*
X148404762Y-99411751D02*
X148357143Y-99316513D01*
X148357143Y-99316513D02*
X148261905Y-99268894D01*
X148261905Y-99268894D02*
X148023810Y-99268894D01*
X148023810Y-99268894D02*
X147928572Y-99221275D01*
X147595238Y-98983180D02*
X147214286Y-98983180D01*
X147452381Y-99649847D02*
X147452381Y-98792704D01*
X147452381Y-98792704D02*
X147404762Y-98697466D01*
X147404762Y-98697466D02*
X147309524Y-98649847D01*
X147309524Y-98649847D02*
X147214286Y-98649847D01*
X146500000Y-99602228D02*
X146595238Y-99649847D01*
X146595238Y-99649847D02*
X146785714Y-99649847D01*
X146785714Y-99649847D02*
X146880952Y-99602228D01*
X146880952Y-99602228D02*
X146928571Y-99506989D01*
X146928571Y-99506989D02*
X146928571Y-99126037D01*
X146928571Y-99126037D02*
X146880952Y-99030799D01*
X146880952Y-99030799D02*
X146785714Y-98983180D01*
X146785714Y-98983180D02*
X146595238Y-98983180D01*
X146595238Y-98983180D02*
X146500000Y-99030799D01*
X146500000Y-99030799D02*
X146452381Y-99126037D01*
X146452381Y-99126037D02*
X146452381Y-99221275D01*
X146452381Y-99221275D02*
X146928571Y-99316513D01*
X146166666Y-98983180D02*
X145785714Y-98983180D01*
X146023809Y-98649847D02*
X146023809Y-99506989D01*
X146023809Y-99506989D02*
X145976190Y-99602228D01*
X145976190Y-99602228D02*
X145880952Y-99649847D01*
X145880952Y-99649847D02*
X145785714Y-99649847D01*
X145547618Y-98983180D02*
X145309523Y-99649847D01*
X145071428Y-98983180D02*
X145309523Y-99649847D01*
X145309523Y-99649847D02*
X145404761Y-99887942D01*
X145404761Y-99887942D02*
X145452380Y-99935561D01*
X145452380Y-99935561D02*
X145547618Y-99983180D01*
X144690475Y-99268894D02*
X143928571Y-99268894D01*
X143452380Y-99649847D02*
X143452380Y-98649847D01*
X143452380Y-99030799D02*
X143357142Y-98983180D01*
X143357142Y-98983180D02*
X143166666Y-98983180D01*
X143166666Y-98983180D02*
X143071428Y-99030799D01*
X143071428Y-99030799D02*
X143023809Y-99078418D01*
X143023809Y-99078418D02*
X142976190Y-99173656D01*
X142976190Y-99173656D02*
X142976190Y-99459370D01*
X142976190Y-99459370D02*
X143023809Y-99554608D01*
X143023809Y-99554608D02*
X143071428Y-99602228D01*
X143071428Y-99602228D02*
X143166666Y-99649847D01*
X143166666Y-99649847D02*
X143357142Y-99649847D01*
X143357142Y-99649847D02*
X143452380Y-99602228D01*
X142404761Y-99649847D02*
X142499999Y-99602228D01*
X142499999Y-99602228D02*
X142547618Y-99554608D01*
X142547618Y-99554608D02*
X142595237Y-99459370D01*
X142595237Y-99459370D02*
X142595237Y-99173656D01*
X142595237Y-99173656D02*
X142547618Y-99078418D01*
X142547618Y-99078418D02*
X142499999Y-99030799D01*
X142499999Y-99030799D02*
X142404761Y-98983180D01*
X142404761Y-98983180D02*
X142261904Y-98983180D01*
X142261904Y-98983180D02*
X142166666Y-99030799D01*
X142166666Y-99030799D02*
X142119047Y-99078418D01*
X142119047Y-99078418D02*
X142071428Y-99173656D01*
X142071428Y-99173656D02*
X142071428Y-99459370D01*
X142071428Y-99459370D02*
X142119047Y-99554608D01*
X142119047Y-99554608D02*
X142166666Y-99602228D01*
X142166666Y-99602228D02*
X142261904Y-99649847D01*
X142261904Y-99649847D02*
X142404761Y-99649847D01*
X141214285Y-99649847D02*
X141214285Y-99126037D01*
X141214285Y-99126037D02*
X141261904Y-99030799D01*
X141261904Y-99030799D02*
X141357142Y-98983180D01*
X141357142Y-98983180D02*
X141547618Y-98983180D01*
X141547618Y-98983180D02*
X141642856Y-99030799D01*
X141214285Y-99602228D02*
X141309523Y-99649847D01*
X141309523Y-99649847D02*
X141547618Y-99649847D01*
X141547618Y-99649847D02*
X141642856Y-99602228D01*
X141642856Y-99602228D02*
X141690475Y-99506989D01*
X141690475Y-99506989D02*
X141690475Y-99411751D01*
X141690475Y-99411751D02*
X141642856Y-99316513D01*
X141642856Y-99316513D02*
X141547618Y-99268894D01*
X141547618Y-99268894D02*
X141309523Y-99268894D01*
X141309523Y-99268894D02*
X141214285Y-99221275D01*
X140738094Y-99649847D02*
X140738094Y-98983180D01*
X140738094Y-99173656D02*
X140690475Y-99078418D01*
X140690475Y-99078418D02*
X140642856Y-99030799D01*
X140642856Y-99030799D02*
X140547618Y-98983180D01*
X140547618Y-98983180D02*
X140452380Y-98983180D01*
X139690475Y-99649847D02*
X139690475Y-98649847D01*
X139690475Y-99602228D02*
X139785713Y-99649847D01*
X139785713Y-99649847D02*
X139976189Y-99649847D01*
X139976189Y-99649847D02*
X140071427Y-99602228D01*
X140071427Y-99602228D02*
X140119046Y-99554608D01*
X140119046Y-99554608D02*
X140166665Y-99459370D01*
X140166665Y-99459370D02*
X140166665Y-99173656D01*
X140166665Y-99173656D02*
X140119046Y-99078418D01*
X140119046Y-99078418D02*
X140071427Y-99030799D01*
X140071427Y-99030799D02*
X139976189Y-98983180D01*
X139976189Y-98983180D02*
X139785713Y-98983180D01*
X139785713Y-98983180D02*
X139690475Y-99030799D01*
X145809524Y-101259791D02*
X146142857Y-100783600D01*
X146380952Y-101259791D02*
X146380952Y-100259791D01*
X146380952Y-100259791D02*
X146000000Y-100259791D01*
X146000000Y-100259791D02*
X145904762Y-100307410D01*
X145904762Y-100307410D02*
X145857143Y-100355029D01*
X145857143Y-100355029D02*
X145809524Y-100450267D01*
X145809524Y-100450267D02*
X145809524Y-100593124D01*
X145809524Y-100593124D02*
X145857143Y-100688362D01*
X145857143Y-100688362D02*
X145904762Y-100735981D01*
X145904762Y-100735981D02*
X146000000Y-100783600D01*
X146000000Y-100783600D02*
X146380952Y-100783600D01*
X145000000Y-101212172D02*
X145095238Y-101259791D01*
X145095238Y-101259791D02*
X145285714Y-101259791D01*
X145285714Y-101259791D02*
X145380952Y-101212172D01*
X145380952Y-101212172D02*
X145428571Y-101116933D01*
X145428571Y-101116933D02*
X145428571Y-100735981D01*
X145428571Y-100735981D02*
X145380952Y-100640743D01*
X145380952Y-100640743D02*
X145285714Y-100593124D01*
X145285714Y-100593124D02*
X145095238Y-100593124D01*
X145095238Y-100593124D02*
X145000000Y-100640743D01*
X145000000Y-100640743D02*
X144952381Y-100735981D01*
X144952381Y-100735981D02*
X144952381Y-100831219D01*
X144952381Y-100831219D02*
X145428571Y-100926457D01*
X144619047Y-100593124D02*
X144380952Y-101259791D01*
X144380952Y-101259791D02*
X144142857Y-100593124D01*
X143047618Y-100974076D02*
X142571428Y-100974076D01*
X143142856Y-101259791D02*
X142809523Y-100259791D01*
X142809523Y-100259791D02*
X142476190Y-101259791D01*
%LPC*%
D11*
%TO.C,R5*%
X173000000Y-94420000D03*
X173000000Y-104580000D03*
%TD*%
D12*
%TO.C,H2*%
X98500000Y-102500000D03*
D13*
X98500000Y-102500000D03*
%TD*%
D12*
%TO.C,H1*%
X201500000Y-102500000D03*
D13*
X201500000Y-102500000D03*
%TD*%
D14*
%TO.C,D2*%
X176000000Y-94690000D03*
D11*
X176000000Y-102310000D03*
%TD*%
%TO.C,R4*%
X166000000Y-94420000D03*
X166000000Y-104580000D03*
%TD*%
%TO.C,R3*%
X162500000Y-104580000D03*
X162500000Y-94420000D03*
%TD*%
%TO.C,R2*%
X123500000Y-96420000D03*
X123500000Y-106580000D03*
%TD*%
%TO.C,R1*%
X120000000Y-96420000D03*
X120000000Y-106580000D03*
%TD*%
D15*
%TO.C,Q1*%
X159000000Y-95500000D03*
D16*
X157730000Y-95500000D03*
X156460000Y-95500000D03*
%TD*%
D17*
%TO.C,K1*%
X131877795Y-103750000D03*
X136877795Y-103750000D03*
X126877795Y-103750000D03*
X131877795Y-96250000D03*
X136877795Y-96250000D03*
X126877795Y-96250000D03*
D18*
X151877795Y-103750000D03*
D17*
X151877795Y-96250000D03*
%TD*%
D19*
%TO.C,J9*%
X147500000Y-110000000D03*
%TD*%
%TO.C,J8*%
X152500000Y-110000000D03*
%TD*%
%TO.C,J6*%
X130500000Y-110000000D03*
%TD*%
%TO.C,J4*%
X197500000Y-110000000D03*
%TD*%
%TO.C,J2*%
X102500000Y-110000000D03*
%TD*%
%TO.C,J1*%
X169500000Y-110000000D03*
%TD*%
D20*
%TO.C,D4*%
X169500000Y-104580000D03*
D21*
X169500000Y-94420000D03*
%TD*%
D20*
%TO.C,D1*%
X158500000Y-110080000D03*
D21*
X158500000Y-99920000D03*
%TD*%
D22*
%TO.C,C6*%
X106487246Y-101000000D03*
D23*
X113987246Y-101000000D03*
%TD*%
D24*
%TO.C,C2*%
X193512755Y-101000000D03*
D23*
X186012755Y-101000000D03*
%TD*%
D11*
%TO.C,C1*%
X179000000Y-105750000D03*
X179000000Y-109250000D03*
%TD*%
%LPD*%
M02*
