G04 #@! TF.GenerationSoftware,KiCad,Pcbnew,9.0.2-9.0.2-0~ubuntu22.04.1*
G04 #@! TF.CreationDate,2025-06-09T06:11:19+02:00*
G04 #@! TF.ProjectId,amp_board_Rev-A,616d705f-626f-4617-9264-5f5265762d41,rev?*
G04 #@! TF.SameCoordinates,Original*
G04 #@! TF.FileFunction,Soldermask,Top*
G04 #@! TF.FilePolarity,Negative*
%FSLAX46Y46*%
G04 Gerber Fmt 4.6, Leading zero omitted, Abs format (unit mm)*
G04 Created by KiCad (PCBNEW 9.0.2-9.0.2-0~ubuntu22.04.1) date 2025-06-09 06:11:19*
%MOMM*%
%LPD*%
G01*
G04 APERTURE LIST*
G04 Aperture macros list*
%AMRoundRect*
0 Rectangle with rounded corners*
0 $1 Rounding radius*
0 $2 $3 $4 $5 $6 $7 $8 $9 X,Y pos of 4 corners*
0 Add a 4 corners polygon primitive as box body*
4,1,4,$2,$3,$4,$5,$6,$7,$8,$9,$2,$3,0*
0 Add four circle primitives for the rounded corners*
1,1,$1+$1,$2,$3*
1,1,$1+$1,$4,$5*
1,1,$1+$1,$6,$7*
1,1,$1+$1,$8,$9*
0 Add four rect primitives between the rounded corners*
20,1,$1+$1,$2,$3,$4,$5,0*
20,1,$1+$1,$4,$5,$6,$7,0*
20,1,$1+$1,$6,$7,$8,$9,0*
20,1,$1+$1,$8,$9,$2,$3,0*%
G04 Aperture macros list end*
%ADD10C,2.000000*%
%ADD11O,2.000000X2.000000*%
%ADD12C,1.600000*%
%ADD13R,1.500000X1.500000*%
%ADD14C,1.500000*%
%ADD15C,3.000000*%
%ADD16O,1.600000X1.600000*%
%ADD17C,3.600000*%
%ADD18C,5.600000*%
%ADD19C,2.400000*%
%ADD20R,1.800000X1.710000*%
%ADD21O,1.800000X1.710000*%
%ADD22RoundRect,0.500000X1.350000X-0.500000X1.350000X0.500000X-1.350000X0.500000X-1.350000X-0.500000X0*%
%ADD23RoundRect,0.500000X0.900000X-0.500000X0.900000X0.500000X-0.900000X0.500000X-0.900000X-0.500000X0*%
%ADD24O,2.800000X2.000000*%
%ADD25O,3.700000X2.000000*%
G04 APERTURE END LIST*
D10*
X86000000Y-82500000D03*
D11*
X91080000Y-82500000D03*
D12*
X177000000Y-69500000D03*
X177000000Y-64500000D03*
D13*
X137500000Y-81460000D03*
D14*
X137500000Y-84000000D03*
X137500000Y-86540000D03*
D15*
X154500000Y-102500000D03*
D13*
X88960000Y-76860000D03*
D14*
X91500000Y-76860000D03*
X94040000Y-76860000D03*
D12*
X185250000Y-88500000D03*
X181750000Y-88500000D03*
D13*
X162500000Y-81460000D03*
D14*
X162500000Y-84000000D03*
X162500000Y-86540000D03*
D13*
X187500000Y-70040000D03*
D14*
X187500000Y-67500000D03*
X187500000Y-64960000D03*
D12*
X91500000Y-70500000D03*
X86500000Y-70500000D03*
D13*
X112500000Y-72460000D03*
D14*
X112500000Y-75000000D03*
X112500000Y-77540000D03*
D12*
X166000000Y-72750000D03*
X166000000Y-69250000D03*
X177580000Y-85000000D03*
D16*
X167420000Y-85000000D03*
D13*
X182000000Y-72460000D03*
D14*
X182000000Y-75000000D03*
X182000000Y-77540000D03*
D12*
X173000000Y-74580000D03*
D16*
X173000000Y-64420000D03*
D15*
X81500000Y-62500000D03*
D17*
X150000000Y-64000000D03*
D18*
X150000000Y-64000000D03*
D15*
X195000000Y-102500000D03*
D19*
X197500000Y-96750000D03*
X197500000Y-74250000D03*
D20*
X86500000Y-92720000D03*
D21*
X86500000Y-95000000D03*
X86500000Y-97280000D03*
D15*
X213500000Y-102500000D03*
D13*
X112500000Y-70040000D03*
D14*
X112500000Y-67500000D03*
X112500000Y-64960000D03*
D15*
X81500000Y-82500000D03*
D12*
X102500000Y-87250000D03*
X102500000Y-83750000D03*
D13*
X187500000Y-72460000D03*
D14*
X187500000Y-75000000D03*
X187500000Y-77540000D03*
D15*
X145500000Y-102500000D03*
D13*
X179960000Y-81500000D03*
D14*
X182500000Y-81500000D03*
X185040000Y-81500000D03*
D12*
X174250000Y-99000000D03*
X170750000Y-99000000D03*
X204920000Y-88500000D03*
D16*
X215080000Y-88500000D03*
D12*
X130920000Y-64500000D03*
D16*
X141080000Y-64500000D03*
D12*
X216080000Y-67500000D03*
D16*
X205920000Y-67500000D03*
D15*
X218500000Y-82500000D03*
X154500000Y-98000000D03*
D12*
X190000000Y-93420000D03*
D16*
X190000000Y-103580000D03*
D19*
X116250000Y-99000000D03*
X138750000Y-99000000D03*
D12*
X127000000Y-74580000D03*
D16*
X127000000Y-64420000D03*
D13*
X211040000Y-76500000D03*
D14*
X208500000Y-76500000D03*
X205960000Y-76500000D03*
D12*
X169080000Y-64500000D03*
D16*
X158920000Y-64500000D03*
D13*
X118000000Y-72460000D03*
D14*
X118000000Y-75000000D03*
X118000000Y-77540000D03*
D12*
X171080000Y-78000000D03*
D16*
X160920000Y-78000000D03*
D12*
X122420000Y-85000000D03*
D16*
X132580000Y-85000000D03*
D13*
X118000000Y-70040000D03*
D14*
X118000000Y-67500000D03*
X118000000Y-64960000D03*
D13*
X200000000Y-71540000D03*
D14*
X200000000Y-69000000D03*
X200000000Y-66460000D03*
D15*
X86500000Y-102500000D03*
D13*
X120040000Y-81500000D03*
D14*
X117500000Y-81500000D03*
X114960000Y-81500000D03*
D17*
X207500000Y-95000000D03*
D18*
X207500000Y-95000000D03*
D20*
X213500000Y-97280000D03*
D21*
X213500000Y-95000000D03*
X213500000Y-92720000D03*
D13*
X182000000Y-70040000D03*
D14*
X182000000Y-67500000D03*
X182000000Y-64960000D03*
D12*
X167420000Y-81500000D03*
D16*
X177580000Y-81500000D03*
D12*
X190000000Y-90080000D03*
D16*
X190000000Y-79920000D03*
D12*
X122420000Y-88500000D03*
D16*
X132580000Y-88500000D03*
D15*
X218500000Y-78000000D03*
D12*
X110000000Y-90080000D03*
D16*
X110000000Y-79920000D03*
D15*
X218500000Y-62500000D03*
D12*
X83920000Y-67500000D03*
D16*
X94080000Y-67500000D03*
D15*
X86500000Y-62500000D03*
X100000000Y-102500000D03*
D22*
X154500000Y-94310000D03*
D23*
X154500000Y-87040000D03*
D24*
X154500000Y-77960000D03*
D25*
X154500000Y-70690000D03*
D13*
X100000000Y-71540000D03*
D14*
X100000000Y-69000000D03*
X100000000Y-66460000D03*
D15*
X105000000Y-102500000D03*
D12*
X132580000Y-81500000D03*
D16*
X122420000Y-81500000D03*
D15*
X145500000Y-98000000D03*
D12*
X197500000Y-87250000D03*
X197500000Y-83750000D03*
X106000000Y-66500000D03*
X106000000Y-71500000D03*
X125750000Y-99000000D03*
X129250000Y-99000000D03*
D17*
X92500000Y-95000000D03*
D18*
X92500000Y-95000000D03*
D15*
X213500000Y-62500000D03*
D12*
X123000000Y-69500000D03*
X123000000Y-64500000D03*
D10*
X213915000Y-82500000D03*
D11*
X208835000Y-82500000D03*
D19*
X183750000Y-99000000D03*
X161250000Y-99000000D03*
D15*
X91000000Y-102500000D03*
D12*
X95080000Y-88500000D03*
D16*
X84920000Y-88500000D03*
D12*
X113000000Y-103580000D03*
D16*
X113000000Y-93420000D03*
D15*
X218000000Y-102500000D03*
X200000000Y-102500000D03*
X81500000Y-78000000D03*
D12*
X110000000Y-93420000D03*
D16*
X110000000Y-103580000D03*
D15*
X209000000Y-102500000D03*
D12*
X187000000Y-103580000D03*
D16*
X187000000Y-93420000D03*
D22*
X145500000Y-94310000D03*
D23*
X145500000Y-87040000D03*
D24*
X145500000Y-77960000D03*
D25*
X145500000Y-70690000D03*
D12*
X134000000Y-72750000D03*
X134000000Y-69250000D03*
D15*
X82000000Y-102500000D03*
D12*
X194000000Y-66500000D03*
X194000000Y-71500000D03*
X208500000Y-71000000D03*
X213500000Y-71000000D03*
X177580000Y-88500000D03*
D16*
X167420000Y-88500000D03*
D19*
X102500000Y-96750000D03*
X102500000Y-74250000D03*
D12*
X128920000Y-78000000D03*
D16*
X139080000Y-78000000D03*
D12*
X114750000Y-88500000D03*
X118250000Y-88500000D03*
M02*
