%TF.GenerationSoftware,KiCad,Pcbnew,9.0.2-9.0.2-0~ubuntu22.04.1*%
%TF.CreationDate,2025-06-09T06:11:24+02:00*%
%TF.ProjectId,amp_board_Rev-A,616d705f-626f-4617-9264-5f5265762d41,rev?*%
%TF.SameCoordinates,Original*%
%TF.FileFunction,Drillmap*%
%TF.FilePolarity,Positive*%
%FSLAX45Y45*%
G04 Gerber Fmt 4.5, Leading zero omitted, Abs format (unit mm)*
G04 Created by KiCad (PCBNEW 9.0.2-9.0.2-0~ubuntu22.04.1) date 2025-06-09 06:11:24*
%MOMM*%
%LPD*%
G01*
G04 APERTURE LIST*
%ADD10C,0.050000*%
%ADD11C,0.200000*%
%ADD12C,0.100000*%
%ADD13C,0.102000*%
%ADD14C,0.120000*%
%ADD15C,0.150000*%
%ADD16C,0.320000*%
G04 APERTURE END LIST*
D10*
X22100000Y-10300000D02*
G75*
G02*
X21900000Y-10500000I-200000J0D01*
G01*
X8100000Y-6000000D02*
X15000000Y-6000000D01*
X21900000Y-6000000D02*
G75*
G02*
X22100000Y-6200000I0J-200000D01*
G01*
X21900000Y-10500000D02*
X15000000Y-10500000D01*
X22100000Y-6200000D02*
X22100000Y-10300000D01*
X7900000Y-6200000D02*
X7900000Y-10300000D01*
X15000000Y-6000000D02*
X21900000Y-6000000D01*
X15000000Y-10500000D02*
X8100000Y-10500000D01*
X7900000Y-6200000D02*
G75*
G02*
X8100000Y-6000000I200000J0D01*
G01*
X8100000Y-10500000D02*
G75*
G02*
X7900000Y-10300000I0J200000D01*
G01*
D11*
D12*
X8352000Y-6710000D02*
X8432000Y-6790000D01*
X8432000Y-6710000D02*
X8352000Y-6790000D01*
X8452000Y-8810000D02*
X8532000Y-8890000D01*
X8532000Y-8810000D02*
X8452000Y-8890000D01*
X8610000Y-7010000D02*
X8690000Y-7090000D01*
X8690000Y-7010000D02*
X8610000Y-7090000D01*
X8856000Y-7646000D02*
X8936000Y-7726000D01*
X8936000Y-7646000D02*
X8856000Y-7726000D01*
X9110000Y-7010000D02*
X9190000Y-7090000D01*
X9190000Y-7010000D02*
X9110000Y-7090000D01*
X9110000Y-7646000D02*
X9190000Y-7726000D01*
X9190000Y-7646000D02*
X9110000Y-7726000D01*
X9364000Y-7646000D02*
X9444000Y-7726000D01*
X9444000Y-7646000D02*
X9364000Y-7726000D01*
X9368000Y-6710000D02*
X9448000Y-6790000D01*
X9448000Y-6710000D02*
X9368000Y-6790000D01*
X9468000Y-8810000D02*
X9548000Y-8890000D01*
X9548000Y-8810000D02*
X9468000Y-8890000D01*
X9960000Y-6606000D02*
X10040000Y-6686000D01*
X10040000Y-6606000D02*
X9960000Y-6686000D01*
X9960000Y-6860000D02*
X10040000Y-6940000D01*
X10040000Y-6860000D02*
X9960000Y-6940000D01*
X9960000Y-7114000D02*
X10040000Y-7194000D01*
X10040000Y-7114000D02*
X9960000Y-7194000D01*
X10210000Y-8335000D02*
X10290000Y-8415000D01*
X10290000Y-8335000D02*
X10210000Y-8415000D01*
X10210000Y-8685000D02*
X10290000Y-8765000D01*
X10290000Y-8685000D02*
X10210000Y-8765000D01*
X10560000Y-6610000D02*
X10640000Y-6690000D01*
X10640000Y-6610000D02*
X10560000Y-6690000D01*
X10560000Y-7110000D02*
X10640000Y-7190000D01*
X10640000Y-7110000D02*
X10560000Y-7190000D01*
X10960000Y-7952000D02*
X11040000Y-8032000D01*
X11040000Y-7952000D02*
X10960000Y-8032000D01*
X10960000Y-8968000D02*
X11040000Y-9048000D01*
X11040000Y-8968000D02*
X10960000Y-9048000D01*
X10960000Y-9302000D02*
X11040000Y-9382000D01*
X11040000Y-9302000D02*
X10960000Y-9382000D01*
X10960000Y-10318000D02*
X11040000Y-10398000D01*
X11040000Y-10318000D02*
X10960000Y-10398000D01*
X11210000Y-6456000D02*
X11290000Y-6536000D01*
X11290000Y-6456000D02*
X11210000Y-6536000D01*
X11210000Y-6710000D02*
X11290000Y-6790000D01*
X11290000Y-6710000D02*
X11210000Y-6790000D01*
X11210000Y-6964000D02*
X11290000Y-7044000D01*
X11290000Y-6964000D02*
X11210000Y-7044000D01*
X11210000Y-7206000D02*
X11290000Y-7286000D01*
X11290000Y-7206000D02*
X11210000Y-7286000D01*
X11210000Y-7460000D02*
X11290000Y-7540000D01*
X11290000Y-7460000D02*
X11210000Y-7540000D01*
X11210000Y-7714000D02*
X11290000Y-7794000D01*
X11290000Y-7714000D02*
X11210000Y-7794000D01*
X11260000Y-9302000D02*
X11340000Y-9382000D01*
X11340000Y-9302000D02*
X11260000Y-9382000D01*
X11260000Y-10318000D02*
X11340000Y-10398000D01*
X11340000Y-10318000D02*
X11260000Y-10398000D01*
X11435000Y-8810000D02*
X11515000Y-8890000D01*
X11515000Y-8810000D02*
X11435000Y-8890000D01*
X11456000Y-8110000D02*
X11536000Y-8190000D01*
X11536000Y-8110000D02*
X11456000Y-8190000D01*
X11710000Y-8110000D02*
X11790000Y-8190000D01*
X11790000Y-8110000D02*
X11710000Y-8190000D01*
X11760000Y-6456000D02*
X11840000Y-6536000D01*
X11840000Y-6456000D02*
X11760000Y-6536000D01*
X11760000Y-6710000D02*
X11840000Y-6790000D01*
X11840000Y-6710000D02*
X11760000Y-6790000D01*
X11760000Y-6964000D02*
X11840000Y-7044000D01*
X11840000Y-6964000D02*
X11760000Y-7044000D01*
X11760000Y-7206000D02*
X11840000Y-7286000D01*
X11840000Y-7206000D02*
X11760000Y-7286000D01*
X11760000Y-7460000D02*
X11840000Y-7540000D01*
X11840000Y-7460000D02*
X11760000Y-7540000D01*
X11760000Y-7714000D02*
X11840000Y-7794000D01*
X11840000Y-7714000D02*
X11760000Y-7794000D01*
X11785000Y-8810000D02*
X11865000Y-8890000D01*
X11865000Y-8810000D02*
X11785000Y-8890000D01*
X11964000Y-8110000D02*
X12044000Y-8190000D01*
X12044000Y-8110000D02*
X11964000Y-8190000D01*
X12202000Y-8110000D02*
X12282000Y-8190000D01*
X12282000Y-8110000D02*
X12202000Y-8190000D01*
X12202000Y-8460000D02*
X12282000Y-8540000D01*
X12282000Y-8460000D02*
X12202000Y-8540000D01*
X12202000Y-8810000D02*
X12282000Y-8890000D01*
X12282000Y-8810000D02*
X12202000Y-8890000D01*
X12260000Y-6410000D02*
X12340000Y-6490000D01*
X12340000Y-6410000D02*
X12260000Y-6490000D01*
X12260000Y-6910000D02*
X12340000Y-6990000D01*
X12340000Y-6910000D02*
X12260000Y-6990000D01*
X12535000Y-9860000D02*
X12615000Y-9940000D01*
X12615000Y-9860000D02*
X12535000Y-9940000D01*
X12660000Y-6402000D02*
X12740000Y-6482000D01*
X12740000Y-6402000D02*
X12660000Y-6482000D01*
X12660000Y-7418000D02*
X12740000Y-7498000D01*
X12740000Y-7418000D02*
X12660000Y-7498000D01*
X12852000Y-7760000D02*
X12932000Y-7840000D01*
X12932000Y-7760000D02*
X12852000Y-7840000D01*
X12885000Y-9860000D02*
X12965000Y-9940000D01*
X12965000Y-9860000D02*
X12885000Y-9940000D01*
X13052000Y-6410000D02*
X13132000Y-6490000D01*
X13132000Y-6410000D02*
X13052000Y-6490000D01*
X13218000Y-8110000D02*
X13298000Y-8190000D01*
X13298000Y-8110000D02*
X13218000Y-8190000D01*
X13218000Y-8460000D02*
X13298000Y-8540000D01*
X13298000Y-8460000D02*
X13218000Y-8540000D01*
X13218000Y-8810000D02*
X13298000Y-8890000D01*
X13298000Y-8810000D02*
X13218000Y-8890000D01*
X13360000Y-6885000D02*
X13440000Y-6965000D01*
X13440000Y-6885000D02*
X13360000Y-6965000D01*
X13360000Y-7235000D02*
X13440000Y-7315000D01*
X13440000Y-7235000D02*
X13360000Y-7315000D01*
X13710000Y-8106000D02*
X13790000Y-8186000D01*
X13790000Y-8106000D02*
X13710000Y-8186000D01*
X13710000Y-8360000D02*
X13790000Y-8440000D01*
X13790000Y-8360000D02*
X13710000Y-8440000D01*
X13710000Y-8614000D02*
X13790000Y-8694000D01*
X13790000Y-8614000D02*
X13710000Y-8694000D01*
X13868000Y-7760000D02*
X13948000Y-7840000D01*
X13948000Y-7760000D02*
X13868000Y-7840000D01*
X14068000Y-6410000D02*
X14148000Y-6490000D01*
X14148000Y-6410000D02*
X14068000Y-6490000D01*
X15852000Y-6410000D02*
X15932000Y-6490000D01*
X15932000Y-6410000D02*
X15852000Y-6490000D01*
X16052000Y-7760000D02*
X16132000Y-7840000D01*
X16132000Y-7760000D02*
X16052000Y-7840000D01*
X16210000Y-8106000D02*
X16290000Y-8186000D01*
X16290000Y-8106000D02*
X16210000Y-8186000D01*
X16210000Y-8360000D02*
X16290000Y-8440000D01*
X16290000Y-8360000D02*
X16210000Y-8440000D01*
X16210000Y-8614000D02*
X16290000Y-8694000D01*
X16290000Y-8614000D02*
X16210000Y-8694000D01*
X16560000Y-6885000D02*
X16640000Y-6965000D01*
X16640000Y-6885000D02*
X16560000Y-6965000D01*
X16560000Y-7235000D02*
X16640000Y-7315000D01*
X16640000Y-7235000D02*
X16560000Y-7315000D01*
X16702000Y-8110000D02*
X16782000Y-8190000D01*
X16782000Y-8110000D02*
X16702000Y-8190000D01*
X16702000Y-8460000D02*
X16782000Y-8540000D01*
X16782000Y-8460000D02*
X16702000Y-8540000D01*
X16702000Y-8810000D02*
X16782000Y-8890000D01*
X16782000Y-8810000D02*
X16702000Y-8890000D01*
X16868000Y-6410000D02*
X16948000Y-6490000D01*
X16948000Y-6410000D02*
X16868000Y-6490000D01*
X17035000Y-9860000D02*
X17115000Y-9940000D01*
X17115000Y-9860000D02*
X17035000Y-9940000D01*
X17068000Y-7760000D02*
X17148000Y-7840000D01*
X17148000Y-7760000D02*
X17068000Y-7840000D01*
X17260000Y-6402000D02*
X17340000Y-6482000D01*
X17340000Y-6402000D02*
X17260000Y-6482000D01*
X17260000Y-7418000D02*
X17340000Y-7498000D01*
X17340000Y-7418000D02*
X17260000Y-7498000D01*
X17385000Y-9860000D02*
X17465000Y-9940000D01*
X17465000Y-9860000D02*
X17385000Y-9940000D01*
X17660000Y-6410000D02*
X17740000Y-6490000D01*
X17740000Y-6410000D02*
X17660000Y-6490000D01*
X17660000Y-6910000D02*
X17740000Y-6990000D01*
X17740000Y-6910000D02*
X17660000Y-6990000D01*
X17718000Y-8110000D02*
X17798000Y-8190000D01*
X17798000Y-8110000D02*
X17718000Y-8190000D01*
X17718000Y-8460000D02*
X17798000Y-8540000D01*
X17798000Y-8460000D02*
X17718000Y-8540000D01*
X17718000Y-8810000D02*
X17798000Y-8890000D01*
X17798000Y-8810000D02*
X17718000Y-8890000D01*
X17956000Y-8110000D02*
X18036000Y-8190000D01*
X18036000Y-8110000D02*
X17956000Y-8190000D01*
X18135000Y-8810000D02*
X18215000Y-8890000D01*
X18215000Y-8810000D02*
X18135000Y-8890000D01*
X18160000Y-6456000D02*
X18240000Y-6536000D01*
X18240000Y-6456000D02*
X18160000Y-6536000D01*
X18160000Y-6710000D02*
X18240000Y-6790000D01*
X18240000Y-6710000D02*
X18160000Y-6790000D01*
X18160000Y-6964000D02*
X18240000Y-7044000D01*
X18240000Y-6964000D02*
X18160000Y-7044000D01*
X18160000Y-7206000D02*
X18240000Y-7286000D01*
X18240000Y-7206000D02*
X18160000Y-7286000D01*
X18160000Y-7460000D02*
X18240000Y-7540000D01*
X18240000Y-7460000D02*
X18160000Y-7540000D01*
X18160000Y-7714000D02*
X18240000Y-7794000D01*
X18240000Y-7714000D02*
X18160000Y-7794000D01*
X18210000Y-8110000D02*
X18290000Y-8190000D01*
X18290000Y-8110000D02*
X18210000Y-8190000D01*
X18464000Y-8110000D02*
X18544000Y-8190000D01*
X18544000Y-8110000D02*
X18464000Y-8190000D01*
X18485000Y-8810000D02*
X18565000Y-8890000D01*
X18565000Y-8810000D02*
X18485000Y-8890000D01*
X18660000Y-9302000D02*
X18740000Y-9382000D01*
X18740000Y-9302000D02*
X18660000Y-9382000D01*
X18660000Y-10318000D02*
X18740000Y-10398000D01*
X18740000Y-10318000D02*
X18660000Y-10398000D01*
X18710000Y-6456000D02*
X18790000Y-6536000D01*
X18790000Y-6456000D02*
X18710000Y-6536000D01*
X18710000Y-6710000D02*
X18790000Y-6790000D01*
X18790000Y-6710000D02*
X18710000Y-6790000D01*
X18710000Y-6964000D02*
X18790000Y-7044000D01*
X18790000Y-6964000D02*
X18710000Y-7044000D01*
X18710000Y-7206000D02*
X18790000Y-7286000D01*
X18790000Y-7206000D02*
X18710000Y-7286000D01*
X18710000Y-7460000D02*
X18790000Y-7540000D01*
X18790000Y-7460000D02*
X18710000Y-7540000D01*
X18710000Y-7714000D02*
X18790000Y-7794000D01*
X18790000Y-7714000D02*
X18710000Y-7794000D01*
X18960000Y-7952000D02*
X19040000Y-8032000D01*
X19040000Y-7952000D02*
X18960000Y-8032000D01*
X18960000Y-8968000D02*
X19040000Y-9048000D01*
X19040000Y-8968000D02*
X18960000Y-9048000D01*
X18960000Y-9302000D02*
X19040000Y-9382000D01*
X19040000Y-9302000D02*
X18960000Y-9382000D01*
X18960000Y-10318000D02*
X19040000Y-10398000D01*
X19040000Y-10318000D02*
X18960000Y-10398000D01*
X19360000Y-6610000D02*
X19440000Y-6690000D01*
X19440000Y-6610000D02*
X19360000Y-6690000D01*
X19360000Y-7110000D02*
X19440000Y-7190000D01*
X19440000Y-7110000D02*
X19360000Y-7190000D01*
X19710000Y-8335000D02*
X19790000Y-8415000D01*
X19790000Y-8335000D02*
X19710000Y-8415000D01*
X19710000Y-8685000D02*
X19790000Y-8765000D01*
X19790000Y-8685000D02*
X19710000Y-8765000D01*
X19960000Y-6606000D02*
X20040000Y-6686000D01*
X20040000Y-6606000D02*
X19960000Y-6686000D01*
X19960000Y-6860000D02*
X20040000Y-6940000D01*
X20040000Y-6860000D02*
X19960000Y-6940000D01*
X19960000Y-7114000D02*
X20040000Y-7194000D01*
X20040000Y-7114000D02*
X19960000Y-7194000D01*
X20452000Y-8810000D02*
X20532000Y-8890000D01*
X20532000Y-8810000D02*
X20452000Y-8890000D01*
X20552000Y-6710000D02*
X20632000Y-6790000D01*
X20632000Y-6710000D02*
X20552000Y-6790000D01*
X20556000Y-7610000D02*
X20636000Y-7690000D01*
X20636000Y-7610000D02*
X20556000Y-7690000D01*
X20810000Y-7060000D02*
X20890000Y-7140000D01*
X20890000Y-7060000D02*
X20810000Y-7140000D01*
X20810000Y-7610000D02*
X20890000Y-7690000D01*
X20890000Y-7610000D02*
X20810000Y-7690000D01*
X21064000Y-7610000D02*
X21144000Y-7690000D01*
X21144000Y-7610000D02*
X21064000Y-7690000D01*
X21310000Y-7060000D02*
X21390000Y-7140000D01*
X21390000Y-7060000D02*
X21310000Y-7140000D01*
X21468000Y-8810000D02*
X21548000Y-8890000D01*
X21548000Y-8810000D02*
X21468000Y-8890000D01*
X21568000Y-6710000D02*
X21648000Y-6790000D01*
X21648000Y-6710000D02*
X21568000Y-6790000D01*
X8650000Y-8250000D02*
G75*
G02*
X8550000Y-8250000I-50000J0D01*
G01*
X8550000Y-8250000D02*
G75*
G02*
X8650000Y-8250000I50000J0D01*
G01*
X8700000Y-9272000D02*
G75*
G02*
X8600000Y-9272000I-50000J0D01*
G01*
X8600000Y-9272000D02*
G75*
G02*
X8700000Y-9272000I50000J0D01*
G01*
X8700000Y-9500000D02*
G75*
G02*
X8600000Y-9500000I-50000J0D01*
G01*
X8600000Y-9500000D02*
G75*
G02*
X8700000Y-9500000I50000J0D01*
G01*
X8700000Y-9728000D02*
G75*
G02*
X8600000Y-9728000I-50000J0D01*
G01*
X8600000Y-9728000D02*
G75*
G02*
X8700000Y-9728000I50000J0D01*
G01*
X9158000Y-8250000D02*
G75*
G02*
X9058000Y-8250000I-50000J0D01*
G01*
X9058000Y-8250000D02*
G75*
G02*
X9158000Y-8250000I50000J0D01*
G01*
X20933500Y-8250000D02*
G75*
G02*
X20833500Y-8250000I-50000J0D01*
G01*
X20833500Y-8250000D02*
G75*
G02*
X20933500Y-8250000I50000J0D01*
G01*
X21400000Y-9272000D02*
G75*
G02*
X21300000Y-9272000I-50000J0D01*
G01*
X21300000Y-9272000D02*
G75*
G02*
X21400000Y-9272000I50000J0D01*
G01*
X21400000Y-9500000D02*
G75*
G02*
X21300000Y-9500000I-50000J0D01*
G01*
X21300000Y-9500000D02*
G75*
G02*
X21400000Y-9500000I50000J0D01*
G01*
X21400000Y-9728000D02*
G75*
G02*
X21300000Y-9728000I-50000J0D01*
G01*
X21300000Y-9728000D02*
G75*
G02*
X21400000Y-9728000I50000J0D01*
G01*
X21441500Y-8250000D02*
G75*
G02*
X21341500Y-8250000I-50000J0D01*
G01*
X21341500Y-8250000D02*
G75*
G02*
X21441500Y-8250000I50000J0D01*
G01*
D13*
X14550000Y-7018000D02*
X14550000Y-7120000D01*
X14499000Y-7069000D02*
X14601000Y-7069000D01*
D12*
X14465500Y-7120000D02*
X14634500Y-7120000D01*
X14634500Y-7018000D02*
G75*
G02*
X14634500Y-7120000I0J-51000D01*
G01*
X14634500Y-7018000D02*
X14465500Y-7018000D01*
X14465500Y-7018000D02*
G75*
G03*
X14465500Y-7120000I0J-51000D01*
G01*
D13*
X14550000Y-7745000D02*
X14550000Y-7847000D01*
X14499000Y-7796000D02*
X14601000Y-7796000D01*
D12*
X14507500Y-7847000D02*
X14592500Y-7847000D01*
X14592500Y-7745000D02*
G75*
G02*
X14592500Y-7847000I0J-51000D01*
G01*
X14592500Y-7745000D02*
X14507500Y-7745000D01*
X14507500Y-7745000D02*
G75*
G03*
X14507500Y-7847000I0J-51000D01*
G01*
D13*
X14550000Y-8653000D02*
X14550000Y-8755000D01*
X14499000Y-8704000D02*
X14601000Y-8704000D01*
D12*
X14507500Y-8755000D02*
X14592500Y-8755000D01*
X14592500Y-8653000D02*
G75*
G02*
X14592500Y-8755000I0J-51000D01*
G01*
X14592500Y-8653000D02*
X14507500Y-8653000D01*
X14507500Y-8653000D02*
G75*
G03*
X14507500Y-8755000I0J-51000D01*
G01*
D13*
X14550000Y-9380000D02*
X14550000Y-9482000D01*
X14499000Y-9431000D02*
X14601000Y-9431000D01*
D12*
X14465500Y-9482000D02*
X14634500Y-9482000D01*
X14634500Y-9380000D02*
G75*
G02*
X14634500Y-9482000I0J-51000D01*
G01*
X14634500Y-9380000D02*
X14465500Y-9380000D01*
X14465500Y-9380000D02*
G75*
G03*
X14465500Y-9482000I0J-51000D01*
G01*
D13*
X15450000Y-7018000D02*
X15450000Y-7120000D01*
X15399000Y-7069000D02*
X15501000Y-7069000D01*
D12*
X15365500Y-7120000D02*
X15534500Y-7120000D01*
X15534500Y-7018000D02*
G75*
G02*
X15534500Y-7120000I0J-51000D01*
G01*
X15534500Y-7018000D02*
X15365500Y-7018000D01*
X15365500Y-7018000D02*
G75*
G03*
X15365500Y-7120000I0J-51000D01*
G01*
D13*
X15450000Y-7745000D02*
X15450000Y-7847000D01*
X15399000Y-7796000D02*
X15501000Y-7796000D01*
D12*
X15407500Y-7847000D02*
X15492500Y-7847000D01*
X15492500Y-7745000D02*
G75*
G02*
X15492500Y-7847000I0J-51000D01*
G01*
X15492500Y-7745000D02*
X15407500Y-7745000D01*
X15407500Y-7745000D02*
G75*
G03*
X15407500Y-7847000I0J-51000D01*
G01*
D13*
X15450000Y-8653000D02*
X15450000Y-8755000D01*
X15399000Y-8704000D02*
X15501000Y-8704000D01*
D12*
X15407500Y-8755000D02*
X15492500Y-8755000D01*
X15492500Y-8653000D02*
G75*
G02*
X15492500Y-8755000I0J-51000D01*
G01*
X15492500Y-8653000D02*
X15407500Y-8653000D01*
X15407500Y-8653000D02*
G75*
G03*
X15407500Y-8755000I0J-51000D01*
G01*
D13*
X15450000Y-9380000D02*
X15450000Y-9482000D01*
X15399000Y-9431000D02*
X15501000Y-9431000D01*
D12*
X15365500Y-9482000D02*
X15534500Y-9482000D01*
X15534500Y-9380000D02*
G75*
G02*
X15534500Y-9482000I0J-51000D01*
G01*
X15534500Y-9380000D02*
X15365500Y-9380000D01*
X15365500Y-9380000D02*
G75*
G03*
X15365500Y-9482000I0J-51000D01*
G01*
D14*
X10292427Y-7467427D02*
X10292427Y-7382573D01*
X10207573Y-7382573D01*
X10207573Y-7467427D01*
X10292427Y-7467427D01*
X10292427Y-9717427D02*
X10292427Y-9632573D01*
X10207573Y-9632573D01*
X10207573Y-9717427D01*
X10292427Y-9717427D01*
X11667427Y-9942427D02*
X11667427Y-9857573D01*
X11582573Y-9857573D01*
X11582573Y-9942427D01*
X11667427Y-9942427D01*
X13917427Y-9942427D02*
X13917427Y-9857573D01*
X13832573Y-9857573D01*
X13832573Y-9942427D01*
X13917427Y-9942427D01*
X16167427Y-9942427D02*
X16167427Y-9857573D01*
X16082573Y-9857573D01*
X16082573Y-9942427D01*
X16167427Y-9942427D01*
X18417427Y-9942427D02*
X18417427Y-9857573D01*
X18332573Y-9857573D01*
X18332573Y-9942427D01*
X18417427Y-9942427D01*
X19792427Y-7467427D02*
X19792427Y-7382573D01*
X19707573Y-7382573D01*
X19707573Y-7467427D01*
X19792427Y-7467427D01*
X19792427Y-9717427D02*
X19792427Y-9632573D01*
X19707573Y-9632573D01*
X19707573Y-9717427D01*
X19792427Y-9717427D01*
D15*
X8150000Y-6325000D02*
X8225000Y-6250000D01*
X8150000Y-6175000D01*
X8075000Y-6250000D01*
X8150000Y-6325000D01*
X8150000Y-7875000D02*
X8225000Y-7800000D01*
X8150000Y-7725000D01*
X8075000Y-7800000D01*
X8150000Y-7875000D01*
X8150000Y-8325000D02*
X8225000Y-8250000D01*
X8150000Y-8175000D01*
X8075000Y-8250000D01*
X8150000Y-8325000D01*
X8200000Y-10325000D02*
X8275000Y-10250000D01*
X8200000Y-10175000D01*
X8125000Y-10250000D01*
X8200000Y-10325000D01*
X8650000Y-6325000D02*
X8725000Y-6250000D01*
X8650000Y-6175000D01*
X8575000Y-6250000D01*
X8650000Y-6325000D01*
X8650000Y-10325000D02*
X8725000Y-10250000D01*
X8650000Y-10175000D01*
X8575000Y-10250000D01*
X8650000Y-10325000D01*
X9100000Y-10325000D02*
X9175000Y-10250000D01*
X9100000Y-10175000D01*
X9025000Y-10250000D01*
X9100000Y-10325000D01*
X10000000Y-10325000D02*
X10075000Y-10250000D01*
X10000000Y-10175000D01*
X9925000Y-10250000D01*
X10000000Y-10325000D01*
X10500000Y-10325000D02*
X10575000Y-10250000D01*
X10500000Y-10175000D01*
X10425000Y-10250000D01*
X10500000Y-10325000D01*
X14550000Y-9875000D02*
X14625000Y-9800000D01*
X14550000Y-9725000D01*
X14475000Y-9800000D01*
X14550000Y-9875000D01*
X14550000Y-10325000D02*
X14625000Y-10250000D01*
X14550000Y-10175000D01*
X14475000Y-10250000D01*
X14550000Y-10325000D01*
X15450000Y-9875000D02*
X15525000Y-9800000D01*
X15450000Y-9725000D01*
X15375000Y-9800000D01*
X15450000Y-9875000D01*
X15450000Y-10325000D02*
X15525000Y-10250000D01*
X15450000Y-10175000D01*
X15375000Y-10250000D01*
X15450000Y-10325000D01*
X19500000Y-10325000D02*
X19575000Y-10250000D01*
X19500000Y-10175000D01*
X19425000Y-10250000D01*
X19500000Y-10325000D01*
X20000000Y-10325000D02*
X20075000Y-10250000D01*
X20000000Y-10175000D01*
X19925000Y-10250000D01*
X20000000Y-10325000D01*
X20900000Y-10325000D02*
X20975000Y-10250000D01*
X20900000Y-10175000D01*
X20825000Y-10250000D01*
X20900000Y-10325000D01*
X21350000Y-6325000D02*
X21425000Y-6250000D01*
X21350000Y-6175000D01*
X21275000Y-6250000D01*
X21350000Y-6325000D01*
X21350000Y-10325000D02*
X21425000Y-10250000D01*
X21350000Y-10175000D01*
X21275000Y-10250000D01*
X21350000Y-10325000D01*
X21800000Y-10325000D02*
X21875000Y-10250000D01*
X21800000Y-10175000D01*
X21725000Y-10250000D01*
X21800000Y-10325000D01*
X21850000Y-6325000D02*
X21925000Y-6250000D01*
X21850000Y-6175000D01*
X21775000Y-6250000D01*
X21850000Y-6325000D01*
X21850000Y-7875000D02*
X21925000Y-7800000D01*
X21850000Y-7725000D01*
X21775000Y-7800000D01*
X21850000Y-7875000D01*
X21850000Y-8325000D02*
X21925000Y-8250000D01*
X21850000Y-8175000D01*
X21775000Y-8250000D01*
X21850000Y-8325000D01*
D16*
X9090000Y-9340000D02*
X9410000Y-9660000D01*
X9410000Y-9340000D02*
X9090000Y-9660000D01*
X9410000Y-9500000D02*
G75*
G02*
X9090000Y-9500000I-160000J0D01*
G01*
X9090000Y-9500000D02*
G75*
G02*
X9410000Y-9500000I160000J0D01*
G01*
X14840000Y-6240000D02*
X15160000Y-6560000D01*
X15160000Y-6240000D02*
X14840000Y-6560000D01*
X15160000Y-6400000D02*
G75*
G02*
X14840000Y-6400000I-160000J0D01*
G01*
X14840000Y-6400000D02*
G75*
G02*
X15160000Y-6400000I160000J0D01*
G01*
X20590000Y-9340000D02*
X20910000Y-9660000D01*
X20910000Y-9340000D02*
X20590000Y-9660000D01*
X20910000Y-9500000D02*
G75*
G02*
X20590000Y-9500000I-160000J0D01*
G01*
X20590000Y-9500000D02*
G75*
G02*
X20910000Y-9500000I160000J0D01*
G01*
D11*
X8158277Y-10813984D02*
X8158277Y-10613984D01*
X8158277Y-10613984D02*
X8205896Y-10613984D01*
X8205896Y-10613984D02*
X8234467Y-10623508D01*
X8234467Y-10623508D02*
X8253515Y-10642555D01*
X8253515Y-10642555D02*
X8263039Y-10661603D01*
X8263039Y-10661603D02*
X8272562Y-10699698D01*
X8272562Y-10699698D02*
X8272562Y-10728270D01*
X8272562Y-10728270D02*
X8263039Y-10766365D01*
X8263039Y-10766365D02*
X8253515Y-10785412D01*
X8253515Y-10785412D02*
X8234467Y-10804460D01*
X8234467Y-10804460D02*
X8205896Y-10813984D01*
X8205896Y-10813984D02*
X8158277Y-10813984D01*
X8358277Y-10813984D02*
X8358277Y-10680650D01*
X8358277Y-10718746D02*
X8367801Y-10699698D01*
X8367801Y-10699698D02*
X8377324Y-10690174D01*
X8377324Y-10690174D02*
X8396372Y-10680650D01*
X8396372Y-10680650D02*
X8415420Y-10680650D01*
X8482086Y-10813984D02*
X8482086Y-10680650D01*
X8482086Y-10613984D02*
X8472563Y-10623508D01*
X8472563Y-10623508D02*
X8482086Y-10633031D01*
X8482086Y-10633031D02*
X8491610Y-10623508D01*
X8491610Y-10623508D02*
X8482086Y-10613984D01*
X8482086Y-10613984D02*
X8482086Y-10633031D01*
X8605896Y-10813984D02*
X8586848Y-10804460D01*
X8586848Y-10804460D02*
X8577324Y-10785412D01*
X8577324Y-10785412D02*
X8577324Y-10613984D01*
X8710658Y-10813984D02*
X8691610Y-10804460D01*
X8691610Y-10804460D02*
X8682086Y-10785412D01*
X8682086Y-10785412D02*
X8682086Y-10613984D01*
X8939229Y-10813984D02*
X8939229Y-10613984D01*
X8939229Y-10613984D02*
X9005896Y-10756841D01*
X9005896Y-10756841D02*
X9072563Y-10613984D01*
X9072563Y-10613984D02*
X9072563Y-10813984D01*
X9253515Y-10813984D02*
X9253515Y-10709222D01*
X9253515Y-10709222D02*
X9243991Y-10690174D01*
X9243991Y-10690174D02*
X9224944Y-10680650D01*
X9224944Y-10680650D02*
X9186848Y-10680650D01*
X9186848Y-10680650D02*
X9167801Y-10690174D01*
X9253515Y-10804460D02*
X9234467Y-10813984D01*
X9234467Y-10813984D02*
X9186848Y-10813984D01*
X9186848Y-10813984D02*
X9167801Y-10804460D01*
X9167801Y-10804460D02*
X9158277Y-10785412D01*
X9158277Y-10785412D02*
X9158277Y-10766365D01*
X9158277Y-10766365D02*
X9167801Y-10747317D01*
X9167801Y-10747317D02*
X9186848Y-10737793D01*
X9186848Y-10737793D02*
X9234467Y-10737793D01*
X9234467Y-10737793D02*
X9253515Y-10728270D01*
X9348753Y-10680650D02*
X9348753Y-10880650D01*
X9348753Y-10690174D02*
X9367801Y-10680650D01*
X9367801Y-10680650D02*
X9405896Y-10680650D01*
X9405896Y-10680650D02*
X9424944Y-10690174D01*
X9424944Y-10690174D02*
X9434467Y-10699698D01*
X9434467Y-10699698D02*
X9443991Y-10718746D01*
X9443991Y-10718746D02*
X9443991Y-10775889D01*
X9443991Y-10775889D02*
X9434467Y-10794936D01*
X9434467Y-10794936D02*
X9424944Y-10804460D01*
X9424944Y-10804460D02*
X9405896Y-10813984D01*
X9405896Y-10813984D02*
X9367801Y-10813984D01*
X9367801Y-10813984D02*
X9348753Y-10804460D01*
X9529705Y-10794936D02*
X9539229Y-10804460D01*
X9539229Y-10804460D02*
X9529705Y-10813984D01*
X9529705Y-10813984D02*
X9520182Y-10804460D01*
X9520182Y-10804460D02*
X9529705Y-10794936D01*
X9529705Y-10794936D02*
X9529705Y-10813984D01*
X9529705Y-10690174D02*
X9539229Y-10699698D01*
X9539229Y-10699698D02*
X9529705Y-10709222D01*
X9529705Y-10709222D02*
X9520182Y-10699698D01*
X9520182Y-10699698D02*
X9529705Y-10690174D01*
X9529705Y-10690174D02*
X9529705Y-10709222D01*
D12*
X7817500Y-11102500D02*
X7897500Y-11182500D01*
X7897500Y-11102500D02*
X7817500Y-11182500D01*
D11*
X8196372Y-11033984D02*
X8215420Y-11033984D01*
X8215420Y-11033984D02*
X8234467Y-11043508D01*
X8234467Y-11043508D02*
X8243991Y-11053031D01*
X8243991Y-11053031D02*
X8253515Y-11072079D01*
X8253515Y-11072079D02*
X8263039Y-11110174D01*
X8263039Y-11110174D02*
X8263039Y-11157793D01*
X8263039Y-11157793D02*
X8253515Y-11195888D01*
X8253515Y-11195888D02*
X8243991Y-11214936D01*
X8243991Y-11214936D02*
X8234467Y-11224460D01*
X8234467Y-11224460D02*
X8215420Y-11233984D01*
X8215420Y-11233984D02*
X8196372Y-11233984D01*
X8196372Y-11233984D02*
X8177324Y-11224460D01*
X8177324Y-11224460D02*
X8167801Y-11214936D01*
X8167801Y-11214936D02*
X8158277Y-11195888D01*
X8158277Y-11195888D02*
X8148753Y-11157793D01*
X8148753Y-11157793D02*
X8148753Y-11110174D01*
X8148753Y-11110174D02*
X8158277Y-11072079D01*
X8158277Y-11072079D02*
X8167801Y-11053031D01*
X8167801Y-11053031D02*
X8177324Y-11043508D01*
X8177324Y-11043508D02*
X8196372Y-11033984D01*
X8348753Y-11214936D02*
X8358277Y-11224460D01*
X8358277Y-11224460D02*
X8348753Y-11233984D01*
X8348753Y-11233984D02*
X8339229Y-11224460D01*
X8339229Y-11224460D02*
X8348753Y-11214936D01*
X8348753Y-11214936D02*
X8348753Y-11233984D01*
X8472563Y-11119698D02*
X8453515Y-11110174D01*
X8453515Y-11110174D02*
X8443991Y-11100650D01*
X8443991Y-11100650D02*
X8434467Y-11081603D01*
X8434467Y-11081603D02*
X8434467Y-11072079D01*
X8434467Y-11072079D02*
X8443991Y-11053031D01*
X8443991Y-11053031D02*
X8453515Y-11043508D01*
X8453515Y-11043508D02*
X8472563Y-11033984D01*
X8472563Y-11033984D02*
X8510658Y-11033984D01*
X8510658Y-11033984D02*
X8529705Y-11043508D01*
X8529705Y-11043508D02*
X8539229Y-11053031D01*
X8539229Y-11053031D02*
X8548753Y-11072079D01*
X8548753Y-11072079D02*
X8548753Y-11081603D01*
X8548753Y-11081603D02*
X8539229Y-11100650D01*
X8539229Y-11100650D02*
X8529705Y-11110174D01*
X8529705Y-11110174D02*
X8510658Y-11119698D01*
X8510658Y-11119698D02*
X8472563Y-11119698D01*
X8472563Y-11119698D02*
X8453515Y-11129222D01*
X8453515Y-11129222D02*
X8443991Y-11138746D01*
X8443991Y-11138746D02*
X8434467Y-11157793D01*
X8434467Y-11157793D02*
X8434467Y-11195888D01*
X8434467Y-11195888D02*
X8443991Y-11214936D01*
X8443991Y-11214936D02*
X8453515Y-11224460D01*
X8453515Y-11224460D02*
X8472563Y-11233984D01*
X8472563Y-11233984D02*
X8510658Y-11233984D01*
X8510658Y-11233984D02*
X8529705Y-11224460D01*
X8529705Y-11224460D02*
X8539229Y-11214936D01*
X8539229Y-11214936D02*
X8548753Y-11195888D01*
X8548753Y-11195888D02*
X8548753Y-11157793D01*
X8548753Y-11157793D02*
X8539229Y-11138746D01*
X8539229Y-11138746D02*
X8529705Y-11129222D01*
X8529705Y-11129222D02*
X8510658Y-11119698D01*
X8672563Y-11033984D02*
X8691610Y-11033984D01*
X8691610Y-11033984D02*
X8710658Y-11043508D01*
X8710658Y-11043508D02*
X8720182Y-11053031D01*
X8720182Y-11053031D02*
X8729705Y-11072079D01*
X8729705Y-11072079D02*
X8739229Y-11110174D01*
X8739229Y-11110174D02*
X8739229Y-11157793D01*
X8739229Y-11157793D02*
X8729705Y-11195888D01*
X8729705Y-11195888D02*
X8720182Y-11214936D01*
X8720182Y-11214936D02*
X8710658Y-11224460D01*
X8710658Y-11224460D02*
X8691610Y-11233984D01*
X8691610Y-11233984D02*
X8672563Y-11233984D01*
X8672563Y-11233984D02*
X8653515Y-11224460D01*
X8653515Y-11224460D02*
X8643991Y-11214936D01*
X8643991Y-11214936D02*
X8634467Y-11195888D01*
X8634467Y-11195888D02*
X8624944Y-11157793D01*
X8624944Y-11157793D02*
X8624944Y-11110174D01*
X8624944Y-11110174D02*
X8634467Y-11072079D01*
X8634467Y-11072079D02*
X8643991Y-11053031D01*
X8643991Y-11053031D02*
X8653515Y-11043508D01*
X8653515Y-11043508D02*
X8672563Y-11033984D01*
X8863039Y-11033984D02*
X8882086Y-11033984D01*
X8882086Y-11033984D02*
X8901134Y-11043508D01*
X8901134Y-11043508D02*
X8910658Y-11053031D01*
X8910658Y-11053031D02*
X8920182Y-11072079D01*
X8920182Y-11072079D02*
X8929705Y-11110174D01*
X8929705Y-11110174D02*
X8929705Y-11157793D01*
X8929705Y-11157793D02*
X8920182Y-11195888D01*
X8920182Y-11195888D02*
X8910658Y-11214936D01*
X8910658Y-11214936D02*
X8901134Y-11224460D01*
X8901134Y-11224460D02*
X8882086Y-11233984D01*
X8882086Y-11233984D02*
X8863039Y-11233984D01*
X8863039Y-11233984D02*
X8843991Y-11224460D01*
X8843991Y-11224460D02*
X8834467Y-11214936D01*
X8834467Y-11214936D02*
X8824944Y-11195888D01*
X8824944Y-11195888D02*
X8815420Y-11157793D01*
X8815420Y-11157793D02*
X8815420Y-11110174D01*
X8815420Y-11110174D02*
X8824944Y-11072079D01*
X8824944Y-11072079D02*
X8834467Y-11053031D01*
X8834467Y-11053031D02*
X8843991Y-11043508D01*
X8843991Y-11043508D02*
X8863039Y-11033984D01*
X9015420Y-11233984D02*
X9015420Y-11100650D01*
X9015420Y-11119698D02*
X9024944Y-11110174D01*
X9024944Y-11110174D02*
X9043991Y-11100650D01*
X9043991Y-11100650D02*
X9072563Y-11100650D01*
X9072563Y-11100650D02*
X9091610Y-11110174D01*
X9091610Y-11110174D02*
X9101134Y-11129222D01*
X9101134Y-11129222D02*
X9101134Y-11233984D01*
X9101134Y-11129222D02*
X9110658Y-11110174D01*
X9110658Y-11110174D02*
X9129705Y-11100650D01*
X9129705Y-11100650D02*
X9158277Y-11100650D01*
X9158277Y-11100650D02*
X9177325Y-11110174D01*
X9177325Y-11110174D02*
X9186848Y-11129222D01*
X9186848Y-11129222D02*
X9186848Y-11233984D01*
X9282086Y-11233984D02*
X9282086Y-11100650D01*
X9282086Y-11119698D02*
X9291610Y-11110174D01*
X9291610Y-11110174D02*
X9310658Y-11100650D01*
X9310658Y-11100650D02*
X9339229Y-11100650D01*
X9339229Y-11100650D02*
X9358277Y-11110174D01*
X9358277Y-11110174D02*
X9367801Y-11129222D01*
X9367801Y-11129222D02*
X9367801Y-11233984D01*
X9367801Y-11129222D02*
X9377325Y-11110174D01*
X9377325Y-11110174D02*
X9396372Y-11100650D01*
X9396372Y-11100650D02*
X9424944Y-11100650D01*
X9424944Y-11100650D02*
X9443991Y-11110174D01*
X9443991Y-11110174D02*
X9453515Y-11129222D01*
X9453515Y-11129222D02*
X9453515Y-11233984D01*
X9843991Y-11024460D02*
X9672563Y-11281603D01*
X10101134Y-11033984D02*
X10120182Y-11033984D01*
X10120182Y-11033984D02*
X10139229Y-11043508D01*
X10139229Y-11043508D02*
X10148753Y-11053031D01*
X10148753Y-11053031D02*
X10158277Y-11072079D01*
X10158277Y-11072079D02*
X10167801Y-11110174D01*
X10167801Y-11110174D02*
X10167801Y-11157793D01*
X10167801Y-11157793D02*
X10158277Y-11195888D01*
X10158277Y-11195888D02*
X10148753Y-11214936D01*
X10148753Y-11214936D02*
X10139229Y-11224460D01*
X10139229Y-11224460D02*
X10120182Y-11233984D01*
X10120182Y-11233984D02*
X10101134Y-11233984D01*
X10101134Y-11233984D02*
X10082087Y-11224460D01*
X10082087Y-11224460D02*
X10072563Y-11214936D01*
X10072563Y-11214936D02*
X10063039Y-11195888D01*
X10063039Y-11195888D02*
X10053515Y-11157793D01*
X10053515Y-11157793D02*
X10053515Y-11110174D01*
X10053515Y-11110174D02*
X10063039Y-11072079D01*
X10063039Y-11072079D02*
X10072563Y-11053031D01*
X10072563Y-11053031D02*
X10082087Y-11043508D01*
X10082087Y-11043508D02*
X10101134Y-11033984D01*
X10253515Y-11214936D02*
X10263039Y-11224460D01*
X10263039Y-11224460D02*
X10253515Y-11233984D01*
X10253515Y-11233984D02*
X10243991Y-11224460D01*
X10243991Y-11224460D02*
X10253515Y-11214936D01*
X10253515Y-11214936D02*
X10253515Y-11233984D01*
X10386848Y-11033984D02*
X10405896Y-11033984D01*
X10405896Y-11033984D02*
X10424944Y-11043508D01*
X10424944Y-11043508D02*
X10434468Y-11053031D01*
X10434468Y-11053031D02*
X10443991Y-11072079D01*
X10443991Y-11072079D02*
X10453515Y-11110174D01*
X10453515Y-11110174D02*
X10453515Y-11157793D01*
X10453515Y-11157793D02*
X10443991Y-11195888D01*
X10443991Y-11195888D02*
X10434468Y-11214936D01*
X10434468Y-11214936D02*
X10424944Y-11224460D01*
X10424944Y-11224460D02*
X10405896Y-11233984D01*
X10405896Y-11233984D02*
X10386848Y-11233984D01*
X10386848Y-11233984D02*
X10367801Y-11224460D01*
X10367801Y-11224460D02*
X10358277Y-11214936D01*
X10358277Y-11214936D02*
X10348753Y-11195888D01*
X10348753Y-11195888D02*
X10339229Y-11157793D01*
X10339229Y-11157793D02*
X10339229Y-11110174D01*
X10339229Y-11110174D02*
X10348753Y-11072079D01*
X10348753Y-11072079D02*
X10358277Y-11053031D01*
X10358277Y-11053031D02*
X10367801Y-11043508D01*
X10367801Y-11043508D02*
X10386848Y-11033984D01*
X10520182Y-11033984D02*
X10643991Y-11033984D01*
X10643991Y-11033984D02*
X10577325Y-11110174D01*
X10577325Y-11110174D02*
X10605896Y-11110174D01*
X10605896Y-11110174D02*
X10624944Y-11119698D01*
X10624944Y-11119698D02*
X10634468Y-11129222D01*
X10634468Y-11129222D02*
X10643991Y-11148270D01*
X10643991Y-11148270D02*
X10643991Y-11195888D01*
X10643991Y-11195888D02*
X10634468Y-11214936D01*
X10634468Y-11214936D02*
X10624944Y-11224460D01*
X10624944Y-11224460D02*
X10605896Y-11233984D01*
X10605896Y-11233984D02*
X10548753Y-11233984D01*
X10548753Y-11233984D02*
X10529706Y-11224460D01*
X10529706Y-11224460D02*
X10520182Y-11214936D01*
X10834468Y-11233984D02*
X10720182Y-11233984D01*
X10777325Y-11233984D02*
X10777325Y-11033984D01*
X10777325Y-11033984D02*
X10758277Y-11062555D01*
X10758277Y-11062555D02*
X10739229Y-11081603D01*
X10739229Y-11081603D02*
X10720182Y-11091127D01*
X11015420Y-11033984D02*
X10920182Y-11033984D01*
X10920182Y-11033984D02*
X10910658Y-11129222D01*
X10910658Y-11129222D02*
X10920182Y-11119698D01*
X10920182Y-11119698D02*
X10939229Y-11110174D01*
X10939229Y-11110174D02*
X10986849Y-11110174D01*
X10986849Y-11110174D02*
X11005896Y-11119698D01*
X11005896Y-11119698D02*
X11015420Y-11129222D01*
X11015420Y-11129222D02*
X11024944Y-11148270D01*
X11024944Y-11148270D02*
X11024944Y-11195888D01*
X11024944Y-11195888D02*
X11015420Y-11214936D01*
X11015420Y-11214936D02*
X11005896Y-11224460D01*
X11005896Y-11224460D02*
X10986849Y-11233984D01*
X10986849Y-11233984D02*
X10939229Y-11233984D01*
X10939229Y-11233984D02*
X10920182Y-11224460D01*
X10920182Y-11224460D02*
X10910658Y-11214936D01*
X11101134Y-11033984D02*
X11101134Y-11072079D01*
X11177325Y-11033984D02*
X11177325Y-11072079D01*
X11472563Y-11310174D02*
X11463039Y-11300650D01*
X11463039Y-11300650D02*
X11443991Y-11272079D01*
X11443991Y-11272079D02*
X11434468Y-11253031D01*
X11434468Y-11253031D02*
X11424944Y-11224460D01*
X11424944Y-11224460D02*
X11415420Y-11176841D01*
X11415420Y-11176841D02*
X11415420Y-11138746D01*
X11415420Y-11138746D02*
X11424944Y-11091127D01*
X11424944Y-11091127D02*
X11434468Y-11062555D01*
X11434468Y-11062555D02*
X11443991Y-11043508D01*
X11443991Y-11043508D02*
X11463039Y-11014936D01*
X11463039Y-11014936D02*
X11472563Y-11005412D01*
X11653515Y-11233984D02*
X11539229Y-11233984D01*
X11596372Y-11233984D02*
X11596372Y-11033984D01*
X11596372Y-11033984D02*
X11577325Y-11062555D01*
X11577325Y-11062555D02*
X11558277Y-11081603D01*
X11558277Y-11081603D02*
X11539229Y-11091127D01*
X11729706Y-11053031D02*
X11739229Y-11043508D01*
X11739229Y-11043508D02*
X11758277Y-11033984D01*
X11758277Y-11033984D02*
X11805896Y-11033984D01*
X11805896Y-11033984D02*
X11824944Y-11043508D01*
X11824944Y-11043508D02*
X11834468Y-11053031D01*
X11834468Y-11053031D02*
X11843991Y-11072079D01*
X11843991Y-11072079D02*
X11843991Y-11091127D01*
X11843991Y-11091127D02*
X11834468Y-11119698D01*
X11834468Y-11119698D02*
X11720182Y-11233984D01*
X11720182Y-11233984D02*
X11843991Y-11233984D01*
X11967801Y-11033984D02*
X11986849Y-11033984D01*
X11986849Y-11033984D02*
X12005896Y-11043508D01*
X12005896Y-11043508D02*
X12015420Y-11053031D01*
X12015420Y-11053031D02*
X12024944Y-11072079D01*
X12024944Y-11072079D02*
X12034468Y-11110174D01*
X12034468Y-11110174D02*
X12034468Y-11157793D01*
X12034468Y-11157793D02*
X12024944Y-11195888D01*
X12024944Y-11195888D02*
X12015420Y-11214936D01*
X12015420Y-11214936D02*
X12005896Y-11224460D01*
X12005896Y-11224460D02*
X11986849Y-11233984D01*
X11986849Y-11233984D02*
X11967801Y-11233984D01*
X11967801Y-11233984D02*
X11948753Y-11224460D01*
X11948753Y-11224460D02*
X11939229Y-11214936D01*
X11939229Y-11214936D02*
X11929706Y-11195888D01*
X11929706Y-11195888D02*
X11920182Y-11157793D01*
X11920182Y-11157793D02*
X11920182Y-11110174D01*
X11920182Y-11110174D02*
X11929706Y-11072079D01*
X11929706Y-11072079D02*
X11939229Y-11053031D01*
X11939229Y-11053031D02*
X11948753Y-11043508D01*
X11948753Y-11043508D02*
X11967801Y-11033984D01*
X12272563Y-11233984D02*
X12272563Y-11033984D01*
X12358277Y-11233984D02*
X12358277Y-11129222D01*
X12358277Y-11129222D02*
X12348753Y-11110174D01*
X12348753Y-11110174D02*
X12329706Y-11100650D01*
X12329706Y-11100650D02*
X12301134Y-11100650D01*
X12301134Y-11100650D02*
X12282087Y-11110174D01*
X12282087Y-11110174D02*
X12272563Y-11119698D01*
X12482087Y-11233984D02*
X12463039Y-11224460D01*
X12463039Y-11224460D02*
X12453515Y-11214936D01*
X12453515Y-11214936D02*
X12443991Y-11195888D01*
X12443991Y-11195888D02*
X12443991Y-11138746D01*
X12443991Y-11138746D02*
X12453515Y-11119698D01*
X12453515Y-11119698D02*
X12463039Y-11110174D01*
X12463039Y-11110174D02*
X12482087Y-11100650D01*
X12482087Y-11100650D02*
X12510658Y-11100650D01*
X12510658Y-11100650D02*
X12529706Y-11110174D01*
X12529706Y-11110174D02*
X12539230Y-11119698D01*
X12539230Y-11119698D02*
X12548753Y-11138746D01*
X12548753Y-11138746D02*
X12548753Y-11195888D01*
X12548753Y-11195888D02*
X12539230Y-11214936D01*
X12539230Y-11214936D02*
X12529706Y-11224460D01*
X12529706Y-11224460D02*
X12510658Y-11233984D01*
X12510658Y-11233984D02*
X12482087Y-11233984D01*
X12663039Y-11233984D02*
X12643991Y-11224460D01*
X12643991Y-11224460D02*
X12634468Y-11205412D01*
X12634468Y-11205412D02*
X12634468Y-11033984D01*
X12815420Y-11224460D02*
X12796372Y-11233984D01*
X12796372Y-11233984D02*
X12758277Y-11233984D01*
X12758277Y-11233984D02*
X12739230Y-11224460D01*
X12739230Y-11224460D02*
X12729706Y-11205412D01*
X12729706Y-11205412D02*
X12729706Y-11129222D01*
X12729706Y-11129222D02*
X12739230Y-11110174D01*
X12739230Y-11110174D02*
X12758277Y-11100650D01*
X12758277Y-11100650D02*
X12796372Y-11100650D01*
X12796372Y-11100650D02*
X12815420Y-11110174D01*
X12815420Y-11110174D02*
X12824944Y-11129222D01*
X12824944Y-11129222D02*
X12824944Y-11148270D01*
X12824944Y-11148270D02*
X12729706Y-11167317D01*
X12901134Y-11224460D02*
X12920182Y-11233984D01*
X12920182Y-11233984D02*
X12958277Y-11233984D01*
X12958277Y-11233984D02*
X12977325Y-11224460D01*
X12977325Y-11224460D02*
X12986849Y-11205412D01*
X12986849Y-11205412D02*
X12986849Y-11195888D01*
X12986849Y-11195888D02*
X12977325Y-11176841D01*
X12977325Y-11176841D02*
X12958277Y-11167317D01*
X12958277Y-11167317D02*
X12929706Y-11167317D01*
X12929706Y-11167317D02*
X12910658Y-11157793D01*
X12910658Y-11157793D02*
X12901134Y-11138746D01*
X12901134Y-11138746D02*
X12901134Y-11129222D01*
X12901134Y-11129222D02*
X12910658Y-11110174D01*
X12910658Y-11110174D02*
X12929706Y-11100650D01*
X12929706Y-11100650D02*
X12958277Y-11100650D01*
X12958277Y-11100650D02*
X12977325Y-11110174D01*
X13053515Y-11310174D02*
X13063039Y-11300650D01*
X13063039Y-11300650D02*
X13082087Y-11272079D01*
X13082087Y-11272079D02*
X13091611Y-11253031D01*
X13091611Y-11253031D02*
X13101134Y-11224460D01*
X13101134Y-11224460D02*
X13110658Y-11176841D01*
X13110658Y-11176841D02*
X13110658Y-11138746D01*
X13110658Y-11138746D02*
X13101134Y-11091127D01*
X13101134Y-11091127D02*
X13091611Y-11062555D01*
X13091611Y-11062555D02*
X13082087Y-11043508D01*
X13082087Y-11043508D02*
X13063039Y-11014936D01*
X13063039Y-11014936D02*
X13053515Y-11005412D01*
D12*
X7897500Y-11406500D02*
G75*
G02*
X7797500Y-11406500I-50000J0D01*
G01*
X7797500Y-11406500D02*
G75*
G02*
X7897500Y-11406500I50000J0D01*
G01*
D11*
X8263039Y-11497984D02*
X8148753Y-11497984D01*
X8205896Y-11497984D02*
X8205896Y-11297984D01*
X8205896Y-11297984D02*
X8186848Y-11326555D01*
X8186848Y-11326555D02*
X8167801Y-11345603D01*
X8167801Y-11345603D02*
X8148753Y-11355127D01*
X8348753Y-11478936D02*
X8358277Y-11488460D01*
X8358277Y-11488460D02*
X8348753Y-11497984D01*
X8348753Y-11497984D02*
X8339229Y-11488460D01*
X8339229Y-11488460D02*
X8348753Y-11478936D01*
X8348753Y-11478936D02*
X8348753Y-11497984D01*
X8482086Y-11297984D02*
X8501134Y-11297984D01*
X8501134Y-11297984D02*
X8520182Y-11307508D01*
X8520182Y-11307508D02*
X8529705Y-11317031D01*
X8529705Y-11317031D02*
X8539229Y-11336079D01*
X8539229Y-11336079D02*
X8548753Y-11374174D01*
X8548753Y-11374174D02*
X8548753Y-11421793D01*
X8548753Y-11421793D02*
X8539229Y-11459888D01*
X8539229Y-11459888D02*
X8529705Y-11478936D01*
X8529705Y-11478936D02*
X8520182Y-11488460D01*
X8520182Y-11488460D02*
X8501134Y-11497984D01*
X8501134Y-11497984D02*
X8482086Y-11497984D01*
X8482086Y-11497984D02*
X8463039Y-11488460D01*
X8463039Y-11488460D02*
X8453515Y-11478936D01*
X8453515Y-11478936D02*
X8443991Y-11459888D01*
X8443991Y-11459888D02*
X8434467Y-11421793D01*
X8434467Y-11421793D02*
X8434467Y-11374174D01*
X8434467Y-11374174D02*
X8443991Y-11336079D01*
X8443991Y-11336079D02*
X8453515Y-11317031D01*
X8453515Y-11317031D02*
X8463039Y-11307508D01*
X8463039Y-11307508D02*
X8482086Y-11297984D01*
X8672563Y-11297984D02*
X8691610Y-11297984D01*
X8691610Y-11297984D02*
X8710658Y-11307508D01*
X8710658Y-11307508D02*
X8720182Y-11317031D01*
X8720182Y-11317031D02*
X8729705Y-11336079D01*
X8729705Y-11336079D02*
X8739229Y-11374174D01*
X8739229Y-11374174D02*
X8739229Y-11421793D01*
X8739229Y-11421793D02*
X8729705Y-11459888D01*
X8729705Y-11459888D02*
X8720182Y-11478936D01*
X8720182Y-11478936D02*
X8710658Y-11488460D01*
X8710658Y-11488460D02*
X8691610Y-11497984D01*
X8691610Y-11497984D02*
X8672563Y-11497984D01*
X8672563Y-11497984D02*
X8653515Y-11488460D01*
X8653515Y-11488460D02*
X8643991Y-11478936D01*
X8643991Y-11478936D02*
X8634467Y-11459888D01*
X8634467Y-11459888D02*
X8624944Y-11421793D01*
X8624944Y-11421793D02*
X8624944Y-11374174D01*
X8624944Y-11374174D02*
X8634467Y-11336079D01*
X8634467Y-11336079D02*
X8643991Y-11317031D01*
X8643991Y-11317031D02*
X8653515Y-11307508D01*
X8653515Y-11307508D02*
X8672563Y-11297984D01*
X8863039Y-11297984D02*
X8882086Y-11297984D01*
X8882086Y-11297984D02*
X8901134Y-11307508D01*
X8901134Y-11307508D02*
X8910658Y-11317031D01*
X8910658Y-11317031D02*
X8920182Y-11336079D01*
X8920182Y-11336079D02*
X8929705Y-11374174D01*
X8929705Y-11374174D02*
X8929705Y-11421793D01*
X8929705Y-11421793D02*
X8920182Y-11459888D01*
X8920182Y-11459888D02*
X8910658Y-11478936D01*
X8910658Y-11478936D02*
X8901134Y-11488460D01*
X8901134Y-11488460D02*
X8882086Y-11497984D01*
X8882086Y-11497984D02*
X8863039Y-11497984D01*
X8863039Y-11497984D02*
X8843991Y-11488460D01*
X8843991Y-11488460D02*
X8834467Y-11478936D01*
X8834467Y-11478936D02*
X8824944Y-11459888D01*
X8824944Y-11459888D02*
X8815420Y-11421793D01*
X8815420Y-11421793D02*
X8815420Y-11374174D01*
X8815420Y-11374174D02*
X8824944Y-11336079D01*
X8824944Y-11336079D02*
X8834467Y-11317031D01*
X8834467Y-11317031D02*
X8843991Y-11307508D01*
X8843991Y-11307508D02*
X8863039Y-11297984D01*
X9015420Y-11497984D02*
X9015420Y-11364650D01*
X9015420Y-11383698D02*
X9024944Y-11374174D01*
X9024944Y-11374174D02*
X9043991Y-11364650D01*
X9043991Y-11364650D02*
X9072563Y-11364650D01*
X9072563Y-11364650D02*
X9091610Y-11374174D01*
X9091610Y-11374174D02*
X9101134Y-11393222D01*
X9101134Y-11393222D02*
X9101134Y-11497984D01*
X9101134Y-11393222D02*
X9110658Y-11374174D01*
X9110658Y-11374174D02*
X9129705Y-11364650D01*
X9129705Y-11364650D02*
X9158277Y-11364650D01*
X9158277Y-11364650D02*
X9177325Y-11374174D01*
X9177325Y-11374174D02*
X9186848Y-11393222D01*
X9186848Y-11393222D02*
X9186848Y-11497984D01*
X9282086Y-11497984D02*
X9282086Y-11364650D01*
X9282086Y-11383698D02*
X9291610Y-11374174D01*
X9291610Y-11374174D02*
X9310658Y-11364650D01*
X9310658Y-11364650D02*
X9339229Y-11364650D01*
X9339229Y-11364650D02*
X9358277Y-11374174D01*
X9358277Y-11374174D02*
X9367801Y-11393222D01*
X9367801Y-11393222D02*
X9367801Y-11497984D01*
X9367801Y-11393222D02*
X9377325Y-11374174D01*
X9377325Y-11374174D02*
X9396372Y-11364650D01*
X9396372Y-11364650D02*
X9424944Y-11364650D01*
X9424944Y-11364650D02*
X9443991Y-11374174D01*
X9443991Y-11374174D02*
X9453515Y-11393222D01*
X9453515Y-11393222D02*
X9453515Y-11497984D01*
X9843991Y-11288460D02*
X9672563Y-11545603D01*
X10101134Y-11297984D02*
X10120182Y-11297984D01*
X10120182Y-11297984D02*
X10139229Y-11307508D01*
X10139229Y-11307508D02*
X10148753Y-11317031D01*
X10148753Y-11317031D02*
X10158277Y-11336079D01*
X10158277Y-11336079D02*
X10167801Y-11374174D01*
X10167801Y-11374174D02*
X10167801Y-11421793D01*
X10167801Y-11421793D02*
X10158277Y-11459888D01*
X10158277Y-11459888D02*
X10148753Y-11478936D01*
X10148753Y-11478936D02*
X10139229Y-11488460D01*
X10139229Y-11488460D02*
X10120182Y-11497984D01*
X10120182Y-11497984D02*
X10101134Y-11497984D01*
X10101134Y-11497984D02*
X10082087Y-11488460D01*
X10082087Y-11488460D02*
X10072563Y-11478936D01*
X10072563Y-11478936D02*
X10063039Y-11459888D01*
X10063039Y-11459888D02*
X10053515Y-11421793D01*
X10053515Y-11421793D02*
X10053515Y-11374174D01*
X10053515Y-11374174D02*
X10063039Y-11336079D01*
X10063039Y-11336079D02*
X10072563Y-11317031D01*
X10072563Y-11317031D02*
X10082087Y-11307508D01*
X10082087Y-11307508D02*
X10101134Y-11297984D01*
X10253515Y-11478936D02*
X10263039Y-11488460D01*
X10263039Y-11488460D02*
X10253515Y-11497984D01*
X10253515Y-11497984D02*
X10243991Y-11488460D01*
X10243991Y-11488460D02*
X10253515Y-11478936D01*
X10253515Y-11478936D02*
X10253515Y-11497984D01*
X10386848Y-11297984D02*
X10405896Y-11297984D01*
X10405896Y-11297984D02*
X10424944Y-11307508D01*
X10424944Y-11307508D02*
X10434468Y-11317031D01*
X10434468Y-11317031D02*
X10443991Y-11336079D01*
X10443991Y-11336079D02*
X10453515Y-11374174D01*
X10453515Y-11374174D02*
X10453515Y-11421793D01*
X10453515Y-11421793D02*
X10443991Y-11459888D01*
X10443991Y-11459888D02*
X10434468Y-11478936D01*
X10434468Y-11478936D02*
X10424944Y-11488460D01*
X10424944Y-11488460D02*
X10405896Y-11497984D01*
X10405896Y-11497984D02*
X10386848Y-11497984D01*
X10386848Y-11497984D02*
X10367801Y-11488460D01*
X10367801Y-11488460D02*
X10358277Y-11478936D01*
X10358277Y-11478936D02*
X10348753Y-11459888D01*
X10348753Y-11459888D02*
X10339229Y-11421793D01*
X10339229Y-11421793D02*
X10339229Y-11374174D01*
X10339229Y-11374174D02*
X10348753Y-11336079D01*
X10348753Y-11336079D02*
X10358277Y-11317031D01*
X10358277Y-11317031D02*
X10367801Y-11307508D01*
X10367801Y-11307508D02*
X10386848Y-11297984D01*
X10520182Y-11297984D02*
X10643991Y-11297984D01*
X10643991Y-11297984D02*
X10577325Y-11374174D01*
X10577325Y-11374174D02*
X10605896Y-11374174D01*
X10605896Y-11374174D02*
X10624944Y-11383698D01*
X10624944Y-11383698D02*
X10634468Y-11393222D01*
X10634468Y-11393222D02*
X10643991Y-11412269D01*
X10643991Y-11412269D02*
X10643991Y-11459888D01*
X10643991Y-11459888D02*
X10634468Y-11478936D01*
X10634468Y-11478936D02*
X10624944Y-11488460D01*
X10624944Y-11488460D02*
X10605896Y-11497984D01*
X10605896Y-11497984D02*
X10548753Y-11497984D01*
X10548753Y-11497984D02*
X10529706Y-11488460D01*
X10529706Y-11488460D02*
X10520182Y-11478936D01*
X10739229Y-11497984D02*
X10777325Y-11497984D01*
X10777325Y-11497984D02*
X10796372Y-11488460D01*
X10796372Y-11488460D02*
X10805896Y-11478936D01*
X10805896Y-11478936D02*
X10824944Y-11450365D01*
X10824944Y-11450365D02*
X10834468Y-11412269D01*
X10834468Y-11412269D02*
X10834468Y-11336079D01*
X10834468Y-11336079D02*
X10824944Y-11317031D01*
X10824944Y-11317031D02*
X10815420Y-11307508D01*
X10815420Y-11307508D02*
X10796372Y-11297984D01*
X10796372Y-11297984D02*
X10758277Y-11297984D01*
X10758277Y-11297984D02*
X10739229Y-11307508D01*
X10739229Y-11307508D02*
X10729706Y-11317031D01*
X10729706Y-11317031D02*
X10720182Y-11336079D01*
X10720182Y-11336079D02*
X10720182Y-11383698D01*
X10720182Y-11383698D02*
X10729706Y-11402746D01*
X10729706Y-11402746D02*
X10739229Y-11412269D01*
X10739229Y-11412269D02*
X10758277Y-11421793D01*
X10758277Y-11421793D02*
X10796372Y-11421793D01*
X10796372Y-11421793D02*
X10815420Y-11412269D01*
X10815420Y-11412269D02*
X10824944Y-11402746D01*
X10824944Y-11402746D02*
X10834468Y-11383698D01*
X11005896Y-11364650D02*
X11005896Y-11497984D01*
X10958277Y-11288460D02*
X10910658Y-11431317D01*
X10910658Y-11431317D02*
X11034468Y-11431317D01*
X11101134Y-11297984D02*
X11101134Y-11336079D01*
X11177325Y-11297984D02*
X11177325Y-11336079D01*
X11472563Y-11574174D02*
X11463039Y-11564650D01*
X11463039Y-11564650D02*
X11443991Y-11536079D01*
X11443991Y-11536079D02*
X11434468Y-11517031D01*
X11434468Y-11517031D02*
X11424944Y-11488460D01*
X11424944Y-11488460D02*
X11415420Y-11440841D01*
X11415420Y-11440841D02*
X11415420Y-11402746D01*
X11415420Y-11402746D02*
X11424944Y-11355127D01*
X11424944Y-11355127D02*
X11434468Y-11326555D01*
X11434468Y-11326555D02*
X11443991Y-11307508D01*
X11443991Y-11307508D02*
X11463039Y-11278936D01*
X11463039Y-11278936D02*
X11472563Y-11269412D01*
X11653515Y-11497984D02*
X11539229Y-11497984D01*
X11596372Y-11497984D02*
X11596372Y-11297984D01*
X11596372Y-11297984D02*
X11577325Y-11326555D01*
X11577325Y-11326555D02*
X11558277Y-11345603D01*
X11558277Y-11345603D02*
X11539229Y-11355127D01*
X11777325Y-11297984D02*
X11796372Y-11297984D01*
X11796372Y-11297984D02*
X11815420Y-11307508D01*
X11815420Y-11307508D02*
X11824944Y-11317031D01*
X11824944Y-11317031D02*
X11834468Y-11336079D01*
X11834468Y-11336079D02*
X11843991Y-11374174D01*
X11843991Y-11374174D02*
X11843991Y-11421793D01*
X11843991Y-11421793D02*
X11834468Y-11459888D01*
X11834468Y-11459888D02*
X11824944Y-11478936D01*
X11824944Y-11478936D02*
X11815420Y-11488460D01*
X11815420Y-11488460D02*
X11796372Y-11497984D01*
X11796372Y-11497984D02*
X11777325Y-11497984D01*
X11777325Y-11497984D02*
X11758277Y-11488460D01*
X11758277Y-11488460D02*
X11748753Y-11478936D01*
X11748753Y-11478936D02*
X11739229Y-11459888D01*
X11739229Y-11459888D02*
X11729706Y-11421793D01*
X11729706Y-11421793D02*
X11729706Y-11374174D01*
X11729706Y-11374174D02*
X11739229Y-11336079D01*
X11739229Y-11336079D02*
X11748753Y-11317031D01*
X11748753Y-11317031D02*
X11758277Y-11307508D01*
X11758277Y-11307508D02*
X11777325Y-11297984D01*
X12082087Y-11497984D02*
X12082087Y-11297984D01*
X12167801Y-11497984D02*
X12167801Y-11393222D01*
X12167801Y-11393222D02*
X12158277Y-11374174D01*
X12158277Y-11374174D02*
X12139230Y-11364650D01*
X12139230Y-11364650D02*
X12110658Y-11364650D01*
X12110658Y-11364650D02*
X12091610Y-11374174D01*
X12091610Y-11374174D02*
X12082087Y-11383698D01*
X12291610Y-11497984D02*
X12272563Y-11488460D01*
X12272563Y-11488460D02*
X12263039Y-11478936D01*
X12263039Y-11478936D02*
X12253515Y-11459888D01*
X12253515Y-11459888D02*
X12253515Y-11402746D01*
X12253515Y-11402746D02*
X12263039Y-11383698D01*
X12263039Y-11383698D02*
X12272563Y-11374174D01*
X12272563Y-11374174D02*
X12291610Y-11364650D01*
X12291610Y-11364650D02*
X12320182Y-11364650D01*
X12320182Y-11364650D02*
X12339230Y-11374174D01*
X12339230Y-11374174D02*
X12348753Y-11383698D01*
X12348753Y-11383698D02*
X12358277Y-11402746D01*
X12358277Y-11402746D02*
X12358277Y-11459888D01*
X12358277Y-11459888D02*
X12348753Y-11478936D01*
X12348753Y-11478936D02*
X12339230Y-11488460D01*
X12339230Y-11488460D02*
X12320182Y-11497984D01*
X12320182Y-11497984D02*
X12291610Y-11497984D01*
X12472563Y-11497984D02*
X12453515Y-11488460D01*
X12453515Y-11488460D02*
X12443991Y-11469412D01*
X12443991Y-11469412D02*
X12443991Y-11297984D01*
X12624944Y-11488460D02*
X12605896Y-11497984D01*
X12605896Y-11497984D02*
X12567801Y-11497984D01*
X12567801Y-11497984D02*
X12548753Y-11488460D01*
X12548753Y-11488460D02*
X12539230Y-11469412D01*
X12539230Y-11469412D02*
X12539230Y-11393222D01*
X12539230Y-11393222D02*
X12548753Y-11374174D01*
X12548753Y-11374174D02*
X12567801Y-11364650D01*
X12567801Y-11364650D02*
X12605896Y-11364650D01*
X12605896Y-11364650D02*
X12624944Y-11374174D01*
X12624944Y-11374174D02*
X12634468Y-11393222D01*
X12634468Y-11393222D02*
X12634468Y-11412269D01*
X12634468Y-11412269D02*
X12539230Y-11431317D01*
X12710658Y-11488460D02*
X12729706Y-11497984D01*
X12729706Y-11497984D02*
X12767801Y-11497984D01*
X12767801Y-11497984D02*
X12786849Y-11488460D01*
X12786849Y-11488460D02*
X12796372Y-11469412D01*
X12796372Y-11469412D02*
X12796372Y-11459888D01*
X12796372Y-11459888D02*
X12786849Y-11440841D01*
X12786849Y-11440841D02*
X12767801Y-11431317D01*
X12767801Y-11431317D02*
X12739230Y-11431317D01*
X12739230Y-11431317D02*
X12720182Y-11421793D01*
X12720182Y-11421793D02*
X12710658Y-11402746D01*
X12710658Y-11402746D02*
X12710658Y-11393222D01*
X12710658Y-11393222D02*
X12720182Y-11374174D01*
X12720182Y-11374174D02*
X12739230Y-11364650D01*
X12739230Y-11364650D02*
X12767801Y-11364650D01*
X12767801Y-11364650D02*
X12786849Y-11374174D01*
X12863039Y-11574174D02*
X12872563Y-11564650D01*
X12872563Y-11564650D02*
X12891611Y-11536079D01*
X12891611Y-11536079D02*
X12901134Y-11517031D01*
X12901134Y-11517031D02*
X12910658Y-11488460D01*
X12910658Y-11488460D02*
X12920182Y-11440841D01*
X12920182Y-11440841D02*
X12920182Y-11402746D01*
X12920182Y-11402746D02*
X12910658Y-11355127D01*
X12910658Y-11355127D02*
X12901134Y-11326555D01*
X12901134Y-11326555D02*
X12891611Y-11307508D01*
X12891611Y-11307508D02*
X12872563Y-11278936D01*
X12872563Y-11278936D02*
X12863039Y-11269412D01*
D13*
X7846500Y-11619500D02*
X7846500Y-11721500D01*
X7795500Y-11670500D02*
X7897500Y-11670500D01*
D11*
X8263039Y-11761984D02*
X8148753Y-11761984D01*
X8205896Y-11761984D02*
X8205896Y-11561984D01*
X8205896Y-11561984D02*
X8186848Y-11590555D01*
X8186848Y-11590555D02*
X8167801Y-11609603D01*
X8167801Y-11609603D02*
X8148753Y-11619127D01*
X8348753Y-11742936D02*
X8358277Y-11752460D01*
X8358277Y-11752460D02*
X8348753Y-11761984D01*
X8348753Y-11761984D02*
X8339229Y-11752460D01*
X8339229Y-11752460D02*
X8348753Y-11742936D01*
X8348753Y-11742936D02*
X8348753Y-11761984D01*
X8482086Y-11561984D02*
X8501134Y-11561984D01*
X8501134Y-11561984D02*
X8520182Y-11571508D01*
X8520182Y-11571508D02*
X8529705Y-11581031D01*
X8529705Y-11581031D02*
X8539229Y-11600079D01*
X8539229Y-11600079D02*
X8548753Y-11638174D01*
X8548753Y-11638174D02*
X8548753Y-11685793D01*
X8548753Y-11685793D02*
X8539229Y-11723888D01*
X8539229Y-11723888D02*
X8529705Y-11742936D01*
X8529705Y-11742936D02*
X8520182Y-11752460D01*
X8520182Y-11752460D02*
X8501134Y-11761984D01*
X8501134Y-11761984D02*
X8482086Y-11761984D01*
X8482086Y-11761984D02*
X8463039Y-11752460D01*
X8463039Y-11752460D02*
X8453515Y-11742936D01*
X8453515Y-11742936D02*
X8443991Y-11723888D01*
X8443991Y-11723888D02*
X8434467Y-11685793D01*
X8434467Y-11685793D02*
X8434467Y-11638174D01*
X8434467Y-11638174D02*
X8443991Y-11600079D01*
X8443991Y-11600079D02*
X8453515Y-11581031D01*
X8453515Y-11581031D02*
X8463039Y-11571508D01*
X8463039Y-11571508D02*
X8482086Y-11561984D01*
X8624944Y-11581031D02*
X8634467Y-11571508D01*
X8634467Y-11571508D02*
X8653515Y-11561984D01*
X8653515Y-11561984D02*
X8701134Y-11561984D01*
X8701134Y-11561984D02*
X8720182Y-11571508D01*
X8720182Y-11571508D02*
X8729705Y-11581031D01*
X8729705Y-11581031D02*
X8739229Y-11600079D01*
X8739229Y-11600079D02*
X8739229Y-11619127D01*
X8739229Y-11619127D02*
X8729705Y-11647698D01*
X8729705Y-11647698D02*
X8615420Y-11761984D01*
X8615420Y-11761984D02*
X8739229Y-11761984D01*
X8863039Y-11561984D02*
X8882086Y-11561984D01*
X8882086Y-11561984D02*
X8901134Y-11571508D01*
X8901134Y-11571508D02*
X8910658Y-11581031D01*
X8910658Y-11581031D02*
X8920182Y-11600079D01*
X8920182Y-11600079D02*
X8929705Y-11638174D01*
X8929705Y-11638174D02*
X8929705Y-11685793D01*
X8929705Y-11685793D02*
X8920182Y-11723888D01*
X8920182Y-11723888D02*
X8910658Y-11742936D01*
X8910658Y-11742936D02*
X8901134Y-11752460D01*
X8901134Y-11752460D02*
X8882086Y-11761984D01*
X8882086Y-11761984D02*
X8863039Y-11761984D01*
X8863039Y-11761984D02*
X8843991Y-11752460D01*
X8843991Y-11752460D02*
X8834467Y-11742936D01*
X8834467Y-11742936D02*
X8824944Y-11723888D01*
X8824944Y-11723888D02*
X8815420Y-11685793D01*
X8815420Y-11685793D02*
X8815420Y-11638174D01*
X8815420Y-11638174D02*
X8824944Y-11600079D01*
X8824944Y-11600079D02*
X8834467Y-11581031D01*
X8834467Y-11581031D02*
X8843991Y-11571508D01*
X8843991Y-11571508D02*
X8863039Y-11561984D01*
X9015420Y-11761984D02*
X9015420Y-11628650D01*
X9015420Y-11647698D02*
X9024944Y-11638174D01*
X9024944Y-11638174D02*
X9043991Y-11628650D01*
X9043991Y-11628650D02*
X9072563Y-11628650D01*
X9072563Y-11628650D02*
X9091610Y-11638174D01*
X9091610Y-11638174D02*
X9101134Y-11657222D01*
X9101134Y-11657222D02*
X9101134Y-11761984D01*
X9101134Y-11657222D02*
X9110658Y-11638174D01*
X9110658Y-11638174D02*
X9129705Y-11628650D01*
X9129705Y-11628650D02*
X9158277Y-11628650D01*
X9158277Y-11628650D02*
X9177325Y-11638174D01*
X9177325Y-11638174D02*
X9186848Y-11657222D01*
X9186848Y-11657222D02*
X9186848Y-11761984D01*
X9282086Y-11761984D02*
X9282086Y-11628650D01*
X9282086Y-11647698D02*
X9291610Y-11638174D01*
X9291610Y-11638174D02*
X9310658Y-11628650D01*
X9310658Y-11628650D02*
X9339229Y-11628650D01*
X9339229Y-11628650D02*
X9358277Y-11638174D01*
X9358277Y-11638174D02*
X9367801Y-11657222D01*
X9367801Y-11657222D02*
X9367801Y-11761984D01*
X9367801Y-11657222D02*
X9377325Y-11638174D01*
X9377325Y-11638174D02*
X9396372Y-11628650D01*
X9396372Y-11628650D02*
X9424944Y-11628650D01*
X9424944Y-11628650D02*
X9443991Y-11638174D01*
X9443991Y-11638174D02*
X9453515Y-11657222D01*
X9453515Y-11657222D02*
X9453515Y-11761984D01*
X9843991Y-11552460D02*
X9672563Y-11809603D01*
X10101134Y-11561984D02*
X10120182Y-11561984D01*
X10120182Y-11561984D02*
X10139229Y-11571508D01*
X10139229Y-11571508D02*
X10148753Y-11581031D01*
X10148753Y-11581031D02*
X10158277Y-11600079D01*
X10158277Y-11600079D02*
X10167801Y-11638174D01*
X10167801Y-11638174D02*
X10167801Y-11685793D01*
X10167801Y-11685793D02*
X10158277Y-11723888D01*
X10158277Y-11723888D02*
X10148753Y-11742936D01*
X10148753Y-11742936D02*
X10139229Y-11752460D01*
X10139229Y-11752460D02*
X10120182Y-11761984D01*
X10120182Y-11761984D02*
X10101134Y-11761984D01*
X10101134Y-11761984D02*
X10082087Y-11752460D01*
X10082087Y-11752460D02*
X10072563Y-11742936D01*
X10072563Y-11742936D02*
X10063039Y-11723888D01*
X10063039Y-11723888D02*
X10053515Y-11685793D01*
X10053515Y-11685793D02*
X10053515Y-11638174D01*
X10053515Y-11638174D02*
X10063039Y-11600079D01*
X10063039Y-11600079D02*
X10072563Y-11581031D01*
X10072563Y-11581031D02*
X10082087Y-11571508D01*
X10082087Y-11571508D02*
X10101134Y-11561984D01*
X10253515Y-11742936D02*
X10263039Y-11752460D01*
X10263039Y-11752460D02*
X10253515Y-11761984D01*
X10253515Y-11761984D02*
X10243991Y-11752460D01*
X10243991Y-11752460D02*
X10253515Y-11742936D01*
X10253515Y-11742936D02*
X10253515Y-11761984D01*
X10386848Y-11561984D02*
X10405896Y-11561984D01*
X10405896Y-11561984D02*
X10424944Y-11571508D01*
X10424944Y-11571508D02*
X10434468Y-11581031D01*
X10434468Y-11581031D02*
X10443991Y-11600079D01*
X10443991Y-11600079D02*
X10453515Y-11638174D01*
X10453515Y-11638174D02*
X10453515Y-11685793D01*
X10453515Y-11685793D02*
X10443991Y-11723888D01*
X10443991Y-11723888D02*
X10434468Y-11742936D01*
X10434468Y-11742936D02*
X10424944Y-11752460D01*
X10424944Y-11752460D02*
X10405896Y-11761984D01*
X10405896Y-11761984D02*
X10386848Y-11761984D01*
X10386848Y-11761984D02*
X10367801Y-11752460D01*
X10367801Y-11752460D02*
X10358277Y-11742936D01*
X10358277Y-11742936D02*
X10348753Y-11723888D01*
X10348753Y-11723888D02*
X10339229Y-11685793D01*
X10339229Y-11685793D02*
X10339229Y-11638174D01*
X10339229Y-11638174D02*
X10348753Y-11600079D01*
X10348753Y-11600079D02*
X10358277Y-11581031D01*
X10358277Y-11581031D02*
X10367801Y-11571508D01*
X10367801Y-11571508D02*
X10386848Y-11561984D01*
X10624944Y-11628650D02*
X10624944Y-11761984D01*
X10577325Y-11552460D02*
X10529706Y-11695317D01*
X10529706Y-11695317D02*
X10653515Y-11695317D01*
X10767801Y-11561984D02*
X10786849Y-11561984D01*
X10786849Y-11561984D02*
X10805896Y-11571508D01*
X10805896Y-11571508D02*
X10815420Y-11581031D01*
X10815420Y-11581031D02*
X10824944Y-11600079D01*
X10824944Y-11600079D02*
X10834468Y-11638174D01*
X10834468Y-11638174D02*
X10834468Y-11685793D01*
X10834468Y-11685793D02*
X10824944Y-11723888D01*
X10824944Y-11723888D02*
X10815420Y-11742936D01*
X10815420Y-11742936D02*
X10805896Y-11752460D01*
X10805896Y-11752460D02*
X10786849Y-11761984D01*
X10786849Y-11761984D02*
X10767801Y-11761984D01*
X10767801Y-11761984D02*
X10748753Y-11752460D01*
X10748753Y-11752460D02*
X10739229Y-11742936D01*
X10739229Y-11742936D02*
X10729706Y-11723888D01*
X10729706Y-11723888D02*
X10720182Y-11685793D01*
X10720182Y-11685793D02*
X10720182Y-11638174D01*
X10720182Y-11638174D02*
X10729706Y-11600079D01*
X10729706Y-11600079D02*
X10739229Y-11581031D01*
X10739229Y-11581031D02*
X10748753Y-11571508D01*
X10748753Y-11571508D02*
X10767801Y-11561984D01*
X10910658Y-11581031D02*
X10920182Y-11571508D01*
X10920182Y-11571508D02*
X10939229Y-11561984D01*
X10939229Y-11561984D02*
X10986849Y-11561984D01*
X10986849Y-11561984D02*
X11005896Y-11571508D01*
X11005896Y-11571508D02*
X11015420Y-11581031D01*
X11015420Y-11581031D02*
X11024944Y-11600079D01*
X11024944Y-11600079D02*
X11024944Y-11619127D01*
X11024944Y-11619127D02*
X11015420Y-11647698D01*
X11015420Y-11647698D02*
X10901134Y-11761984D01*
X10901134Y-11761984D02*
X11024944Y-11761984D01*
X11101134Y-11561984D02*
X11101134Y-11600079D01*
X11177325Y-11561984D02*
X11177325Y-11600079D01*
X11472563Y-11838174D02*
X11463039Y-11828650D01*
X11463039Y-11828650D02*
X11443991Y-11800079D01*
X11443991Y-11800079D02*
X11434468Y-11781031D01*
X11434468Y-11781031D02*
X11424944Y-11752460D01*
X11424944Y-11752460D02*
X11415420Y-11704841D01*
X11415420Y-11704841D02*
X11415420Y-11666746D01*
X11415420Y-11666746D02*
X11424944Y-11619127D01*
X11424944Y-11619127D02*
X11434468Y-11590555D01*
X11434468Y-11590555D02*
X11443991Y-11571508D01*
X11443991Y-11571508D02*
X11463039Y-11542936D01*
X11463039Y-11542936D02*
X11472563Y-11533412D01*
X11586848Y-11561984D02*
X11605896Y-11561984D01*
X11605896Y-11561984D02*
X11624944Y-11571508D01*
X11624944Y-11571508D02*
X11634468Y-11581031D01*
X11634468Y-11581031D02*
X11643991Y-11600079D01*
X11643991Y-11600079D02*
X11653515Y-11638174D01*
X11653515Y-11638174D02*
X11653515Y-11685793D01*
X11653515Y-11685793D02*
X11643991Y-11723888D01*
X11643991Y-11723888D02*
X11634468Y-11742936D01*
X11634468Y-11742936D02*
X11624944Y-11752460D01*
X11624944Y-11752460D02*
X11605896Y-11761984D01*
X11605896Y-11761984D02*
X11586848Y-11761984D01*
X11586848Y-11761984D02*
X11567801Y-11752460D01*
X11567801Y-11752460D02*
X11558277Y-11742936D01*
X11558277Y-11742936D02*
X11548753Y-11723888D01*
X11548753Y-11723888D02*
X11539229Y-11685793D01*
X11539229Y-11685793D02*
X11539229Y-11638174D01*
X11539229Y-11638174D02*
X11548753Y-11600079D01*
X11548753Y-11600079D02*
X11558277Y-11581031D01*
X11558277Y-11581031D02*
X11567801Y-11571508D01*
X11567801Y-11571508D02*
X11586848Y-11561984D01*
X11891610Y-11761984D02*
X11891610Y-11561984D01*
X11977325Y-11761984D02*
X11977325Y-11657222D01*
X11977325Y-11657222D02*
X11967801Y-11638174D01*
X11967801Y-11638174D02*
X11948753Y-11628650D01*
X11948753Y-11628650D02*
X11920182Y-11628650D01*
X11920182Y-11628650D02*
X11901134Y-11638174D01*
X11901134Y-11638174D02*
X11891610Y-11647698D01*
X12101134Y-11761984D02*
X12082087Y-11752460D01*
X12082087Y-11752460D02*
X12072563Y-11742936D01*
X12072563Y-11742936D02*
X12063039Y-11723888D01*
X12063039Y-11723888D02*
X12063039Y-11666746D01*
X12063039Y-11666746D02*
X12072563Y-11647698D01*
X12072563Y-11647698D02*
X12082087Y-11638174D01*
X12082087Y-11638174D02*
X12101134Y-11628650D01*
X12101134Y-11628650D02*
X12129706Y-11628650D01*
X12129706Y-11628650D02*
X12148753Y-11638174D01*
X12148753Y-11638174D02*
X12158277Y-11647698D01*
X12158277Y-11647698D02*
X12167801Y-11666746D01*
X12167801Y-11666746D02*
X12167801Y-11723888D01*
X12167801Y-11723888D02*
X12158277Y-11742936D01*
X12158277Y-11742936D02*
X12148753Y-11752460D01*
X12148753Y-11752460D02*
X12129706Y-11761984D01*
X12129706Y-11761984D02*
X12101134Y-11761984D01*
X12282087Y-11761984D02*
X12263039Y-11752460D01*
X12263039Y-11752460D02*
X12253515Y-11733412D01*
X12253515Y-11733412D02*
X12253515Y-11561984D01*
X12434468Y-11752460D02*
X12415420Y-11761984D01*
X12415420Y-11761984D02*
X12377325Y-11761984D01*
X12377325Y-11761984D02*
X12358277Y-11752460D01*
X12358277Y-11752460D02*
X12348753Y-11733412D01*
X12348753Y-11733412D02*
X12348753Y-11657222D01*
X12348753Y-11657222D02*
X12358277Y-11638174D01*
X12358277Y-11638174D02*
X12377325Y-11628650D01*
X12377325Y-11628650D02*
X12415420Y-11628650D01*
X12415420Y-11628650D02*
X12434468Y-11638174D01*
X12434468Y-11638174D02*
X12443991Y-11657222D01*
X12443991Y-11657222D02*
X12443991Y-11676269D01*
X12443991Y-11676269D02*
X12348753Y-11695317D01*
X12520182Y-11752460D02*
X12539230Y-11761984D01*
X12539230Y-11761984D02*
X12577325Y-11761984D01*
X12577325Y-11761984D02*
X12596372Y-11752460D01*
X12596372Y-11752460D02*
X12605896Y-11733412D01*
X12605896Y-11733412D02*
X12605896Y-11723888D01*
X12605896Y-11723888D02*
X12596372Y-11704841D01*
X12596372Y-11704841D02*
X12577325Y-11695317D01*
X12577325Y-11695317D02*
X12548753Y-11695317D01*
X12548753Y-11695317D02*
X12529706Y-11685793D01*
X12529706Y-11685793D02*
X12520182Y-11666746D01*
X12520182Y-11666746D02*
X12520182Y-11657222D01*
X12520182Y-11657222D02*
X12529706Y-11638174D01*
X12529706Y-11638174D02*
X12548753Y-11628650D01*
X12548753Y-11628650D02*
X12577325Y-11628650D01*
X12577325Y-11628650D02*
X12596372Y-11638174D01*
X12843992Y-11685793D02*
X12996373Y-11685793D01*
X12920182Y-11761984D02*
X12920182Y-11609603D01*
X13272563Y-11647698D02*
X13253515Y-11638174D01*
X13253515Y-11638174D02*
X13243992Y-11628650D01*
X13243992Y-11628650D02*
X13234468Y-11609603D01*
X13234468Y-11609603D02*
X13234468Y-11600079D01*
X13234468Y-11600079D02*
X13243992Y-11581031D01*
X13243992Y-11581031D02*
X13253515Y-11571508D01*
X13253515Y-11571508D02*
X13272563Y-11561984D01*
X13272563Y-11561984D02*
X13310658Y-11561984D01*
X13310658Y-11561984D02*
X13329706Y-11571508D01*
X13329706Y-11571508D02*
X13339230Y-11581031D01*
X13339230Y-11581031D02*
X13348753Y-11600079D01*
X13348753Y-11600079D02*
X13348753Y-11609603D01*
X13348753Y-11609603D02*
X13339230Y-11628650D01*
X13339230Y-11628650D02*
X13329706Y-11638174D01*
X13329706Y-11638174D02*
X13310658Y-11647698D01*
X13310658Y-11647698D02*
X13272563Y-11647698D01*
X13272563Y-11647698D02*
X13253515Y-11657222D01*
X13253515Y-11657222D02*
X13243992Y-11666746D01*
X13243992Y-11666746D02*
X13234468Y-11685793D01*
X13234468Y-11685793D02*
X13234468Y-11723888D01*
X13234468Y-11723888D02*
X13243992Y-11742936D01*
X13243992Y-11742936D02*
X13253515Y-11752460D01*
X13253515Y-11752460D02*
X13272563Y-11761984D01*
X13272563Y-11761984D02*
X13310658Y-11761984D01*
X13310658Y-11761984D02*
X13329706Y-11752460D01*
X13329706Y-11752460D02*
X13339230Y-11742936D01*
X13339230Y-11742936D02*
X13348753Y-11723888D01*
X13348753Y-11723888D02*
X13348753Y-11685793D01*
X13348753Y-11685793D02*
X13339230Y-11666746D01*
X13339230Y-11666746D02*
X13329706Y-11657222D01*
X13329706Y-11657222D02*
X13310658Y-11647698D01*
X13577325Y-11752460D02*
X13596373Y-11761984D01*
X13596373Y-11761984D02*
X13634468Y-11761984D01*
X13634468Y-11761984D02*
X13653515Y-11752460D01*
X13653515Y-11752460D02*
X13663039Y-11733412D01*
X13663039Y-11733412D02*
X13663039Y-11723888D01*
X13663039Y-11723888D02*
X13653515Y-11704841D01*
X13653515Y-11704841D02*
X13634468Y-11695317D01*
X13634468Y-11695317D02*
X13605896Y-11695317D01*
X13605896Y-11695317D02*
X13586849Y-11685793D01*
X13586849Y-11685793D02*
X13577325Y-11666746D01*
X13577325Y-11666746D02*
X13577325Y-11657222D01*
X13577325Y-11657222D02*
X13586849Y-11638174D01*
X13586849Y-11638174D02*
X13605896Y-11628650D01*
X13605896Y-11628650D02*
X13634468Y-11628650D01*
X13634468Y-11628650D02*
X13653515Y-11638174D01*
X13777325Y-11761984D02*
X13758277Y-11752460D01*
X13758277Y-11752460D02*
X13748754Y-11733412D01*
X13748754Y-11733412D02*
X13748754Y-11561984D01*
X13882087Y-11761984D02*
X13863039Y-11752460D01*
X13863039Y-11752460D02*
X13853515Y-11742936D01*
X13853515Y-11742936D02*
X13843992Y-11723888D01*
X13843992Y-11723888D02*
X13843992Y-11666746D01*
X13843992Y-11666746D02*
X13853515Y-11647698D01*
X13853515Y-11647698D02*
X13863039Y-11638174D01*
X13863039Y-11638174D02*
X13882087Y-11628650D01*
X13882087Y-11628650D02*
X13910658Y-11628650D01*
X13910658Y-11628650D02*
X13929706Y-11638174D01*
X13929706Y-11638174D02*
X13939230Y-11647698D01*
X13939230Y-11647698D02*
X13948754Y-11666746D01*
X13948754Y-11666746D02*
X13948754Y-11723888D01*
X13948754Y-11723888D02*
X13939230Y-11742936D01*
X13939230Y-11742936D02*
X13929706Y-11752460D01*
X13929706Y-11752460D02*
X13910658Y-11761984D01*
X13910658Y-11761984D02*
X13882087Y-11761984D01*
X14005896Y-11628650D02*
X14082087Y-11628650D01*
X14034468Y-11561984D02*
X14034468Y-11733412D01*
X14034468Y-11733412D02*
X14043992Y-11752460D01*
X14043992Y-11752460D02*
X14063039Y-11761984D01*
X14063039Y-11761984D02*
X14082087Y-11761984D01*
X14139230Y-11752460D02*
X14158277Y-11761984D01*
X14158277Y-11761984D02*
X14196373Y-11761984D01*
X14196373Y-11761984D02*
X14215420Y-11752460D01*
X14215420Y-11752460D02*
X14224944Y-11733412D01*
X14224944Y-11733412D02*
X14224944Y-11723888D01*
X14224944Y-11723888D02*
X14215420Y-11704841D01*
X14215420Y-11704841D02*
X14196373Y-11695317D01*
X14196373Y-11695317D02*
X14167801Y-11695317D01*
X14167801Y-11695317D02*
X14148754Y-11685793D01*
X14148754Y-11685793D02*
X14139230Y-11666746D01*
X14139230Y-11666746D02*
X14139230Y-11657222D01*
X14139230Y-11657222D02*
X14148754Y-11638174D01*
X14148754Y-11638174D02*
X14167801Y-11628650D01*
X14167801Y-11628650D02*
X14196373Y-11628650D01*
X14196373Y-11628650D02*
X14215420Y-11638174D01*
X14291611Y-11838174D02*
X14301135Y-11828650D01*
X14301135Y-11828650D02*
X14320182Y-11800079D01*
X14320182Y-11800079D02*
X14329706Y-11781031D01*
X14329706Y-11781031D02*
X14339230Y-11752460D01*
X14339230Y-11752460D02*
X14348754Y-11704841D01*
X14348754Y-11704841D02*
X14348754Y-11666746D01*
X14348754Y-11666746D02*
X14339230Y-11619127D01*
X14339230Y-11619127D02*
X14329706Y-11590555D01*
X14329706Y-11590555D02*
X14320182Y-11571508D01*
X14320182Y-11571508D02*
X14301135Y-11542936D01*
X14301135Y-11542936D02*
X14291611Y-11533412D01*
D14*
X7879927Y-11976927D02*
X7879927Y-11892073D01*
X7795073Y-11892073D01*
X7795073Y-11976927D01*
X7879927Y-11976927D01*
D11*
X8263039Y-12025984D02*
X8148753Y-12025984D01*
X8205896Y-12025984D02*
X8205896Y-11825984D01*
X8205896Y-11825984D02*
X8186848Y-11854555D01*
X8186848Y-11854555D02*
X8167801Y-11873603D01*
X8167801Y-11873603D02*
X8148753Y-11883127D01*
X8348753Y-12006936D02*
X8358277Y-12016460D01*
X8358277Y-12016460D02*
X8348753Y-12025984D01*
X8348753Y-12025984D02*
X8339229Y-12016460D01*
X8339229Y-12016460D02*
X8348753Y-12006936D01*
X8348753Y-12006936D02*
X8348753Y-12025984D01*
X8434467Y-11845031D02*
X8443991Y-11835508D01*
X8443991Y-11835508D02*
X8463039Y-11825984D01*
X8463039Y-11825984D02*
X8510658Y-11825984D01*
X8510658Y-11825984D02*
X8529705Y-11835508D01*
X8529705Y-11835508D02*
X8539229Y-11845031D01*
X8539229Y-11845031D02*
X8548753Y-11864079D01*
X8548753Y-11864079D02*
X8548753Y-11883127D01*
X8548753Y-11883127D02*
X8539229Y-11911698D01*
X8539229Y-11911698D02*
X8424944Y-12025984D01*
X8424944Y-12025984D02*
X8548753Y-12025984D01*
X8672563Y-11825984D02*
X8691610Y-11825984D01*
X8691610Y-11825984D02*
X8710658Y-11835508D01*
X8710658Y-11835508D02*
X8720182Y-11845031D01*
X8720182Y-11845031D02*
X8729705Y-11864079D01*
X8729705Y-11864079D02*
X8739229Y-11902174D01*
X8739229Y-11902174D02*
X8739229Y-11949793D01*
X8739229Y-11949793D02*
X8729705Y-11987888D01*
X8729705Y-11987888D02*
X8720182Y-12006936D01*
X8720182Y-12006936D02*
X8710658Y-12016460D01*
X8710658Y-12016460D02*
X8691610Y-12025984D01*
X8691610Y-12025984D02*
X8672563Y-12025984D01*
X8672563Y-12025984D02*
X8653515Y-12016460D01*
X8653515Y-12016460D02*
X8643991Y-12006936D01*
X8643991Y-12006936D02*
X8634467Y-11987888D01*
X8634467Y-11987888D02*
X8624944Y-11949793D01*
X8624944Y-11949793D02*
X8624944Y-11902174D01*
X8624944Y-11902174D02*
X8634467Y-11864079D01*
X8634467Y-11864079D02*
X8643991Y-11845031D01*
X8643991Y-11845031D02*
X8653515Y-11835508D01*
X8653515Y-11835508D02*
X8672563Y-11825984D01*
X8863039Y-11825984D02*
X8882086Y-11825984D01*
X8882086Y-11825984D02*
X8901134Y-11835508D01*
X8901134Y-11835508D02*
X8910658Y-11845031D01*
X8910658Y-11845031D02*
X8920182Y-11864079D01*
X8920182Y-11864079D02*
X8929705Y-11902174D01*
X8929705Y-11902174D02*
X8929705Y-11949793D01*
X8929705Y-11949793D02*
X8920182Y-11987888D01*
X8920182Y-11987888D02*
X8910658Y-12006936D01*
X8910658Y-12006936D02*
X8901134Y-12016460D01*
X8901134Y-12016460D02*
X8882086Y-12025984D01*
X8882086Y-12025984D02*
X8863039Y-12025984D01*
X8863039Y-12025984D02*
X8843991Y-12016460D01*
X8843991Y-12016460D02*
X8834467Y-12006936D01*
X8834467Y-12006936D02*
X8824944Y-11987888D01*
X8824944Y-11987888D02*
X8815420Y-11949793D01*
X8815420Y-11949793D02*
X8815420Y-11902174D01*
X8815420Y-11902174D02*
X8824944Y-11864079D01*
X8824944Y-11864079D02*
X8834467Y-11845031D01*
X8834467Y-11845031D02*
X8843991Y-11835508D01*
X8843991Y-11835508D02*
X8863039Y-11825984D01*
X9015420Y-12025984D02*
X9015420Y-11892650D01*
X9015420Y-11911698D02*
X9024944Y-11902174D01*
X9024944Y-11902174D02*
X9043991Y-11892650D01*
X9043991Y-11892650D02*
X9072563Y-11892650D01*
X9072563Y-11892650D02*
X9091610Y-11902174D01*
X9091610Y-11902174D02*
X9101134Y-11921222D01*
X9101134Y-11921222D02*
X9101134Y-12025984D01*
X9101134Y-11921222D02*
X9110658Y-11902174D01*
X9110658Y-11902174D02*
X9129705Y-11892650D01*
X9129705Y-11892650D02*
X9158277Y-11892650D01*
X9158277Y-11892650D02*
X9177325Y-11902174D01*
X9177325Y-11902174D02*
X9186848Y-11921222D01*
X9186848Y-11921222D02*
X9186848Y-12025984D01*
X9282086Y-12025984D02*
X9282086Y-11892650D01*
X9282086Y-11911698D02*
X9291610Y-11902174D01*
X9291610Y-11902174D02*
X9310658Y-11892650D01*
X9310658Y-11892650D02*
X9339229Y-11892650D01*
X9339229Y-11892650D02*
X9358277Y-11902174D01*
X9358277Y-11902174D02*
X9367801Y-11921222D01*
X9367801Y-11921222D02*
X9367801Y-12025984D01*
X9367801Y-11921222D02*
X9377325Y-11902174D01*
X9377325Y-11902174D02*
X9396372Y-11892650D01*
X9396372Y-11892650D02*
X9424944Y-11892650D01*
X9424944Y-11892650D02*
X9443991Y-11902174D01*
X9443991Y-11902174D02*
X9453515Y-11921222D01*
X9453515Y-11921222D02*
X9453515Y-12025984D01*
X9843991Y-11816460D02*
X9672563Y-12073603D01*
X10101134Y-11825984D02*
X10120182Y-11825984D01*
X10120182Y-11825984D02*
X10139229Y-11835508D01*
X10139229Y-11835508D02*
X10148753Y-11845031D01*
X10148753Y-11845031D02*
X10158277Y-11864079D01*
X10158277Y-11864079D02*
X10167801Y-11902174D01*
X10167801Y-11902174D02*
X10167801Y-11949793D01*
X10167801Y-11949793D02*
X10158277Y-11987888D01*
X10158277Y-11987888D02*
X10148753Y-12006936D01*
X10148753Y-12006936D02*
X10139229Y-12016460D01*
X10139229Y-12016460D02*
X10120182Y-12025984D01*
X10120182Y-12025984D02*
X10101134Y-12025984D01*
X10101134Y-12025984D02*
X10082087Y-12016460D01*
X10082087Y-12016460D02*
X10072563Y-12006936D01*
X10072563Y-12006936D02*
X10063039Y-11987888D01*
X10063039Y-11987888D02*
X10053515Y-11949793D01*
X10053515Y-11949793D02*
X10053515Y-11902174D01*
X10053515Y-11902174D02*
X10063039Y-11864079D01*
X10063039Y-11864079D02*
X10072563Y-11845031D01*
X10072563Y-11845031D02*
X10082087Y-11835508D01*
X10082087Y-11835508D02*
X10101134Y-11825984D01*
X10253515Y-12006936D02*
X10263039Y-12016460D01*
X10263039Y-12016460D02*
X10253515Y-12025984D01*
X10253515Y-12025984D02*
X10243991Y-12016460D01*
X10243991Y-12016460D02*
X10253515Y-12006936D01*
X10253515Y-12006936D02*
X10253515Y-12025984D01*
X10386848Y-11825984D02*
X10405896Y-11825984D01*
X10405896Y-11825984D02*
X10424944Y-11835508D01*
X10424944Y-11835508D02*
X10434468Y-11845031D01*
X10434468Y-11845031D02*
X10443991Y-11864079D01*
X10443991Y-11864079D02*
X10453515Y-11902174D01*
X10453515Y-11902174D02*
X10453515Y-11949793D01*
X10453515Y-11949793D02*
X10443991Y-11987888D01*
X10443991Y-11987888D02*
X10434468Y-12006936D01*
X10434468Y-12006936D02*
X10424944Y-12016460D01*
X10424944Y-12016460D02*
X10405896Y-12025984D01*
X10405896Y-12025984D02*
X10386848Y-12025984D01*
X10386848Y-12025984D02*
X10367801Y-12016460D01*
X10367801Y-12016460D02*
X10358277Y-12006936D01*
X10358277Y-12006936D02*
X10348753Y-11987888D01*
X10348753Y-11987888D02*
X10339229Y-11949793D01*
X10339229Y-11949793D02*
X10339229Y-11902174D01*
X10339229Y-11902174D02*
X10348753Y-11864079D01*
X10348753Y-11864079D02*
X10358277Y-11845031D01*
X10358277Y-11845031D02*
X10367801Y-11835508D01*
X10367801Y-11835508D02*
X10386848Y-11825984D01*
X10624944Y-11892650D02*
X10624944Y-12025984D01*
X10577325Y-11816460D02*
X10529706Y-11959317D01*
X10529706Y-11959317D02*
X10653515Y-11959317D01*
X10710658Y-11825984D02*
X10843991Y-11825984D01*
X10843991Y-11825984D02*
X10758277Y-12025984D01*
X10910658Y-11845031D02*
X10920182Y-11835508D01*
X10920182Y-11835508D02*
X10939229Y-11825984D01*
X10939229Y-11825984D02*
X10986849Y-11825984D01*
X10986849Y-11825984D02*
X11005896Y-11835508D01*
X11005896Y-11835508D02*
X11015420Y-11845031D01*
X11015420Y-11845031D02*
X11024944Y-11864079D01*
X11024944Y-11864079D02*
X11024944Y-11883127D01*
X11024944Y-11883127D02*
X11015420Y-11911698D01*
X11015420Y-11911698D02*
X10901134Y-12025984D01*
X10901134Y-12025984D02*
X11024944Y-12025984D01*
X11101134Y-11825984D02*
X11101134Y-11864079D01*
X11177325Y-11825984D02*
X11177325Y-11864079D01*
X11472563Y-12102174D02*
X11463039Y-12092650D01*
X11463039Y-12092650D02*
X11443991Y-12064079D01*
X11443991Y-12064079D02*
X11434468Y-12045031D01*
X11434468Y-12045031D02*
X11424944Y-12016460D01*
X11424944Y-12016460D02*
X11415420Y-11968841D01*
X11415420Y-11968841D02*
X11415420Y-11930746D01*
X11415420Y-11930746D02*
X11424944Y-11883127D01*
X11424944Y-11883127D02*
X11434468Y-11854555D01*
X11434468Y-11854555D02*
X11443991Y-11835508D01*
X11443991Y-11835508D02*
X11463039Y-11806936D01*
X11463039Y-11806936D02*
X11472563Y-11797412D01*
X11577325Y-11911698D02*
X11558277Y-11902174D01*
X11558277Y-11902174D02*
X11548753Y-11892650D01*
X11548753Y-11892650D02*
X11539229Y-11873603D01*
X11539229Y-11873603D02*
X11539229Y-11864079D01*
X11539229Y-11864079D02*
X11548753Y-11845031D01*
X11548753Y-11845031D02*
X11558277Y-11835508D01*
X11558277Y-11835508D02*
X11577325Y-11825984D01*
X11577325Y-11825984D02*
X11615420Y-11825984D01*
X11615420Y-11825984D02*
X11634468Y-11835508D01*
X11634468Y-11835508D02*
X11643991Y-11845031D01*
X11643991Y-11845031D02*
X11653515Y-11864079D01*
X11653515Y-11864079D02*
X11653515Y-11873603D01*
X11653515Y-11873603D02*
X11643991Y-11892650D01*
X11643991Y-11892650D02*
X11634468Y-11902174D01*
X11634468Y-11902174D02*
X11615420Y-11911698D01*
X11615420Y-11911698D02*
X11577325Y-11911698D01*
X11577325Y-11911698D02*
X11558277Y-11921222D01*
X11558277Y-11921222D02*
X11548753Y-11930746D01*
X11548753Y-11930746D02*
X11539229Y-11949793D01*
X11539229Y-11949793D02*
X11539229Y-11987888D01*
X11539229Y-11987888D02*
X11548753Y-12006936D01*
X11548753Y-12006936D02*
X11558277Y-12016460D01*
X11558277Y-12016460D02*
X11577325Y-12025984D01*
X11577325Y-12025984D02*
X11615420Y-12025984D01*
X11615420Y-12025984D02*
X11634468Y-12016460D01*
X11634468Y-12016460D02*
X11643991Y-12006936D01*
X11643991Y-12006936D02*
X11653515Y-11987888D01*
X11653515Y-11987888D02*
X11653515Y-11949793D01*
X11653515Y-11949793D02*
X11643991Y-11930746D01*
X11643991Y-11930746D02*
X11634468Y-11921222D01*
X11634468Y-11921222D02*
X11615420Y-11911698D01*
X11891610Y-12025984D02*
X11891610Y-11825984D01*
X11977325Y-12025984D02*
X11977325Y-11921222D01*
X11977325Y-11921222D02*
X11967801Y-11902174D01*
X11967801Y-11902174D02*
X11948753Y-11892650D01*
X11948753Y-11892650D02*
X11920182Y-11892650D01*
X11920182Y-11892650D02*
X11901134Y-11902174D01*
X11901134Y-11902174D02*
X11891610Y-11911698D01*
X12101134Y-12025984D02*
X12082087Y-12016460D01*
X12082087Y-12016460D02*
X12072563Y-12006936D01*
X12072563Y-12006936D02*
X12063039Y-11987888D01*
X12063039Y-11987888D02*
X12063039Y-11930746D01*
X12063039Y-11930746D02*
X12072563Y-11911698D01*
X12072563Y-11911698D02*
X12082087Y-11902174D01*
X12082087Y-11902174D02*
X12101134Y-11892650D01*
X12101134Y-11892650D02*
X12129706Y-11892650D01*
X12129706Y-11892650D02*
X12148753Y-11902174D01*
X12148753Y-11902174D02*
X12158277Y-11911698D01*
X12158277Y-11911698D02*
X12167801Y-11930746D01*
X12167801Y-11930746D02*
X12167801Y-11987888D01*
X12167801Y-11987888D02*
X12158277Y-12006936D01*
X12158277Y-12006936D02*
X12148753Y-12016460D01*
X12148753Y-12016460D02*
X12129706Y-12025984D01*
X12129706Y-12025984D02*
X12101134Y-12025984D01*
X12282087Y-12025984D02*
X12263039Y-12016460D01*
X12263039Y-12016460D02*
X12253515Y-11997412D01*
X12253515Y-11997412D02*
X12253515Y-11825984D01*
X12434468Y-12016460D02*
X12415420Y-12025984D01*
X12415420Y-12025984D02*
X12377325Y-12025984D01*
X12377325Y-12025984D02*
X12358277Y-12016460D01*
X12358277Y-12016460D02*
X12348753Y-11997412D01*
X12348753Y-11997412D02*
X12348753Y-11921222D01*
X12348753Y-11921222D02*
X12358277Y-11902174D01*
X12358277Y-11902174D02*
X12377325Y-11892650D01*
X12377325Y-11892650D02*
X12415420Y-11892650D01*
X12415420Y-11892650D02*
X12434468Y-11902174D01*
X12434468Y-11902174D02*
X12443991Y-11921222D01*
X12443991Y-11921222D02*
X12443991Y-11940269D01*
X12443991Y-11940269D02*
X12348753Y-11959317D01*
X12520182Y-12016460D02*
X12539230Y-12025984D01*
X12539230Y-12025984D02*
X12577325Y-12025984D01*
X12577325Y-12025984D02*
X12596372Y-12016460D01*
X12596372Y-12016460D02*
X12605896Y-11997412D01*
X12605896Y-11997412D02*
X12605896Y-11987888D01*
X12605896Y-11987888D02*
X12596372Y-11968841D01*
X12596372Y-11968841D02*
X12577325Y-11959317D01*
X12577325Y-11959317D02*
X12548753Y-11959317D01*
X12548753Y-11959317D02*
X12529706Y-11949793D01*
X12529706Y-11949793D02*
X12520182Y-11930746D01*
X12520182Y-11930746D02*
X12520182Y-11921222D01*
X12520182Y-11921222D02*
X12529706Y-11902174D01*
X12529706Y-11902174D02*
X12548753Y-11892650D01*
X12548753Y-11892650D02*
X12577325Y-11892650D01*
X12577325Y-11892650D02*
X12596372Y-11902174D01*
X12672563Y-12102174D02*
X12682087Y-12092650D01*
X12682087Y-12092650D02*
X12701134Y-12064079D01*
X12701134Y-12064079D02*
X12710658Y-12045031D01*
X12710658Y-12045031D02*
X12720182Y-12016460D01*
X12720182Y-12016460D02*
X12729706Y-11968841D01*
X12729706Y-11968841D02*
X12729706Y-11930746D01*
X12729706Y-11930746D02*
X12720182Y-11883127D01*
X12720182Y-11883127D02*
X12710658Y-11854555D01*
X12710658Y-11854555D02*
X12701134Y-11835508D01*
X12701134Y-11835508D02*
X12682087Y-11806936D01*
X12682087Y-11806936D02*
X12672563Y-11797412D01*
D15*
X7822500Y-12273500D02*
X7897500Y-12198500D01*
X7822500Y-12123500D01*
X7747500Y-12198500D01*
X7822500Y-12273500D01*
D11*
X8263039Y-12289984D02*
X8148753Y-12289984D01*
X8205896Y-12289984D02*
X8205896Y-12089984D01*
X8205896Y-12089984D02*
X8186848Y-12118555D01*
X8186848Y-12118555D02*
X8167801Y-12137603D01*
X8167801Y-12137603D02*
X8148753Y-12147127D01*
X8348753Y-12270936D02*
X8358277Y-12280460D01*
X8358277Y-12280460D02*
X8348753Y-12289984D01*
X8348753Y-12289984D02*
X8339229Y-12280460D01*
X8339229Y-12280460D02*
X8348753Y-12270936D01*
X8348753Y-12270936D02*
X8348753Y-12289984D01*
X8539229Y-12089984D02*
X8443991Y-12089984D01*
X8443991Y-12089984D02*
X8434467Y-12185222D01*
X8434467Y-12185222D02*
X8443991Y-12175698D01*
X8443991Y-12175698D02*
X8463039Y-12166174D01*
X8463039Y-12166174D02*
X8510658Y-12166174D01*
X8510658Y-12166174D02*
X8529705Y-12175698D01*
X8529705Y-12175698D02*
X8539229Y-12185222D01*
X8539229Y-12185222D02*
X8548753Y-12204269D01*
X8548753Y-12204269D02*
X8548753Y-12251888D01*
X8548753Y-12251888D02*
X8539229Y-12270936D01*
X8539229Y-12270936D02*
X8529705Y-12280460D01*
X8529705Y-12280460D02*
X8510658Y-12289984D01*
X8510658Y-12289984D02*
X8463039Y-12289984D01*
X8463039Y-12289984D02*
X8443991Y-12280460D01*
X8443991Y-12280460D02*
X8434467Y-12270936D01*
X8672563Y-12089984D02*
X8691610Y-12089984D01*
X8691610Y-12089984D02*
X8710658Y-12099508D01*
X8710658Y-12099508D02*
X8720182Y-12109031D01*
X8720182Y-12109031D02*
X8729705Y-12128079D01*
X8729705Y-12128079D02*
X8739229Y-12166174D01*
X8739229Y-12166174D02*
X8739229Y-12213793D01*
X8739229Y-12213793D02*
X8729705Y-12251888D01*
X8729705Y-12251888D02*
X8720182Y-12270936D01*
X8720182Y-12270936D02*
X8710658Y-12280460D01*
X8710658Y-12280460D02*
X8691610Y-12289984D01*
X8691610Y-12289984D02*
X8672563Y-12289984D01*
X8672563Y-12289984D02*
X8653515Y-12280460D01*
X8653515Y-12280460D02*
X8643991Y-12270936D01*
X8643991Y-12270936D02*
X8634467Y-12251888D01*
X8634467Y-12251888D02*
X8624944Y-12213793D01*
X8624944Y-12213793D02*
X8624944Y-12166174D01*
X8624944Y-12166174D02*
X8634467Y-12128079D01*
X8634467Y-12128079D02*
X8643991Y-12109031D01*
X8643991Y-12109031D02*
X8653515Y-12099508D01*
X8653515Y-12099508D02*
X8672563Y-12089984D01*
X8863039Y-12089984D02*
X8882086Y-12089984D01*
X8882086Y-12089984D02*
X8901134Y-12099508D01*
X8901134Y-12099508D02*
X8910658Y-12109031D01*
X8910658Y-12109031D02*
X8920182Y-12128079D01*
X8920182Y-12128079D02*
X8929705Y-12166174D01*
X8929705Y-12166174D02*
X8929705Y-12213793D01*
X8929705Y-12213793D02*
X8920182Y-12251888D01*
X8920182Y-12251888D02*
X8910658Y-12270936D01*
X8910658Y-12270936D02*
X8901134Y-12280460D01*
X8901134Y-12280460D02*
X8882086Y-12289984D01*
X8882086Y-12289984D02*
X8863039Y-12289984D01*
X8863039Y-12289984D02*
X8843991Y-12280460D01*
X8843991Y-12280460D02*
X8834467Y-12270936D01*
X8834467Y-12270936D02*
X8824944Y-12251888D01*
X8824944Y-12251888D02*
X8815420Y-12213793D01*
X8815420Y-12213793D02*
X8815420Y-12166174D01*
X8815420Y-12166174D02*
X8824944Y-12128079D01*
X8824944Y-12128079D02*
X8834467Y-12109031D01*
X8834467Y-12109031D02*
X8843991Y-12099508D01*
X8843991Y-12099508D02*
X8863039Y-12089984D01*
X9015420Y-12289984D02*
X9015420Y-12156650D01*
X9015420Y-12175698D02*
X9024944Y-12166174D01*
X9024944Y-12166174D02*
X9043991Y-12156650D01*
X9043991Y-12156650D02*
X9072563Y-12156650D01*
X9072563Y-12156650D02*
X9091610Y-12166174D01*
X9091610Y-12166174D02*
X9101134Y-12185222D01*
X9101134Y-12185222D02*
X9101134Y-12289984D01*
X9101134Y-12185222D02*
X9110658Y-12166174D01*
X9110658Y-12166174D02*
X9129705Y-12156650D01*
X9129705Y-12156650D02*
X9158277Y-12156650D01*
X9158277Y-12156650D02*
X9177325Y-12166174D01*
X9177325Y-12166174D02*
X9186848Y-12185222D01*
X9186848Y-12185222D02*
X9186848Y-12289984D01*
X9282086Y-12289984D02*
X9282086Y-12156650D01*
X9282086Y-12175698D02*
X9291610Y-12166174D01*
X9291610Y-12166174D02*
X9310658Y-12156650D01*
X9310658Y-12156650D02*
X9339229Y-12156650D01*
X9339229Y-12156650D02*
X9358277Y-12166174D01*
X9358277Y-12166174D02*
X9367801Y-12185222D01*
X9367801Y-12185222D02*
X9367801Y-12289984D01*
X9367801Y-12185222D02*
X9377325Y-12166174D01*
X9377325Y-12166174D02*
X9396372Y-12156650D01*
X9396372Y-12156650D02*
X9424944Y-12156650D01*
X9424944Y-12156650D02*
X9443991Y-12166174D01*
X9443991Y-12166174D02*
X9453515Y-12185222D01*
X9453515Y-12185222D02*
X9453515Y-12289984D01*
X9843991Y-12080460D02*
X9672563Y-12337603D01*
X10101134Y-12089984D02*
X10120182Y-12089984D01*
X10120182Y-12089984D02*
X10139229Y-12099508D01*
X10139229Y-12099508D02*
X10148753Y-12109031D01*
X10148753Y-12109031D02*
X10158277Y-12128079D01*
X10158277Y-12128079D02*
X10167801Y-12166174D01*
X10167801Y-12166174D02*
X10167801Y-12213793D01*
X10167801Y-12213793D02*
X10158277Y-12251888D01*
X10158277Y-12251888D02*
X10148753Y-12270936D01*
X10148753Y-12270936D02*
X10139229Y-12280460D01*
X10139229Y-12280460D02*
X10120182Y-12289984D01*
X10120182Y-12289984D02*
X10101134Y-12289984D01*
X10101134Y-12289984D02*
X10082087Y-12280460D01*
X10082087Y-12280460D02*
X10072563Y-12270936D01*
X10072563Y-12270936D02*
X10063039Y-12251888D01*
X10063039Y-12251888D02*
X10053515Y-12213793D01*
X10053515Y-12213793D02*
X10053515Y-12166174D01*
X10053515Y-12166174D02*
X10063039Y-12128079D01*
X10063039Y-12128079D02*
X10072563Y-12109031D01*
X10072563Y-12109031D02*
X10082087Y-12099508D01*
X10082087Y-12099508D02*
X10101134Y-12089984D01*
X10253515Y-12270936D02*
X10263039Y-12280460D01*
X10263039Y-12280460D02*
X10253515Y-12289984D01*
X10253515Y-12289984D02*
X10243991Y-12280460D01*
X10243991Y-12280460D02*
X10253515Y-12270936D01*
X10253515Y-12270936D02*
X10253515Y-12289984D01*
X10386848Y-12089984D02*
X10405896Y-12089984D01*
X10405896Y-12089984D02*
X10424944Y-12099508D01*
X10424944Y-12099508D02*
X10434468Y-12109031D01*
X10434468Y-12109031D02*
X10443991Y-12128079D01*
X10443991Y-12128079D02*
X10453515Y-12166174D01*
X10453515Y-12166174D02*
X10453515Y-12213793D01*
X10453515Y-12213793D02*
X10443991Y-12251888D01*
X10443991Y-12251888D02*
X10434468Y-12270936D01*
X10434468Y-12270936D02*
X10424944Y-12280460D01*
X10424944Y-12280460D02*
X10405896Y-12289984D01*
X10405896Y-12289984D02*
X10386848Y-12289984D01*
X10386848Y-12289984D02*
X10367801Y-12280460D01*
X10367801Y-12280460D02*
X10358277Y-12270936D01*
X10358277Y-12270936D02*
X10348753Y-12251888D01*
X10348753Y-12251888D02*
X10339229Y-12213793D01*
X10339229Y-12213793D02*
X10339229Y-12166174D01*
X10339229Y-12166174D02*
X10348753Y-12128079D01*
X10348753Y-12128079D02*
X10358277Y-12109031D01*
X10358277Y-12109031D02*
X10367801Y-12099508D01*
X10367801Y-12099508D02*
X10386848Y-12089984D01*
X10634468Y-12089984D02*
X10539229Y-12089984D01*
X10539229Y-12089984D02*
X10529706Y-12185222D01*
X10529706Y-12185222D02*
X10539229Y-12175698D01*
X10539229Y-12175698D02*
X10558277Y-12166174D01*
X10558277Y-12166174D02*
X10605896Y-12166174D01*
X10605896Y-12166174D02*
X10624944Y-12175698D01*
X10624944Y-12175698D02*
X10634468Y-12185222D01*
X10634468Y-12185222D02*
X10643991Y-12204269D01*
X10643991Y-12204269D02*
X10643991Y-12251888D01*
X10643991Y-12251888D02*
X10634468Y-12270936D01*
X10634468Y-12270936D02*
X10624944Y-12280460D01*
X10624944Y-12280460D02*
X10605896Y-12289984D01*
X10605896Y-12289984D02*
X10558277Y-12289984D01*
X10558277Y-12289984D02*
X10539229Y-12280460D01*
X10539229Y-12280460D02*
X10529706Y-12270936D01*
X10739229Y-12289984D02*
X10777325Y-12289984D01*
X10777325Y-12289984D02*
X10796372Y-12280460D01*
X10796372Y-12280460D02*
X10805896Y-12270936D01*
X10805896Y-12270936D02*
X10824944Y-12242365D01*
X10824944Y-12242365D02*
X10834468Y-12204269D01*
X10834468Y-12204269D02*
X10834468Y-12128079D01*
X10834468Y-12128079D02*
X10824944Y-12109031D01*
X10824944Y-12109031D02*
X10815420Y-12099508D01*
X10815420Y-12099508D02*
X10796372Y-12089984D01*
X10796372Y-12089984D02*
X10758277Y-12089984D01*
X10758277Y-12089984D02*
X10739229Y-12099508D01*
X10739229Y-12099508D02*
X10729706Y-12109031D01*
X10729706Y-12109031D02*
X10720182Y-12128079D01*
X10720182Y-12128079D02*
X10720182Y-12175698D01*
X10720182Y-12175698D02*
X10729706Y-12194746D01*
X10729706Y-12194746D02*
X10739229Y-12204269D01*
X10739229Y-12204269D02*
X10758277Y-12213793D01*
X10758277Y-12213793D02*
X10796372Y-12213793D01*
X10796372Y-12213793D02*
X10815420Y-12204269D01*
X10815420Y-12204269D02*
X10824944Y-12194746D01*
X10824944Y-12194746D02*
X10834468Y-12175698D01*
X11024944Y-12289984D02*
X10910658Y-12289984D01*
X10967801Y-12289984D02*
X10967801Y-12089984D01*
X10967801Y-12089984D02*
X10948753Y-12118555D01*
X10948753Y-12118555D02*
X10929706Y-12137603D01*
X10929706Y-12137603D02*
X10910658Y-12147127D01*
X11101134Y-12089984D02*
X11101134Y-12128079D01*
X11177325Y-12089984D02*
X11177325Y-12128079D01*
X11472563Y-12366174D02*
X11463039Y-12356650D01*
X11463039Y-12356650D02*
X11443991Y-12328079D01*
X11443991Y-12328079D02*
X11434468Y-12309031D01*
X11434468Y-12309031D02*
X11424944Y-12280460D01*
X11424944Y-12280460D02*
X11415420Y-12232841D01*
X11415420Y-12232841D02*
X11415420Y-12194746D01*
X11415420Y-12194746D02*
X11424944Y-12147127D01*
X11424944Y-12147127D02*
X11434468Y-12118555D01*
X11434468Y-12118555D02*
X11443991Y-12099508D01*
X11443991Y-12099508D02*
X11463039Y-12070936D01*
X11463039Y-12070936D02*
X11472563Y-12061412D01*
X11539229Y-12109031D02*
X11548753Y-12099508D01*
X11548753Y-12099508D02*
X11567801Y-12089984D01*
X11567801Y-12089984D02*
X11615420Y-12089984D01*
X11615420Y-12089984D02*
X11634468Y-12099508D01*
X11634468Y-12099508D02*
X11643991Y-12109031D01*
X11643991Y-12109031D02*
X11653515Y-12128079D01*
X11653515Y-12128079D02*
X11653515Y-12147127D01*
X11653515Y-12147127D02*
X11643991Y-12175698D01*
X11643991Y-12175698D02*
X11529706Y-12289984D01*
X11529706Y-12289984D02*
X11653515Y-12289984D01*
X11729706Y-12109031D02*
X11739229Y-12099508D01*
X11739229Y-12099508D02*
X11758277Y-12089984D01*
X11758277Y-12089984D02*
X11805896Y-12089984D01*
X11805896Y-12089984D02*
X11824944Y-12099508D01*
X11824944Y-12099508D02*
X11834468Y-12109031D01*
X11834468Y-12109031D02*
X11843991Y-12128079D01*
X11843991Y-12128079D02*
X11843991Y-12147127D01*
X11843991Y-12147127D02*
X11834468Y-12175698D01*
X11834468Y-12175698D02*
X11720182Y-12289984D01*
X11720182Y-12289984D02*
X11843991Y-12289984D01*
X12082087Y-12289984D02*
X12082087Y-12089984D01*
X12167801Y-12289984D02*
X12167801Y-12185222D01*
X12167801Y-12185222D02*
X12158277Y-12166174D01*
X12158277Y-12166174D02*
X12139230Y-12156650D01*
X12139230Y-12156650D02*
X12110658Y-12156650D01*
X12110658Y-12156650D02*
X12091610Y-12166174D01*
X12091610Y-12166174D02*
X12082087Y-12175698D01*
X12291610Y-12289984D02*
X12272563Y-12280460D01*
X12272563Y-12280460D02*
X12263039Y-12270936D01*
X12263039Y-12270936D02*
X12253515Y-12251888D01*
X12253515Y-12251888D02*
X12253515Y-12194746D01*
X12253515Y-12194746D02*
X12263039Y-12175698D01*
X12263039Y-12175698D02*
X12272563Y-12166174D01*
X12272563Y-12166174D02*
X12291610Y-12156650D01*
X12291610Y-12156650D02*
X12320182Y-12156650D01*
X12320182Y-12156650D02*
X12339230Y-12166174D01*
X12339230Y-12166174D02*
X12348753Y-12175698D01*
X12348753Y-12175698D02*
X12358277Y-12194746D01*
X12358277Y-12194746D02*
X12358277Y-12251888D01*
X12358277Y-12251888D02*
X12348753Y-12270936D01*
X12348753Y-12270936D02*
X12339230Y-12280460D01*
X12339230Y-12280460D02*
X12320182Y-12289984D01*
X12320182Y-12289984D02*
X12291610Y-12289984D01*
X12472563Y-12289984D02*
X12453515Y-12280460D01*
X12453515Y-12280460D02*
X12443991Y-12261412D01*
X12443991Y-12261412D02*
X12443991Y-12089984D01*
X12624944Y-12280460D02*
X12605896Y-12289984D01*
X12605896Y-12289984D02*
X12567801Y-12289984D01*
X12567801Y-12289984D02*
X12548753Y-12280460D01*
X12548753Y-12280460D02*
X12539230Y-12261412D01*
X12539230Y-12261412D02*
X12539230Y-12185222D01*
X12539230Y-12185222D02*
X12548753Y-12166174D01*
X12548753Y-12166174D02*
X12567801Y-12156650D01*
X12567801Y-12156650D02*
X12605896Y-12156650D01*
X12605896Y-12156650D02*
X12624944Y-12166174D01*
X12624944Y-12166174D02*
X12634468Y-12185222D01*
X12634468Y-12185222D02*
X12634468Y-12204269D01*
X12634468Y-12204269D02*
X12539230Y-12223317D01*
X12710658Y-12280460D02*
X12729706Y-12289984D01*
X12729706Y-12289984D02*
X12767801Y-12289984D01*
X12767801Y-12289984D02*
X12786849Y-12280460D01*
X12786849Y-12280460D02*
X12796372Y-12261412D01*
X12796372Y-12261412D02*
X12796372Y-12251888D01*
X12796372Y-12251888D02*
X12786849Y-12232841D01*
X12786849Y-12232841D02*
X12767801Y-12223317D01*
X12767801Y-12223317D02*
X12739230Y-12223317D01*
X12739230Y-12223317D02*
X12720182Y-12213793D01*
X12720182Y-12213793D02*
X12710658Y-12194746D01*
X12710658Y-12194746D02*
X12710658Y-12185222D01*
X12710658Y-12185222D02*
X12720182Y-12166174D01*
X12720182Y-12166174D02*
X12739230Y-12156650D01*
X12739230Y-12156650D02*
X12767801Y-12156650D01*
X12767801Y-12156650D02*
X12786849Y-12166174D01*
X12863039Y-12366174D02*
X12872563Y-12356650D01*
X12872563Y-12356650D02*
X12891611Y-12328079D01*
X12891611Y-12328079D02*
X12901134Y-12309031D01*
X12901134Y-12309031D02*
X12910658Y-12280460D01*
X12910658Y-12280460D02*
X12920182Y-12232841D01*
X12920182Y-12232841D02*
X12920182Y-12194746D01*
X12920182Y-12194746D02*
X12910658Y-12147127D01*
X12910658Y-12147127D02*
X12901134Y-12118555D01*
X12901134Y-12118555D02*
X12891611Y-12099508D01*
X12891611Y-12099508D02*
X12872563Y-12070936D01*
X12872563Y-12070936D02*
X12863039Y-12061412D01*
X7697500Y-12368500D02*
X7897500Y-12568500D01*
X7897500Y-12368500D02*
X7697500Y-12568500D01*
X7897500Y-12468500D02*
G75*
G02*
X7697500Y-12468500I-100000J0D01*
G01*
X7697500Y-12468500D02*
G75*
G02*
X7897500Y-12468500I100000J0D01*
G01*
X8139229Y-12359984D02*
X8263039Y-12359984D01*
X8263039Y-12359984D02*
X8196372Y-12436174D01*
X8196372Y-12436174D02*
X8224943Y-12436174D01*
X8224943Y-12436174D02*
X8243991Y-12445698D01*
X8243991Y-12445698D02*
X8253515Y-12455222D01*
X8253515Y-12455222D02*
X8263039Y-12474269D01*
X8263039Y-12474269D02*
X8263039Y-12521888D01*
X8263039Y-12521888D02*
X8253515Y-12540936D01*
X8253515Y-12540936D02*
X8243991Y-12550460D01*
X8243991Y-12550460D02*
X8224943Y-12559984D01*
X8224943Y-12559984D02*
X8167801Y-12559984D01*
X8167801Y-12559984D02*
X8148753Y-12550460D01*
X8148753Y-12550460D02*
X8139229Y-12540936D01*
X8348753Y-12540936D02*
X8358277Y-12550460D01*
X8358277Y-12550460D02*
X8348753Y-12559984D01*
X8348753Y-12559984D02*
X8339229Y-12550460D01*
X8339229Y-12550460D02*
X8348753Y-12540936D01*
X8348753Y-12540936D02*
X8348753Y-12559984D01*
X8434467Y-12379031D02*
X8443991Y-12369508D01*
X8443991Y-12369508D02*
X8463039Y-12359984D01*
X8463039Y-12359984D02*
X8510658Y-12359984D01*
X8510658Y-12359984D02*
X8529705Y-12369508D01*
X8529705Y-12369508D02*
X8539229Y-12379031D01*
X8539229Y-12379031D02*
X8548753Y-12398079D01*
X8548753Y-12398079D02*
X8548753Y-12417127D01*
X8548753Y-12417127D02*
X8539229Y-12445698D01*
X8539229Y-12445698D02*
X8424944Y-12559984D01*
X8424944Y-12559984D02*
X8548753Y-12559984D01*
X8672563Y-12359984D02*
X8691610Y-12359984D01*
X8691610Y-12359984D02*
X8710658Y-12369508D01*
X8710658Y-12369508D02*
X8720182Y-12379031D01*
X8720182Y-12379031D02*
X8729705Y-12398079D01*
X8729705Y-12398079D02*
X8739229Y-12436174D01*
X8739229Y-12436174D02*
X8739229Y-12483793D01*
X8739229Y-12483793D02*
X8729705Y-12521888D01*
X8729705Y-12521888D02*
X8720182Y-12540936D01*
X8720182Y-12540936D02*
X8710658Y-12550460D01*
X8710658Y-12550460D02*
X8691610Y-12559984D01*
X8691610Y-12559984D02*
X8672563Y-12559984D01*
X8672563Y-12559984D02*
X8653515Y-12550460D01*
X8653515Y-12550460D02*
X8643991Y-12540936D01*
X8643991Y-12540936D02*
X8634467Y-12521888D01*
X8634467Y-12521888D02*
X8624944Y-12483793D01*
X8624944Y-12483793D02*
X8624944Y-12436174D01*
X8624944Y-12436174D02*
X8634467Y-12398079D01*
X8634467Y-12398079D02*
X8643991Y-12379031D01*
X8643991Y-12379031D02*
X8653515Y-12369508D01*
X8653515Y-12369508D02*
X8672563Y-12359984D01*
X8863039Y-12359984D02*
X8882086Y-12359984D01*
X8882086Y-12359984D02*
X8901134Y-12369508D01*
X8901134Y-12369508D02*
X8910658Y-12379031D01*
X8910658Y-12379031D02*
X8920182Y-12398079D01*
X8920182Y-12398079D02*
X8929705Y-12436174D01*
X8929705Y-12436174D02*
X8929705Y-12483793D01*
X8929705Y-12483793D02*
X8920182Y-12521888D01*
X8920182Y-12521888D02*
X8910658Y-12540936D01*
X8910658Y-12540936D02*
X8901134Y-12550460D01*
X8901134Y-12550460D02*
X8882086Y-12559984D01*
X8882086Y-12559984D02*
X8863039Y-12559984D01*
X8863039Y-12559984D02*
X8843991Y-12550460D01*
X8843991Y-12550460D02*
X8834467Y-12540936D01*
X8834467Y-12540936D02*
X8824944Y-12521888D01*
X8824944Y-12521888D02*
X8815420Y-12483793D01*
X8815420Y-12483793D02*
X8815420Y-12436174D01*
X8815420Y-12436174D02*
X8824944Y-12398079D01*
X8824944Y-12398079D02*
X8834467Y-12379031D01*
X8834467Y-12379031D02*
X8843991Y-12369508D01*
X8843991Y-12369508D02*
X8863039Y-12359984D01*
X9015420Y-12559984D02*
X9015420Y-12426650D01*
X9015420Y-12445698D02*
X9024944Y-12436174D01*
X9024944Y-12436174D02*
X9043991Y-12426650D01*
X9043991Y-12426650D02*
X9072563Y-12426650D01*
X9072563Y-12426650D02*
X9091610Y-12436174D01*
X9091610Y-12436174D02*
X9101134Y-12455222D01*
X9101134Y-12455222D02*
X9101134Y-12559984D01*
X9101134Y-12455222D02*
X9110658Y-12436174D01*
X9110658Y-12436174D02*
X9129705Y-12426650D01*
X9129705Y-12426650D02*
X9158277Y-12426650D01*
X9158277Y-12426650D02*
X9177325Y-12436174D01*
X9177325Y-12436174D02*
X9186848Y-12455222D01*
X9186848Y-12455222D02*
X9186848Y-12559984D01*
X9282086Y-12559984D02*
X9282086Y-12426650D01*
X9282086Y-12445698D02*
X9291610Y-12436174D01*
X9291610Y-12436174D02*
X9310658Y-12426650D01*
X9310658Y-12426650D02*
X9339229Y-12426650D01*
X9339229Y-12426650D02*
X9358277Y-12436174D01*
X9358277Y-12436174D02*
X9367801Y-12455222D01*
X9367801Y-12455222D02*
X9367801Y-12559984D01*
X9367801Y-12455222D02*
X9377325Y-12436174D01*
X9377325Y-12436174D02*
X9396372Y-12426650D01*
X9396372Y-12426650D02*
X9424944Y-12426650D01*
X9424944Y-12426650D02*
X9443991Y-12436174D01*
X9443991Y-12436174D02*
X9453515Y-12455222D01*
X9453515Y-12455222D02*
X9453515Y-12559984D01*
X9843991Y-12350460D02*
X9672563Y-12607603D01*
X10101134Y-12359984D02*
X10120182Y-12359984D01*
X10120182Y-12359984D02*
X10139229Y-12369508D01*
X10139229Y-12369508D02*
X10148753Y-12379031D01*
X10148753Y-12379031D02*
X10158277Y-12398079D01*
X10158277Y-12398079D02*
X10167801Y-12436174D01*
X10167801Y-12436174D02*
X10167801Y-12483793D01*
X10167801Y-12483793D02*
X10158277Y-12521888D01*
X10158277Y-12521888D02*
X10148753Y-12540936D01*
X10148753Y-12540936D02*
X10139229Y-12550460D01*
X10139229Y-12550460D02*
X10120182Y-12559984D01*
X10120182Y-12559984D02*
X10101134Y-12559984D01*
X10101134Y-12559984D02*
X10082087Y-12550460D01*
X10082087Y-12550460D02*
X10072563Y-12540936D01*
X10072563Y-12540936D02*
X10063039Y-12521888D01*
X10063039Y-12521888D02*
X10053515Y-12483793D01*
X10053515Y-12483793D02*
X10053515Y-12436174D01*
X10053515Y-12436174D02*
X10063039Y-12398079D01*
X10063039Y-12398079D02*
X10072563Y-12379031D01*
X10072563Y-12379031D02*
X10082087Y-12369508D01*
X10082087Y-12369508D02*
X10101134Y-12359984D01*
X10253515Y-12540936D02*
X10263039Y-12550460D01*
X10263039Y-12550460D02*
X10253515Y-12559984D01*
X10253515Y-12559984D02*
X10243991Y-12550460D01*
X10243991Y-12550460D02*
X10253515Y-12540936D01*
X10253515Y-12540936D02*
X10253515Y-12559984D01*
X10453515Y-12559984D02*
X10339229Y-12559984D01*
X10396372Y-12559984D02*
X10396372Y-12359984D01*
X10396372Y-12359984D02*
X10377325Y-12388555D01*
X10377325Y-12388555D02*
X10358277Y-12407603D01*
X10358277Y-12407603D02*
X10339229Y-12417127D01*
X10529706Y-12379031D02*
X10539229Y-12369508D01*
X10539229Y-12369508D02*
X10558277Y-12359984D01*
X10558277Y-12359984D02*
X10605896Y-12359984D01*
X10605896Y-12359984D02*
X10624944Y-12369508D01*
X10624944Y-12369508D02*
X10634468Y-12379031D01*
X10634468Y-12379031D02*
X10643991Y-12398079D01*
X10643991Y-12398079D02*
X10643991Y-12417127D01*
X10643991Y-12417127D02*
X10634468Y-12445698D01*
X10634468Y-12445698D02*
X10520182Y-12559984D01*
X10520182Y-12559984D02*
X10643991Y-12559984D01*
X10815420Y-12359984D02*
X10777325Y-12359984D01*
X10777325Y-12359984D02*
X10758277Y-12369508D01*
X10758277Y-12369508D02*
X10748753Y-12379031D01*
X10748753Y-12379031D02*
X10729706Y-12407603D01*
X10729706Y-12407603D02*
X10720182Y-12445698D01*
X10720182Y-12445698D02*
X10720182Y-12521888D01*
X10720182Y-12521888D02*
X10729706Y-12540936D01*
X10729706Y-12540936D02*
X10739229Y-12550460D01*
X10739229Y-12550460D02*
X10758277Y-12559984D01*
X10758277Y-12559984D02*
X10796372Y-12559984D01*
X10796372Y-12559984D02*
X10815420Y-12550460D01*
X10815420Y-12550460D02*
X10824944Y-12540936D01*
X10824944Y-12540936D02*
X10834468Y-12521888D01*
X10834468Y-12521888D02*
X10834468Y-12474269D01*
X10834468Y-12474269D02*
X10824944Y-12455222D01*
X10824944Y-12455222D02*
X10815420Y-12445698D01*
X10815420Y-12445698D02*
X10796372Y-12436174D01*
X10796372Y-12436174D02*
X10758277Y-12436174D01*
X10758277Y-12436174D02*
X10739229Y-12445698D01*
X10739229Y-12445698D02*
X10729706Y-12455222D01*
X10729706Y-12455222D02*
X10720182Y-12474269D01*
X10958277Y-12359984D02*
X10977325Y-12359984D01*
X10977325Y-12359984D02*
X10996372Y-12369508D01*
X10996372Y-12369508D02*
X11005896Y-12379031D01*
X11005896Y-12379031D02*
X11015420Y-12398079D01*
X11015420Y-12398079D02*
X11024944Y-12436174D01*
X11024944Y-12436174D02*
X11024944Y-12483793D01*
X11024944Y-12483793D02*
X11015420Y-12521888D01*
X11015420Y-12521888D02*
X11005896Y-12540936D01*
X11005896Y-12540936D02*
X10996372Y-12550460D01*
X10996372Y-12550460D02*
X10977325Y-12559984D01*
X10977325Y-12559984D02*
X10958277Y-12559984D01*
X10958277Y-12559984D02*
X10939229Y-12550460D01*
X10939229Y-12550460D02*
X10929706Y-12540936D01*
X10929706Y-12540936D02*
X10920182Y-12521888D01*
X10920182Y-12521888D02*
X10910658Y-12483793D01*
X10910658Y-12483793D02*
X10910658Y-12436174D01*
X10910658Y-12436174D02*
X10920182Y-12398079D01*
X10920182Y-12398079D02*
X10929706Y-12379031D01*
X10929706Y-12379031D02*
X10939229Y-12369508D01*
X10939229Y-12369508D02*
X10958277Y-12359984D01*
X11101134Y-12359984D02*
X11101134Y-12398079D01*
X11177325Y-12359984D02*
X11177325Y-12398079D01*
X11472563Y-12636174D02*
X11463039Y-12626650D01*
X11463039Y-12626650D02*
X11443991Y-12598079D01*
X11443991Y-12598079D02*
X11434468Y-12579031D01*
X11434468Y-12579031D02*
X11424944Y-12550460D01*
X11424944Y-12550460D02*
X11415420Y-12502841D01*
X11415420Y-12502841D02*
X11415420Y-12464746D01*
X11415420Y-12464746D02*
X11424944Y-12417127D01*
X11424944Y-12417127D02*
X11434468Y-12388555D01*
X11434468Y-12388555D02*
X11443991Y-12369508D01*
X11443991Y-12369508D02*
X11463039Y-12340936D01*
X11463039Y-12340936D02*
X11472563Y-12331412D01*
X11529706Y-12359984D02*
X11653515Y-12359984D01*
X11653515Y-12359984D02*
X11586848Y-12436174D01*
X11586848Y-12436174D02*
X11615420Y-12436174D01*
X11615420Y-12436174D02*
X11634468Y-12445698D01*
X11634468Y-12445698D02*
X11643991Y-12455222D01*
X11643991Y-12455222D02*
X11653515Y-12474269D01*
X11653515Y-12474269D02*
X11653515Y-12521888D01*
X11653515Y-12521888D02*
X11643991Y-12540936D01*
X11643991Y-12540936D02*
X11634468Y-12550460D01*
X11634468Y-12550460D02*
X11615420Y-12559984D01*
X11615420Y-12559984D02*
X11558277Y-12559984D01*
X11558277Y-12559984D02*
X11539229Y-12550460D01*
X11539229Y-12550460D02*
X11529706Y-12540936D01*
X11891610Y-12559984D02*
X11891610Y-12359984D01*
X11977325Y-12559984D02*
X11977325Y-12455222D01*
X11977325Y-12455222D02*
X11967801Y-12436174D01*
X11967801Y-12436174D02*
X11948753Y-12426650D01*
X11948753Y-12426650D02*
X11920182Y-12426650D01*
X11920182Y-12426650D02*
X11901134Y-12436174D01*
X11901134Y-12436174D02*
X11891610Y-12445698D01*
X12101134Y-12559984D02*
X12082087Y-12550460D01*
X12082087Y-12550460D02*
X12072563Y-12540936D01*
X12072563Y-12540936D02*
X12063039Y-12521888D01*
X12063039Y-12521888D02*
X12063039Y-12464746D01*
X12063039Y-12464746D02*
X12072563Y-12445698D01*
X12072563Y-12445698D02*
X12082087Y-12436174D01*
X12082087Y-12436174D02*
X12101134Y-12426650D01*
X12101134Y-12426650D02*
X12129706Y-12426650D01*
X12129706Y-12426650D02*
X12148753Y-12436174D01*
X12148753Y-12436174D02*
X12158277Y-12445698D01*
X12158277Y-12445698D02*
X12167801Y-12464746D01*
X12167801Y-12464746D02*
X12167801Y-12521888D01*
X12167801Y-12521888D02*
X12158277Y-12540936D01*
X12158277Y-12540936D02*
X12148753Y-12550460D01*
X12148753Y-12550460D02*
X12129706Y-12559984D01*
X12129706Y-12559984D02*
X12101134Y-12559984D01*
X12282087Y-12559984D02*
X12263039Y-12550460D01*
X12263039Y-12550460D02*
X12253515Y-12531412D01*
X12253515Y-12531412D02*
X12253515Y-12359984D01*
X12434468Y-12550460D02*
X12415420Y-12559984D01*
X12415420Y-12559984D02*
X12377325Y-12559984D01*
X12377325Y-12559984D02*
X12358277Y-12550460D01*
X12358277Y-12550460D02*
X12348753Y-12531412D01*
X12348753Y-12531412D02*
X12348753Y-12455222D01*
X12348753Y-12455222D02*
X12358277Y-12436174D01*
X12358277Y-12436174D02*
X12377325Y-12426650D01*
X12377325Y-12426650D02*
X12415420Y-12426650D01*
X12415420Y-12426650D02*
X12434468Y-12436174D01*
X12434468Y-12436174D02*
X12443991Y-12455222D01*
X12443991Y-12455222D02*
X12443991Y-12474269D01*
X12443991Y-12474269D02*
X12348753Y-12493317D01*
X12520182Y-12550460D02*
X12539230Y-12559984D01*
X12539230Y-12559984D02*
X12577325Y-12559984D01*
X12577325Y-12559984D02*
X12596372Y-12550460D01*
X12596372Y-12550460D02*
X12605896Y-12531412D01*
X12605896Y-12531412D02*
X12605896Y-12521888D01*
X12605896Y-12521888D02*
X12596372Y-12502841D01*
X12596372Y-12502841D02*
X12577325Y-12493317D01*
X12577325Y-12493317D02*
X12548753Y-12493317D01*
X12548753Y-12493317D02*
X12529706Y-12483793D01*
X12529706Y-12483793D02*
X12520182Y-12464746D01*
X12520182Y-12464746D02*
X12520182Y-12455222D01*
X12520182Y-12455222D02*
X12529706Y-12436174D01*
X12529706Y-12436174D02*
X12548753Y-12426650D01*
X12548753Y-12426650D02*
X12577325Y-12426650D01*
X12577325Y-12426650D02*
X12596372Y-12436174D01*
X12672563Y-12636174D02*
X12682087Y-12626650D01*
X12682087Y-12626650D02*
X12701134Y-12598079D01*
X12701134Y-12598079D02*
X12710658Y-12579031D01*
X12710658Y-12579031D02*
X12720182Y-12550460D01*
X12720182Y-12550460D02*
X12729706Y-12502841D01*
X12729706Y-12502841D02*
X12729706Y-12464746D01*
X12729706Y-12464746D02*
X12720182Y-12417127D01*
X12720182Y-12417127D02*
X12710658Y-12388555D01*
X12710658Y-12388555D02*
X12701134Y-12369508D01*
X12701134Y-12369508D02*
X12682087Y-12340936D01*
X12682087Y-12340936D02*
X12672563Y-12331412D01*
M02*
