G04 #@! TF.GenerationSoftware,KiCad,Pcbnew,9.0.2-9.0.2-0~ubuntu22.04.1*
G04 #@! TF.CreationDate,2025-06-09T06:11:19+02:00*
G04 #@! TF.ProjectId,amp_board_Rev-A,616d705f-626f-4617-9264-5f5265762d41,rev?*
G04 #@! TF.SameCoordinates,Original*
G04 #@! TF.FileFunction,Copper,L1,Top*
G04 #@! TF.FilePolarity,Positive*
%FSLAX46Y46*%
G04 Gerber Fmt 4.6, Leading zero omitted, Abs format (unit mm)*
G04 Created by KiCad (PCBNEW 9.0.2-9.0.2-0~ubuntu22.04.1) date 2025-06-09 06:11:19*
%MOMM*%
%LPD*%
G01*
G04 APERTURE LIST*
G04 Aperture macros list*
%AMRoundRect*
0 Rectangle with rounded corners*
0 $1 Rounding radius*
0 $2 $3 $4 $5 $6 $7 $8 $9 X,Y pos of 4 corners*
0 Add a 4 corners polygon primitive as box body*
4,1,4,$2,$3,$4,$5,$6,$7,$8,$9,$2,$3,0*
0 Add four circle primitives for the rounded corners*
1,1,$1+$1,$2,$3*
1,1,$1+$1,$4,$5*
1,1,$1+$1,$6,$7*
1,1,$1+$1,$8,$9*
0 Add four rect primitives between the rounded corners*
20,1,$1+$1,$2,$3,$4,$5,0*
20,1,$1+$1,$4,$5,$6,$7,0*
20,1,$1+$1,$6,$7,$8,$9,0*
20,1,$1+$1,$8,$9,$2,$3,0*%
G04 Aperture macros list end*
G04 #@! TA.AperFunction,ComponentPad*
%ADD10C,2.000000*%
G04 #@! TD*
G04 #@! TA.AperFunction,ComponentPad*
%ADD11O,2.000000X2.000000*%
G04 #@! TD*
G04 #@! TA.AperFunction,ComponentPad*
%ADD12C,1.600000*%
G04 #@! TD*
G04 #@! TA.AperFunction,ComponentPad*
%ADD13R,1.500000X1.500000*%
G04 #@! TD*
G04 #@! TA.AperFunction,ComponentPad*
%ADD14C,1.500000*%
G04 #@! TD*
G04 #@! TA.AperFunction,ComponentPad*
%ADD15C,3.000000*%
G04 #@! TD*
G04 #@! TA.AperFunction,ComponentPad*
%ADD16O,1.600000X1.600000*%
G04 #@! TD*
G04 #@! TA.AperFunction,ComponentPad*
%ADD17C,3.600000*%
G04 #@! TD*
G04 #@! TA.AperFunction,ConnectorPad*
%ADD18C,5.600000*%
G04 #@! TD*
G04 #@! TA.AperFunction,ComponentPad*
%ADD19C,2.400000*%
G04 #@! TD*
G04 #@! TA.AperFunction,ComponentPad*
%ADD20R,1.800000X1.710000*%
G04 #@! TD*
G04 #@! TA.AperFunction,ComponentPad*
%ADD21O,1.800000X1.710000*%
G04 #@! TD*
G04 #@! TA.AperFunction,ComponentPad*
%ADD22RoundRect,0.500000X1.350000X-0.500000X1.350000X0.500000X-1.350000X0.500000X-1.350000X-0.500000X0*%
G04 #@! TD*
G04 #@! TA.AperFunction,ComponentPad*
%ADD23RoundRect,0.500000X0.900000X-0.500000X0.900000X0.500000X-0.900000X0.500000X-0.900000X-0.500000X0*%
G04 #@! TD*
G04 #@! TA.AperFunction,ComponentPad*
%ADD24O,2.800000X2.000000*%
G04 #@! TD*
G04 #@! TA.AperFunction,ComponentPad*
%ADD25O,3.700000X2.000000*%
G04 #@! TD*
G04 #@! TA.AperFunction,Conductor*
%ADD26C,0.500000*%
G04 #@! TD*
G04 #@! TA.AperFunction,Conductor*
%ADD27C,1.000000*%
G04 #@! TD*
G04 #@! TA.AperFunction,Conductor*
%ADD28C,2.000000*%
G04 #@! TD*
G04 APERTURE END LIST*
D10*
X86000000Y-82500000D03*
D11*
X91080000Y-82500000D03*
D12*
X177000000Y-69500000D03*
X177000000Y-64500000D03*
D13*
X137500000Y-81460000D03*
D14*
X137500000Y-84000000D03*
X137500000Y-86540000D03*
D15*
X154500000Y-102500000D03*
D13*
X88960000Y-76860000D03*
D14*
X91500000Y-76860000D03*
X94040000Y-76860000D03*
D12*
X185250000Y-88500000D03*
X181750000Y-88500000D03*
D13*
X162500000Y-81460000D03*
D14*
X162500000Y-84000000D03*
X162500000Y-86540000D03*
D13*
X187500000Y-70040000D03*
D14*
X187500000Y-67500000D03*
X187500000Y-64960000D03*
D12*
X91500000Y-70500000D03*
X86500000Y-70500000D03*
D13*
X112500000Y-72460000D03*
D14*
X112500000Y-75000000D03*
X112500000Y-77540000D03*
D12*
X166000000Y-72750000D03*
X166000000Y-69250000D03*
X177580000Y-85000000D03*
D16*
X167420000Y-85000000D03*
D13*
X182000000Y-72460000D03*
D14*
X182000000Y-75000000D03*
X182000000Y-77540000D03*
D12*
X173000000Y-74580000D03*
D16*
X173000000Y-64420000D03*
D15*
X81500000Y-62500000D03*
D17*
X150000000Y-64000000D03*
D18*
X150000000Y-64000000D03*
D15*
X195000000Y-102500000D03*
D19*
X197500000Y-96750000D03*
X197500000Y-74250000D03*
D20*
X86500000Y-92720000D03*
D21*
X86500000Y-95000000D03*
X86500000Y-97280000D03*
D15*
X213500000Y-102500000D03*
D13*
X112500000Y-70040000D03*
D14*
X112500000Y-67500000D03*
X112500000Y-64960000D03*
D15*
X81500000Y-82500000D03*
D12*
X102500000Y-87250000D03*
X102500000Y-83750000D03*
D13*
X187500000Y-72460000D03*
D14*
X187500000Y-75000000D03*
X187500000Y-77540000D03*
D15*
X145500000Y-102500000D03*
D13*
X179960000Y-81500000D03*
D14*
X182500000Y-81500000D03*
X185040000Y-81500000D03*
D12*
X174250000Y-99000000D03*
X170750000Y-99000000D03*
X204920000Y-88500000D03*
D16*
X215080000Y-88500000D03*
D12*
X130920000Y-64500000D03*
D16*
X141080000Y-64500000D03*
D12*
X216080000Y-67500000D03*
D16*
X205920000Y-67500000D03*
D15*
X218500000Y-82500000D03*
X154500000Y-98000000D03*
D12*
X190000000Y-93420000D03*
D16*
X190000000Y-103580000D03*
D19*
X116250000Y-99000000D03*
X138750000Y-99000000D03*
D12*
X127000000Y-74580000D03*
D16*
X127000000Y-64420000D03*
D13*
X211040000Y-76500000D03*
D14*
X208500000Y-76500000D03*
X205960000Y-76500000D03*
D12*
X169080000Y-64500000D03*
D16*
X158920000Y-64500000D03*
D13*
X118000000Y-72460000D03*
D14*
X118000000Y-75000000D03*
X118000000Y-77540000D03*
D12*
X171080000Y-78000000D03*
D16*
X160920000Y-78000000D03*
D12*
X122420000Y-85000000D03*
D16*
X132580000Y-85000000D03*
D13*
X118000000Y-70040000D03*
D14*
X118000000Y-67500000D03*
X118000000Y-64960000D03*
D13*
X200000000Y-71540000D03*
D14*
X200000000Y-69000000D03*
X200000000Y-66460000D03*
D15*
X86500000Y-102500000D03*
D13*
X120040000Y-81500000D03*
D14*
X117500000Y-81500000D03*
X114960000Y-81500000D03*
D17*
X207500000Y-95000000D03*
D18*
X207500000Y-95000000D03*
D20*
X213500000Y-97280000D03*
D21*
X213500000Y-95000000D03*
X213500000Y-92720000D03*
D13*
X182000000Y-70040000D03*
D14*
X182000000Y-67500000D03*
X182000000Y-64960000D03*
D12*
X167420000Y-81500000D03*
D16*
X177580000Y-81500000D03*
D12*
X190000000Y-90080000D03*
D16*
X190000000Y-79920000D03*
D12*
X122420000Y-88500000D03*
D16*
X132580000Y-88500000D03*
D15*
X218500000Y-78000000D03*
D12*
X110000000Y-90080000D03*
D16*
X110000000Y-79920000D03*
D15*
X218500000Y-62500000D03*
D12*
X83920000Y-67500000D03*
D16*
X94080000Y-67500000D03*
D15*
X86500000Y-62500000D03*
X100000000Y-102500000D03*
D22*
X154500000Y-94310000D03*
D23*
X154500000Y-87040000D03*
D24*
X154500000Y-77960000D03*
D25*
X154500000Y-70690000D03*
D13*
X100000000Y-71540000D03*
D14*
X100000000Y-69000000D03*
X100000000Y-66460000D03*
D15*
X105000000Y-102500000D03*
D12*
X132580000Y-81500000D03*
D16*
X122420000Y-81500000D03*
D15*
X145500000Y-98000000D03*
D12*
X197500000Y-87250000D03*
X197500000Y-83750000D03*
X106000000Y-66500000D03*
X106000000Y-71500000D03*
X125750000Y-99000000D03*
X129250000Y-99000000D03*
D17*
X92500000Y-95000000D03*
D18*
X92500000Y-95000000D03*
D15*
X213500000Y-62500000D03*
D12*
X123000000Y-69500000D03*
X123000000Y-64500000D03*
D10*
X213915000Y-82500000D03*
D11*
X208835000Y-82500000D03*
D19*
X183750000Y-99000000D03*
X161250000Y-99000000D03*
D15*
X91000000Y-102500000D03*
D12*
X95080000Y-88500000D03*
D16*
X84920000Y-88500000D03*
D12*
X113000000Y-103580000D03*
D16*
X113000000Y-93420000D03*
D15*
X218000000Y-102500000D03*
X200000000Y-102500000D03*
X81500000Y-78000000D03*
D12*
X110000000Y-93420000D03*
D16*
X110000000Y-103580000D03*
D15*
X209000000Y-102500000D03*
D12*
X187000000Y-103580000D03*
D16*
X187000000Y-93420000D03*
D22*
X145500000Y-94310000D03*
D23*
X145500000Y-87040000D03*
D24*
X145500000Y-77960000D03*
D25*
X145500000Y-70690000D03*
D12*
X134000000Y-72750000D03*
X134000000Y-69250000D03*
D15*
X82000000Y-102500000D03*
D12*
X194000000Y-66500000D03*
X194000000Y-71500000D03*
X208500000Y-71000000D03*
X213500000Y-71000000D03*
X177580000Y-88500000D03*
D16*
X167420000Y-88500000D03*
D19*
X102500000Y-96750000D03*
X102500000Y-74250000D03*
D12*
X128920000Y-78000000D03*
D16*
X139080000Y-78000000D03*
D12*
X114750000Y-88500000D03*
X118250000Y-88500000D03*
D26*
X102500000Y-77500000D02*
X102500000Y-83750000D01*
X102500000Y-77500000D02*
X109080000Y-77500000D01*
X109080000Y-79000000D02*
X110000000Y-79920000D01*
X112500000Y-75000000D02*
X111580000Y-75000000D01*
X102500000Y-74250000D02*
X102500000Y-77500000D01*
X109080000Y-77500000D02*
X109080000Y-79000000D01*
X111580000Y-75000000D02*
X109080000Y-77500000D01*
X105000000Y-99250000D02*
X102500000Y-96750000D01*
X102500000Y-87250000D02*
X102500000Y-96750000D01*
X105000000Y-102500000D02*
X105000000Y-99250000D01*
X125750000Y-91830000D02*
X132580000Y-85000000D01*
X125750000Y-99000000D02*
X116250000Y-99000000D01*
X125750000Y-98500000D02*
X125750000Y-91830000D01*
X88500000Y-92500000D02*
X88500000Y-95280000D01*
X88500000Y-95280000D02*
X86500000Y-97280000D01*
X92820000Y-73000000D02*
X88960000Y-76860000D01*
X98500000Y-73000000D02*
X92820000Y-73000000D01*
X99960000Y-71540000D02*
X98500000Y-73000000D01*
X93500000Y-81400000D02*
X93500000Y-87500000D01*
X100040000Y-71500000D02*
X100000000Y-71540000D01*
X106000000Y-71500000D02*
X100040000Y-71500000D01*
X93500000Y-87500000D02*
X88500000Y-92500000D01*
X100000000Y-71540000D02*
X99960000Y-71540000D01*
X88960000Y-76860000D02*
X93500000Y-81400000D01*
X112500000Y-70040000D02*
X112500000Y-72460000D01*
X106000000Y-66500000D02*
X106000000Y-69000000D01*
X106000000Y-69000000D02*
X111460000Y-69000000D01*
X100000000Y-69000000D02*
X106000000Y-69000000D01*
X111460000Y-69000000D02*
X112500000Y-70040000D01*
D27*
X132000000Y-70920000D02*
X139080000Y-78000000D01*
X112540000Y-65000000D02*
X112500000Y-64960000D01*
X140500000Y-92000000D02*
X128920000Y-103580000D01*
X101500000Y-64960000D02*
X100000000Y-66460000D01*
X118040000Y-65000000D02*
X112540000Y-65000000D01*
X112500000Y-64960000D02*
X101500000Y-64960000D01*
X132000000Y-65500000D02*
X132000000Y-70920000D01*
X130920000Y-64500000D02*
X131000000Y-64500000D01*
X128420000Y-67000000D02*
X120040000Y-67000000D01*
X120040000Y-67000000D02*
X118040000Y-65000000D01*
X130920000Y-64500000D02*
X128420000Y-67000000D01*
X128920000Y-103580000D02*
X113000000Y-103580000D01*
X139080000Y-78000000D02*
X140500000Y-79420000D01*
X131000000Y-64500000D02*
X132000000Y-65500000D01*
X140500000Y-79420000D02*
X140500000Y-92000000D01*
D26*
X94000000Y-65000000D02*
X89000000Y-65000000D01*
D28*
X81500000Y-62500000D02*
X81500000Y-67500000D01*
X91080000Y-82500000D02*
X88080000Y-85500000D01*
D26*
X122000000Y-63500000D02*
X95500000Y-63500000D01*
D28*
X81500000Y-72920000D02*
X91080000Y-82500000D01*
D26*
X86500000Y-67500000D02*
X83920000Y-67500000D01*
D28*
X81000000Y-87500000D02*
X81000000Y-101500000D01*
X81500000Y-67500000D02*
X81500000Y-72920000D01*
X81500000Y-67500000D02*
X83920000Y-67500000D01*
D26*
X89000000Y-65000000D02*
X86500000Y-67500000D01*
X95500000Y-63500000D02*
X94000000Y-65000000D01*
X127000000Y-64420000D02*
X123080000Y-64420000D01*
D28*
X88080000Y-85500000D02*
X83000000Y-85500000D01*
X83000000Y-85500000D02*
X81000000Y-87500000D01*
D26*
X123000000Y-64500000D02*
X122000000Y-63500000D01*
D28*
X81000000Y-101500000D02*
X82000000Y-102500000D01*
D26*
X123080000Y-64420000D02*
X123000000Y-64500000D01*
X127000000Y-74580000D02*
X118420000Y-74580000D01*
X124500000Y-82920000D02*
X122420000Y-85000000D01*
X124500000Y-71000000D02*
X124500000Y-82920000D01*
X123000000Y-69500000D02*
X124500000Y-71000000D01*
X118420000Y-74580000D02*
X118000000Y-75000000D01*
D28*
X94080000Y-67920000D02*
X91500000Y-70500000D01*
X94080000Y-67500000D02*
X94080000Y-67920000D01*
D26*
X197500000Y-83750000D02*
X197500000Y-77500000D01*
X188500000Y-75000000D02*
X191000000Y-77500000D01*
X191000000Y-77500000D02*
X191000000Y-78920000D01*
X197500000Y-77500000D02*
X197500000Y-74250000D01*
X191000000Y-77500000D02*
X197500000Y-77500000D01*
X191000000Y-78920000D02*
X190000000Y-79920000D01*
X187500000Y-75000000D02*
X188500000Y-75000000D01*
X195000000Y-99250000D02*
X195000000Y-101500000D01*
X197500000Y-96750000D02*
X195000000Y-99250000D01*
X197500000Y-87250000D02*
X197500000Y-96750000D01*
X167420000Y-85000000D02*
X174250000Y-91830000D01*
X174250000Y-91830000D02*
X174250000Y-99000000D01*
X174250000Y-99000000D02*
X183750000Y-99000000D01*
X194000000Y-69000000D02*
X200000000Y-69000000D01*
X187500000Y-70040000D02*
X188540000Y-69000000D01*
X187500000Y-70040000D02*
X187500000Y-72460000D01*
X188540000Y-69000000D02*
X194000000Y-69000000D01*
X194000000Y-66500000D02*
X194000000Y-69000000D01*
X211040000Y-76500000D02*
X206500000Y-81040000D01*
X206500000Y-85720000D02*
X213500000Y-92720000D01*
X194000000Y-71500000D02*
X199960000Y-71500000D01*
X199960000Y-71500000D02*
X200000000Y-71540000D01*
X200000000Y-71540000D02*
X201460000Y-73000000D01*
X206500000Y-81040000D02*
X206500000Y-85720000D01*
X201460000Y-73000000D02*
X207540000Y-73000000D01*
X207540000Y-73000000D02*
X211040000Y-76500000D01*
D27*
X160920000Y-78000000D02*
X167960000Y-70960000D01*
X198500000Y-64960000D02*
X200000000Y-66460000D01*
X159500000Y-92000000D02*
X159500000Y-79420000D01*
X159500000Y-79420000D02*
X160920000Y-78000000D01*
X187000000Y-103580000D02*
X171080000Y-103580000D01*
X167960000Y-70960000D02*
X167960000Y-65620000D01*
X182000000Y-64960000D02*
X198500000Y-64960000D01*
X167960000Y-65620000D02*
X169080000Y-64500000D01*
X179960000Y-67000000D02*
X171580000Y-67000000D01*
X171080000Y-103580000D02*
X159500000Y-92000000D01*
X171580000Y-67000000D02*
X169080000Y-64500000D01*
X182000000Y-64960000D02*
X179960000Y-67000000D01*
D26*
X173000000Y-74580000D02*
X175500000Y-74580000D01*
X175500000Y-75000000D02*
X175500000Y-71000000D01*
X175500000Y-82920000D02*
X175500000Y-75000000D01*
X175500000Y-71000000D02*
X177000000Y-69500000D01*
X175500000Y-75000000D02*
X175500000Y-74580000D01*
X177580000Y-85000000D02*
X175500000Y-82920000D01*
X181580000Y-74580000D02*
X182000000Y-75000000D01*
X175500000Y-74580000D02*
X181580000Y-74580000D01*
D28*
X216000000Y-85500000D02*
X211835000Y-85500000D01*
D26*
X213500000Y-67500000D02*
X211000000Y-65000000D01*
X177080000Y-64420000D02*
X173000000Y-64420000D01*
D28*
X216080000Y-67500000D02*
X218500000Y-67500000D01*
D26*
X211000000Y-65000000D02*
X206000000Y-65000000D01*
X216080000Y-67500000D02*
X213500000Y-67500000D01*
D28*
X208835000Y-82500000D02*
X218500000Y-72835000D01*
D26*
X206000000Y-65000000D02*
X204500000Y-63500000D01*
D28*
X218500000Y-72835000D02*
X218500000Y-62500000D01*
D26*
X204500000Y-63500000D02*
X178000000Y-63500000D01*
D28*
X218000000Y-102500000D02*
X218000000Y-87500000D01*
X218000000Y-87500000D02*
X216000000Y-85500000D01*
D26*
X178000000Y-63500000D02*
X177080000Y-64420000D01*
D28*
X211835000Y-85500000D02*
X208835000Y-82500000D01*
X205920000Y-68420000D02*
X208500000Y-71000000D01*
X205920000Y-67500000D02*
X205920000Y-68420000D01*
X154500000Y-94310000D02*
X154500000Y-98000000D01*
X154500000Y-87040000D02*
X154500000Y-94310000D01*
X86500000Y-102500000D02*
X84000000Y-100000000D01*
X85280000Y-92720000D02*
X86500000Y-92720000D01*
X84000000Y-94000000D02*
X85280000Y-92720000D01*
X84000000Y-100000000D02*
X84000000Y-94000000D01*
X86000000Y-82500000D02*
X81500000Y-82500000D01*
X161919000Y-61501000D02*
X212501000Y-61501000D01*
X154500000Y-77960000D02*
X154500000Y-68920000D01*
X154500000Y-68920000D02*
X158920000Y-64500000D01*
X158920000Y-64500000D02*
X161919000Y-61501000D01*
X212501000Y-61501000D02*
X213500000Y-62500000D01*
X213500000Y-102500000D02*
X213500000Y-97280000D01*
D26*
X132380000Y-81460000D02*
X128920000Y-78000000D01*
X137500000Y-81460000D02*
X132380000Y-81460000D01*
X122420000Y-88500000D02*
X127420000Y-83500000D01*
X122420000Y-88500000D02*
X121960000Y-88500000D01*
X121960000Y-88500000D02*
X114960000Y-81500000D01*
X137000000Y-83500000D02*
X137500000Y-84000000D01*
X127420000Y-83500000D02*
X137000000Y-83500000D01*
X112500000Y-77540000D02*
X118000000Y-77540000D01*
X118000000Y-77540000D02*
X118000000Y-79460000D01*
X118000000Y-79460000D02*
X120040000Y-81500000D01*
X112500000Y-67500000D02*
X118000000Y-67500000D01*
X118000000Y-67500000D02*
X118000000Y-72460000D01*
X122420000Y-81500000D02*
X120920000Y-83000000D01*
X115500000Y-79500000D02*
X114000000Y-79500000D01*
X93860000Y-74500000D02*
X91500000Y-76860000D01*
X114000000Y-79500000D02*
X113000000Y-80500000D01*
X113000000Y-83500000D02*
X111000000Y-85500000D01*
X119000000Y-83000000D02*
X117500000Y-81500000D01*
X96000000Y-74500000D02*
X93860000Y-74500000D01*
X113000000Y-80500000D02*
X113000000Y-83500000D01*
X120920000Y-83000000D02*
X119000000Y-83000000D01*
X99000000Y-82500000D02*
X99000000Y-77500000D01*
X117500000Y-81500000D02*
X115500000Y-79500000D01*
X99000000Y-77500000D02*
X96000000Y-74500000D01*
X111000000Y-85500000D02*
X102000000Y-85500000D01*
X102000000Y-85500000D02*
X99000000Y-82500000D01*
X95080000Y-88500000D02*
X95080000Y-77900000D01*
X95080000Y-77900000D02*
X94040000Y-76860000D01*
X167580000Y-81500000D02*
X162540000Y-81500000D01*
X171080000Y-78000000D02*
X167580000Y-81500000D01*
X162500000Y-84000000D02*
X163000000Y-83500000D01*
X178040000Y-88500000D02*
X177580000Y-88500000D01*
X177500000Y-88420000D02*
X177580000Y-88500000D01*
X185040000Y-81500000D02*
X178040000Y-88500000D01*
X172580000Y-83500000D02*
X177580000Y-88500000D01*
X163000000Y-83500000D02*
X172580000Y-83500000D01*
X182000000Y-79460000D02*
X179960000Y-81500000D01*
X182000000Y-77540000D02*
X182000000Y-79460000D01*
X187500000Y-77540000D02*
X182000000Y-77540000D01*
X182000000Y-67500000D02*
X187500000Y-67500000D01*
X182000000Y-67500000D02*
X182000000Y-72320000D01*
X186000000Y-79500000D02*
X184500000Y-79500000D01*
X201000000Y-82500000D02*
X198000000Y-85500000D01*
X208500000Y-76500000D02*
X206500000Y-74500000D01*
X187000000Y-80500000D02*
X186000000Y-79500000D01*
X184500000Y-79500000D02*
X182500000Y-81500000D01*
X206500000Y-74500000D02*
X204000000Y-74500000D01*
X198000000Y-85500000D02*
X189000000Y-85500000D01*
X177580000Y-81500000D02*
X179080000Y-83000000D01*
X187000000Y-83500000D02*
X187000000Y-80500000D01*
X189000000Y-85500000D02*
X187000000Y-83500000D01*
X201000000Y-77500000D02*
X201000000Y-82500000D01*
X179080000Y-83000000D02*
X181000000Y-83000000D01*
X204000000Y-74500000D02*
X201000000Y-77500000D01*
X181000000Y-83000000D02*
X182500000Y-81500000D01*
X205000000Y-77460000D02*
X205960000Y-76500000D01*
X205000000Y-88420000D02*
X205000000Y-77460000D01*
X204920000Y-88500000D02*
X205000000Y-88420000D01*
X110000000Y-93420000D02*
X113000000Y-93420000D01*
X110000000Y-90080000D02*
X110000000Y-93420000D01*
X110000000Y-93250000D02*
X114750000Y-88500000D01*
X110000000Y-93420000D02*
X110000000Y-93250000D01*
X187000000Y-93420000D02*
X190000000Y-93420000D01*
X185250000Y-88500000D02*
X190000000Y-93250000D01*
X190000000Y-93420000D02*
X190000000Y-90080000D01*
X190000000Y-93250000D02*
X190000000Y-93420000D01*
D28*
X145500000Y-77960000D02*
X145500000Y-68920000D01*
X145500000Y-68920000D02*
X141080000Y-64500000D01*
X87499000Y-61501000D02*
X86500000Y-62500000D01*
X138001000Y-61501000D02*
X87499000Y-61501000D01*
X141080000Y-64500000D02*
X141000000Y-64500000D01*
X141000000Y-64500000D02*
X138001000Y-61501000D01*
X213915000Y-82500000D02*
X218500000Y-82500000D01*
X145500000Y-94310000D02*
X145500000Y-98000000D01*
X145500000Y-94310000D02*
X145500000Y-87040000D01*
M02*
