M48
; DRILL file {KiCad 9.0.2-9.0.2-0~ubuntu22.04.1} date 2025-06-09T06:11:24+0200
; FORMAT={-:-/ absolute / metric / decimal}
; #@! TF.CreationDate,2025-06-09T06:11:24+02:00
; #@! TF.GenerationSoftware,Kicad,Pcbnew,9.0.2-9.0.2-0~ubuntu22.04.1
; #@! TF.FileFunction,Plated,1,2,PTH
FMAT,2
METRIC
; #@! TA.AperFunction,Plated,PTH,ComponentDrill
T1C0.800
; #@! TA.AperFunction,Plated,PTH,ComponentDrill
T2C1.000
; #@! TA.AperFunction,Plated,PTH,ComponentDrill
T3C1.020
; #@! TA.AperFunction,Plated,PTH,ComponentDrill
T4C1.200
; #@! TA.AperFunction,Plated,PTH,ComponentDrill
T5C1.500
; #@! TA.AperFunction,Plated,PTH,ComponentDrill
T6C3.200
%
G90
G05
T1
X83.92Y-67.5
X84.92Y-88.5
X86.5Y-70.5
X88.96Y-76.86
X91.5Y-70.5
X91.5Y-76.86
X94.04Y-76.86
X94.08Y-67.5
X95.08Y-88.5
X100.0Y-66.46
X100.0Y-69.0
X100.0Y-71.54
X102.5Y-83.75
X102.5Y-87.25
X106.0Y-66.5
X106.0Y-71.5
X110.0Y-79.92
X110.0Y-90.08
X110.0Y-93.42
X110.0Y-103.58
X112.5Y-64.96
X112.5Y-67.5
X112.5Y-70.04
X112.5Y-72.46
X112.5Y-75.0
X112.5Y-77.54
X113.0Y-93.42
X113.0Y-103.58
X114.75Y-88.5
X114.96Y-81.5
X117.5Y-81.5
X118.0Y-64.96
X118.0Y-67.5
X118.0Y-70.04
X118.0Y-72.46
X118.0Y-75.0
X118.0Y-77.54
X118.25Y-88.5
X120.04Y-81.5
X122.42Y-81.5
X122.42Y-85.0
X122.42Y-88.5
X123.0Y-64.5
X123.0Y-69.5
X125.75Y-99.0
X127.0Y-64.42
X127.0Y-74.58
X128.92Y-78.0
X129.25Y-99.0
X130.92Y-64.5
X132.58Y-81.5
X132.58Y-85.0
X132.58Y-88.5
X134.0Y-69.25
X134.0Y-72.75
X137.5Y-81.46
X137.5Y-84.0
X137.5Y-86.54
X139.08Y-78.0
X141.08Y-64.5
X158.92Y-64.5
X160.92Y-78.0
X162.5Y-81.46
X162.5Y-84.0
X162.5Y-86.54
X166.0Y-69.25
X166.0Y-72.75
X167.42Y-81.5
X167.42Y-85.0
X167.42Y-88.5
X169.08Y-64.5
X170.75Y-99.0
X171.08Y-78.0
X173.0Y-64.42
X173.0Y-74.58
X174.25Y-99.0
X177.0Y-64.5
X177.0Y-69.5
X177.58Y-81.5
X177.58Y-85.0
X177.58Y-88.5
X179.96Y-81.5
X181.75Y-88.5
X182.0Y-64.96
X182.0Y-67.5
X182.0Y-70.04
X182.0Y-72.46
X182.0Y-75.0
X182.0Y-77.54
X182.5Y-81.5
X185.04Y-81.5
X185.25Y-88.5
X187.0Y-93.42
X187.0Y-103.58
X187.5Y-64.96
X187.5Y-67.5
X187.5Y-70.04
X187.5Y-72.46
X187.5Y-75.0
X187.5Y-77.54
X190.0Y-79.92
X190.0Y-90.08
X190.0Y-93.42
X190.0Y-103.58
X194.0Y-66.5
X194.0Y-71.5
X197.5Y-83.75
X197.5Y-87.25
X200.0Y-66.46
X200.0Y-69.0
X200.0Y-71.54
X204.92Y-88.5
X205.92Y-67.5
X205.96Y-76.5
X208.5Y-71.0
X208.5Y-76.5
X211.04Y-76.5
X213.5Y-71.0
X215.08Y-88.5
X216.08Y-67.5
T2
X86.0Y-82.5
X86.5Y-92.72
X86.5Y-95.0
X86.5Y-97.28
X91.08Y-82.5
X208.835Y-82.5
X213.5Y-92.72
X213.5Y-95.0
X213.5Y-97.28
X213.915Y-82.5
T4
X102.5Y-74.25
X102.5Y-96.75
X116.25Y-99.0
X138.75Y-99.0
X161.25Y-99.0
X183.75Y-99.0
X197.5Y-74.25
X197.5Y-96.75
T5
X81.5Y-62.5
X81.5Y-78.0
X81.5Y-82.5
X82.0Y-102.5
X86.5Y-62.5
X86.5Y-102.5
X91.0Y-102.5
X100.0Y-102.5
X105.0Y-102.5
X145.5Y-98.0
X145.5Y-102.5
X154.5Y-98.0
X154.5Y-102.5
X195.0Y-102.5
X200.0Y-102.5
X209.0Y-102.5
X213.5Y-62.5
X213.5Y-102.5
X218.0Y-102.5
X218.5Y-62.5
X218.5Y-78.0
X218.5Y-82.5
T6
X92.5Y-95.0
X150.0Y-64.0
X207.5Y-95.0
T3
X144.655Y-70.69G85X146.345Y-70.69
G05
X145.075Y-77.96G85X145.925Y-77.96
G05
X145.075Y-87.04G85X145.925Y-87.04
G05
X144.655Y-94.31G85X146.345Y-94.31
G05
X153.655Y-70.69G85X155.345Y-70.69
G05
X154.075Y-77.96G85X154.925Y-77.96
G05
X154.075Y-87.04G85X154.925Y-87.04
G05
X153.655Y-94.31G85X155.345Y-94.31
G05
M30
