%TF.GenerationSoftware,KiCad,Pcbnew,9.0.2-9.0.2-0~ubuntu22.04.1*%
%TF.CreationDate,2025-06-09T06:11:24+02:00*%
%TF.ProjectId,amp_board_Rev-A,616d705f-626f-4617-9264-5f5265762d41,rev?*%
%TF.SameCoordinates,Original*%
%TF.FileFunction,Drillmap*%
%TF.FilePolarity,Positive*%
%FSLAX45Y45*%
G04 Gerber Fmt 4.5, Leading zero omitted, Abs format (unit mm)*
G04 Created by KiCad (PCBNEW 9.0.2-9.0.2-0~ubuntu22.04.1) date 2025-06-09 06:11:24*
%MOMM*%
%LPD*%
G01*
G04 APERTURE LIST*
%ADD10C,0.050000*%
%ADD11C,0.200000*%
G04 APERTURE END LIST*
D10*
X22100000Y-10300000D02*
G75*
G02*
X21900000Y-10500000I-200000J0D01*
G01*
X8100000Y-6000000D02*
X15000000Y-6000000D01*
X21900000Y-6000000D02*
G75*
G02*
X22100000Y-6200000I0J-200000D01*
G01*
X21900000Y-10500000D02*
X15000000Y-10500000D01*
X22100000Y-6200000D02*
X22100000Y-10300000D01*
X7900000Y-6200000D02*
X7900000Y-10300000D01*
X15000000Y-6000000D02*
X21900000Y-6000000D01*
X15000000Y-10500000D02*
X8100000Y-10500000D01*
X7900000Y-6200000D02*
G75*
G02*
X8100000Y-6000000I200000J0D01*
G01*
X8100000Y-10500000D02*
G75*
G02*
X7900000Y-10300000I0J200000D01*
G01*
D11*
X8158277Y-10813984D02*
X8158277Y-10613984D01*
X8158277Y-10613984D02*
X8205896Y-10613984D01*
X8205896Y-10613984D02*
X8234467Y-10623508D01*
X8234467Y-10623508D02*
X8253515Y-10642555D01*
X8253515Y-10642555D02*
X8263039Y-10661603D01*
X8263039Y-10661603D02*
X8272562Y-10699698D01*
X8272562Y-10699698D02*
X8272562Y-10728270D01*
X8272562Y-10728270D02*
X8263039Y-10766365D01*
X8263039Y-10766365D02*
X8253515Y-10785412D01*
X8253515Y-10785412D02*
X8234467Y-10804460D01*
X8234467Y-10804460D02*
X8205896Y-10813984D01*
X8205896Y-10813984D02*
X8158277Y-10813984D01*
X8358277Y-10813984D02*
X8358277Y-10680650D01*
X8358277Y-10718746D02*
X8367801Y-10699698D01*
X8367801Y-10699698D02*
X8377324Y-10690174D01*
X8377324Y-10690174D02*
X8396372Y-10680650D01*
X8396372Y-10680650D02*
X8415420Y-10680650D01*
X8482086Y-10813984D02*
X8482086Y-10680650D01*
X8482086Y-10613984D02*
X8472563Y-10623508D01*
X8472563Y-10623508D02*
X8482086Y-10633031D01*
X8482086Y-10633031D02*
X8491610Y-10623508D01*
X8491610Y-10623508D02*
X8482086Y-10613984D01*
X8482086Y-10613984D02*
X8482086Y-10633031D01*
X8605896Y-10813984D02*
X8586848Y-10804460D01*
X8586848Y-10804460D02*
X8577324Y-10785412D01*
X8577324Y-10785412D02*
X8577324Y-10613984D01*
X8710658Y-10813984D02*
X8691610Y-10804460D01*
X8691610Y-10804460D02*
X8682086Y-10785412D01*
X8682086Y-10785412D02*
X8682086Y-10613984D01*
X8939229Y-10813984D02*
X8939229Y-10613984D01*
X8939229Y-10613984D02*
X9005896Y-10756841D01*
X9005896Y-10756841D02*
X9072563Y-10613984D01*
X9072563Y-10613984D02*
X9072563Y-10813984D01*
X9253515Y-10813984D02*
X9253515Y-10709222D01*
X9253515Y-10709222D02*
X9243991Y-10690174D01*
X9243991Y-10690174D02*
X9224944Y-10680650D01*
X9224944Y-10680650D02*
X9186848Y-10680650D01*
X9186848Y-10680650D02*
X9167801Y-10690174D01*
X9253515Y-10804460D02*
X9234467Y-10813984D01*
X9234467Y-10813984D02*
X9186848Y-10813984D01*
X9186848Y-10813984D02*
X9167801Y-10804460D01*
X9167801Y-10804460D02*
X9158277Y-10785412D01*
X9158277Y-10785412D02*
X9158277Y-10766365D01*
X9158277Y-10766365D02*
X9167801Y-10747317D01*
X9167801Y-10747317D02*
X9186848Y-10737793D01*
X9186848Y-10737793D02*
X9234467Y-10737793D01*
X9234467Y-10737793D02*
X9253515Y-10728270D01*
X9348753Y-10680650D02*
X9348753Y-10880650D01*
X9348753Y-10690174D02*
X9367801Y-10680650D01*
X9367801Y-10680650D02*
X9405896Y-10680650D01*
X9405896Y-10680650D02*
X9424944Y-10690174D01*
X9424944Y-10690174D02*
X9434467Y-10699698D01*
X9434467Y-10699698D02*
X9443991Y-10718746D01*
X9443991Y-10718746D02*
X9443991Y-10775889D01*
X9443991Y-10775889D02*
X9434467Y-10794936D01*
X9434467Y-10794936D02*
X9424944Y-10804460D01*
X9424944Y-10804460D02*
X9405896Y-10813984D01*
X9405896Y-10813984D02*
X9367801Y-10813984D01*
X9367801Y-10813984D02*
X9348753Y-10804460D01*
X9529705Y-10794936D02*
X9539229Y-10804460D01*
X9539229Y-10804460D02*
X9529705Y-10813984D01*
X9529705Y-10813984D02*
X9520182Y-10804460D01*
X9520182Y-10804460D02*
X9529705Y-10794936D01*
X9529705Y-10794936D02*
X9529705Y-10813984D01*
X9529705Y-10690174D02*
X9539229Y-10699698D01*
X9539229Y-10699698D02*
X9529705Y-10709222D01*
X9529705Y-10709222D02*
X9520182Y-10699698D01*
X9520182Y-10699698D02*
X9529705Y-10690174D01*
X9529705Y-10690174D02*
X9529705Y-10709222D01*
M02*
