G04 #@! TF.GenerationSoftware,KiCad,Pcbnew,9.0.2-9.0.2-0~ubuntu22.04.1*
G04 #@! TF.CreationDate,2025-06-09T06:11:19+02:00*
G04 #@! TF.ProjectId,amp_board_Rev-A,616d705f-626f-4617-9264-5f5265762d41,rev?*
G04 #@! TF.SameCoordinates,Original*
G04 #@! TF.FileFunction,Legend,Bot*
G04 #@! TF.FilePolarity,Positive*
%FSLAX46Y46*%
G04 Gerber Fmt 4.6, Leading zero omitted, Abs format (unit mm)*
G04 Created by KiCad (PCBNEW 9.0.2-9.0.2-0~ubuntu22.04.1) date 2025-06-09 06:11:19*
%MOMM*%
%LPD*%
G01*
G04 APERTURE LIST*
G04 Aperture macros list*
%AMRoundRect*
0 Rectangle with rounded corners*
0 $1 Rounding radius*
0 $2 $3 $4 $5 $6 $7 $8 $9 X,Y pos of 4 corners*
0 Add a 4 corners polygon primitive as box body*
4,1,4,$2,$3,$4,$5,$6,$7,$8,$9,$2,$3,0*
0 Add four circle primitives for the rounded corners*
1,1,$1+$1,$2,$3*
1,1,$1+$1,$4,$5*
1,1,$1+$1,$6,$7*
1,1,$1+$1,$8,$9*
0 Add four rect primitives between the rounded corners*
20,1,$1+$1,$2,$3,$4,$5,0*
20,1,$1+$1,$4,$5,$6,$7,0*
20,1,$1+$1,$6,$7,$8,$9,0*
20,1,$1+$1,$8,$9,$2,$3,0*%
G04 Aperture macros list end*
%ADD10C,0.100000*%
%ADD11C,2.000000*%
%ADD12O,2.000000X2.000000*%
%ADD13C,1.600000*%
%ADD14R,1.500000X1.500000*%
%ADD15C,1.500000*%
%ADD16C,3.000000*%
%ADD17O,1.600000X1.600000*%
%ADD18C,3.600000*%
%ADD19C,5.600000*%
%ADD20C,2.400000*%
%ADD21R,1.800000X1.710000*%
%ADD22O,1.800000X1.710000*%
%ADD23RoundRect,0.500000X1.350000X-0.500000X1.350000X0.500000X-1.350000X0.500000X-1.350000X-0.500000X0*%
%ADD24RoundRect,0.500000X0.900000X-0.500000X0.900000X0.500000X-0.900000X0.500000X-0.900000X-0.500000X0*%
%ADD25O,2.800000X2.000000*%
%ADD26O,3.700000X2.000000*%
G04 APERTURE END LIST*
D10*
X153857142Y-81866732D02*
X153380952Y-81866732D01*
X153952380Y-82152447D02*
X153619047Y-81152447D01*
X153619047Y-81152447D02*
X153285714Y-82152447D01*
X152952380Y-82152447D02*
X152952380Y-81485780D01*
X152952380Y-81581018D02*
X152904761Y-81533399D01*
X152904761Y-81533399D02*
X152809523Y-81485780D01*
X152809523Y-81485780D02*
X152666666Y-81485780D01*
X152666666Y-81485780D02*
X152571428Y-81533399D01*
X152571428Y-81533399D02*
X152523809Y-81628637D01*
X152523809Y-81628637D02*
X152523809Y-82152447D01*
X152523809Y-81628637D02*
X152476190Y-81533399D01*
X152476190Y-81533399D02*
X152380952Y-81485780D01*
X152380952Y-81485780D02*
X152238095Y-81485780D01*
X152238095Y-81485780D02*
X152142856Y-81533399D01*
X152142856Y-81533399D02*
X152095237Y-81628637D01*
X152095237Y-81628637D02*
X152095237Y-82152447D01*
X151619047Y-81485780D02*
X151619047Y-82485780D01*
X151619047Y-81533399D02*
X151523809Y-81485780D01*
X151523809Y-81485780D02*
X151333333Y-81485780D01*
X151333333Y-81485780D02*
X151238095Y-81533399D01*
X151238095Y-81533399D02*
X151190476Y-81581018D01*
X151190476Y-81581018D02*
X151142857Y-81676256D01*
X151142857Y-81676256D02*
X151142857Y-81961970D01*
X151142857Y-81961970D02*
X151190476Y-82057208D01*
X151190476Y-82057208D02*
X151238095Y-82104828D01*
X151238095Y-82104828D02*
X151333333Y-82152447D01*
X151333333Y-82152447D02*
X151523809Y-82152447D01*
X151523809Y-82152447D02*
X151619047Y-82104828D01*
X149952380Y-82152447D02*
X149952380Y-81152447D01*
X149952380Y-81533399D02*
X149857142Y-81485780D01*
X149857142Y-81485780D02*
X149666666Y-81485780D01*
X149666666Y-81485780D02*
X149571428Y-81533399D01*
X149571428Y-81533399D02*
X149523809Y-81581018D01*
X149523809Y-81581018D02*
X149476190Y-81676256D01*
X149476190Y-81676256D02*
X149476190Y-81961970D01*
X149476190Y-81961970D02*
X149523809Y-82057208D01*
X149523809Y-82057208D02*
X149571428Y-82104828D01*
X149571428Y-82104828D02*
X149666666Y-82152447D01*
X149666666Y-82152447D02*
X149857142Y-82152447D01*
X149857142Y-82152447D02*
X149952380Y-82104828D01*
X148904761Y-82152447D02*
X148999999Y-82104828D01*
X148999999Y-82104828D02*
X149047618Y-82057208D01*
X149047618Y-82057208D02*
X149095237Y-81961970D01*
X149095237Y-81961970D02*
X149095237Y-81676256D01*
X149095237Y-81676256D02*
X149047618Y-81581018D01*
X149047618Y-81581018D02*
X148999999Y-81533399D01*
X148999999Y-81533399D02*
X148904761Y-81485780D01*
X148904761Y-81485780D02*
X148761904Y-81485780D01*
X148761904Y-81485780D02*
X148666666Y-81533399D01*
X148666666Y-81533399D02*
X148619047Y-81581018D01*
X148619047Y-81581018D02*
X148571428Y-81676256D01*
X148571428Y-81676256D02*
X148571428Y-81961970D01*
X148571428Y-81961970D02*
X148619047Y-82057208D01*
X148619047Y-82057208D02*
X148666666Y-82104828D01*
X148666666Y-82104828D02*
X148761904Y-82152447D01*
X148761904Y-82152447D02*
X148904761Y-82152447D01*
X147714285Y-82152447D02*
X147714285Y-81628637D01*
X147714285Y-81628637D02*
X147761904Y-81533399D01*
X147761904Y-81533399D02*
X147857142Y-81485780D01*
X147857142Y-81485780D02*
X148047618Y-81485780D01*
X148047618Y-81485780D02*
X148142856Y-81533399D01*
X147714285Y-82104828D02*
X147809523Y-82152447D01*
X147809523Y-82152447D02*
X148047618Y-82152447D01*
X148047618Y-82152447D02*
X148142856Y-82104828D01*
X148142856Y-82104828D02*
X148190475Y-82009589D01*
X148190475Y-82009589D02*
X148190475Y-81914351D01*
X148190475Y-81914351D02*
X148142856Y-81819113D01*
X148142856Y-81819113D02*
X148047618Y-81771494D01*
X148047618Y-81771494D02*
X147809523Y-81771494D01*
X147809523Y-81771494D02*
X147714285Y-81723875D01*
X147238094Y-82152447D02*
X147238094Y-81485780D01*
X147238094Y-81676256D02*
X147190475Y-81581018D01*
X147190475Y-81581018D02*
X147142856Y-81533399D01*
X147142856Y-81533399D02*
X147047618Y-81485780D01*
X147047618Y-81485780D02*
X146952380Y-81485780D01*
X146190475Y-82152447D02*
X146190475Y-81152447D01*
X146190475Y-82104828D02*
X146285713Y-82152447D01*
X146285713Y-82152447D02*
X146476189Y-82152447D01*
X146476189Y-82152447D02*
X146571427Y-82104828D01*
X146571427Y-82104828D02*
X146619046Y-82057208D01*
X146619046Y-82057208D02*
X146666665Y-81961970D01*
X146666665Y-81961970D02*
X146666665Y-81676256D01*
X146666665Y-81676256D02*
X146619046Y-81581018D01*
X146619046Y-81581018D02*
X146571427Y-81533399D01*
X146571427Y-81533399D02*
X146476189Y-81485780D01*
X146476189Y-81485780D02*
X146285713Y-81485780D01*
X146285713Y-81485780D02*
X146190475Y-81533399D01*
X151547619Y-83762391D02*
X151880952Y-83286200D01*
X152119047Y-83762391D02*
X152119047Y-82762391D01*
X152119047Y-82762391D02*
X151738095Y-82762391D01*
X151738095Y-82762391D02*
X151642857Y-82810010D01*
X151642857Y-82810010D02*
X151595238Y-82857629D01*
X151595238Y-82857629D02*
X151547619Y-82952867D01*
X151547619Y-82952867D02*
X151547619Y-83095724D01*
X151547619Y-83095724D02*
X151595238Y-83190962D01*
X151595238Y-83190962D02*
X151642857Y-83238581D01*
X151642857Y-83238581D02*
X151738095Y-83286200D01*
X151738095Y-83286200D02*
X152119047Y-83286200D01*
X150738095Y-83714772D02*
X150833333Y-83762391D01*
X150833333Y-83762391D02*
X151023809Y-83762391D01*
X151023809Y-83762391D02*
X151119047Y-83714772D01*
X151119047Y-83714772D02*
X151166666Y-83619533D01*
X151166666Y-83619533D02*
X151166666Y-83238581D01*
X151166666Y-83238581D02*
X151119047Y-83143343D01*
X151119047Y-83143343D02*
X151023809Y-83095724D01*
X151023809Y-83095724D02*
X150833333Y-83095724D01*
X150833333Y-83095724D02*
X150738095Y-83143343D01*
X150738095Y-83143343D02*
X150690476Y-83238581D01*
X150690476Y-83238581D02*
X150690476Y-83333819D01*
X150690476Y-83333819D02*
X151166666Y-83429057D01*
X150357142Y-83095724D02*
X150119047Y-83762391D01*
X150119047Y-83762391D02*
X149880952Y-83095724D01*
X149499999Y-83667152D02*
X149452380Y-83714772D01*
X149452380Y-83714772D02*
X149499999Y-83762391D01*
X149499999Y-83762391D02*
X149547618Y-83714772D01*
X149547618Y-83714772D02*
X149499999Y-83667152D01*
X149499999Y-83667152D02*
X149499999Y-83762391D01*
X148309523Y-83476676D02*
X147833333Y-83476676D01*
X148404761Y-83762391D02*
X148071428Y-82762391D01*
X148071428Y-82762391D02*
X147738095Y-83762391D01*
%LPC*%
D11*
X86000000Y-82500000D03*
D12*
X91080000Y-82500000D03*
D13*
X177000000Y-69500000D03*
X177000000Y-64500000D03*
D14*
X137500000Y-81460000D03*
D15*
X137500000Y-84000000D03*
X137500000Y-86540000D03*
D16*
X154500000Y-102500000D03*
D14*
X88960000Y-76860000D03*
D15*
X91500000Y-76860000D03*
X94040000Y-76860000D03*
D13*
X185250000Y-88500000D03*
X181750000Y-88500000D03*
D14*
X162500000Y-81460000D03*
D15*
X162500000Y-84000000D03*
X162500000Y-86540000D03*
D14*
X187500000Y-70040000D03*
D15*
X187500000Y-67500000D03*
X187500000Y-64960000D03*
D13*
X91500000Y-70500000D03*
X86500000Y-70500000D03*
D14*
X112500000Y-72460000D03*
D15*
X112500000Y-75000000D03*
X112500000Y-77540000D03*
D13*
X166000000Y-72750000D03*
X166000000Y-69250000D03*
X177580000Y-85000000D03*
D17*
X167420000Y-85000000D03*
D14*
X182000000Y-72460000D03*
D15*
X182000000Y-75000000D03*
X182000000Y-77540000D03*
D13*
X173000000Y-74580000D03*
D17*
X173000000Y-64420000D03*
D16*
X81500000Y-62500000D03*
D18*
X150000000Y-64000000D03*
D19*
X150000000Y-64000000D03*
D16*
X195000000Y-102500000D03*
D20*
X197500000Y-96750000D03*
X197500000Y-74250000D03*
D21*
X86500000Y-92720000D03*
D22*
X86500000Y-95000000D03*
X86500000Y-97280000D03*
D16*
X213500000Y-102500000D03*
D14*
X112500000Y-70040000D03*
D15*
X112500000Y-67500000D03*
X112500000Y-64960000D03*
D16*
X81500000Y-82500000D03*
D13*
X102500000Y-87250000D03*
X102500000Y-83750000D03*
D14*
X187500000Y-72460000D03*
D15*
X187500000Y-75000000D03*
X187500000Y-77540000D03*
D16*
X145500000Y-102500000D03*
D14*
X179960000Y-81500000D03*
D15*
X182500000Y-81500000D03*
X185040000Y-81500000D03*
D13*
X174250000Y-99000000D03*
X170750000Y-99000000D03*
X204920000Y-88500000D03*
D17*
X215080000Y-88500000D03*
D13*
X130920000Y-64500000D03*
D17*
X141080000Y-64500000D03*
D13*
X216080000Y-67500000D03*
D17*
X205920000Y-67500000D03*
D16*
X218500000Y-82500000D03*
X154500000Y-98000000D03*
D13*
X190000000Y-93420000D03*
D17*
X190000000Y-103580000D03*
D20*
X116250000Y-99000000D03*
X138750000Y-99000000D03*
D13*
X127000000Y-74580000D03*
D17*
X127000000Y-64420000D03*
D14*
X211040000Y-76500000D03*
D15*
X208500000Y-76500000D03*
X205960000Y-76500000D03*
D13*
X169080000Y-64500000D03*
D17*
X158920000Y-64500000D03*
D14*
X118000000Y-72460000D03*
D15*
X118000000Y-75000000D03*
X118000000Y-77540000D03*
D13*
X171080000Y-78000000D03*
D17*
X160920000Y-78000000D03*
D13*
X122420000Y-85000000D03*
D17*
X132580000Y-85000000D03*
D14*
X118000000Y-70040000D03*
D15*
X118000000Y-67500000D03*
X118000000Y-64960000D03*
D14*
X200000000Y-71540000D03*
D15*
X200000000Y-69000000D03*
X200000000Y-66460000D03*
D16*
X86500000Y-102500000D03*
D14*
X120040000Y-81500000D03*
D15*
X117500000Y-81500000D03*
X114960000Y-81500000D03*
D18*
X207500000Y-95000000D03*
D19*
X207500000Y-95000000D03*
D21*
X213500000Y-97280000D03*
D22*
X213500000Y-95000000D03*
X213500000Y-92720000D03*
D14*
X182000000Y-70040000D03*
D15*
X182000000Y-67500000D03*
X182000000Y-64960000D03*
D13*
X167420000Y-81500000D03*
D17*
X177580000Y-81500000D03*
D13*
X190000000Y-90080000D03*
D17*
X190000000Y-79920000D03*
D13*
X122420000Y-88500000D03*
D17*
X132580000Y-88500000D03*
D16*
X218500000Y-78000000D03*
D13*
X110000000Y-90080000D03*
D17*
X110000000Y-79920000D03*
D16*
X218500000Y-62500000D03*
D13*
X83920000Y-67500000D03*
D17*
X94080000Y-67500000D03*
D16*
X86500000Y-62500000D03*
X100000000Y-102500000D03*
D23*
X154500000Y-94310000D03*
D24*
X154500000Y-87040000D03*
D25*
X154500000Y-77960000D03*
D26*
X154500000Y-70690000D03*
D14*
X100000000Y-71540000D03*
D15*
X100000000Y-69000000D03*
X100000000Y-66460000D03*
D16*
X105000000Y-102500000D03*
D13*
X132580000Y-81500000D03*
D17*
X122420000Y-81500000D03*
D16*
X145500000Y-98000000D03*
D13*
X197500000Y-87250000D03*
X197500000Y-83750000D03*
X106000000Y-66500000D03*
X106000000Y-71500000D03*
X125750000Y-99000000D03*
X129250000Y-99000000D03*
D18*
X92500000Y-95000000D03*
D19*
X92500000Y-95000000D03*
D16*
X213500000Y-62500000D03*
D13*
X123000000Y-69500000D03*
X123000000Y-64500000D03*
D11*
X213915000Y-82500000D03*
D12*
X208835000Y-82500000D03*
D20*
X183750000Y-99000000D03*
X161250000Y-99000000D03*
D16*
X91000000Y-102500000D03*
D13*
X95080000Y-88500000D03*
D17*
X84920000Y-88500000D03*
D13*
X113000000Y-103580000D03*
D17*
X113000000Y-93420000D03*
D16*
X218000000Y-102500000D03*
X200000000Y-102500000D03*
X81500000Y-78000000D03*
D13*
X110000000Y-93420000D03*
D17*
X110000000Y-103580000D03*
D16*
X209000000Y-102500000D03*
D13*
X187000000Y-103580000D03*
D17*
X187000000Y-93420000D03*
D23*
X145500000Y-94310000D03*
D24*
X145500000Y-87040000D03*
D25*
X145500000Y-77960000D03*
D26*
X145500000Y-70690000D03*
D13*
X134000000Y-72750000D03*
X134000000Y-69250000D03*
D16*
X82000000Y-102500000D03*
D13*
X194000000Y-66500000D03*
X194000000Y-71500000D03*
X208500000Y-71000000D03*
X213500000Y-71000000D03*
X177580000Y-88500000D03*
D17*
X167420000Y-88500000D03*
D20*
X102500000Y-96750000D03*
X102500000Y-74250000D03*
D13*
X128920000Y-78000000D03*
D17*
X139080000Y-78000000D03*
D13*
X114750000Y-88500000D03*
X118250000Y-88500000D03*
%LPD*%
M02*
